<?xml version="1.0" encoding="UTF-8" standalone="no"?>
<!DOCTYPE svg PUBLIC "-//W3C//DTD SVG 1.1//EN" "http://www.w3.org/Graphics/SVG/1.1/DTD/svg11.dtd">
<svg width="3508px" height="2481px" version="1.1" xmlns="http://www.w3.org/2000/svg" xmlns:xlink="http://www.w3.org/1999/xlink" xml:space="preserve" xmlns:serif="http://www.serif.com/" style="fill-rule:evenodd;clip-rule:evenodd;stroke-linecap:round;stroke-linejoin:round;stroke-miterlimit:1.5;">
    <g id="Boden" transform="matrix(-1,0,0,1,1228.35,0)">
        <path d="M356.693,2025.59L356.693,2028.54L342.52,2058.81L342.52,2180.32L348.425,2180.32L342.52,2196.85L342.52,2352.76L337.795,2369.29L357.874,2369.29L382.677,2359.84L382.677,2300.12L385.039,2307.21L800.787,2256.39L806.49,2254.28L806.909,2219.72L809.441,2217.18L819.566,2217.09L822.61,2220.2L823.386,2244.81L826.772,2244.09L838.583,2232.28L863.826,2282.94L863.826,2295.84L842.404,2364.57L847.676,2374.02L845.583,2385.47L224.409,2385.84L224.409,2339.32L236.22,2303.15L236.22,2221.65L257.48,2196.85L257.48,2219.29C249.559,2234.27 249.265,2248.73 257.48,2248.82L259.843,2303.15L259.843,2314.96L253.937,2338.95L278.74,2344.49L305.906,2339.31L302.362,2314.96L302,2303.15L307.087,2291.34C309.514,2192.77 325.475,2070.68 332.709,1969.85L338.614,1958.04L341.567,1960.63L341.567,2025.59L356.693,2025.59Z" style="fill:rgb(169,158,161);stroke:rgb(35,31,32);stroke-width:0.42px;"/>
    </g>
    <g transform="matrix(-0.795268,0,0,1.12351,1455.93,-1044.48)">
        <path d="M1081.79,1524.89C1099.88,1566.64 1097.88,1608.73 1134.17,1610.24L1830.74,1610.24L1830.74,1579.62C1830.74,1579.62 1205.4,1579.69 1150.15,1578.49C1131.43,1578.08 1132.42,1526.77 1104.04,1494.97C1087.26,1476.16 996.825,1478.84 976.87,1505.89C910.027,1635.06 902.798,1715.94 844.244,1854.87C694.387,2210.41 612.906,2601.43 612.906,3011.81L663.577,3011.81C663.577,2595.55 735.452,2208.54 885.473,1854.87C940.961,1724.05 943.857,1647.79 1010.76,1526.91C1022.12,1506.39 1074.69,1508.49 1081.79,1524.89Z" style="fill:rgb(14,191,255);fill-opacity:0.36;"/>
    </g>
    <g transform="matrix(-1,0,0,1,1240.16,1057.09)">
        <rect x="354.331" y="1003.94" width="11.811" height="118.11" style="fill:rgb(14,191,255);fill-opacity:0.36;"/>
    </g>
    <g transform="matrix(-1,0,0,1,1263.78,1192.91)">
        <rect x="377.953" y="1003.94" width="11.811" height="153.543" style="fill:rgb(14,191,255);fill-opacity:0.36;"/>
    </g>
    <g transform="matrix(-1,0,0,5.33333,1316.93,-10381.9)">
        <rect x="1009.84" y="2125.98" width="614.173" height="248.031" style="fill:rgb(14,191,255);fill-opacity:0.36;"/>
        <path d="M1624.02,2125.98L1009.84,2125.98L1009.84,2374.02L1624.02,2374.02L1624.02,2125.98ZM1623.6,2126.06L1623.6,2373.94L1010.26,2373.94L1010.26,2126.06L1623.6,2126.06Z" style="fill:rgb(35,31,32);"/>
    </g>
    <g id="Spraydeckel" transform="matrix(1,0,0,1,-2,0)">
        <path d="M868.368,2024.34L880.512,2024.4L886.236,2013.78L886.236,2000.2L868.929,2004.33L864.205,2013.19L822.866,2013.19L822.866,2024.45L868.368,2024.34Z" style="fill:rgb(142,129,132);"/>
    </g>
    <g id="Innendiffusor" transform="matrix(1,0,0,1,-2,0)">
        <path d="M444.201,2024.32L881.631,2024.4L884.236,2021.83L884.236,2012.86L876.484,2012.86L866.84,1949.73L861.854,1960.1L862.623,2005.9L852.551,2015.19L471.939,2015.19L456.22,2004.41L448.236,1955.04L444.201,1953.58L444.201,2024.32Z" style="fill:rgb(35,31,32);"/>
    </g>
    <g id="Hausnummernkreis" transform="matrix(1.6005,0,0,1.6005,-986.047,-705.768)">
        <circle cx="1651.44" cy="1179.38" r="430.231" style="fill:rgb(138,147,36);"/>
    </g>
    <g id="Hausnummernkreis1" serif:id="Hausnummernkreis" transform="matrix(1.08713,0,0,1.08713,-138.249,-100.313)">
        <circle cx="1651.44" cy="1179.38" r="430.231" style="fill:rgb(91,91,91);"/>
    </g>
    <g id="Hausnummer" transform="matrix(1.16967,0,0,1.16967,-991.368,350.632)">
        <path d="M2271.76,602.953L2235.46,602.953L2179.06,526.453L2142.76,526.453L2142.76,602.953L2110.96,602.953L2110.96,404.953L2183.26,404.953C2223.46,404.953 2250.46,429.553 2250.46,465.553C2250.46,491.653 2236.06,512.353 2212.36,521.353L2271.76,602.953ZM2142.76,433.153L2142.76,498.253L2182.66,498.253C2205.16,498.253 2217.76,484.753 2217.76,465.853C2217.76,446.653 2205.16,433.153 2182.66,433.153L2142.76,433.153ZM2339.26,606.253C2286.76,606.253 2263.66,558.853 2263.66,502.153C2263.66,444.853 2287.66,401.653 2339.26,401.653C2390.86,401.653 2414.56,444.853 2414.56,502.153C2414.56,558.853 2391.46,606.253 2339.26,606.253ZM2339.26,577.153C2369.56,577.153 2381.56,546.853 2381.56,502.453C2381.56,458.653 2369.56,430.753 2339.26,430.753C2308.66,430.753 2296.66,458.653 2296.66,502.453C2296.66,546.853 2308.66,577.153 2339.26,577.153ZM2436.16,606.253C2422.96,606.253 2412.46,596.653 2412.46,583.153C2412.46,569.653 2422.96,559.753 2436.16,559.753C2449.06,559.753 2459.26,569.653 2459.26,583.153C2459.26,596.653 2449.06,606.253 2436.16,606.253ZM2182.38,653.053L2212.68,653.053L2212.68,1016.65L2117.93,1016.65L2117.93,765.437L2056.23,785.82L2033.64,702.083L2182.38,653.053ZM2411.01,653.053L2441.31,653.053L2441.31,1016.65L2346.55,1016.65L2346.55,765.437L2284.85,785.82L2262.26,702.083L2411.01,653.053Z" style="fill:white;"/>
    </g>
    <path id="Nubsies" d="M2625.51,857.276L2672.18,857.276C2698.5,857.276 2713.24,873.066 2713.24,895.524C2713.24,917.631 2698.5,933.421 2672.18,933.421L2625.51,933.421L2625.51,857.276ZM2855.35,1025.71C2819.56,1025.71 2805.52,990.267 2805.52,938.334C2805.52,887.102 2819.56,854.469 2855.35,854.469C2890.79,854.469 2904.83,887.102 2904.83,938.334C2904.83,990.267 2890.79,1025.71 2855.35,1025.71Z" style="fill:rgb(99,193,95);stroke:white;stroke-width:1px;stroke-linecap:butt;stroke-miterlimit:2;"/>
    <path id="HausnummerndeckelAusschnitt" d="M551.266,633.958L546.257,613.544L520.827,613.134L511.999,583.828L711.562,583.828L732.955,645.081C732.955,645.081 729.05,662.996 730.761,664.897C757.477,735.824 789.076,849.507 807.763,960.861C815.283,1005.67 810.307,1079.39 810.307,1079.39L797.912,1092.16L793.433,1042.51L792.76,988.647C789.758,906.692 762.056,823.278 740.798,746.817L701.154,650.175L691.612,621.514L560.599,620.941L551.266,633.958Z" style="fill:rgb(127,127,127);"/>
    <g id="Hausnummernreflektor" transform="matrix(1,0,0,1,17.7168,0)">
        <path d="M683.437,839.711L596.631,838.993L595.854,789.979L603.034,778.223L622.252,771.104L629.098,771.104L629.098,682.589L639.545,715.933L650.659,774.465L663.69,796.272L660.271,813.719L661.417,819.493L664.121,823.779L669.247,827.634L675.346,828.795L679.212,828.58L683.437,839.711Z" style="fill:rgb(128,127,127);"/>
    </g>
    <g id="Abstandhalter" transform="matrix(0.380145,0,0,1,431.559,74.7149)">
        <path d="M571.636,929.883L571.636,785.356L488.918,774.438L482.387,765.996L625.256,765.996L625.256,929.883L598.446,956.693L571.636,929.883Z" style="fill:rgb(128,127,127);"/>
    </g>
    <path id="Hauptreflektor" d="M648.864,1011.92L659.055,1033.99L669.247,1011.92L736.019,1011.92L745.626,1053.18L739.999,1053.96C735.733,1053.44 732.655,1051.56 731.147,1047.87L727.259,1026.49L725.686,1026.59L726.128,1034.73C726.296,1037.88 724.328,1040.55 720.835,1042.87L433.881,1081.89L433.881,2254.26L423.881,2251.86L423.881,2214.08L402.691,2214.03L402.691,2242.39L389.896,2229.6L389.472,2196.85L406.578,2123.74L405.881,1011.92L648.864,1011.92Z" style="fill:rgb(163,162,162);"/>
    <g id="ObererRing2" transform="matrix(1.85983,0,0,1.85983,-630.7,-915.741)">
        <path d="M738.019,1061.16L724.593,1061.16L732.31,1101.21L735.612,1104.26L731.2,1068.24L733.586,1068.24L734.974,1072.23L740.543,1077.62L738.019,1061.16Z" style="fill:rgb(55,201,50);"/>
    </g>
    <g id="ObererRing" transform="matrix(1.85983,0,0,1.85983,-630.7,-805.164)">
        <path d="M738.019,1061.16L724.593,1061.16L726.673,1084.59L731.602,1089.52L731.987,1068.25L734.187,1068.18L736.258,1079.53L740.028,1071.56L738.019,1061.16Z" style="fill:rgb(55,201,50);"/>
    </g>
    <path d="M874.016,2009.79L731.273,1071" style="fill:none;stroke:rgb(36,147,36);stroke-width:1.25px;"/>
    <g transform="matrix(1,0,0,1,60,0)">
        <path d="M877.296,2018.38L745.626,1061.16" style="fill:none;stroke:rgb(36,147,36);stroke-width:1.25px;"/>
    </g>
    <g id="Hausnummernscheibe" transform="matrix(1,0,0,1,0,-4)">
        <path d="M0,609.941L0,638.464L548.666,638.464L543.467,619.941L529.09,619.941L518.503,626.34L506.513,619.941L514.557,600.482L502.135,558.219L481.56,558.219L468.027,609.941L0,609.941Z" style="fill:rgb(50,105,201);"/>
    </g>
    <g id="Von-Oben" serif:id="Von Oben" transform="matrix(1,0,0,1,1021.84,1476.69)">
        <g id="Hauptdurchmesser" transform="matrix(1.13337,0,0,1.13337,-181.304,-1770.76)">
            <circle cx="1681.94" cy="1936.41" r="353.922" style="fill:rgb(151,138,141);"/>
        </g>
        <g id="Engste-Stelle" serif:id="Engste Stelle" transform="matrix(1.05121,0,0,1.05121,-43.1266,-1611.68)">
            <circle cx="1681.94" cy="1936.41" r="353.922" style="fill:rgb(14,12,13);"/>
        </g>
        <g id="Mitte" transform="matrix(0.0333719,0,0,0.0333719,1668.82,359.278)">
            <circle cx="1681.94" cy="1936.41" r="353.922" style="fill:rgb(14,12,13);"/>
        </g>
        <g transform="matrix(0.826317,0,0,0.717401,141.258,-788.288)">
            <path d="M1847.94,1319.26L1847.94,2060.13L1634.11,2060.13L1619.24,2043L1619.24,1336.54L1634.24,1319.26L1847.94,1319.26Z" style="fill:rgb(231,232,233);"/>
        </g>
        <g transform="matrix(1,0,0,-0.863636,60.4294,1938.36)">
            <g transform="matrix(0.524202,0,0,1.21524,645.84,592.584)">
                <rect x="1947.77" y="634.639" width="27.038" height="641.46" style="fill:rgb(218,49,49);"/>
            </g>
            <g transform="matrix(1.72945,0,0,2.97875,-1293.66,-3221.14)">
                <rect x="1720.03" y="1709.78" width="150.246" height="22.273" style="fill:rgb(133,133,133);"/>
            </g>
            <g transform="matrix(0.235834,0,0,34.9985,1225.79,-58475.8)">
                <rect x="1720.03" y="1709.78" width="150.246" height="22.273" style="fill:rgb(133,133,133);"/>
            </g>
        </g>
        <g transform="matrix(5.6948e-17,-0.930032,0.391627,2.39802e-17,1253.15,3135.86)">
            <rect x="2571.93" y="1120.22" width="688.11" height="90.477" style="fill:rgb(53,221,112);"/>
        </g>
        <g transform="matrix(8.27729e-17,-0.978373,-0.261084,-1.0863e-17,1984.33,3276.82)">
            <rect x="2571.93" y="1120.22" width="688.11" height="90.477" style="fill:rgb(53,221,112);"/>
        </g>
        <g transform="matrix(0.889755,0,0,-1.07721,186.696,890.103)">
            <path d="M1719.1,42.727L1719.1,132.955L1698.92,132.955L1693.91,117.062L1662.87,117.062L1659.12,135.74L1637.55,135.74L1637.55,42.727L1719.1,42.727Z" style="fill:rgb(75,53,221);fill-opacity:0.78;"/>
        </g>
        <g transform="matrix(0.889755,0,0,1.07721,186.696,-42.3029)">
            <path d="M1719.1,42.727L1719.1,132.955L1698.92,132.955L1693.91,117.062L1662.87,117.062L1659.12,135.74L1637.55,135.74L1637.55,42.727L1719.1,42.727Z" style="fill:rgb(75,53,221);fill-opacity:0.78;"/>
        </g>
        <g id="InlayRand" transform="matrix(1.21779,0,0,1.21779,-323.303,-1934.25)">
            <path d="M1681.94,1582.49C1877.28,1582.49 2035.86,1741.08 2035.86,1936.41C2035.86,2131.74 1877.28,2290.33 1681.94,2290.33C1486.61,2290.33 1328.02,2131.74 1328.02,1936.41C1328.02,1741.08 1486.61,1582.49 1681.94,1582.49ZM1983.7,1888.45C1960.66,1742.58 1834.24,1630.9 1681.94,1630.9C1513.33,1630.9 1376.43,1767.79 1376.43,1936.41C1376.43,2105.03 1513.33,2241.92 1681.94,2241.92C1836.88,2241.92 1965.03,2126.33 1984.81,1976.76L1992.49,1976.76L1992.49,1888.45L1983.7,1888.45Z" style="fill:rgb(35,125,104);"/>
        </g>
        <g id="Inlay" transform="matrix(0.587222,0,0,1,242.529,-1476.69)">
            <path d="M2524.47,1507.24C2894.17,1507.24 3194.32,1683.49 3194.32,1900.59C3194.32,2117.68 2894.17,2293.93 2524.47,2293.93C2154.77,2293.93 1854.62,2117.68 1854.62,1900.59C1854.62,1683.49 2154.77,1507.24 2524.47,1507.24ZM3145.22,1825.83C3086.22,1656.27 2830.55,1528.54 2524.47,1528.54C2519.53,1528.54 2514.61,1528.57 2509.7,1528.64L2509.7,1577.61L2479.12,1577.61L2471.52,1560.49L2424.49,1560.49L2418.8,1580.61L2386.12,1580.61L2386.12,1537.45C2102.88,1574.56 1890.9,1723.15 1890.9,1900.59C1890.9,2078.02 2102.88,2226.62 2386.12,2263.72L2386.12,2220.57L2418.8,2220.57L2424.49,2240.69L2471.52,2240.69L2479.12,2223.57L2509.7,2223.57L2509.7,2272.53C2514.61,2272.6 2519.53,2272.63 2524.47,2272.63C2837.12,2272.63 3097.18,2139.36 3148.75,1964.36L3063.07,1964.36L3063.07,1825.83L3145.22,1825.83ZM3168.49,1842.18L3084.79,1842.18L3084.79,1950.73L3168.49,1950.73L3168.49,1842.18Z" style="fill:rgb(99,182,212);"/>
        </g>
    </g>
    <g id="Netzteil" transform="matrix(0.852139,0,0,1.7377,-1267.61,-1229.5)">
        <rect x="1619.24" y="1319.26" width="228.697" height="740.863" style="fill:rgb(231,232,233);"/>
    </g>
    <g id="Halterplatte" transform="matrix(6.12323e-17,-1,1,6.12323e-17,1386.95,3317.55)">
        <g id="Durchgehend" transform="matrix(0.952689,0,0,1.02932,121.267,-60.0553)">
            <path d="M3229.97,619.866L3301.61,619.866L3312.1,644.135L3312.1,2021.45L3301.61,2047.93L2615.94,2047.93L2605.44,2021.24L2605.44,644.135L2615.94,619.866L2673.15,619.866L2673.15,661.381L3229.97,661.381L3229.97,619.866ZM3262.51,1984.77C3252.22,1984.77 3243.86,1992.5 3243.86,2002.03C3243.86,2011.56 3252.22,2019.29 3262.51,2019.29C3272.81,2019.29 3281.17,2011.56 3281.17,2002.03C3281.17,1992.5 3272.81,1984.77 3262.51,1984.77ZM2654.89,1984.77C2644.6,1984.77 2636.06,1992.5 2635.84,2002.03C2635.61,2011.56 2643.79,2019.29 2654.09,2019.29C2664.38,2019.29 2672.92,2011.56 2673.14,2002.03C2673.37,1992.5 2665.19,1984.77 2654.89,1984.77ZM3173.87,1959.62C3160.91,1959.94 3149.54,1970.46 3148.49,1983.11C3149.54,1996.38 3160.91,2006.91 3173.87,2006.59C3188.92,2006.91 3200.29,1996.38 3199.24,1983.11C3200.29,1970.46 3188.92,1959.94 3173.87,1959.62ZM2654.89,1199.64C2644.6,1199.64 2636.06,1207.38 2635.84,1216.91C2635.61,1226.44 2643.79,1234.17 2654.09,1234.17C2664.38,1234.17 2672.92,1226.44 2673.14,1216.91C2673.37,1207.38 2665.19,1199.64 2654.89,1199.64ZM2654.89,1319.56C2644.6,1319.56 2636.06,1327.3 2635.84,1336.82C2635.61,1346.35 2643.79,1354.09 2654.09,1354.09C2664.38,1354.09 2672.92,1346.35 2673.14,1336.82C2673.37,1327.3 2665.19,1319.56 2654.89,1319.56ZM2698.52,682.996C2684.52,682.996 2673.15,693.519 2673.15,706.482C2673.15,719.444 2684.52,729.968 2698.52,729.968C2712.53,729.968 2723.9,719.444 2723.9,706.482C2723.9,693.519 2712.53,682.996 2698.52,682.996ZM3262.51,1199.64C3252.22,1199.64 3243.86,1207.38 3243.86,1216.91C3243.86,1226.44 3252.22,1234.17 3262.51,1234.17C3272.81,1234.17 3281.17,1226.44 3281.17,1216.91C3281.17,1207.38 3272.81,1199.64 3262.51,1199.64ZM3262.51,1319.56C3252.22,1319.56 3243.86,1327.3 3243.86,1336.82C3243.86,1346.35 3252.22,1354.09 3262.51,1354.09C3272.81,1354.09 3281.17,1346.35 3281.17,1336.82C3281.17,1327.3 3272.81,1319.56 3262.51,1319.56Z" style="fill:rgb(74,66,68);"/>
        </g>
        <g id="Aufbau" transform="matrix(0.952689,0,0,1.02932,121.267,-60.0553)">
            <path d="M3294.64,1234.55C3288.07,1245 3275.83,1252.03 3261.83,1252.03C3240.88,1252.03 3223.87,1236.29 3223.87,1216.91C3223.87,1197.52 3240.88,1181.78 3261.83,1181.78C3275.83,1181.78 3288.07,1188.81 3294.64,1199.27L3294.64,1234.55ZM3262.51,1199.64C3252.22,1199.64 3243.86,1207.38 3243.86,1216.91C3243.86,1226.44 3252.22,1234.17 3262.51,1234.17C3272.81,1234.17 3281.17,1226.44 3281.17,1216.91C3281.17,1207.38 3272.81,1199.64 3262.51,1199.64ZM3294.64,797.192L3249.59,797.192L3249.59,729.767L3294.64,729.767L3294.64,797.192ZM3294.64,2019.15C3288.07,2029.61 3275.83,2036.64 3261.83,2036.64C3240.88,2036.64 3223.87,2020.9 3223.87,2001.51C3223.87,1982.13 3240.88,1966.39 3261.83,1966.39C3275.83,1966.39 3288.07,1973.42 3294.64,1983.87L3294.64,2019.15ZM3262.51,1984.77C3252.22,1984.77 3243.86,1992.5 3243.86,2002.03C3243.86,2011.56 3252.22,2019.29 3262.51,2019.29C3272.81,2019.29 3281.17,2011.56 3281.17,2002.03C3281.17,1992.5 3272.81,1984.77 3262.51,1984.77ZM3294.64,1353.48C3288.07,1363.93 3275.83,1370.97 3261.83,1370.97C3240.88,1370.97 3223.87,1355.23 3223.87,1335.84C3223.87,1316.45 3240.88,1300.71 3261.83,1300.71C3275.83,1300.71 3288.07,1307.75 3294.64,1318.2L3294.64,1353.48ZM3262.51,1319.56C3252.22,1319.56 3243.86,1327.3 3243.86,1336.82C3243.86,1346.35 3252.22,1354.09 3262.51,1354.09C3272.81,1354.09 3281.17,1346.35 3281.17,1336.82C3281.17,1327.3 3272.81,1319.56 3262.51,1319.56ZM2622.9,729.767L2672.08,729.767L2672.08,797.192L2622.9,797.192L2622.9,729.767ZM2622.9,1196.25C2629.8,1187.48 2640.98,1181.78 2653.59,1181.78C2674.54,1181.78 2691.54,1197.52 2691.54,1216.91C2691.54,1236.29 2674.54,1252.03 2653.59,1252.03C2640.98,1252.03 2629.8,1246.33 2622.9,1237.56L2622.9,1196.25ZM2654.89,1199.64C2644.6,1199.64 2636.06,1207.38 2635.84,1216.91C2635.61,1226.44 2643.79,1234.17 2654.09,1234.17C2664.38,1234.17 2672.92,1226.44 2673.14,1216.91C2673.37,1207.38 2665.19,1199.64 2654.89,1199.64ZM2622.9,1315.18C2629.8,1306.42 2640.98,1300.71 2653.59,1300.71C2674.54,1300.71 2691.54,1316.45 2691.54,1335.84C2691.54,1355.23 2674.54,1370.97 2653.59,1370.97C2640.98,1370.97 2629.8,1365.26 2622.9,1356.5L2622.9,1315.18ZM2654.89,1319.56C2644.6,1319.56 2636.06,1327.3 2635.84,1336.82C2635.61,1346.35 2643.79,1354.09 2654.09,1354.09C2664.38,1354.09 2672.92,1346.35 2673.14,1336.82C2673.37,1327.3 2665.19,1319.56 2654.89,1319.56ZM2622.9,1980.86C2629.8,1972.09 2640.98,1966.39 2653.59,1966.39C2674.54,1966.39 2691.54,1982.13 2691.54,2001.51C2691.54,2020.9 2674.54,2036.64 2653.59,2036.64C2640.98,2036.64 2629.8,2030.94 2622.9,2022.17L2622.9,1980.86ZM2654.89,1984.77C2644.6,1984.77 2636.06,1992.5 2635.84,2002.03C2635.61,2011.56 2643.79,2019.29 2654.09,2019.29C2664.38,2019.29 2672.92,2011.56 2673.14,2002.03C2673.37,1992.5 2665.19,1984.77 2654.89,1984.77Z" style="fill:rgb(134,116,214);"/>
        </g>
    </g>
</svg>
