<?xml version="1.0" encoding="UTF-8" standalone="no"?>
<!DOCTYPE svg PUBLIC "-//W3C//DTD SVG 1.1//EN" "http://www.w3.org/Graphics/SVG/1.1/DTD/svg11.dtd">
<svg width="3508px" height="2481px" version="1.1" xmlns="http://www.w3.org/2000/svg" xmlns:xlink="http://www.w3.org/1999/xlink" xml:space="preserve" xmlns:serif="http://www.serif.com/" style="fill-rule:evenodd;clip-rule:evenodd;stroke-linecap:round;stroke-linejoin:round;stroke-miterlimit:1.5;">
    <g id="Halterplatte">
        <g id="Durchgehend" transform="matrix(0.952689,0,0,1.02932,121.267,-60.0553)">
            <path d="M3229.97,619.866L3297.41,619.866L3311.05,663.565L3311.05,2002.02L3297.41,2047.93L2620.14,2047.93L2606.49,2001.81L2606.49,663.565L2620.14,619.866L2673.15,619.866L2673.15,661.381L3229.97,661.381L3229.97,619.866ZM2654.2,1313.58C2640.17,1313.58 2628.79,1324.12 2628.79,1337.1C2628.79,1350.09 2640.17,1360.63 2654.2,1360.63C2668.23,1360.63 2679.62,1350.09 2679.62,1337.1C2679.62,1324.12 2668.23,1313.58 2654.2,1313.58ZM3262.73,1313.58C3248.7,1313.58 3237.32,1324.12 3237.32,1337.1C3237.32,1350.09 3248.7,1360.63 3262.73,1360.63C3276.76,1360.63 3288.15,1350.09 3288.15,1337.1C3288.15,1324.12 3276.76,1313.58 3262.73,1313.58ZM2746.62,796.253C2732.82,796.253 2721.61,806.786 2721.61,819.76C2721.61,832.734 2732.82,843.268 2746.62,843.268C2760.43,843.268 2771.64,832.734 2771.64,819.76C2771.64,806.786 2760.43,796.253 2746.62,796.253ZM2654.2,1169.47C2640.17,1169.47 2628.79,1180.01 2628.79,1192.99C2628.79,1205.98 2640.17,1216.52 2654.2,1216.52C2668.23,1216.52 2679.62,1205.98 2679.62,1192.99C2679.62,1180.01 2668.23,1169.47 2654.2,1169.47ZM3262.73,1169.47C3248.7,1169.47 3237.32,1180.01 3237.32,1192.99C3237.32,1205.98 3248.7,1216.52 3262.73,1216.52C3276.76,1216.52 3288.15,1205.98 3288.15,1192.99C3288.15,1180.01 3276.76,1169.47 3262.73,1169.47ZM2654.2,1978.59C2640.17,1978.59 2628.79,1989.13 2628.79,2002.12C2628.79,2015.1 2640.17,2025.64 2654.2,2025.64C2668.23,2025.64 2679.62,2015.1 2679.62,2002.12C2679.62,1989.13 2668.23,1978.59 2654.2,1978.59ZM3262.73,1978.59C3248.7,1978.59 3237.32,1989.13 3237.32,2002.12C3237.32,2015.1 3248.7,2025.64 3262.73,2025.64C3276.76,2025.64 3288.15,2015.1 3288.15,2002.12C3288.15,1989.13 3276.76,1978.59 3262.73,1978.59ZM3173.87,1920.76C3160.91,1921.08 3149.54,1931.6 3148.49,1944.25C3149.54,1957.52 3160.91,1968.05 3173.87,1967.73C3188.92,1968.05 3200.29,1957.52 3199.24,1944.25C3200.29,1931.6 3188.92,1921.08 3173.87,1920.76ZM3186.36,1115.86L3186.36,791.539L3113.15,723.776L2873.91,723.776L2838.02,758.658L2838.02,853.496L2737.01,946.981L2737.01,1115.86L2810.23,1183.62L3113.15,1183.62L3186.36,1115.86ZM3186.36,1843.98L3186.36,1416.44L3113.15,1348.68L2810.23,1348.68L2737.01,1416.44L2737.01,1911.99L2810.23,1979.75L3039.67,1979.75L3186.36,1843.98Z" style="fill:rgb(74,66,68);stroke:black;stroke-width:2.73px;"/>
        </g>
        <g id="Aufbau" transform="matrix(1,0,0,1,4.38522,6.96346)">
            <path d="M3252.74,1343.34C3245.24,1349.53 3235.62,1353.25 3225.14,1353.25C3201.19,1353.25 3181.75,1333.81 3181.75,1309.86C3181.75,1285.91 3201.19,1266.47 3225.14,1266.47C3235.62,1266.47 3245.24,1270.19 3252.74,1276.39L3252.74,1343.34ZM3225.25,1285.08C3211.89,1285.08 3201.04,1295.93 3201.04,1309.3C3201.04,1322.66 3211.89,1333.51 3225.25,1333.51C3238.61,1333.51 3249.46,1322.66 3249.46,1309.3C3249.46,1295.93 3238.61,1285.08 3225.25,1285.08ZM2615.69,684.148L2662.54,684.148L2662.54,753.551L2615.69,753.551L2615.69,684.148ZM3255.65,753.551L3212.73,753.551L3212.73,684.148L3255.65,684.148L3255.65,753.551ZM3252.74,2027.05C3245.24,2033.24 3235.62,2036.96 3225.14,2036.96C3201.19,2036.96 3181.75,2017.52 3181.75,1993.57C3181.75,1969.62 3201.19,1950.18 3225.14,1950.18C3235.62,1950.18 3245.24,1953.9 3252.74,1960.1L3252.74,2027.05ZM3225.25,1969.6C3211.89,1969.6 3201.04,1980.45 3201.04,1993.81C3201.04,2007.17 3211.89,2018.02 3225.25,2018.02C3238.61,2018.02 3249.46,2007.17 3249.46,1993.81C3249.46,1980.45 3238.61,1969.6 3225.25,1969.6ZM3252.74,1193.9C3245.24,1200.09 3235.62,1203.81 3225.14,1203.81C3201.19,1203.81 3181.75,1184.37 3181.75,1160.42C3181.75,1136.47 3201.19,1117.03 3225.14,1117.03C3235.62,1117.03 3245.24,1120.75 3252.74,1126.95L3252.74,1193.9ZM3225.25,1136.75C3211.89,1136.75 3201.04,1147.6 3201.04,1160.96C3201.04,1174.32 3211.89,1185.17 3225.25,1185.17C3238.61,1185.17 3249.46,1174.32 3249.46,1160.96C3249.46,1147.6 3238.61,1136.75 3225.25,1136.75ZM2618.69,2027.05L2618.69,1960.1C2626.19,1953.9 2635.81,1950.18 2646.28,1950.18C2670.23,1950.18 2689.68,1969.62 2689.68,1993.57C2689.68,2017.52 2670.23,2036.96 2646.28,2036.96C2635.81,2036.96 2626.19,2033.24 2618.69,2027.05ZM2645.51,1969.6C2632.15,1969.6 2621.3,1980.45 2621.3,1993.81C2621.3,2007.17 2632.15,2018.02 2645.51,2018.02C2658.87,2018.02 2669.72,2007.17 2669.72,1993.81C2669.72,1980.45 2658.87,1969.6 2645.51,1969.6ZM2618.69,1193.9L2618.69,1126.95C2626.19,1120.75 2635.81,1117.03 2646.28,1117.03C2670.23,1117.03 2689.68,1136.47 2689.68,1160.42C2689.68,1184.37 2670.23,1203.81 2646.28,1203.81C2635.81,1203.81 2626.19,1200.09 2618.69,1193.9ZM2645.51,1136.75C2632.15,1136.75 2621.3,1147.6 2621.3,1160.96C2621.3,1174.32 2632.15,1185.17 2645.51,1185.17C2658.87,1185.17 2669.72,1174.32 2669.72,1160.96C2669.72,1147.6 2658.87,1136.75 2645.51,1136.75ZM2618.69,1343.34L2618.69,1276.39C2626.19,1270.19 2635.81,1266.47 2646.28,1266.47C2670.23,1266.47 2689.68,1285.91 2689.68,1309.86C2689.68,1333.81 2670.23,1353.25 2646.28,1353.25C2635.81,1353.25 2626.19,1349.53 2618.69,1343.34ZM2645.51,1285.08C2632.15,1285.08 2621.3,1295.93 2621.3,1309.3C2621.3,1322.66 2632.15,1333.51 2645.51,1333.51C2658.87,1333.51 2669.72,1322.66 2669.72,1309.3C2669.72,1295.93 2658.87,1285.08 2645.51,1285.08Z" style="fill:rgb(221,53,53);fill-opacity:0.55;"/>
        </g>
    </g>
</svg>
