%TF.GenerationSoftware,KiCad,Pcbnew,7.0.9*%
%TF.CreationDate,2024-01-16T00:09:28+01:00*%
%TF.ProjectId,JLCPCB,4a4c4350-4342-42e6-9b69-6361645f7063,1*%
%TF.SameCoordinates,Original*%
%TF.FileFunction,Soldermask,Bot*%
%TF.FilePolarity,Negative*%
%FSLAX46Y46*%
G04 Gerber Fmt 4.6, Leading zero omitted, Abs format (unit mm)*
G04 Created by KiCad (PCBNEW 7.0.9) date 2024-01-16 00:09:28*
%MOMM*%
%LPD*%
G01*
G04 APERTURE LIST*
G04 APERTURE END LIST*
G36*
X137935061Y-105919089D02*
G01*
X137991157Y-105919089D01*
X138008196Y-105924092D01*
X138021612Y-105925010D01*
X138070527Y-105942394D01*
X138127708Y-105959184D01*
X138140002Y-105967085D01*
X138149774Y-105970558D01*
X138194176Y-106001900D01*
X138247430Y-106036125D01*
X138254941Y-106044793D01*
X138260889Y-106048992D01*
X138296380Y-106092616D01*
X138340627Y-106143680D01*
X138344086Y-106151255D01*
X138346727Y-106154501D01*
X138369275Y-106206411D01*
X138399746Y-106273134D01*
X138400482Y-106278257D01*
X138400916Y-106279255D01*
X138407205Y-106325012D01*
X138420000Y-106414000D01*
X138420000Y-107014000D01*
X138419732Y-107015860D01*
X138415344Y-107080004D01*
X138405414Y-107115444D01*
X138399746Y-107154866D01*
X138385832Y-107185331D01*
X138378088Y-107212974D01*
X138358496Y-107245191D01*
X138340627Y-107284320D01*
X138320757Y-107307251D01*
X138307417Y-107329188D01*
X138277700Y-107356940D01*
X138247430Y-107391875D01*
X138224551Y-107406578D01*
X138208014Y-107422023D01*
X138169325Y-107442070D01*
X138127708Y-107468816D01*
X138104632Y-107475591D01*
X138087249Y-107484599D01*
X138041767Y-107494050D01*
X137991157Y-107508911D01*
X137970257Y-107508911D01*
X137954083Y-107512272D01*
X137904953Y-107508911D01*
X137848843Y-107508911D01*
X137831799Y-107503906D01*
X137818387Y-107502989D01*
X137769482Y-107485608D01*
X137712292Y-107468816D01*
X137699995Y-107460913D01*
X137690225Y-107457441D01*
X137645828Y-107426102D01*
X137592570Y-107391875D01*
X137585057Y-107383205D01*
X137579110Y-107379007D01*
X137543616Y-107335380D01*
X137499373Y-107284320D01*
X137495913Y-107276745D01*
X137493272Y-107273498D01*
X137470713Y-107221562D01*
X137440254Y-107154866D01*
X137439517Y-107149744D01*
X137439083Y-107148744D01*
X137432782Y-107102903D01*
X137420000Y-107014000D01*
X137420000Y-106414000D01*
X137420267Y-106412141D01*
X137424655Y-106347995D01*
X137434587Y-106312545D01*
X137440254Y-106273134D01*
X137454163Y-106242675D01*
X137461911Y-106215025D01*
X137481508Y-106182797D01*
X137499373Y-106143680D01*
X137519237Y-106120755D01*
X137532582Y-106098811D01*
X137562308Y-106071048D01*
X137592570Y-106036125D01*
X137615441Y-106021426D01*
X137631985Y-106005976D01*
X137670686Y-105985922D01*
X137712292Y-105959184D01*
X137735361Y-105952410D01*
X137752750Y-105943400D01*
X137798246Y-105933945D01*
X137848843Y-105919089D01*
X137869738Y-105919089D01*
X137885916Y-105915727D01*
X137935061Y-105919089D01*
G37*
G36*
X146575061Y-105919089D02*
G01*
X146631157Y-105919089D01*
X146648196Y-105924092D01*
X146661612Y-105925010D01*
X146710527Y-105942394D01*
X146767708Y-105959184D01*
X146780002Y-105967085D01*
X146789774Y-105970558D01*
X146834176Y-106001900D01*
X146887430Y-106036125D01*
X146894941Y-106044793D01*
X146900889Y-106048992D01*
X146936380Y-106092616D01*
X146980627Y-106143680D01*
X146984086Y-106151255D01*
X146986727Y-106154501D01*
X147009275Y-106206411D01*
X147039746Y-106273134D01*
X147040482Y-106278257D01*
X147040916Y-106279255D01*
X147047205Y-106325012D01*
X147060000Y-106414000D01*
X147060000Y-107014000D01*
X147059732Y-107015860D01*
X147055344Y-107080004D01*
X147045414Y-107115444D01*
X147039746Y-107154866D01*
X147025832Y-107185331D01*
X147018088Y-107212974D01*
X146998496Y-107245191D01*
X146980627Y-107284320D01*
X146960757Y-107307251D01*
X146947417Y-107329188D01*
X146917700Y-107356940D01*
X146887430Y-107391875D01*
X146864551Y-107406578D01*
X146848014Y-107422023D01*
X146809325Y-107442070D01*
X146767708Y-107468816D01*
X146744632Y-107475591D01*
X146727249Y-107484599D01*
X146681767Y-107494050D01*
X146631157Y-107508911D01*
X146610257Y-107508911D01*
X146594083Y-107512272D01*
X146544953Y-107508911D01*
X146488843Y-107508911D01*
X146471799Y-107503906D01*
X146458387Y-107502989D01*
X146409482Y-107485608D01*
X146352292Y-107468816D01*
X146339995Y-107460913D01*
X146330225Y-107457441D01*
X146285828Y-107426102D01*
X146232570Y-107391875D01*
X146225057Y-107383205D01*
X146219110Y-107379007D01*
X146183616Y-107335380D01*
X146139373Y-107284320D01*
X146135913Y-107276745D01*
X146133272Y-107273498D01*
X146110713Y-107221562D01*
X146080254Y-107154866D01*
X146079517Y-107149744D01*
X146079083Y-107148744D01*
X146072782Y-107102903D01*
X146060000Y-107014000D01*
X146060000Y-106414000D01*
X146060267Y-106412141D01*
X146064655Y-106347995D01*
X146074587Y-106312545D01*
X146080254Y-106273134D01*
X146094163Y-106242675D01*
X146101911Y-106215025D01*
X146121508Y-106182797D01*
X146139373Y-106143680D01*
X146159237Y-106120755D01*
X146172582Y-106098811D01*
X146202308Y-106071048D01*
X146232570Y-106036125D01*
X146255441Y-106021426D01*
X146271985Y-106005976D01*
X146310686Y-105985922D01*
X146352292Y-105959184D01*
X146375361Y-105952410D01*
X146392750Y-105943400D01*
X146438246Y-105933945D01*
X146488843Y-105919089D01*
X146509738Y-105919089D01*
X146525916Y-105915727D01*
X146575061Y-105919089D01*
G37*
G36*
X73722818Y-105163756D02*
G01*
X73885154Y-105236032D01*
X74028915Y-105340481D01*
X74147818Y-105472537D01*
X74236668Y-105626428D01*
X74291579Y-105795429D01*
X74310154Y-105972154D01*
X74291579Y-106148879D01*
X74236668Y-106317880D01*
X74147818Y-106471771D01*
X74028915Y-106603827D01*
X73885154Y-106708276D01*
X73722818Y-106780552D01*
X73549003Y-106817498D01*
X73371305Y-106817498D01*
X73197490Y-106780552D01*
X73035154Y-106708276D01*
X72891393Y-106603827D01*
X72772490Y-106471771D01*
X72683640Y-106317880D01*
X72628729Y-106148879D01*
X72610154Y-105972154D01*
X72628729Y-105795429D01*
X72683640Y-105626428D01*
X72772490Y-105472537D01*
X72891393Y-105340481D01*
X73035154Y-105236032D01*
X73197490Y-105163756D01*
X73371305Y-105126810D01*
X73549003Y-105126810D01*
X73722818Y-105163756D01*
G37*
G36*
X82767060Y-104178990D02*
G01*
X82977525Y-104235384D01*
X83175000Y-104327468D01*
X83353485Y-104452444D01*
X83507556Y-104606515D01*
X83632532Y-104785000D01*
X83724616Y-104982475D01*
X83781010Y-105192940D01*
X83800000Y-105410000D01*
X83781010Y-105627060D01*
X83724616Y-105837525D01*
X83632532Y-106035000D01*
X83507556Y-106213485D01*
X83353485Y-106367556D01*
X83175000Y-106492532D01*
X82977525Y-106584616D01*
X82767060Y-106641010D01*
X82550000Y-106660000D01*
X82332940Y-106641010D01*
X82122475Y-106584616D01*
X81925000Y-106492532D01*
X81746515Y-106367556D01*
X81592444Y-106213485D01*
X81467468Y-106035000D01*
X81375384Y-105837525D01*
X81318990Y-105627060D01*
X81300000Y-105410000D01*
X81318990Y-105192940D01*
X81375384Y-104982475D01*
X81467468Y-104785000D01*
X81592444Y-104606515D01*
X81746515Y-104452444D01*
X81925000Y-104327468D01*
X82122475Y-104235384D01*
X82332940Y-104178990D01*
X82550000Y-104160000D01*
X82767060Y-104178990D01*
G37*
G36*
X132297060Y-104178990D02*
G01*
X132507525Y-104235384D01*
X132705000Y-104327468D01*
X132883485Y-104452444D01*
X133037556Y-104606515D01*
X133162532Y-104785000D01*
X133254616Y-104982475D01*
X133311010Y-105192940D01*
X133330000Y-105410000D01*
X133311010Y-105627060D01*
X133254616Y-105837525D01*
X133162532Y-106035000D01*
X133037556Y-106213485D01*
X132883485Y-106367556D01*
X132705000Y-106492532D01*
X132507525Y-106584616D01*
X132297060Y-106641010D01*
X132080000Y-106660000D01*
X131862940Y-106641010D01*
X131652475Y-106584616D01*
X131455000Y-106492532D01*
X131276515Y-106367556D01*
X131122444Y-106213485D01*
X130997468Y-106035000D01*
X130905384Y-105837525D01*
X130848990Y-105627060D01*
X130830000Y-105410000D01*
X130848990Y-105192940D01*
X130905384Y-104982475D01*
X130997468Y-104785000D01*
X131122444Y-104606515D01*
X131276515Y-104452444D01*
X131455000Y-104327468D01*
X131652475Y-104235384D01*
X131862940Y-104178990D01*
X132080000Y-104160000D01*
X132297060Y-104178990D01*
G37*
G36*
X113288270Y-101454563D02*
G01*
X113352809Y-101458599D01*
X113417223Y-101465325D01*
X113481513Y-101474742D01*
X113545679Y-101486849D01*
X113609721Y-101501647D01*
X113673640Y-101519135D01*
X113737434Y-101539314D01*
X113801104Y-101562183D01*
X113864650Y-101587742D01*
X113928072Y-101615992D01*
X113991370Y-101646933D01*
X114054544Y-101680564D01*
X114117594Y-101716886D01*
X114180520Y-101755898D01*
X114230387Y-101789011D01*
X114258026Y-101792616D01*
X115253778Y-101455113D01*
X115253783Y-101455112D01*
X115259372Y-101453218D01*
X115490181Y-102234795D01*
X114846281Y-102444711D01*
X114823399Y-102476238D01*
X114823399Y-105560430D01*
X114858546Y-105595577D01*
X115408558Y-105595577D01*
X115414466Y-105595577D01*
X115414466Y-106377154D01*
X115408558Y-106377154D01*
X113341868Y-106377154D01*
X113335960Y-106377154D01*
X113335960Y-105595577D01*
X113895544Y-105595577D01*
X113930691Y-105560430D01*
X113930691Y-104944315D01*
X113886308Y-104908298D01*
X113835343Y-104919020D01*
X113791362Y-104927305D01*
X113778192Y-104929786D01*
X113721084Y-104939285D01*
X113668940Y-104946807D01*
X113664018Y-104947517D01*
X113606995Y-104954483D01*
X113550016Y-104960183D01*
X113493079Y-104964616D01*
X113436185Y-104967782D01*
X113379334Y-104969682D01*
X113322526Y-104970315D01*
X113227539Y-104968464D01*
X113134917Y-104962911D01*
X113044662Y-104953657D01*
X113008806Y-104948371D01*
X112956779Y-104940701D01*
X112956778Y-104940701D01*
X112946587Y-104938716D01*
X112871249Y-104924042D01*
X112842845Y-104917087D01*
X112788102Y-104903685D01*
X112707302Y-104879622D01*
X112639227Y-104855521D01*
X112628877Y-104851857D01*
X112552818Y-104820392D01*
X112552813Y-104820390D01*
X112552814Y-104820391D01*
X112479114Y-104785220D01*
X112407805Y-104746360D01*
X112407806Y-104746360D01*
X112407799Y-104746356D01*
X112338838Y-104703785D01*
X112338833Y-104703782D01*
X112338834Y-104703782D01*
X112272240Y-104657510D01*
X112272241Y-104657510D01*
X112208016Y-104607538D01*
X112208011Y-104607534D01*
X112146155Y-104553864D01*
X112146155Y-104553863D01*
X112146153Y-104553862D01*
X112086657Y-104496484D01*
X112086656Y-104496483D01*
X112030023Y-104435738D01*
X111977035Y-104372245D01*
X111977034Y-104372244D01*
X111927704Y-104306017D01*
X111882028Y-104237052D01*
X111840006Y-104165349D01*
X111810443Y-104107993D01*
X111801639Y-104090912D01*
X111801640Y-104090913D01*
X111801637Y-104090907D01*
X111777703Y-104037695D01*
X111766921Y-104013723D01*
X111735864Y-103933811D01*
X111735865Y-103933811D01*
X111735864Y-103933809D01*
X111708461Y-103851161D01*
X111708460Y-103851161D01*
X111684709Y-103765770D01*
X111683897Y-103762212D01*
X111664609Y-103677626D01*
X111648165Y-103586756D01*
X111635376Y-103493147D01*
X111626241Y-103396799D01*
X111623043Y-103347599D01*
X111620759Y-103297714D01*
X111619389Y-103247145D01*
X111618986Y-103201997D01*
X112532401Y-103201997D01*
X112532599Y-103230206D01*
X112534182Y-103285523D01*
X112537350Y-103339371D01*
X112542101Y-103391750D01*
X112548436Y-103442659D01*
X112556247Y-103491425D01*
X112556487Y-103492736D01*
X112571025Y-103562650D01*
X112571427Y-103564334D01*
X112574824Y-103576900D01*
X112589369Y-103630697D01*
X112589916Y-103632497D01*
X112601543Y-103666777D01*
X112611266Y-103695446D01*
X112611971Y-103697318D01*
X112636724Y-103756914D01*
X112637599Y-103758828D01*
X112665740Y-103815090D01*
X112666777Y-103816988D01*
X112698321Y-103869981D01*
X112699537Y-103871858D01*
X112734421Y-103921515D01*
X112735915Y-103923462D01*
X112754582Y-103945818D01*
X112773954Y-103969017D01*
X112775833Y-103971067D01*
X112817005Y-104011987D01*
X112819103Y-104013883D01*
X112848910Y-104038330D01*
X112863484Y-104050283D01*
X112865806Y-104052007D01*
X112913451Y-104083946D01*
X112915905Y-104085426D01*
X112921472Y-104088431D01*
X112966878Y-104112938D01*
X112969395Y-104114149D01*
X112993516Y-104124399D01*
X113023773Y-104137256D01*
X113026276Y-104138190D01*
X113084142Y-104156890D01*
X113086578Y-104157566D01*
X113147961Y-104171831D01*
X113150278Y-104172274D01*
X113215242Y-104182074D01*
X113217406Y-104182321D01*
X113286137Y-104187633D01*
X113287813Y-104187716D01*
X113335960Y-104188738D01*
X113358427Y-104188635D01*
X113424326Y-104187097D01*
X113487971Y-104183712D01*
X113549362Y-104178482D01*
X113608499Y-104171405D01*
X113665382Y-104162482D01*
X113720011Y-104151713D01*
X113772386Y-104139097D01*
X113781068Y-104136592D01*
X113821843Y-104124826D01*
X113823200Y-104124399D01*
X113869532Y-104108615D01*
X113871193Y-104107993D01*
X113910293Y-104092037D01*
X113930691Y-104061681D01*
X113930691Y-102485132D01*
X113919488Y-102461058D01*
X113897456Y-102442510D01*
X113896103Y-102441437D01*
X113845009Y-102403223D01*
X113843270Y-102402016D01*
X113790304Y-102367947D01*
X113788483Y-102366865D01*
X113733474Y-102336812D01*
X113731582Y-102335864D01*
X113674488Y-102309805D01*
X113672546Y-102309001D01*
X113613388Y-102286948D01*
X113611389Y-102286283D01*
X113593671Y-102281060D01*
X113550113Y-102268222D01*
X113548174Y-102267722D01*
X113484712Y-102253645D01*
X113482838Y-102253294D01*
X113417189Y-102243220D01*
X113415347Y-102242997D01*
X113347528Y-102236945D01*
X113345761Y-102236841D01*
X113275658Y-102234816D01*
X113274148Y-102234812D01*
X113243005Y-102235519D01*
X113230835Y-102235796D01*
X113229067Y-102235888D01*
X113185415Y-102239497D01*
X113166279Y-102241079D01*
X113163977Y-102241358D01*
X113153830Y-102242995D01*
X113104627Y-102250931D01*
X113102188Y-102251428D01*
X113046057Y-102265360D01*
X113043542Y-102266105D01*
X112990617Y-102284359D01*
X112988021Y-102285393D01*
X112938213Y-102307961D01*
X112935673Y-102309262D01*
X112888894Y-102336159D01*
X112886453Y-102337727D01*
X112842653Y-102368968D01*
X112840389Y-102370756D01*
X112832098Y-102377984D01*
X112799515Y-102406383D01*
X112797456Y-102408357D01*
X112759447Y-102448441D01*
X112757656Y-102450512D01*
X112754911Y-102453994D01*
X112728555Y-102487426D01*
X112722190Y-102495499D01*
X112721233Y-102496782D01*
X112710477Y-102512032D01*
X112709646Y-102513276D01*
X112677906Y-102563413D01*
X112676813Y-102565286D01*
X112655310Y-102605456D01*
X112648431Y-102618306D01*
X112647506Y-102620190D01*
X112622276Y-102676455D01*
X112621524Y-102678291D01*
X112599449Y-102737849D01*
X112598868Y-102739583D01*
X112586047Y-102782233D01*
X112579975Y-102802432D01*
X112579522Y-102804115D01*
X112563823Y-102870287D01*
X112563497Y-102871857D01*
X112550886Y-102942059D01*
X112544231Y-102991185D01*
X112539439Y-103037996D01*
X112539055Y-103041741D01*
X112536196Y-103081951D01*
X112535358Y-103093727D01*
X112533140Y-103147147D01*
X112532401Y-103201997D01*
X111618986Y-103201997D01*
X111618932Y-103195891D01*
X111619405Y-103142525D01*
X111620821Y-103089893D01*
X111623183Y-103037996D01*
X111626489Y-102986834D01*
X111630739Y-102936406D01*
X111635934Y-102886714D01*
X111642073Y-102837755D01*
X111653054Y-102765695D01*
X111666159Y-102695288D01*
X111677204Y-102645428D01*
X111681390Y-102626533D01*
X111698745Y-102559432D01*
X111718226Y-102493985D01*
X111739832Y-102430189D01*
X111755179Y-102388697D01*
X111779647Y-102328282D01*
X111805854Y-102270058D01*
X111833800Y-102214022D01*
X111863485Y-102160177D01*
X111894909Y-102108521D01*
X111924866Y-102063836D01*
X111928071Y-102059055D01*
X111962973Y-102011778D01*
X111999613Y-101966691D01*
X112024691Y-101938659D01*
X112037988Y-101923796D01*
X112078108Y-101883085D01*
X112091924Y-101870000D01*
X112105567Y-101857077D01*
X112147828Y-101819568D01*
X112191377Y-101783862D01*
X112236213Y-101749959D01*
X112282338Y-101717859D01*
X112329751Y-101687562D01*
X112378451Y-101659069D01*
X112428440Y-101632379D01*
X112479717Y-101607492D01*
X112532281Y-101584408D01*
X112586134Y-101563127D01*
X112622541Y-101549818D01*
X112678011Y-101531464D01*
X112734512Y-101515042D01*
X112792042Y-101500552D01*
X112850603Y-101487994D01*
X112910195Y-101477368D01*
X112970817Y-101468674D01*
X113032469Y-101461912D01*
X113095151Y-101457082D01*
X113158864Y-101454184D01*
X113223607Y-101453218D01*
X113223608Y-101453218D01*
X113288270Y-101454563D01*
G37*
G36*
X123970517Y-101454029D02*
G01*
X124047211Y-101456462D01*
X124123436Y-101460517D01*
X124199194Y-101466193D01*
X124274485Y-101473492D01*
X124349308Y-101482413D01*
X124423664Y-101492955D01*
X124497552Y-101505120D01*
X124570973Y-101518906D01*
X124643926Y-101534314D01*
X124716412Y-101551344D01*
X124788430Y-101569997D01*
X124859981Y-101590271D01*
X124931064Y-101612167D01*
X125001680Y-101635685D01*
X125066265Y-101658830D01*
X125066266Y-101658830D01*
X125071828Y-101660824D01*
X125206162Y-102453392D01*
X124453894Y-102547426D01*
X124452184Y-102530329D01*
X124425466Y-102263149D01*
X124402670Y-102235180D01*
X124346054Y-102217495D01*
X124298723Y-102204723D01*
X124292768Y-102203326D01*
X124250685Y-102193453D01*
X124201937Y-102183685D01*
X124152482Y-102175421D01*
X124102318Y-102168659D01*
X124051445Y-102163399D01*
X123999865Y-102159643D01*
X123947575Y-102157389D01*
X123894578Y-102156637D01*
X123862100Y-102156992D01*
X123852571Y-102157389D01*
X123810161Y-102159156D01*
X123761685Y-102163227D01*
X123760252Y-102163385D01*
X123706459Y-102170721D01*
X123704638Y-102171029D01*
X123655237Y-102181003D01*
X123652965Y-102181557D01*
X123633706Y-102187049D01*
X123600080Y-102196641D01*
X123598012Y-102197315D01*
X123549815Y-102215007D01*
X123547785Y-102215837D01*
X123500510Y-102237237D01*
X123499065Y-102237891D01*
X123496549Y-102239176D01*
X123487153Y-102244546D01*
X123455223Y-102262796D01*
X123452180Y-102264790D01*
X123414058Y-102293246D01*
X123410572Y-102296296D01*
X123394920Y-102312290D01*
X123382601Y-102324879D01*
X123379259Y-102328955D01*
X123351775Y-102369236D01*
X123349496Y-102373194D01*
X123347153Y-102378089D01*
X123328852Y-102416330D01*
X123327565Y-102419468D01*
X123312277Y-102463748D01*
X123311865Y-102465044D01*
X123310022Y-102471316D01*
X123297099Y-102519109D01*
X123285346Y-102571464D01*
X123285068Y-102572869D01*
X123276471Y-102622750D01*
X123276248Y-102624291D01*
X123271219Y-102667363D01*
X123270617Y-102672527D01*
X123270489Y-102673884D01*
X123266797Y-102726410D01*
X123264402Y-102780097D01*
X123262999Y-102831417D01*
X123262198Y-102887631D01*
X123262136Y-102902613D01*
X123297234Y-102938214D01*
X123999602Y-102938214D01*
X124082024Y-102939208D01*
X124161828Y-102942188D01*
X124239016Y-102947155D01*
X124313588Y-102954109D01*
X124385543Y-102963050D01*
X124454881Y-102973978D01*
X124521603Y-102986892D01*
X124585708Y-103001793D01*
X124647198Y-103018682D01*
X124674773Y-103027523D01*
X124706070Y-103037557D01*
X124762326Y-103058419D01*
X124815965Y-103081268D01*
X124815967Y-103081269D01*
X124815966Y-103081268D01*
X124866998Y-103106109D01*
X124885159Y-103116173D01*
X124915394Y-103132927D01*
X124915404Y-103132933D01*
X124915403Y-103132932D01*
X124961188Y-103161739D01*
X124979998Y-103175157D01*
X125004356Y-103192532D01*
X125044913Y-103225315D01*
X125082853Y-103260085D01*
X125082859Y-103260091D01*
X125082862Y-103260094D01*
X125118171Y-103296836D01*
X125118176Y-103296842D01*
X125150029Y-103334575D01*
X125150886Y-103335590D01*
X125150887Y-103335591D01*
X125180977Y-103376323D01*
X125208452Y-103419041D01*
X125208451Y-103419041D01*
X125233304Y-103463737D01*
X125255547Y-103510434D01*
X125275171Y-103559113D01*
X125292176Y-103609772D01*
X125306566Y-103662419D01*
X125313683Y-103695446D01*
X125318342Y-103717063D01*
X125327500Y-103773688D01*
X125334041Y-103832301D01*
X125337966Y-103892900D01*
X125338684Y-103927280D01*
X125339274Y-103955493D01*
X125337838Y-104014647D01*
X125333531Y-104072153D01*
X125333531Y-104072152D01*
X125326351Y-104127997D01*
X125326351Y-104127996D01*
X125320990Y-104156890D01*
X125316300Y-104182174D01*
X125316297Y-104182183D01*
X125316297Y-104182187D01*
X125316297Y-104182188D01*
X125309509Y-104209774D01*
X125303377Y-104234696D01*
X125287583Y-104285557D01*
X125287581Y-104285562D01*
X125287582Y-104285561D01*
X125268911Y-104334772D01*
X125247380Y-104382296D01*
X125222965Y-104428188D01*
X125195687Y-104472401D01*
X125165531Y-104514967D01*
X125165532Y-104514966D01*
X125132512Y-104555859D01*
X125132513Y-104555859D01*
X125121014Y-104568428D01*
X125096610Y-104595106D01*
X125083790Y-104607533D01*
X125057844Y-104632685D01*
X125057843Y-104632686D01*
X125016212Y-104668599D01*
X125016206Y-104668603D01*
X125016201Y-104668608D01*
X124971689Y-104702869D01*
X124924643Y-104735255D01*
X124893392Y-104754484D01*
X124875396Y-104765557D01*
X124823984Y-104793752D01*
X124823972Y-104793757D01*
X124823970Y-104793759D01*
X124770341Y-104819877D01*
X124714518Y-104843905D01*
X124656501Y-104865844D01*
X124596289Y-104885693D01*
X124533884Y-104903453D01*
X124469283Y-104919124D01*
X124402489Y-104932705D01*
X124333499Y-104944197D01*
X124301901Y-104948371D01*
X124262317Y-104953600D01*
X124227288Y-104957091D01*
X124188938Y-104960913D01*
X124113366Y-104966136D01*
X124035599Y-104969270D01*
X123955639Y-104970315D01*
X123889268Y-104969437D01*
X123823270Y-104966804D01*
X123757644Y-104962415D01*
X123692391Y-104956271D01*
X123627509Y-104948371D01*
X123562999Y-104938716D01*
X123498862Y-104927305D01*
X123435096Y-104914139D01*
X123371703Y-104899217D01*
X123308681Y-104882540D01*
X123246032Y-104864107D01*
X123183755Y-104843919D01*
X123121850Y-104821976D01*
X123060317Y-104798276D01*
X122999156Y-104772822D01*
X122949494Y-104750592D01*
X122926821Y-104749529D01*
X122045660Y-105048473D01*
X122025060Y-104982554D01*
X121803179Y-104272536D01*
X121803178Y-104272533D01*
X121801417Y-104266896D01*
X121806955Y-104265128D01*
X121806959Y-104265127D01*
X122209819Y-104136592D01*
X123261989Y-104136592D01*
X123277295Y-104163916D01*
X123297189Y-104176102D01*
X123299656Y-104177613D01*
X123319577Y-104188635D01*
X123356440Y-104209030D01*
X123357875Y-104209774D01*
X123398461Y-104229454D01*
X123415127Y-104237535D01*
X123416609Y-104238205D01*
X123475022Y-104262695D01*
X123476533Y-104263280D01*
X123502517Y-104272536D01*
X123536101Y-104284498D01*
X123537664Y-104285007D01*
X123598402Y-104302961D01*
X123599980Y-104303381D01*
X123661920Y-104318077D01*
X123663496Y-104318407D01*
X123726644Y-104329844D01*
X123728189Y-104330082D01*
X123792560Y-104338257D01*
X123794101Y-104338413D01*
X123859706Y-104343323D01*
X123861194Y-104343397D01*
X123928772Y-104345053D01*
X123943628Y-104344951D01*
X124000033Y-104342529D01*
X124001917Y-104342389D01*
X124053954Y-104336857D01*
X124056041Y-104336561D01*
X124104563Y-104327925D01*
X124106848Y-104327425D01*
X124151697Y-104315777D01*
X124154481Y-104314907D01*
X124205981Y-104296032D01*
X124209266Y-104294600D01*
X124255315Y-104271167D01*
X124258661Y-104269182D01*
X124299716Y-104241073D01*
X124302627Y-104238805D01*
X124323414Y-104220451D01*
X124326046Y-104217820D01*
X124357377Y-104182345D01*
X124360218Y-104178565D01*
X124385397Y-104138927D01*
X124387560Y-104134867D01*
X124407030Y-104090392D01*
X124408461Y-104086362D01*
X124422187Y-104036795D01*
X124422973Y-104033039D01*
X124430856Y-103978000D01*
X124431135Y-103974971D01*
X124433087Y-103927280D01*
X124433096Y-103925081D01*
X124431494Y-103875622D01*
X124431307Y-103873116D01*
X124424831Y-103817590D01*
X124424241Y-103814218D01*
X124413102Y-103766685D01*
X124411677Y-103762212D01*
X124392355Y-103714746D01*
X124389359Y-103709159D01*
X124381297Y-103697318D01*
X124364282Y-103672325D01*
X124359410Y-103666777D01*
X124327854Y-103638696D01*
X124323140Y-103635259D01*
X124298274Y-103620594D01*
X124294696Y-103618796D01*
X124247252Y-103598816D01*
X124243813Y-103597610D01*
X124197711Y-103584527D01*
X124195079Y-103583907D01*
X124142155Y-103573968D01*
X124140145Y-103573661D01*
X124106426Y-103569688D01*
X124093338Y-103568147D01*
X124091788Y-103568005D01*
X124040750Y-103564664D01*
X124039438Y-103564607D01*
X123983727Y-103563476D01*
X123297136Y-103563476D01*
X123261989Y-103598623D01*
X123261989Y-104136592D01*
X122209819Y-104136592D01*
X122299455Y-104107993D01*
X122348619Y-104092306D01*
X122371724Y-104060682D01*
X122371724Y-102927224D01*
X122371767Y-102892668D01*
X122372029Y-102838228D01*
X122372530Y-102787722D01*
X122373446Y-102732309D01*
X122374705Y-102682563D01*
X122376609Y-102631691D01*
X122377739Y-102610939D01*
X122382047Y-102557844D01*
X122387600Y-102507126D01*
X122391071Y-102480613D01*
X122394870Y-102451599D01*
X122402240Y-102401653D01*
X122410803Y-102348368D01*
X122416545Y-102315778D01*
X122418346Y-102307067D01*
X122427213Y-102264180D01*
X122439255Y-102215970D01*
X122451577Y-102175535D01*
X122455509Y-102162630D01*
X122465195Y-102136888D01*
X122473740Y-102114178D01*
X122473740Y-102114177D01*
X122497504Y-102063836D01*
X122497504Y-102063835D01*
X122500119Y-102059055D01*
X122512392Y-102036615D01*
X122523272Y-102018631D01*
X122537857Y-101994526D01*
X122539558Y-101991988D01*
X122567118Y-101950863D01*
X122600148Y-101905668D01*
X122612807Y-101889499D01*
X122630559Y-101866825D01*
X122663593Y-101826909D01*
X122674627Y-101814161D01*
X122677528Y-101810809D01*
X122714075Y-101772605D01*
X122717058Y-101769906D01*
X122726375Y-101761475D01*
X122753067Y-101737322D01*
X122769484Y-101724501D01*
X122794501Y-101704963D01*
X122794504Y-101704961D01*
X122829234Y-101681661D01*
X122838387Y-101675520D01*
X122838386Y-101675521D01*
X122884709Y-101649006D01*
X122894610Y-101644216D01*
X122933482Y-101625409D01*
X122964219Y-101612093D01*
X123018738Y-101590757D01*
X123027356Y-101587742D01*
X123065315Y-101574462D01*
X123114527Y-101558853D01*
X123166372Y-101543931D01*
X123220849Y-101529696D01*
X123277960Y-101516149D01*
X123337704Y-101503288D01*
X123399547Y-101491553D01*
X123463566Y-101481382D01*
X123513007Y-101474781D01*
X123563672Y-101469060D01*
X123615560Y-101464220D01*
X123668672Y-101460259D01*
X123709512Y-101457944D01*
X123723007Y-101457179D01*
X123778567Y-101454978D01*
X123835350Y-101453658D01*
X123893357Y-101453218D01*
X123970517Y-101454029D01*
G37*
G36*
X71926766Y-103367704D02*
G01*
X72089102Y-103439980D01*
X72232863Y-103544429D01*
X72351766Y-103676485D01*
X72440616Y-103830376D01*
X72495527Y-103999377D01*
X72514102Y-104176102D01*
X72495527Y-104352827D01*
X72440616Y-104521828D01*
X72351766Y-104675719D01*
X72232863Y-104807775D01*
X72089102Y-104912224D01*
X71926766Y-104984500D01*
X71752951Y-105021446D01*
X71575253Y-105021446D01*
X71401438Y-104984500D01*
X71239102Y-104912224D01*
X71095341Y-104807775D01*
X70976438Y-104675719D01*
X70887588Y-104521828D01*
X70832677Y-104352827D01*
X70814102Y-104176102D01*
X70832677Y-103999377D01*
X70887588Y-103830376D01*
X70976438Y-103676485D01*
X71095341Y-103544429D01*
X71239102Y-103439980D01*
X71401438Y-103367704D01*
X71575253Y-103330758D01*
X71752951Y-103330758D01*
X71926766Y-103367704D01*
G37*
G36*
X109596788Y-101453681D02*
G01*
X109667488Y-101456110D01*
X109736965Y-101460622D01*
X109805218Y-101467215D01*
X109872248Y-101475891D01*
X109938054Y-101486650D01*
X110002636Y-101499490D01*
X110065995Y-101514413D01*
X110128130Y-101531419D01*
X110189042Y-101550506D01*
X110248730Y-101571676D01*
X110275123Y-101582018D01*
X110287614Y-101586912D01*
X110336193Y-101607756D01*
X110344632Y-101611377D01*
X110400084Y-101637774D01*
X110453969Y-101666103D01*
X110506287Y-101696364D01*
X110557038Y-101728556D01*
X110606221Y-101762681D01*
X110653838Y-101798738D01*
X110699888Y-101836727D01*
X110744370Y-101876648D01*
X110787285Y-101918501D01*
X110814973Y-101947294D01*
X110855001Y-101991988D01*
X110893226Y-102038485D01*
X110929648Y-102086785D01*
X110964266Y-102136888D01*
X110997081Y-102188794D01*
X111028094Y-102242504D01*
X111057303Y-102298017D01*
X111084708Y-102355333D01*
X111110311Y-102414452D01*
X111134110Y-102475374D01*
X111148898Y-102516800D01*
X111169292Y-102580298D01*
X111182245Y-102626533D01*
X111187538Y-102645428D01*
X111203638Y-102712190D01*
X111217592Y-102780582D01*
X111229398Y-102850607D01*
X111239058Y-102922262D01*
X111244306Y-102970939D01*
X111248599Y-103020341D01*
X111251938Y-103070468D01*
X111254324Y-103121320D01*
X111255755Y-103172897D01*
X111256232Y-103225201D01*
X111256115Y-103251439D01*
X111255180Y-103303360D01*
X111253564Y-103347599D01*
X111253310Y-103354536D01*
X111250505Y-103404969D01*
X111246765Y-103454657D01*
X111242090Y-103503601D01*
X111233324Y-103575621D01*
X111223579Y-103638696D01*
X111222455Y-103645967D01*
X111209482Y-103714640D01*
X111194405Y-103781637D01*
X111177225Y-103846961D01*
X111168920Y-103874371D01*
X111157941Y-103910609D01*
X111136553Y-103972583D01*
X111121044Y-104012931D01*
X111096297Y-104071914D01*
X111069768Y-104129051D01*
X111041457Y-104184342D01*
X111011364Y-104237787D01*
X110979490Y-104289385D01*
X110945833Y-104339138D01*
X110910396Y-104387044D01*
X110873176Y-104433105D01*
X110834175Y-104477319D01*
X110793392Y-104519687D01*
X110765094Y-104546902D01*
X110721287Y-104586168D01*
X110675850Y-104623566D01*
X110628780Y-104659097D01*
X110580080Y-104692761D01*
X110529748Y-104724556D01*
X110477784Y-104754484D01*
X110424189Y-104782545D01*
X110371513Y-104807528D01*
X110368962Y-104808738D01*
X110312104Y-104833063D01*
X110253615Y-104855521D01*
X110213802Y-104869422D01*
X110181475Y-104879621D01*
X110153044Y-104888591D01*
X110091041Y-104905743D01*
X110055952Y-104914139D01*
X110027793Y-104920877D01*
X109963300Y-104933993D01*
X109897562Y-104945092D01*
X109830579Y-104954172D01*
X109762351Y-104961235D01*
X109739266Y-104962911D01*
X109692877Y-104966279D01*
X109622159Y-104969306D01*
X109550195Y-104970315D01*
X109452436Y-104968846D01*
X109355774Y-104964438D01*
X109260210Y-104957091D01*
X109165742Y-104946807D01*
X109072372Y-104933583D01*
X108980098Y-104917421D01*
X108888922Y-104898321D01*
X108798843Y-104876281D01*
X108709862Y-104851304D01*
X108621977Y-104823388D01*
X108535190Y-104792533D01*
X108449500Y-104758740D01*
X108364907Y-104722008D01*
X108281411Y-104682337D01*
X108199013Y-104639728D01*
X108117711Y-104594181D01*
X108120095Y-104589472D01*
X108120097Y-104589469D01*
X108399582Y-104037695D01*
X108399585Y-104037690D01*
X108402254Y-104032422D01*
X108405140Y-104033234D01*
X108405141Y-104033234D01*
X108465739Y-104050283D01*
X108469535Y-104051351D01*
X108537351Y-104069059D01*
X108605701Y-104085545D01*
X108674585Y-104100810D01*
X108744003Y-104114854D01*
X108813956Y-104127677D01*
X108884443Y-104139279D01*
X108955464Y-104149659D01*
X109027020Y-104158818D01*
X109099109Y-104166756D01*
X109171734Y-104173473D01*
X109244892Y-104178968D01*
X109318585Y-104183242D01*
X109392811Y-104186295D01*
X109467573Y-104188127D01*
X109542868Y-104188738D01*
X109631027Y-104186319D01*
X109632807Y-104186217D01*
X109661418Y-104183712D01*
X109714584Y-104179056D01*
X109716591Y-104178812D01*
X109792766Y-104166930D01*
X109794993Y-104166496D01*
X109865563Y-104149947D01*
X109868001Y-104149266D01*
X109932988Y-104128112D01*
X109935608Y-104127122D01*
X109995061Y-104101420D01*
X109997803Y-104100065D01*
X110051806Y-104069859D01*
X110054579Y-104068103D01*
X110103224Y-104033422D01*
X110105910Y-104031263D01*
X110149324Y-103992081D01*
X110151798Y-103989569D01*
X110190098Y-103945818D01*
X110192253Y-103943045D01*
X110225534Y-103894610D01*
X110227300Y-103891700D01*
X110237844Y-103871866D01*
X110255604Y-103838455D01*
X110256960Y-103835537D01*
X110280289Y-103777348D01*
X110281259Y-103774529D01*
X110299566Y-103711326D01*
X110300204Y-103708683D01*
X110313431Y-103640394D01*
X110313797Y-103637977D01*
X110314270Y-103633683D01*
X110317605Y-103603403D01*
X110281839Y-103563476D01*
X108104278Y-103563476D01*
X108093688Y-103511823D01*
X108084509Y-103458833D01*
X108079730Y-103425406D01*
X108076743Y-103404509D01*
X108070389Y-103348848D01*
X108068839Y-103330968D01*
X108065447Y-103291851D01*
X108061917Y-103233519D01*
X108059799Y-103173852D01*
X108059093Y-103112848D01*
X108059472Y-103062023D01*
X108060610Y-103011979D01*
X108065161Y-102914229D01*
X108069503Y-102860057D01*
X108072434Y-102823486D01*
X108898065Y-102823486D01*
X108933439Y-102860057D01*
X110252920Y-102860057D01*
X110288938Y-102812944D01*
X110280195Y-102780754D01*
X110262832Y-102724984D01*
X110244117Y-102672390D01*
X110233493Y-102646229D01*
X110224319Y-102623640D01*
X110223745Y-102622318D01*
X110203022Y-102577585D01*
X110202190Y-102575926D01*
X110172527Y-102521065D01*
X110171318Y-102519026D01*
X110139619Y-102470078D01*
X110138080Y-102467917D01*
X110104326Y-102424704D01*
X110102406Y-102422479D01*
X110066425Y-102384705D01*
X110064598Y-102382942D01*
X110053269Y-102372902D01*
X110046363Y-102366783D01*
X110043915Y-102364833D01*
X110001121Y-102334275D01*
X109997839Y-102332237D01*
X109995919Y-102331210D01*
X109960560Y-102312290D01*
X109948844Y-102306021D01*
X109945742Y-102304583D01*
X109889779Y-102282416D01*
X109887319Y-102281564D01*
X109841133Y-102267815D01*
X109839214Y-102267313D01*
X109788945Y-102255936D01*
X109787247Y-102255605D01*
X109758806Y-102250931D01*
X109733120Y-102246710D01*
X109731538Y-102246493D01*
X109705043Y-102243575D01*
X109673540Y-102240106D01*
X109672179Y-102239990D01*
X109643753Y-102238221D01*
X109609715Y-102236105D01*
X109554455Y-102235021D01*
X109543636Y-102234810D01*
X109542133Y-102234817D01*
X109465654Y-102237205D01*
X109463620Y-102237338D01*
X109392588Y-102244451D01*
X109390325Y-102244767D01*
X109324606Y-102256546D01*
X109322062Y-102257118D01*
X109261637Y-102273493D01*
X109258873Y-102274388D01*
X109209107Y-102293237D01*
X109203694Y-102295287D01*
X109200767Y-102296578D01*
X109150737Y-102321941D01*
X109147752Y-102323678D01*
X109102769Y-102353468D01*
X109099861Y-102355660D01*
X109059766Y-102389901D01*
X109057091Y-102392492D01*
X109021743Y-102431266D01*
X109019426Y-102434149D01*
X108992461Y-102472294D01*
X108988729Y-102477572D01*
X108986844Y-102480605D01*
X108960726Y-102528863D01*
X108959307Y-102531877D01*
X108937792Y-102585094D01*
X108936798Y-102587969D01*
X108919935Y-102646258D01*
X108919300Y-102648912D01*
X108907172Y-102712297D01*
X108906810Y-102714725D01*
X108899752Y-102780754D01*
X108899486Y-102783243D01*
X108899333Y-102785434D01*
X108898065Y-102823486D01*
X108072434Y-102823486D01*
X108072746Y-102819599D01*
X108083365Y-102728089D01*
X108097017Y-102639699D01*
X108113704Y-102554429D01*
X108128875Y-102491231D01*
X108133421Y-102472294D01*
X108133421Y-102472295D01*
X108133425Y-102472278D01*
X108153307Y-102403223D01*
X108156181Y-102393240D01*
X108156181Y-102393241D01*
X108156182Y-102393240D01*
X108175056Y-102337682D01*
X108181968Y-102317337D01*
X108206356Y-102255746D01*
X108210788Y-102244553D01*
X108211638Y-102242695D01*
X108242646Y-102174876D01*
X108242646Y-102174875D01*
X108277539Y-102108321D01*
X108315463Y-102044889D01*
X108315462Y-102044889D01*
X108356422Y-101984577D01*
X108400415Y-101927385D01*
X108400414Y-101927386D01*
X108433612Y-101889215D01*
X108447439Y-101873316D01*
X108447445Y-101873310D01*
X108447444Y-101873310D01*
X108497248Y-101822446D01*
X108549604Y-101774852D01*
X108549605Y-101774852D01*
X108552389Y-101772605D01*
X108604489Y-101730548D01*
X108604489Y-101730547D01*
X108604494Y-101730544D01*
X108604495Y-101730544D01*
X108607278Y-101728556D01*
X108661915Y-101689523D01*
X108721878Y-101651780D01*
X108721881Y-101651777D01*
X108721888Y-101651774D01*
X108784365Y-101617326D01*
X108784366Y-101617326D01*
X108784375Y-101617321D01*
X108784380Y-101617319D01*
X108849414Y-101586141D01*
X108916993Y-101558243D01*
X108916992Y-101558243D01*
X108977110Y-101537138D01*
X108987111Y-101533627D01*
X108987114Y-101533625D01*
X108987123Y-101533623D01*
X108987122Y-101533623D01*
X109059756Y-101512296D01*
X109059757Y-101512295D01*
X109059763Y-101512294D01*
X109097277Y-101503288D01*
X109134944Y-101494245D01*
X109134952Y-101494243D01*
X109134954Y-101494243D01*
X109212682Y-101479474D01*
X109292949Y-101467987D01*
X109375753Y-101459782D01*
X109461095Y-101454859D01*
X109548974Y-101453218D01*
X109596788Y-101453681D01*
G37*
G36*
X119574843Y-101454366D02*
G01*
X119622031Y-101458227D01*
X119637229Y-101459471D01*
X119637233Y-101459471D01*
X119637238Y-101459472D01*
X119700688Y-101468657D01*
X119700687Y-101468657D01*
X119700694Y-101468658D01*
X119737195Y-101475891D01*
X119748994Y-101478229D01*
X119797895Y-101490096D01*
X119847398Y-101504261D01*
X119897501Y-101520722D01*
X119948205Y-101539480D01*
X119999511Y-101560536D01*
X120051417Y-101583888D01*
X120102288Y-101608201D01*
X120123807Y-101618992D01*
X120150950Y-101632603D01*
X120195800Y-101656245D01*
X120197401Y-101657089D01*
X120241640Y-101681661D01*
X120297186Y-101714558D01*
X120348801Y-101747607D01*
X120396486Y-101780809D01*
X120440238Y-101814161D01*
X120440239Y-101814162D01*
X120466738Y-101836457D01*
X120496709Y-101842543D01*
X121501453Y-101533116D01*
X121501454Y-101533115D01*
X121507104Y-101531376D01*
X121737914Y-102312953D01*
X121091716Y-102496571D01*
X121067467Y-102528672D01*
X121067467Y-103997275D01*
X121102614Y-104032422D01*
X121652627Y-104032422D01*
X121658535Y-104032422D01*
X121658535Y-104814000D01*
X121652627Y-104814000D01*
X119905894Y-104814000D01*
X119899986Y-104814000D01*
X119899986Y-104032422D01*
X120139612Y-104032422D01*
X120174759Y-103997275D01*
X120174759Y-102475838D01*
X120161462Y-102449998D01*
X120136673Y-102432288D01*
X120080416Y-102395152D01*
X120079226Y-102394407D01*
X120023976Y-102361576D01*
X120022657Y-102360836D01*
X119967898Y-102331950D01*
X119966440Y-102331231D01*
X119912137Y-102306251D01*
X119910563Y-102305581D01*
X119856735Y-102284499D01*
X119855029Y-102283890D01*
X119801668Y-102266686D01*
X119799848Y-102266163D01*
X119746968Y-102252818D01*
X119744984Y-102252389D01*
X119692570Y-102242882D01*
X119690485Y-102242579D01*
X119638521Y-102236887D01*
X119636382Y-102236731D01*
X119583692Y-102234795D01*
X119573447Y-102234839D01*
X119524734Y-102236359D01*
X119523149Y-102236450D01*
X119469271Y-102241064D01*
X119467309Y-102241299D01*
X119418015Y-102248899D01*
X119415541Y-102249388D01*
X119363387Y-102262006D01*
X119360396Y-102262899D01*
X119313538Y-102279638D01*
X119311660Y-102280382D01*
X119307004Y-102282412D01*
X119305023Y-102283363D01*
X119264637Y-102304661D01*
X119260868Y-102307022D01*
X119221168Y-102336204D01*
X119217422Y-102339472D01*
X119183801Y-102374132D01*
X119180649Y-102377975D01*
X119152435Y-102418892D01*
X119150526Y-102422066D01*
X119128191Y-102465044D01*
X119126808Y-102467705D01*
X119125690Y-102470112D01*
X119106087Y-102517811D01*
X119105196Y-102520293D01*
X119091576Y-102564332D01*
X119089955Y-102569574D01*
X119089279Y-102572162D01*
X119078110Y-102624360D01*
X119076853Y-102631690D01*
X119075743Y-102638168D01*
X119071064Y-102672390D01*
X119068664Y-102689943D01*
X119064084Y-102738600D01*
X119060878Y-102791208D01*
X119059047Y-102847766D01*
X119058569Y-102897914D01*
X119058569Y-103997275D01*
X119093716Y-104032422D01*
X119331098Y-104032422D01*
X119337006Y-104032422D01*
X119337006Y-104814000D01*
X119331098Y-104814000D01*
X117910430Y-104814000D01*
X117904522Y-104814000D01*
X117904522Y-104032422D01*
X118127051Y-104032422D01*
X118162198Y-103997275D01*
X118162198Y-102475633D01*
X118149156Y-102449995D01*
X118137388Y-102441419D01*
X118124855Y-102432288D01*
X118098333Y-102414452D01*
X118069640Y-102395157D01*
X118068457Y-102394402D01*
X118014152Y-102361576D01*
X118012857Y-102360838D01*
X117958942Y-102331947D01*
X117957498Y-102331224D01*
X117903993Y-102306261D01*
X117902401Y-102305574D01*
X117849291Y-102284507D01*
X117847562Y-102283882D01*
X117794856Y-102266697D01*
X117792972Y-102266151D01*
X117740667Y-102252822D01*
X117738667Y-102252385D01*
X117686725Y-102242886D01*
X117684625Y-102242579D01*
X117633018Y-102236890D01*
X117630846Y-102236729D01*
X117578458Y-102234795D01*
X117568212Y-102234839D01*
X117519501Y-102236359D01*
X117517916Y-102236450D01*
X117464037Y-102241064D01*
X117462075Y-102241299D01*
X117412781Y-102248899D01*
X117410307Y-102249388D01*
X117358154Y-102262006D01*
X117355163Y-102262899D01*
X117308299Y-102279640D01*
X117306423Y-102280384D01*
X117303785Y-102281533D01*
X117301789Y-102282403D01*
X117299773Y-102283374D01*
X117259595Y-102304637D01*
X117255749Y-102307064D01*
X117216609Y-102336141D01*
X117212755Y-102339555D01*
X117183110Y-102370759D01*
X117179993Y-102374040D01*
X117176766Y-102378083D01*
X117149527Y-102419011D01*
X117147818Y-102421926D01*
X117124335Y-102467812D01*
X117123319Y-102470014D01*
X117103556Y-102517926D01*
X117102731Y-102520185D01*
X117086900Y-102569720D01*
X117086265Y-102572027D01*
X117074291Y-102623523D01*
X117074258Y-102623664D01*
X117073971Y-102625048D01*
X117072761Y-102631691D01*
X117071582Y-102638171D01*
X117064061Y-102689943D01*
X117059195Y-102738601D01*
X117055789Y-102791209D01*
X117053843Y-102847766D01*
X117053336Y-102897913D01*
X117053336Y-103997275D01*
X117088483Y-104032422D01*
X117307546Y-104032422D01*
X117313454Y-104032422D01*
X117313454Y-104814000D01*
X117307546Y-104814000D01*
X115571805Y-104814000D01*
X115565897Y-104814000D01*
X115565897Y-104093483D01*
X116124260Y-104093483D01*
X116159407Y-104058336D01*
X116159407Y-102901577D01*
X116160180Y-102849295D01*
X116161582Y-102798080D01*
X116163614Y-102747934D01*
X116166276Y-102698856D01*
X116171450Y-102627244D01*
X116178040Y-102558035D01*
X116186047Y-102491231D01*
X116195471Y-102426831D01*
X116206312Y-102364835D01*
X116218569Y-102305244D01*
X116232243Y-102248057D01*
X116247333Y-102193275D01*
X116252693Y-102175535D01*
X116269870Y-102123779D01*
X116275666Y-102108521D01*
X116288699Y-102074213D01*
X116309182Y-102026836D01*
X116319169Y-102006447D01*
X116331314Y-101981655D01*
X116331314Y-101981656D01*
X116331318Y-101981648D01*
X116355101Y-101938660D01*
X116355101Y-101938659D01*
X116389394Y-101884728D01*
X116425112Y-101836727D01*
X116426624Y-101834695D01*
X116439793Y-101819568D01*
X116466789Y-101788557D01*
X116470699Y-101784725D01*
X116509895Y-101746309D01*
X116509904Y-101746301D01*
X116509903Y-101746301D01*
X116555398Y-101707504D01*
X116555405Y-101707498D01*
X116589565Y-101681661D01*
X116602778Y-101671667D01*
X116602784Y-101671663D01*
X116652033Y-101638804D01*
X116697603Y-101612167D01*
X116703142Y-101608929D01*
X116703141Y-101608929D01*
X116756139Y-101582019D01*
X116756140Y-101582019D01*
X116756142Y-101582018D01*
X116773465Y-101574462D01*
X116810998Y-101558091D01*
X116810999Y-101558091D01*
X116811001Y-101558090D01*
X116867730Y-101537138D01*
X116867729Y-101537138D01*
X116926329Y-101519163D01*
X116941240Y-101515106D01*
X117002959Y-101500166D01*
X117051428Y-101490312D01*
X117101763Y-101481618D01*
X117153967Y-101474084D01*
X117160251Y-101473343D01*
X117208038Y-101467708D01*
X117263976Y-101462492D01*
X117321782Y-101458434D01*
X117381456Y-101455536D01*
X117442997Y-101453798D01*
X117506406Y-101453218D01*
X117570291Y-101455336D01*
X117634939Y-101461690D01*
X117667597Y-101466720D01*
X117683927Y-101469236D01*
X117705110Y-101473492D01*
X117733342Y-101479164D01*
X117778479Y-101490312D01*
X117783188Y-101491475D01*
X117833463Y-101506169D01*
X117884167Y-101523246D01*
X117935300Y-101542705D01*
X117986863Y-101564548D01*
X118038856Y-101588773D01*
X118073283Y-101605583D01*
X118123512Y-101630871D01*
X118172044Y-101656245D01*
X118218881Y-101681704D01*
X118264022Y-101707250D01*
X118307467Y-101732881D01*
X118349216Y-101758598D01*
X118402243Y-101793021D01*
X118444806Y-101822446D01*
X118452256Y-101827596D01*
X118472289Y-101842399D01*
X118519787Y-101836557D01*
X118543365Y-101807948D01*
X118543366Y-101807947D01*
X118543370Y-101807942D01*
X118577859Y-101769911D01*
X118613551Y-101734240D01*
X118613552Y-101734239D01*
X118613553Y-101734238D01*
X118650445Y-101700931D01*
X118688542Y-101669983D01*
X118741206Y-101632393D01*
X118796008Y-101599000D01*
X118852948Y-101569806D01*
X118912024Y-101544809D01*
X118912026Y-101544808D01*
X118912025Y-101544808D01*
X118942483Y-101533718D01*
X118990192Y-101518423D01*
X119040327Y-101504738D01*
X119092889Y-101492663D01*
X119147876Y-101482198D01*
X119205288Y-101473343D01*
X119265126Y-101466098D01*
X119327390Y-101460463D01*
X119392080Y-101456438D01*
X119459196Y-101454023D01*
X119528737Y-101453218D01*
X119574843Y-101454366D01*
G37*
G36*
X129103057Y-101453218D02*
G01*
X129097149Y-101453218D01*
X128505615Y-101453218D01*
X128470468Y-101488365D01*
X128470468Y-103997275D01*
X128505615Y-104032422D01*
X129097149Y-104032422D01*
X129103057Y-104032422D01*
X129103057Y-104814000D01*
X129097149Y-104814000D01*
X125976550Y-104814000D01*
X125970642Y-104814000D01*
X125968825Y-104808738D01*
X125550030Y-103595928D01*
X125550029Y-103595925D01*
X125548102Y-103590343D01*
X125553583Y-103588410D01*
X125553586Y-103588409D01*
X126283803Y-103330968D01*
X126283807Y-103330967D01*
X126289379Y-103329003D01*
X126388330Y-103609772D01*
X126529513Y-104010367D01*
X126560670Y-104032422D01*
X127529180Y-104032422D01*
X127564327Y-103997275D01*
X127564327Y-101488365D01*
X127529180Y-101453218D01*
X126884110Y-101453218D01*
X126884110Y-100671641D01*
X129103057Y-100671641D01*
X129103057Y-101453218D01*
G37*
G36*
X75673679Y-104304710D02*
G01*
X75693251Y-104304710D01*
X75716838Y-104313294D01*
X75745671Y-104319030D01*
X75761314Y-104329482D01*
X75774537Y-104334295D01*
X75798071Y-104354042D01*
X75826777Y-104373223D01*
X75834239Y-104384390D01*
X75840801Y-104389897D01*
X75859127Y-104421639D01*
X75880970Y-104454329D01*
X75882530Y-104462173D01*
X75884053Y-104464811D01*
X75891840Y-104508976D01*
X75900000Y-104550000D01*
X75891839Y-104591026D01*
X75884053Y-104635188D01*
X75882530Y-104637824D01*
X75880970Y-104645671D01*
X75859123Y-104678366D01*
X75840801Y-104710102D01*
X75834240Y-104715606D01*
X75826777Y-104726777D01*
X75798065Y-104745961D01*
X75774537Y-104765704D01*
X75761316Y-104770515D01*
X75745671Y-104780970D01*
X75716836Y-104786705D01*
X75693251Y-104795290D01*
X75673679Y-104795290D01*
X75650000Y-104800000D01*
X75626321Y-104795290D01*
X75606749Y-104795290D01*
X75583162Y-104786705D01*
X75554329Y-104780970D01*
X75538684Y-104770516D01*
X75525462Y-104765704D01*
X75501929Y-104745958D01*
X75473223Y-104726777D01*
X75465760Y-104715608D01*
X75459198Y-104710102D01*
X75440869Y-104678355D01*
X75419030Y-104645671D01*
X75417469Y-104637827D01*
X75415946Y-104635188D01*
X75408151Y-104590982D01*
X75400000Y-104550000D01*
X75408151Y-104509021D01*
X75415946Y-104464811D01*
X75417470Y-104462171D01*
X75419030Y-104454329D01*
X75440864Y-104421651D01*
X75459199Y-104389895D01*
X75465763Y-104384386D01*
X75473223Y-104373223D01*
X75501922Y-104354046D01*
X75525461Y-104334296D01*
X75538684Y-104329483D01*
X75554329Y-104319030D01*
X75583163Y-104313294D01*
X75606750Y-104304710D01*
X75626321Y-104304710D01*
X75650000Y-104300000D01*
X75673679Y-104304710D01*
G37*
G36*
X100740323Y-103870000D02*
G01*
X98740323Y-103870000D01*
X98740323Y-101870000D01*
X100740323Y-101870000D01*
X100740323Y-103870000D01*
G37*
G36*
X104935413Y-101889215D02*
G01*
X105123006Y-101946120D01*
X105295893Y-102038530D01*
X105447430Y-102162893D01*
X105571793Y-102314430D01*
X105664203Y-102487317D01*
X105721108Y-102674910D01*
X105740323Y-102870000D01*
X105721108Y-103065090D01*
X105664203Y-103252683D01*
X105571793Y-103425570D01*
X105447430Y-103577107D01*
X105295893Y-103701470D01*
X105123006Y-103793880D01*
X104935413Y-103850785D01*
X104740323Y-103870000D01*
X104545233Y-103850785D01*
X104357640Y-103793880D01*
X104184753Y-103701470D01*
X104033216Y-103577107D01*
X103908853Y-103425570D01*
X103816443Y-103252683D01*
X103759538Y-103065090D01*
X103740323Y-102870000D01*
X103759538Y-102674910D01*
X103816443Y-102487317D01*
X103908853Y-102314430D01*
X104033216Y-102162893D01*
X104184753Y-102038530D01*
X104357640Y-101946120D01*
X104545233Y-101889215D01*
X104740323Y-101870000D01*
X104935413Y-101889215D01*
G37*
G36*
X137935061Y-101489089D02*
G01*
X137991157Y-101489089D01*
X138008196Y-101494092D01*
X138021612Y-101495010D01*
X138070527Y-101512394D01*
X138127708Y-101529184D01*
X138140002Y-101537085D01*
X138149774Y-101540558D01*
X138194176Y-101571900D01*
X138247430Y-101606125D01*
X138254941Y-101614793D01*
X138260889Y-101618992D01*
X138296380Y-101662616D01*
X138340627Y-101713680D01*
X138344086Y-101721255D01*
X138346727Y-101724501D01*
X138369275Y-101776411D01*
X138399746Y-101843134D01*
X138400482Y-101848257D01*
X138400916Y-101849255D01*
X138407205Y-101895012D01*
X138420000Y-101984000D01*
X138420000Y-103084000D01*
X138419732Y-103085860D01*
X138415344Y-103150004D01*
X138405414Y-103185444D01*
X138399746Y-103224866D01*
X138385832Y-103255331D01*
X138378088Y-103282974D01*
X138358496Y-103315191D01*
X138340627Y-103354320D01*
X138320757Y-103377251D01*
X138307417Y-103399188D01*
X138277700Y-103426940D01*
X138247430Y-103461875D01*
X138224551Y-103476578D01*
X138208014Y-103492023D01*
X138169325Y-103512070D01*
X138127708Y-103538816D01*
X138104632Y-103545591D01*
X138087249Y-103554599D01*
X138041767Y-103564050D01*
X137991157Y-103578911D01*
X137970257Y-103578911D01*
X137954083Y-103582272D01*
X137904953Y-103578911D01*
X137848843Y-103578911D01*
X137831799Y-103573906D01*
X137818387Y-103572989D01*
X137769482Y-103555608D01*
X137712292Y-103538816D01*
X137699995Y-103530913D01*
X137690225Y-103527441D01*
X137645828Y-103496102D01*
X137592570Y-103461875D01*
X137585057Y-103453205D01*
X137579110Y-103449007D01*
X137543616Y-103405380D01*
X137499373Y-103354320D01*
X137495913Y-103346745D01*
X137493272Y-103343498D01*
X137470713Y-103291562D01*
X137440254Y-103224866D01*
X137439517Y-103219744D01*
X137439083Y-103218744D01*
X137432782Y-103172897D01*
X137420000Y-103084000D01*
X137420000Y-101984000D01*
X137420267Y-101982141D01*
X137424655Y-101917995D01*
X137434587Y-101882545D01*
X137440254Y-101843134D01*
X137454163Y-101812675D01*
X137461911Y-101785025D01*
X137481508Y-101752797D01*
X137499373Y-101713680D01*
X137519237Y-101690755D01*
X137532582Y-101668811D01*
X137562308Y-101641048D01*
X137592570Y-101606125D01*
X137615441Y-101591426D01*
X137631985Y-101575976D01*
X137670686Y-101555922D01*
X137712292Y-101529184D01*
X137735361Y-101522410D01*
X137752750Y-101513400D01*
X137798246Y-101503945D01*
X137848843Y-101489089D01*
X137869738Y-101489089D01*
X137885916Y-101485727D01*
X137935061Y-101489089D01*
G37*
G36*
X146575061Y-101489089D02*
G01*
X146631157Y-101489089D01*
X146648196Y-101494092D01*
X146661612Y-101495010D01*
X146710527Y-101512394D01*
X146767708Y-101529184D01*
X146780002Y-101537085D01*
X146789774Y-101540558D01*
X146834176Y-101571900D01*
X146887430Y-101606125D01*
X146894941Y-101614793D01*
X146900889Y-101618992D01*
X146936380Y-101662616D01*
X146980627Y-101713680D01*
X146984086Y-101721255D01*
X146986727Y-101724501D01*
X147009275Y-101776411D01*
X147039746Y-101843134D01*
X147040482Y-101848257D01*
X147040916Y-101849255D01*
X147047205Y-101895012D01*
X147060000Y-101984000D01*
X147060000Y-103084000D01*
X147059732Y-103085860D01*
X147055344Y-103150004D01*
X147045414Y-103185444D01*
X147039746Y-103224866D01*
X147025832Y-103255331D01*
X147018088Y-103282974D01*
X146998496Y-103315191D01*
X146980627Y-103354320D01*
X146960757Y-103377251D01*
X146947417Y-103399188D01*
X146917700Y-103426940D01*
X146887430Y-103461875D01*
X146864551Y-103476578D01*
X146848014Y-103492023D01*
X146809325Y-103512070D01*
X146767708Y-103538816D01*
X146744632Y-103545591D01*
X146727249Y-103554599D01*
X146681767Y-103564050D01*
X146631157Y-103578911D01*
X146610257Y-103578911D01*
X146594083Y-103582272D01*
X146544953Y-103578911D01*
X146488843Y-103578911D01*
X146471799Y-103573906D01*
X146458387Y-103572989D01*
X146409482Y-103555608D01*
X146352292Y-103538816D01*
X146339995Y-103530913D01*
X146330225Y-103527441D01*
X146285828Y-103496102D01*
X146232570Y-103461875D01*
X146225057Y-103453205D01*
X146219110Y-103449007D01*
X146183616Y-103405380D01*
X146139373Y-103354320D01*
X146135913Y-103346745D01*
X146133272Y-103343498D01*
X146110713Y-103291562D01*
X146080254Y-103224866D01*
X146079517Y-103219744D01*
X146079083Y-103218744D01*
X146072782Y-103172897D01*
X146060000Y-103084000D01*
X146060000Y-101984000D01*
X146060267Y-101982141D01*
X146064655Y-101917995D01*
X146074587Y-101882545D01*
X146080254Y-101843134D01*
X146094163Y-101812675D01*
X146101911Y-101785025D01*
X146121508Y-101752797D01*
X146139373Y-101713680D01*
X146159237Y-101690755D01*
X146172582Y-101668811D01*
X146202308Y-101641048D01*
X146232570Y-101606125D01*
X146255441Y-101591426D01*
X146271985Y-101575976D01*
X146310686Y-101555922D01*
X146352292Y-101529184D01*
X146375361Y-101522410D01*
X146392750Y-101513400D01*
X146438246Y-101503945D01*
X146488843Y-101489089D01*
X146509738Y-101489089D01*
X146525916Y-101485727D01*
X146575061Y-101489089D01*
G37*
G36*
X139376454Y-102743937D02*
G01*
X139406436Y-102743937D01*
X139429534Y-102752344D01*
X139450196Y-102755617D01*
X139479382Y-102770487D01*
X139512500Y-102782542D01*
X139527123Y-102794812D01*
X139540590Y-102801674D01*
X139568174Y-102829258D01*
X139598964Y-102855094D01*
X139605731Y-102866815D01*
X139612325Y-102873409D01*
X139633253Y-102914485D01*
X139655400Y-102952843D01*
X139656777Y-102960653D01*
X139658382Y-102963803D01*
X139667647Y-103022303D01*
X139675000Y-103064000D01*
X139667647Y-103105700D01*
X139658382Y-103164196D01*
X139656777Y-103167345D01*
X139655400Y-103175157D01*
X139633249Y-103213522D01*
X139612325Y-103254590D01*
X139605732Y-103261182D01*
X139598964Y-103272906D01*
X139568168Y-103298746D01*
X139540590Y-103326325D01*
X139527126Y-103333184D01*
X139512500Y-103345458D01*
X139479375Y-103357514D01*
X139450196Y-103372382D01*
X139429539Y-103375653D01*
X139406436Y-103384063D01*
X139376447Y-103384063D01*
X139350000Y-103388252D01*
X139323552Y-103384063D01*
X139293564Y-103384063D01*
X139270460Y-103375653D01*
X139249803Y-103372382D01*
X139220620Y-103357513D01*
X139187500Y-103345458D01*
X139172874Y-103333186D01*
X139159409Y-103326325D01*
X139131825Y-103298741D01*
X139101036Y-103272906D01*
X139094268Y-103261184D01*
X139087674Y-103254590D01*
X139066741Y-103213507D01*
X139044600Y-103175157D01*
X139043223Y-103167348D01*
X139041617Y-103164196D01*
X139032343Y-103105644D01*
X139025000Y-103064000D01*
X139032342Y-103022359D01*
X139041617Y-102963803D01*
X139043223Y-102960650D01*
X139044600Y-102952843D01*
X139066737Y-102914500D01*
X139087674Y-102873409D01*
X139094269Y-102866813D01*
X139101036Y-102855094D01*
X139131819Y-102829263D01*
X139159409Y-102801674D01*
X139172877Y-102794811D01*
X139187500Y-102782542D01*
X139220613Y-102770489D01*
X139249803Y-102755617D01*
X139270465Y-102752344D01*
X139293564Y-102743937D01*
X139323546Y-102743937D01*
X139350000Y-102739747D01*
X139376454Y-102743937D01*
G37*
G36*
X145156454Y-102743937D02*
G01*
X145186436Y-102743937D01*
X145209534Y-102752344D01*
X145230196Y-102755617D01*
X145259382Y-102770487D01*
X145292500Y-102782542D01*
X145307123Y-102794812D01*
X145320590Y-102801674D01*
X145348174Y-102829258D01*
X145378964Y-102855094D01*
X145385731Y-102866815D01*
X145392325Y-102873409D01*
X145413253Y-102914485D01*
X145435400Y-102952843D01*
X145436777Y-102960653D01*
X145438382Y-102963803D01*
X145447647Y-103022303D01*
X145455000Y-103064000D01*
X145447647Y-103105700D01*
X145438382Y-103164196D01*
X145436777Y-103167345D01*
X145435400Y-103175157D01*
X145413249Y-103213522D01*
X145392325Y-103254590D01*
X145385732Y-103261182D01*
X145378964Y-103272906D01*
X145348168Y-103298746D01*
X145320590Y-103326325D01*
X145307126Y-103333184D01*
X145292500Y-103345458D01*
X145259375Y-103357514D01*
X145230196Y-103372382D01*
X145209539Y-103375653D01*
X145186436Y-103384063D01*
X145156447Y-103384063D01*
X145130000Y-103388252D01*
X145103552Y-103384063D01*
X145073564Y-103384063D01*
X145050460Y-103375653D01*
X145029803Y-103372382D01*
X145000620Y-103357513D01*
X144967500Y-103345458D01*
X144952874Y-103333186D01*
X144939409Y-103326325D01*
X144911825Y-103298741D01*
X144881036Y-103272906D01*
X144874268Y-103261184D01*
X144867674Y-103254590D01*
X144846741Y-103213507D01*
X144824600Y-103175157D01*
X144823223Y-103167348D01*
X144821617Y-103164196D01*
X144812343Y-103105644D01*
X144805000Y-103064000D01*
X144812342Y-103022359D01*
X144821617Y-102963803D01*
X144823223Y-102960650D01*
X144824600Y-102952843D01*
X144846737Y-102914500D01*
X144867674Y-102873409D01*
X144874269Y-102866813D01*
X144881036Y-102855094D01*
X144911819Y-102829263D01*
X144939409Y-102801674D01*
X144952877Y-102794811D01*
X144967500Y-102782542D01*
X145000613Y-102770489D01*
X145029803Y-102755617D01*
X145050465Y-102752344D01*
X145073564Y-102743937D01*
X145103546Y-102743937D01*
X145130000Y-102739747D01*
X145156454Y-102743937D01*
G37*
G36*
X77278818Y-101607756D02*
G01*
X77441154Y-101680032D01*
X77584915Y-101784481D01*
X77703818Y-101916537D01*
X77792668Y-102070428D01*
X77847579Y-102239429D01*
X77866154Y-102416154D01*
X77847579Y-102592879D01*
X77792668Y-102761880D01*
X77703818Y-102915771D01*
X77584915Y-103047827D01*
X77441154Y-103152276D01*
X77278818Y-103224552D01*
X77105003Y-103261498D01*
X76927305Y-103261498D01*
X76753490Y-103224552D01*
X76591154Y-103152276D01*
X76447393Y-103047827D01*
X76328490Y-102915771D01*
X76239640Y-102761880D01*
X76184729Y-102592879D01*
X76166154Y-102416154D01*
X76184729Y-102239429D01*
X76239640Y-102070428D01*
X76328490Y-101916537D01*
X76447393Y-101784481D01*
X76591154Y-101680032D01*
X76753490Y-101607756D01*
X76927305Y-101570810D01*
X77105003Y-101570810D01*
X77278818Y-101607756D01*
G37*
G36*
X70130715Y-101571653D02*
G01*
X70293051Y-101643929D01*
X70436812Y-101748378D01*
X70555715Y-101880434D01*
X70644565Y-102034325D01*
X70699476Y-102203326D01*
X70718051Y-102380051D01*
X70699476Y-102556776D01*
X70644565Y-102725777D01*
X70555715Y-102879668D01*
X70436812Y-103011724D01*
X70293051Y-103116173D01*
X70130715Y-103188449D01*
X69956900Y-103225395D01*
X69779202Y-103225395D01*
X69605387Y-103188449D01*
X69443051Y-103116173D01*
X69299290Y-103011724D01*
X69180387Y-102879668D01*
X69091537Y-102725777D01*
X69036626Y-102556776D01*
X69018051Y-102380051D01*
X69036626Y-102203326D01*
X69091537Y-102034325D01*
X69180387Y-101880434D01*
X69299290Y-101748378D01*
X69443051Y-101643929D01*
X69605387Y-101571653D01*
X69779202Y-101534707D01*
X69956900Y-101534707D01*
X70130715Y-101571653D01*
G37*
G36*
X73905912Y-102536943D02*
G01*
X73925484Y-102536943D01*
X73949071Y-102545527D01*
X73977904Y-102551263D01*
X73993547Y-102561715D01*
X74006770Y-102566528D01*
X74030304Y-102586275D01*
X74059010Y-102605456D01*
X74066472Y-102616623D01*
X74073034Y-102622130D01*
X74091360Y-102653872D01*
X74113203Y-102686562D01*
X74114763Y-102694406D01*
X74116286Y-102697044D01*
X74124073Y-102741209D01*
X74132233Y-102782233D01*
X74124072Y-102823259D01*
X74116286Y-102867421D01*
X74114763Y-102870057D01*
X74113203Y-102877904D01*
X74091356Y-102910599D01*
X74073034Y-102942335D01*
X74066473Y-102947839D01*
X74059010Y-102959010D01*
X74030298Y-102978194D01*
X74006770Y-102997937D01*
X73993549Y-103002748D01*
X73977904Y-103013203D01*
X73949069Y-103018938D01*
X73925484Y-103027523D01*
X73905912Y-103027523D01*
X73882233Y-103032233D01*
X73858554Y-103027523D01*
X73838982Y-103027523D01*
X73815395Y-103018938D01*
X73786562Y-103013203D01*
X73770917Y-103002749D01*
X73757695Y-102997937D01*
X73734162Y-102978191D01*
X73705456Y-102959010D01*
X73697993Y-102947841D01*
X73691431Y-102942335D01*
X73673102Y-102910588D01*
X73651263Y-102877904D01*
X73649702Y-102870060D01*
X73648179Y-102867421D01*
X73640384Y-102823215D01*
X73632233Y-102782233D01*
X73640384Y-102741254D01*
X73648179Y-102697044D01*
X73649703Y-102694404D01*
X73651263Y-102686562D01*
X73673097Y-102653884D01*
X73691432Y-102622128D01*
X73697996Y-102616619D01*
X73705456Y-102605456D01*
X73734155Y-102586279D01*
X73757694Y-102566529D01*
X73770917Y-102561716D01*
X73786562Y-102551263D01*
X73815396Y-102545527D01*
X73838983Y-102536943D01*
X73858554Y-102536943D01*
X73882233Y-102532233D01*
X73905912Y-102536943D01*
G37*
G36*
X69274082Y-100584000D02*
G01*
X68072000Y-101786082D01*
X66869918Y-100584000D01*
X68072000Y-99381918D01*
X69274082Y-100584000D01*
G37*
G36*
X75482766Y-99811704D02*
G01*
X75645102Y-99883980D01*
X75788863Y-99988429D01*
X75907766Y-100120485D01*
X75996616Y-100274376D01*
X76051527Y-100443377D01*
X76070102Y-100620102D01*
X76051527Y-100796827D01*
X75996616Y-100965828D01*
X75907766Y-101119719D01*
X75788863Y-101251775D01*
X75645102Y-101356224D01*
X75482766Y-101428500D01*
X75308951Y-101465446D01*
X75131253Y-101465446D01*
X74957438Y-101428500D01*
X74795102Y-101356224D01*
X74651341Y-101251775D01*
X74532438Y-101119719D01*
X74443588Y-100965828D01*
X74388677Y-100796827D01*
X74370102Y-100620102D01*
X74388677Y-100443377D01*
X74443588Y-100274376D01*
X74532438Y-100120485D01*
X74651341Y-99988429D01*
X74795102Y-99883980D01*
X74957438Y-99811704D01*
X75131253Y-99774758D01*
X75308951Y-99774758D01*
X75482766Y-99811704D01*
G37*
G36*
X71254262Y-99885293D02*
G01*
X71273834Y-99885293D01*
X71297421Y-99893877D01*
X71326254Y-99899613D01*
X71341897Y-99910065D01*
X71355120Y-99914878D01*
X71378654Y-99934625D01*
X71407360Y-99953806D01*
X71414822Y-99964973D01*
X71421384Y-99970480D01*
X71439710Y-100002222D01*
X71461553Y-100034912D01*
X71463113Y-100042756D01*
X71464636Y-100045394D01*
X71472423Y-100089559D01*
X71480583Y-100130583D01*
X71472422Y-100171609D01*
X71464636Y-100215771D01*
X71463113Y-100218407D01*
X71461553Y-100226254D01*
X71439706Y-100258949D01*
X71421384Y-100290685D01*
X71414823Y-100296189D01*
X71407360Y-100307360D01*
X71378648Y-100326544D01*
X71355120Y-100346287D01*
X71341899Y-100351098D01*
X71326254Y-100361553D01*
X71297419Y-100367288D01*
X71273834Y-100375873D01*
X71254262Y-100375873D01*
X71230583Y-100380583D01*
X71206904Y-100375873D01*
X71187332Y-100375873D01*
X71163745Y-100367288D01*
X71134912Y-100361553D01*
X71119267Y-100351099D01*
X71106045Y-100346287D01*
X71082512Y-100326541D01*
X71053806Y-100307360D01*
X71046343Y-100296191D01*
X71039781Y-100290685D01*
X71021452Y-100258938D01*
X70999613Y-100226254D01*
X70998052Y-100218410D01*
X70996529Y-100215771D01*
X70988734Y-100171565D01*
X70980583Y-100130583D01*
X70988734Y-100089604D01*
X70996529Y-100045394D01*
X70998053Y-100042754D01*
X70999613Y-100034912D01*
X71021447Y-100002234D01*
X71039782Y-99970478D01*
X71046346Y-99964969D01*
X71053806Y-99953806D01*
X71082505Y-99934629D01*
X71106044Y-99914879D01*
X71119267Y-99910066D01*
X71134912Y-99899613D01*
X71163746Y-99893877D01*
X71187333Y-99885293D01*
X71206904Y-99885293D01*
X71230583Y-99880583D01*
X71254262Y-99885293D01*
G37*
G36*
X73686715Y-98015653D02*
G01*
X73849051Y-98087929D01*
X73992812Y-98192378D01*
X74111715Y-98324434D01*
X74200565Y-98478325D01*
X74255476Y-98647326D01*
X74274051Y-98824051D01*
X74255476Y-99000776D01*
X74200565Y-99169777D01*
X74111715Y-99323668D01*
X73992812Y-99455724D01*
X73849051Y-99560173D01*
X73686715Y-99632449D01*
X73512900Y-99669395D01*
X73335202Y-99669395D01*
X73161387Y-99632449D01*
X72999051Y-99560173D01*
X72855290Y-99455724D01*
X72736387Y-99323668D01*
X72647537Y-99169777D01*
X72592626Y-99000776D01*
X72574051Y-98824051D01*
X72592626Y-98647326D01*
X72647537Y-98478325D01*
X72736387Y-98324434D01*
X72855290Y-98192378D01*
X72999051Y-98087929D01*
X73161387Y-98015653D01*
X73335202Y-97978707D01*
X73512900Y-97978707D01*
X73686715Y-98015653D01*
G37*
G36*
X111408323Y-99044000D02*
G01*
X109408323Y-99044000D01*
X109408323Y-97044000D01*
X111408323Y-97044000D01*
X111408323Y-99044000D01*
G37*
G36*
X115603413Y-97063215D02*
G01*
X115791006Y-97120120D01*
X115963893Y-97212530D01*
X116115430Y-97336893D01*
X116239793Y-97488430D01*
X116332203Y-97661317D01*
X116389108Y-97848910D01*
X116408323Y-98044000D01*
X116389108Y-98239090D01*
X116332203Y-98426683D01*
X116239793Y-98599570D01*
X116115430Y-98751107D01*
X115963893Y-98875470D01*
X115791006Y-98967880D01*
X115603413Y-99024785D01*
X115408323Y-99044000D01*
X115213233Y-99024785D01*
X115025640Y-98967880D01*
X114852753Y-98875470D01*
X114701216Y-98751107D01*
X114576853Y-98599570D01*
X114484443Y-98426683D01*
X114427538Y-98239090D01*
X114408323Y-98044000D01*
X114427538Y-97848910D01*
X114484443Y-97661317D01*
X114576853Y-97488430D01*
X114701216Y-97336893D01*
X114852753Y-97212530D01*
X115025640Y-97120120D01*
X115213233Y-97063215D01*
X115408323Y-97044000D01*
X115603413Y-97063215D01*
G37*
G36*
X69486495Y-98117526D02*
G01*
X69506067Y-98117526D01*
X69529654Y-98126110D01*
X69558487Y-98131846D01*
X69574130Y-98142298D01*
X69587353Y-98147111D01*
X69610887Y-98166858D01*
X69639593Y-98186039D01*
X69647055Y-98197206D01*
X69653617Y-98202713D01*
X69671943Y-98234455D01*
X69693786Y-98267145D01*
X69695346Y-98274989D01*
X69696869Y-98277627D01*
X69704656Y-98321792D01*
X69712816Y-98362816D01*
X69704655Y-98403842D01*
X69696869Y-98448004D01*
X69695346Y-98450640D01*
X69693786Y-98458487D01*
X69671939Y-98491182D01*
X69653617Y-98522918D01*
X69647056Y-98528422D01*
X69639593Y-98539593D01*
X69610881Y-98558777D01*
X69587353Y-98578520D01*
X69574132Y-98583331D01*
X69558487Y-98593786D01*
X69529652Y-98599521D01*
X69506067Y-98608106D01*
X69486495Y-98608106D01*
X69462816Y-98612816D01*
X69439137Y-98608106D01*
X69419565Y-98608106D01*
X69395978Y-98599521D01*
X69367145Y-98593786D01*
X69351500Y-98583332D01*
X69338278Y-98578520D01*
X69314745Y-98558774D01*
X69286039Y-98539593D01*
X69278576Y-98528424D01*
X69272014Y-98522918D01*
X69253685Y-98491171D01*
X69231846Y-98458487D01*
X69230285Y-98450643D01*
X69228762Y-98448004D01*
X69220967Y-98403798D01*
X69212816Y-98362816D01*
X69220967Y-98321837D01*
X69228762Y-98277627D01*
X69230286Y-98274987D01*
X69231846Y-98267145D01*
X69253680Y-98234467D01*
X69272015Y-98202711D01*
X69278579Y-98197202D01*
X69286039Y-98186039D01*
X69314738Y-98166862D01*
X69338277Y-98147112D01*
X69351500Y-98142299D01*
X69367145Y-98131846D01*
X69395979Y-98126110D01*
X69419566Y-98117526D01*
X69439137Y-98117526D01*
X69462816Y-98112816D01*
X69486495Y-98117526D01*
G37*
G36*
X72830082Y-97028000D02*
G01*
X71628000Y-98230082D01*
X70425918Y-97028000D01*
X71628000Y-95825918D01*
X72830082Y-97028000D01*
G37*
G36*
X91000000Y-94835000D02*
G01*
X89300000Y-94835000D01*
X89300000Y-93135000D01*
X91000000Y-93135000D01*
X91000000Y-94835000D01*
G37*
G36*
X131640000Y-94835000D02*
G01*
X129940000Y-94835000D01*
X129940000Y-93135000D01*
X131640000Y-93135000D01*
X131640000Y-94835000D01*
G37*
G36*
X87872664Y-93176602D02*
G01*
X88035000Y-93248878D01*
X88178761Y-93353327D01*
X88297664Y-93485383D01*
X88386514Y-93639274D01*
X88441425Y-93808275D01*
X88460000Y-93985000D01*
X88441425Y-94161725D01*
X88386514Y-94330726D01*
X88297664Y-94484617D01*
X88178761Y-94616673D01*
X88035000Y-94721122D01*
X87872664Y-94793398D01*
X87698849Y-94830344D01*
X87521151Y-94830344D01*
X87347336Y-94793398D01*
X87185000Y-94721122D01*
X87041239Y-94616673D01*
X86922336Y-94484617D01*
X86833486Y-94330726D01*
X86778575Y-94161725D01*
X86760000Y-93985000D01*
X86778575Y-93808275D01*
X86833486Y-93639274D01*
X86922336Y-93485383D01*
X87041239Y-93353327D01*
X87185000Y-93248878D01*
X87347336Y-93176602D01*
X87521151Y-93139656D01*
X87698849Y-93139656D01*
X87872664Y-93176602D01*
G37*
G36*
X128512664Y-93176602D02*
G01*
X128675000Y-93248878D01*
X128818761Y-93353327D01*
X128937664Y-93485383D01*
X129026514Y-93639274D01*
X129081425Y-93808275D01*
X129100000Y-93985000D01*
X129081425Y-94161725D01*
X129026514Y-94330726D01*
X128937664Y-94484617D01*
X128818761Y-94616673D01*
X128675000Y-94721122D01*
X128512664Y-94793398D01*
X128338849Y-94830344D01*
X128161151Y-94830344D01*
X127987336Y-94793398D01*
X127825000Y-94721122D01*
X127681239Y-94616673D01*
X127562336Y-94484617D01*
X127473486Y-94330726D01*
X127418575Y-94161725D01*
X127400000Y-93985000D01*
X127418575Y-93808275D01*
X127473486Y-93639274D01*
X127562336Y-93485383D01*
X127681239Y-93353327D01*
X127825000Y-93248878D01*
X127987336Y-93176602D01*
X128161151Y-93139656D01*
X128338849Y-93139656D01*
X128512664Y-93176602D01*
G37*
G36*
X87872664Y-90636602D02*
G01*
X88035000Y-90708878D01*
X88178761Y-90813327D01*
X88297664Y-90945383D01*
X88386514Y-91099274D01*
X88441425Y-91268275D01*
X88460000Y-91445000D01*
X88441425Y-91621725D01*
X88386514Y-91790726D01*
X88297664Y-91944617D01*
X88178761Y-92076673D01*
X88035000Y-92181122D01*
X87872664Y-92253398D01*
X87698849Y-92290344D01*
X87521151Y-92290344D01*
X87347336Y-92253398D01*
X87185000Y-92181122D01*
X87041239Y-92076673D01*
X86922336Y-91944617D01*
X86833486Y-91790726D01*
X86778575Y-91621725D01*
X86760000Y-91445000D01*
X86778575Y-91268275D01*
X86833486Y-91099274D01*
X86922336Y-90945383D01*
X87041239Y-90813327D01*
X87185000Y-90708878D01*
X87347336Y-90636602D01*
X87521151Y-90599656D01*
X87698849Y-90599656D01*
X87872664Y-90636602D01*
G37*
G36*
X90412664Y-90636602D02*
G01*
X90575000Y-90708878D01*
X90718761Y-90813327D01*
X90837664Y-90945383D01*
X90926514Y-91099274D01*
X90981425Y-91268275D01*
X91000000Y-91445000D01*
X90981425Y-91621725D01*
X90926514Y-91790726D01*
X90837664Y-91944617D01*
X90718761Y-92076673D01*
X90575000Y-92181122D01*
X90412664Y-92253398D01*
X90238849Y-92290344D01*
X90061151Y-92290344D01*
X89887336Y-92253398D01*
X89725000Y-92181122D01*
X89581239Y-92076673D01*
X89462336Y-91944617D01*
X89373486Y-91790726D01*
X89318575Y-91621725D01*
X89300000Y-91445000D01*
X89318575Y-91268275D01*
X89373486Y-91099274D01*
X89462336Y-90945383D01*
X89581239Y-90813327D01*
X89725000Y-90708878D01*
X89887336Y-90636602D01*
X90061151Y-90599656D01*
X90238849Y-90599656D01*
X90412664Y-90636602D01*
G37*
G36*
X128512664Y-90636602D02*
G01*
X128675000Y-90708878D01*
X128818761Y-90813327D01*
X128937664Y-90945383D01*
X129026514Y-91099274D01*
X129081425Y-91268275D01*
X129100000Y-91445000D01*
X129081425Y-91621725D01*
X129026514Y-91790726D01*
X128937664Y-91944617D01*
X128818761Y-92076673D01*
X128675000Y-92181122D01*
X128512664Y-92253398D01*
X128338849Y-92290344D01*
X128161151Y-92290344D01*
X127987336Y-92253398D01*
X127825000Y-92181122D01*
X127681239Y-92076673D01*
X127562336Y-91944617D01*
X127473486Y-91790726D01*
X127418575Y-91621725D01*
X127400000Y-91445000D01*
X127418575Y-91268275D01*
X127473486Y-91099274D01*
X127562336Y-90945383D01*
X127681239Y-90813327D01*
X127825000Y-90708878D01*
X127987336Y-90636602D01*
X128161151Y-90599656D01*
X128338849Y-90599656D01*
X128512664Y-90636602D01*
G37*
G36*
X131052664Y-90636602D02*
G01*
X131215000Y-90708878D01*
X131358761Y-90813327D01*
X131477664Y-90945383D01*
X131566514Y-91099274D01*
X131621425Y-91268275D01*
X131640000Y-91445000D01*
X131621425Y-91621725D01*
X131566514Y-91790726D01*
X131477664Y-91944617D01*
X131358761Y-92076673D01*
X131215000Y-92181122D01*
X131052664Y-92253398D01*
X130878849Y-92290344D01*
X130701151Y-92290344D01*
X130527336Y-92253398D01*
X130365000Y-92181122D01*
X130221239Y-92076673D01*
X130102336Y-91944617D01*
X130013486Y-91790726D01*
X129958575Y-91621725D01*
X129940000Y-91445000D01*
X129958575Y-91268275D01*
X130013486Y-91099274D01*
X130102336Y-90945383D01*
X130221239Y-90813327D01*
X130365000Y-90708878D01*
X130527336Y-90636602D01*
X130701151Y-90599656D01*
X130878849Y-90599656D01*
X131052664Y-90636602D01*
G37*
G36*
X71591060Y-89700990D02*
G01*
X71801525Y-89757384D01*
X71999000Y-89849468D01*
X72177485Y-89974444D01*
X72331556Y-90128515D01*
X72456532Y-90307000D01*
X72548616Y-90504475D01*
X72605010Y-90714940D01*
X72624000Y-90932000D01*
X72605010Y-91149060D01*
X72548616Y-91359525D01*
X72456532Y-91557000D01*
X72331556Y-91735485D01*
X72177485Y-91889556D01*
X71999000Y-92014532D01*
X71801525Y-92106616D01*
X71591060Y-92163010D01*
X71374000Y-92182000D01*
X71156940Y-92163010D01*
X70946475Y-92106616D01*
X70749000Y-92014532D01*
X70570515Y-91889556D01*
X70416444Y-91735485D01*
X70291468Y-91557000D01*
X70199384Y-91359525D01*
X70142990Y-91149060D01*
X70124000Y-90932000D01*
X70142990Y-90714940D01*
X70199384Y-90504475D01*
X70291468Y-90307000D01*
X70416444Y-90128515D01*
X70570515Y-89974444D01*
X70749000Y-89849468D01*
X70946475Y-89757384D01*
X71156940Y-89700990D01*
X71374000Y-89682000D01*
X71591060Y-89700990D01*
G37*
G36*
X96623000Y-90512000D02*
G01*
X94923000Y-90512000D01*
X94923000Y-88812000D01*
X96623000Y-88812000D01*
X96623000Y-90512000D01*
G37*
G36*
X98575664Y-88853602D02*
G01*
X98738000Y-88925878D01*
X98881761Y-89030327D01*
X99000664Y-89162383D01*
X99089514Y-89316274D01*
X99144425Y-89485275D01*
X99163000Y-89662000D01*
X99144425Y-89838725D01*
X99089514Y-90007726D01*
X99000664Y-90161617D01*
X98881761Y-90293673D01*
X98738000Y-90398122D01*
X98575664Y-90470398D01*
X98401849Y-90507344D01*
X98224151Y-90507344D01*
X98050336Y-90470398D01*
X97888000Y-90398122D01*
X97744239Y-90293673D01*
X97625336Y-90161617D01*
X97536486Y-90007726D01*
X97481575Y-89838725D01*
X97463000Y-89662000D01*
X97481575Y-89485275D01*
X97536486Y-89316274D01*
X97625336Y-89162383D01*
X97744239Y-89030327D01*
X97888000Y-88925878D01*
X98050336Y-88853602D01*
X98224151Y-88816656D01*
X98401849Y-88816656D01*
X98575664Y-88853602D01*
G37*
G36*
X101115664Y-88853602D02*
G01*
X101278000Y-88925878D01*
X101421761Y-89030327D01*
X101540664Y-89162383D01*
X101629514Y-89316274D01*
X101684425Y-89485275D01*
X101703000Y-89662000D01*
X101684425Y-89838725D01*
X101629514Y-90007726D01*
X101540664Y-90161617D01*
X101421761Y-90293673D01*
X101278000Y-90398122D01*
X101115664Y-90470398D01*
X100941849Y-90507344D01*
X100764151Y-90507344D01*
X100590336Y-90470398D01*
X100428000Y-90398122D01*
X100284239Y-90293673D01*
X100165336Y-90161617D01*
X100076486Y-90007726D01*
X100021575Y-89838725D01*
X100003000Y-89662000D01*
X100021575Y-89485275D01*
X100076486Y-89316274D01*
X100165336Y-89162383D01*
X100284239Y-89030327D01*
X100428000Y-88925878D01*
X100590336Y-88853602D01*
X100764151Y-88816656D01*
X100941849Y-88816656D01*
X101115664Y-88853602D01*
G37*
G36*
X87872664Y-88096602D02*
G01*
X88035000Y-88168878D01*
X88178761Y-88273327D01*
X88297664Y-88405383D01*
X88386514Y-88559274D01*
X88441425Y-88728275D01*
X88460000Y-88905000D01*
X88441425Y-89081725D01*
X88386514Y-89250726D01*
X88297664Y-89404617D01*
X88178761Y-89536673D01*
X88035000Y-89641122D01*
X87872664Y-89713398D01*
X87698849Y-89750344D01*
X87521151Y-89750344D01*
X87347336Y-89713398D01*
X87185000Y-89641122D01*
X87041239Y-89536673D01*
X86922336Y-89404617D01*
X86833486Y-89250726D01*
X86778575Y-89081725D01*
X86760000Y-88905000D01*
X86778575Y-88728275D01*
X86833486Y-88559274D01*
X86922336Y-88405383D01*
X87041239Y-88273327D01*
X87185000Y-88168878D01*
X87347336Y-88096602D01*
X87521151Y-88059656D01*
X87698849Y-88059656D01*
X87872664Y-88096602D01*
G37*
G36*
X90412664Y-88096602D02*
G01*
X90575000Y-88168878D01*
X90718761Y-88273327D01*
X90837664Y-88405383D01*
X90926514Y-88559274D01*
X90981425Y-88728275D01*
X91000000Y-88905000D01*
X90981425Y-89081725D01*
X90926514Y-89250726D01*
X90837664Y-89404617D01*
X90718761Y-89536673D01*
X90575000Y-89641122D01*
X90412664Y-89713398D01*
X90238849Y-89750344D01*
X90061151Y-89750344D01*
X89887336Y-89713398D01*
X89725000Y-89641122D01*
X89581239Y-89536673D01*
X89462336Y-89404617D01*
X89373486Y-89250726D01*
X89318575Y-89081725D01*
X89300000Y-88905000D01*
X89318575Y-88728275D01*
X89373486Y-88559274D01*
X89462336Y-88405383D01*
X89581239Y-88273327D01*
X89725000Y-88168878D01*
X89887336Y-88096602D01*
X90061151Y-88059656D01*
X90238849Y-88059656D01*
X90412664Y-88096602D01*
G37*
G36*
X128512664Y-88096602D02*
G01*
X128675000Y-88168878D01*
X128818761Y-88273327D01*
X128937664Y-88405383D01*
X129026514Y-88559274D01*
X129081425Y-88728275D01*
X129100000Y-88905000D01*
X129081425Y-89081725D01*
X129026514Y-89250726D01*
X128937664Y-89404617D01*
X128818761Y-89536673D01*
X128675000Y-89641122D01*
X128512664Y-89713398D01*
X128338849Y-89750344D01*
X128161151Y-89750344D01*
X127987336Y-89713398D01*
X127825000Y-89641122D01*
X127681239Y-89536673D01*
X127562336Y-89404617D01*
X127473486Y-89250726D01*
X127418575Y-89081725D01*
X127400000Y-88905000D01*
X127418575Y-88728275D01*
X127473486Y-88559274D01*
X127562336Y-88405383D01*
X127681239Y-88273327D01*
X127825000Y-88168878D01*
X127987336Y-88096602D01*
X128161151Y-88059656D01*
X128338849Y-88059656D01*
X128512664Y-88096602D01*
G37*
G36*
X131052664Y-88096602D02*
G01*
X131215000Y-88168878D01*
X131358761Y-88273327D01*
X131477664Y-88405383D01*
X131566514Y-88559274D01*
X131621425Y-88728275D01*
X131640000Y-88905000D01*
X131621425Y-89081725D01*
X131566514Y-89250726D01*
X131477664Y-89404617D01*
X131358761Y-89536673D01*
X131215000Y-89641122D01*
X131052664Y-89713398D01*
X130878849Y-89750344D01*
X130701151Y-89750344D01*
X130527336Y-89713398D01*
X130365000Y-89641122D01*
X130221239Y-89536673D01*
X130102336Y-89404617D01*
X130013486Y-89250726D01*
X129958575Y-89081725D01*
X129940000Y-88905000D01*
X129958575Y-88728275D01*
X130013486Y-88559274D01*
X130102336Y-88405383D01*
X130221239Y-88273327D01*
X130365000Y-88168878D01*
X130527336Y-88096602D01*
X130701151Y-88059656D01*
X130878849Y-88059656D01*
X131052664Y-88096602D01*
G37*
G36*
X87872664Y-85556602D02*
G01*
X88035000Y-85628878D01*
X88178761Y-85733327D01*
X88297664Y-85865383D01*
X88386514Y-86019274D01*
X88441425Y-86188275D01*
X88460000Y-86365000D01*
X88441425Y-86541725D01*
X88386514Y-86710726D01*
X88297664Y-86864617D01*
X88178761Y-86996673D01*
X88035000Y-87101122D01*
X87872664Y-87173398D01*
X87698849Y-87210344D01*
X87521151Y-87210344D01*
X87347336Y-87173398D01*
X87185000Y-87101122D01*
X87041239Y-86996673D01*
X86922336Y-86864617D01*
X86833486Y-86710726D01*
X86778575Y-86541725D01*
X86760000Y-86365000D01*
X86778575Y-86188275D01*
X86833486Y-86019274D01*
X86922336Y-85865383D01*
X87041239Y-85733327D01*
X87185000Y-85628878D01*
X87347336Y-85556602D01*
X87521151Y-85519656D01*
X87698849Y-85519656D01*
X87872664Y-85556602D01*
G37*
G36*
X90412664Y-85556602D02*
G01*
X90575000Y-85628878D01*
X90718761Y-85733327D01*
X90837664Y-85865383D01*
X90926514Y-86019274D01*
X90981425Y-86188275D01*
X91000000Y-86365000D01*
X90981425Y-86541725D01*
X90926514Y-86710726D01*
X90837664Y-86864617D01*
X90718761Y-86996673D01*
X90575000Y-87101122D01*
X90412664Y-87173398D01*
X90238849Y-87210344D01*
X90061151Y-87210344D01*
X89887336Y-87173398D01*
X89725000Y-87101122D01*
X89581239Y-86996673D01*
X89462336Y-86864617D01*
X89373486Y-86710726D01*
X89318575Y-86541725D01*
X89300000Y-86365000D01*
X89318575Y-86188275D01*
X89373486Y-86019274D01*
X89462336Y-85865383D01*
X89581239Y-85733327D01*
X89725000Y-85628878D01*
X89887336Y-85556602D01*
X90061151Y-85519656D01*
X90238849Y-85519656D01*
X90412664Y-85556602D01*
G37*
G36*
X128512664Y-85556602D02*
G01*
X128675000Y-85628878D01*
X128818761Y-85733327D01*
X128937664Y-85865383D01*
X129026514Y-86019274D01*
X129081425Y-86188275D01*
X129100000Y-86365000D01*
X129081425Y-86541725D01*
X129026514Y-86710726D01*
X128937664Y-86864617D01*
X128818761Y-86996673D01*
X128675000Y-87101122D01*
X128512664Y-87173398D01*
X128338849Y-87210344D01*
X128161151Y-87210344D01*
X127987336Y-87173398D01*
X127825000Y-87101122D01*
X127681239Y-86996673D01*
X127562336Y-86864617D01*
X127473486Y-86710726D01*
X127418575Y-86541725D01*
X127400000Y-86365000D01*
X127418575Y-86188275D01*
X127473486Y-86019274D01*
X127562336Y-85865383D01*
X127681239Y-85733327D01*
X127825000Y-85628878D01*
X127987336Y-85556602D01*
X128161151Y-85519656D01*
X128338849Y-85519656D01*
X128512664Y-85556602D01*
G37*
G36*
X131052664Y-85556602D02*
G01*
X131215000Y-85628878D01*
X131358761Y-85733327D01*
X131477664Y-85865383D01*
X131566514Y-86019274D01*
X131621425Y-86188275D01*
X131640000Y-86365000D01*
X131621425Y-86541725D01*
X131566514Y-86710726D01*
X131477664Y-86864617D01*
X131358761Y-86996673D01*
X131215000Y-87101122D01*
X131052664Y-87173398D01*
X130878849Y-87210344D01*
X130701151Y-87210344D01*
X130527336Y-87173398D01*
X130365000Y-87101122D01*
X130221239Y-86996673D01*
X130102336Y-86864617D01*
X130013486Y-86710726D01*
X129958575Y-86541725D01*
X129940000Y-86365000D01*
X129958575Y-86188275D01*
X130013486Y-86019274D01*
X130102336Y-85865383D01*
X130221239Y-85733327D01*
X130365000Y-85628878D01*
X130527336Y-85556602D01*
X130701151Y-85519656D01*
X130878849Y-85519656D01*
X131052664Y-85556602D01*
G37*
G36*
X72624000Y-87102000D02*
G01*
X70124000Y-87102000D01*
X70124000Y-84602000D01*
X72624000Y-84602000D01*
X72624000Y-87102000D01*
G37*
G36*
X96623000Y-86702000D02*
G01*
X94923000Y-86702000D01*
X94923000Y-85002000D01*
X96623000Y-85002000D01*
X96623000Y-86702000D01*
G37*
G36*
X98575664Y-85043602D02*
G01*
X98738000Y-85115878D01*
X98881761Y-85220327D01*
X99000664Y-85352383D01*
X99089514Y-85506274D01*
X99144425Y-85675275D01*
X99163000Y-85852000D01*
X99144425Y-86028725D01*
X99089514Y-86197726D01*
X99000664Y-86351617D01*
X98881761Y-86483673D01*
X98738000Y-86588122D01*
X98575664Y-86660398D01*
X98401849Y-86697344D01*
X98224151Y-86697344D01*
X98050336Y-86660398D01*
X97888000Y-86588122D01*
X97744239Y-86483673D01*
X97625336Y-86351617D01*
X97536486Y-86197726D01*
X97481575Y-86028725D01*
X97463000Y-85852000D01*
X97481575Y-85675275D01*
X97536486Y-85506274D01*
X97625336Y-85352383D01*
X97744239Y-85220327D01*
X97888000Y-85115878D01*
X98050336Y-85043602D01*
X98224151Y-85006656D01*
X98401849Y-85006656D01*
X98575664Y-85043602D01*
G37*
G36*
X101115664Y-85043602D02*
G01*
X101278000Y-85115878D01*
X101421761Y-85220327D01*
X101540664Y-85352383D01*
X101629514Y-85506274D01*
X101684425Y-85675275D01*
X101703000Y-85852000D01*
X101684425Y-86028725D01*
X101629514Y-86197726D01*
X101540664Y-86351617D01*
X101421761Y-86483673D01*
X101278000Y-86588122D01*
X101115664Y-86660398D01*
X100941849Y-86697344D01*
X100764151Y-86697344D01*
X100590336Y-86660398D01*
X100428000Y-86588122D01*
X100284239Y-86483673D01*
X100165336Y-86351617D01*
X100076486Y-86197726D01*
X100021575Y-86028725D01*
X100003000Y-85852000D01*
X100021575Y-85675275D01*
X100076486Y-85506274D01*
X100165336Y-85352383D01*
X100284239Y-85220327D01*
X100428000Y-85115878D01*
X100590336Y-85043602D01*
X100764151Y-85006656D01*
X100941849Y-85006656D01*
X101115664Y-85043602D01*
G37*
G36*
X144997060Y-82588990D02*
G01*
X145207525Y-82645384D01*
X145405000Y-82737468D01*
X145583485Y-82862444D01*
X145737556Y-83016515D01*
X145862532Y-83195000D01*
X145954616Y-83392475D01*
X146011010Y-83602940D01*
X146030000Y-83820000D01*
X146011010Y-84037060D01*
X145954616Y-84247525D01*
X145862532Y-84445000D01*
X145737556Y-84623485D01*
X145583485Y-84777556D01*
X145405000Y-84902532D01*
X145207525Y-84994616D01*
X144997060Y-85051010D01*
X144780000Y-85070000D01*
X144562940Y-85051010D01*
X144352475Y-84994616D01*
X144155000Y-84902532D01*
X143976515Y-84777556D01*
X143822444Y-84623485D01*
X143697468Y-84445000D01*
X143605384Y-84247525D01*
X143548990Y-84037060D01*
X143530000Y-83820000D01*
X143548990Y-83602940D01*
X143605384Y-83392475D01*
X143697468Y-83195000D01*
X143822444Y-83016515D01*
X143976515Y-82862444D01*
X144155000Y-82737468D01*
X144352475Y-82645384D01*
X144562940Y-82588990D01*
X144780000Y-82570000D01*
X144997060Y-82588990D01*
G37*
G36*
X87872664Y-83016602D02*
G01*
X88035000Y-83088878D01*
X88178761Y-83193327D01*
X88297664Y-83325383D01*
X88386514Y-83479274D01*
X88441425Y-83648275D01*
X88460000Y-83825000D01*
X88441425Y-84001725D01*
X88386514Y-84170726D01*
X88297664Y-84324617D01*
X88178761Y-84456673D01*
X88035000Y-84561122D01*
X87872664Y-84633398D01*
X87698849Y-84670344D01*
X87521151Y-84670344D01*
X87347336Y-84633398D01*
X87185000Y-84561122D01*
X87041239Y-84456673D01*
X86922336Y-84324617D01*
X86833486Y-84170726D01*
X86778575Y-84001725D01*
X86760000Y-83825000D01*
X86778575Y-83648275D01*
X86833486Y-83479274D01*
X86922336Y-83325383D01*
X87041239Y-83193327D01*
X87185000Y-83088878D01*
X87347336Y-83016602D01*
X87521151Y-82979656D01*
X87698849Y-82979656D01*
X87872664Y-83016602D01*
G37*
G36*
X90412664Y-83016602D02*
G01*
X90575000Y-83088878D01*
X90718761Y-83193327D01*
X90837664Y-83325383D01*
X90926514Y-83479274D01*
X90981425Y-83648275D01*
X91000000Y-83825000D01*
X90981425Y-84001725D01*
X90926514Y-84170726D01*
X90837664Y-84324617D01*
X90718761Y-84456673D01*
X90575000Y-84561122D01*
X90412664Y-84633398D01*
X90238849Y-84670344D01*
X90061151Y-84670344D01*
X89887336Y-84633398D01*
X89725000Y-84561122D01*
X89581239Y-84456673D01*
X89462336Y-84324617D01*
X89373486Y-84170726D01*
X89318575Y-84001725D01*
X89300000Y-83825000D01*
X89318575Y-83648275D01*
X89373486Y-83479274D01*
X89462336Y-83325383D01*
X89581239Y-83193327D01*
X89725000Y-83088878D01*
X89887336Y-83016602D01*
X90061151Y-82979656D01*
X90238849Y-82979656D01*
X90412664Y-83016602D01*
G37*
G36*
X128512664Y-83016602D02*
G01*
X128675000Y-83088878D01*
X128818761Y-83193327D01*
X128937664Y-83325383D01*
X129026514Y-83479274D01*
X129081425Y-83648275D01*
X129100000Y-83825000D01*
X129081425Y-84001725D01*
X129026514Y-84170726D01*
X128937664Y-84324617D01*
X128818761Y-84456673D01*
X128675000Y-84561122D01*
X128512664Y-84633398D01*
X128338849Y-84670344D01*
X128161151Y-84670344D01*
X127987336Y-84633398D01*
X127825000Y-84561122D01*
X127681239Y-84456673D01*
X127562336Y-84324617D01*
X127473486Y-84170726D01*
X127418575Y-84001725D01*
X127400000Y-83825000D01*
X127418575Y-83648275D01*
X127473486Y-83479274D01*
X127562336Y-83325383D01*
X127681239Y-83193327D01*
X127825000Y-83088878D01*
X127987336Y-83016602D01*
X128161151Y-82979656D01*
X128338849Y-82979656D01*
X128512664Y-83016602D01*
G37*
G36*
X131052664Y-83016602D02*
G01*
X131215000Y-83088878D01*
X131358761Y-83193327D01*
X131477664Y-83325383D01*
X131566514Y-83479274D01*
X131621425Y-83648275D01*
X131640000Y-83825000D01*
X131621425Y-84001725D01*
X131566514Y-84170726D01*
X131477664Y-84324617D01*
X131358761Y-84456673D01*
X131215000Y-84561122D01*
X131052664Y-84633398D01*
X130878849Y-84670344D01*
X130701151Y-84670344D01*
X130527336Y-84633398D01*
X130365000Y-84561122D01*
X130221239Y-84456673D01*
X130102336Y-84324617D01*
X130013486Y-84170726D01*
X129958575Y-84001725D01*
X129940000Y-83825000D01*
X129958575Y-83648275D01*
X130013486Y-83479274D01*
X130102336Y-83325383D01*
X130221239Y-83193327D01*
X130365000Y-83088878D01*
X130527336Y-83016602D01*
X130701151Y-82979656D01*
X130878849Y-82979656D01*
X131052664Y-83016602D01*
G37*
G36*
X87872664Y-80476602D02*
G01*
X88035000Y-80548878D01*
X88178761Y-80653327D01*
X88297664Y-80785383D01*
X88386514Y-80939274D01*
X88441425Y-81108275D01*
X88460000Y-81285000D01*
X88441425Y-81461725D01*
X88386514Y-81630726D01*
X88297664Y-81784617D01*
X88178761Y-81916673D01*
X88035000Y-82021122D01*
X87872664Y-82093398D01*
X87698849Y-82130344D01*
X87521151Y-82130344D01*
X87347336Y-82093398D01*
X87185000Y-82021122D01*
X87041239Y-81916673D01*
X86922336Y-81784617D01*
X86833486Y-81630726D01*
X86778575Y-81461725D01*
X86760000Y-81285000D01*
X86778575Y-81108275D01*
X86833486Y-80939274D01*
X86922336Y-80785383D01*
X87041239Y-80653327D01*
X87185000Y-80548878D01*
X87347336Y-80476602D01*
X87521151Y-80439656D01*
X87698849Y-80439656D01*
X87872664Y-80476602D01*
G37*
G36*
X90412664Y-80476602D02*
G01*
X90575000Y-80548878D01*
X90718761Y-80653327D01*
X90837664Y-80785383D01*
X90926514Y-80939274D01*
X90981425Y-81108275D01*
X91000000Y-81285000D01*
X90981425Y-81461725D01*
X90926514Y-81630726D01*
X90837664Y-81784617D01*
X90718761Y-81916673D01*
X90575000Y-82021122D01*
X90412664Y-82093398D01*
X90238849Y-82130344D01*
X90061151Y-82130344D01*
X89887336Y-82093398D01*
X89725000Y-82021122D01*
X89581239Y-81916673D01*
X89462336Y-81784617D01*
X89373486Y-81630726D01*
X89318575Y-81461725D01*
X89300000Y-81285000D01*
X89318575Y-81108275D01*
X89373486Y-80939274D01*
X89462336Y-80785383D01*
X89581239Y-80653327D01*
X89725000Y-80548878D01*
X89887336Y-80476602D01*
X90061151Y-80439656D01*
X90238849Y-80439656D01*
X90412664Y-80476602D01*
G37*
G36*
X128512664Y-80476602D02*
G01*
X128675000Y-80548878D01*
X128818761Y-80653327D01*
X128937664Y-80785383D01*
X129026514Y-80939274D01*
X129081425Y-81108275D01*
X129100000Y-81285000D01*
X129081425Y-81461725D01*
X129026514Y-81630726D01*
X128937664Y-81784617D01*
X128818761Y-81916673D01*
X128675000Y-82021122D01*
X128512664Y-82093398D01*
X128338849Y-82130344D01*
X128161151Y-82130344D01*
X127987336Y-82093398D01*
X127825000Y-82021122D01*
X127681239Y-81916673D01*
X127562336Y-81784617D01*
X127473486Y-81630726D01*
X127418575Y-81461725D01*
X127400000Y-81285000D01*
X127418575Y-81108275D01*
X127473486Y-80939274D01*
X127562336Y-80785383D01*
X127681239Y-80653327D01*
X127825000Y-80548878D01*
X127987336Y-80476602D01*
X128161151Y-80439656D01*
X128338849Y-80439656D01*
X128512664Y-80476602D01*
G37*
G36*
X131052664Y-80476602D02*
G01*
X131215000Y-80548878D01*
X131358761Y-80653327D01*
X131477664Y-80785383D01*
X131566514Y-80939274D01*
X131621425Y-81108275D01*
X131640000Y-81285000D01*
X131621425Y-81461725D01*
X131566514Y-81630726D01*
X131477664Y-81784617D01*
X131358761Y-81916673D01*
X131215000Y-82021122D01*
X131052664Y-82093398D01*
X130878849Y-82130344D01*
X130701151Y-82130344D01*
X130527336Y-82093398D01*
X130365000Y-82021122D01*
X130221239Y-81916673D01*
X130102336Y-81784617D01*
X130013486Y-81630726D01*
X129958575Y-81461725D01*
X129940000Y-81285000D01*
X129958575Y-81108275D01*
X130013486Y-80939274D01*
X130102336Y-80785383D01*
X130221239Y-80653327D01*
X130365000Y-80548878D01*
X130527336Y-80476602D01*
X130701151Y-80439656D01*
X130878849Y-80439656D01*
X131052664Y-80476602D01*
G37*
G36*
X87872664Y-77936602D02*
G01*
X88035000Y-78008878D01*
X88178761Y-78113327D01*
X88297664Y-78245383D01*
X88386514Y-78399274D01*
X88441425Y-78568275D01*
X88460000Y-78745000D01*
X88441425Y-78921725D01*
X88386514Y-79090726D01*
X88297664Y-79244617D01*
X88178761Y-79376673D01*
X88035000Y-79481122D01*
X87872664Y-79553398D01*
X87698849Y-79590344D01*
X87521151Y-79590344D01*
X87347336Y-79553398D01*
X87185000Y-79481122D01*
X87041239Y-79376673D01*
X86922336Y-79244617D01*
X86833486Y-79090726D01*
X86778575Y-78921725D01*
X86760000Y-78745000D01*
X86778575Y-78568275D01*
X86833486Y-78399274D01*
X86922336Y-78245383D01*
X87041239Y-78113327D01*
X87185000Y-78008878D01*
X87347336Y-77936602D01*
X87521151Y-77899656D01*
X87698849Y-77899656D01*
X87872664Y-77936602D01*
G37*
G36*
X90412664Y-77936602D02*
G01*
X90575000Y-78008878D01*
X90718761Y-78113327D01*
X90837664Y-78245383D01*
X90926514Y-78399274D01*
X90981425Y-78568275D01*
X91000000Y-78745000D01*
X90981425Y-78921725D01*
X90926514Y-79090726D01*
X90837664Y-79244617D01*
X90718761Y-79376673D01*
X90575000Y-79481122D01*
X90412664Y-79553398D01*
X90238849Y-79590344D01*
X90061151Y-79590344D01*
X89887336Y-79553398D01*
X89725000Y-79481122D01*
X89581239Y-79376673D01*
X89462336Y-79244617D01*
X89373486Y-79090726D01*
X89318575Y-78921725D01*
X89300000Y-78745000D01*
X89318575Y-78568275D01*
X89373486Y-78399274D01*
X89462336Y-78245383D01*
X89581239Y-78113327D01*
X89725000Y-78008878D01*
X89887336Y-77936602D01*
X90061151Y-77899656D01*
X90238849Y-77899656D01*
X90412664Y-77936602D01*
G37*
G36*
X128512664Y-77936602D02*
G01*
X128675000Y-78008878D01*
X128818761Y-78113327D01*
X128937664Y-78245383D01*
X129026514Y-78399274D01*
X129081425Y-78568275D01*
X129100000Y-78745000D01*
X129081425Y-78921725D01*
X129026514Y-79090726D01*
X128937664Y-79244617D01*
X128818761Y-79376673D01*
X128675000Y-79481122D01*
X128512664Y-79553398D01*
X128338849Y-79590344D01*
X128161151Y-79590344D01*
X127987336Y-79553398D01*
X127825000Y-79481122D01*
X127681239Y-79376673D01*
X127562336Y-79244617D01*
X127473486Y-79090726D01*
X127418575Y-78921725D01*
X127400000Y-78745000D01*
X127418575Y-78568275D01*
X127473486Y-78399274D01*
X127562336Y-78245383D01*
X127681239Y-78113327D01*
X127825000Y-78008878D01*
X127987336Y-77936602D01*
X128161151Y-77899656D01*
X128338849Y-77899656D01*
X128512664Y-77936602D01*
G37*
G36*
X131052664Y-77936602D02*
G01*
X131215000Y-78008878D01*
X131358761Y-78113327D01*
X131477664Y-78245383D01*
X131566514Y-78399274D01*
X131621425Y-78568275D01*
X131640000Y-78745000D01*
X131621425Y-78921725D01*
X131566514Y-79090726D01*
X131477664Y-79244617D01*
X131358761Y-79376673D01*
X131215000Y-79481122D01*
X131052664Y-79553398D01*
X130878849Y-79590344D01*
X130701151Y-79590344D01*
X130527336Y-79553398D01*
X130365000Y-79481122D01*
X130221239Y-79376673D01*
X130102336Y-79244617D01*
X130013486Y-79090726D01*
X129958575Y-78921725D01*
X129940000Y-78745000D01*
X129958575Y-78568275D01*
X130013486Y-78399274D01*
X130102336Y-78245383D01*
X130221239Y-78113327D01*
X130365000Y-78008878D01*
X130527336Y-77936602D01*
X130701151Y-77899656D01*
X130878849Y-77899656D01*
X131052664Y-77936602D01*
G37*
G36*
X68936767Y-76489215D02*
G01*
X69124360Y-76546120D01*
X69297247Y-76638530D01*
X69448784Y-76762893D01*
X69573147Y-76914430D01*
X69665557Y-77087317D01*
X69722462Y-77274910D01*
X69741677Y-77470000D01*
X69722462Y-77665090D01*
X69665557Y-77852683D01*
X69573147Y-78025570D01*
X69448784Y-78177107D01*
X69297247Y-78301470D01*
X69124360Y-78393880D01*
X68936767Y-78450785D01*
X68741677Y-78470000D01*
X68546587Y-78450785D01*
X68358994Y-78393880D01*
X68186107Y-78301470D01*
X68034570Y-78177107D01*
X67910207Y-78025570D01*
X67817797Y-77852683D01*
X67760892Y-77665090D01*
X67741677Y-77470000D01*
X67760892Y-77274910D01*
X67817797Y-77087317D01*
X67910207Y-76914430D01*
X68034570Y-76762893D01*
X68186107Y-76638530D01*
X68358994Y-76546120D01*
X68546587Y-76489215D01*
X68741677Y-76470000D01*
X68936767Y-76489215D01*
G37*
G36*
X74741677Y-78470000D02*
G01*
X72741677Y-78470000D01*
X72741677Y-76470000D01*
X74741677Y-76470000D01*
X74741677Y-78470000D01*
G37*
G36*
X82644000Y-77233000D02*
G01*
X81144000Y-77233000D01*
X81144000Y-76183000D01*
X82644000Y-76183000D01*
X82644000Y-77233000D01*
G37*
G36*
X82190487Y-74917890D02*
G01*
X82224409Y-74927394D01*
X82254745Y-74931388D01*
X82288362Y-74945313D01*
X82328161Y-74956464D01*
X82355672Y-74973194D01*
X82381240Y-74983785D01*
X82412378Y-75007678D01*
X82450321Y-75030752D01*
X82470230Y-75052069D01*
X82489864Y-75067135D01*
X82515486Y-75100527D01*
X82547909Y-75135243D01*
X82559937Y-75158456D01*
X82573214Y-75175759D01*
X82590394Y-75217236D01*
X82613687Y-75262188D01*
X82618390Y-75284822D01*
X82625611Y-75302254D01*
X82631831Y-75349505D01*
X82642776Y-75402173D01*
X82641404Y-75422220D01*
X82643482Y-75438000D01*
X82636911Y-75487908D01*
X82633019Y-75544814D01*
X82627302Y-75560900D01*
X82625611Y-75573745D01*
X82605373Y-75622602D01*
X82585140Y-75679534D01*
X82577034Y-75691016D01*
X82573213Y-75700243D01*
X82539606Y-75744039D01*
X82502689Y-75796340D01*
X82494136Y-75803298D01*
X82489867Y-75808862D01*
X82444659Y-75843550D01*
X82391782Y-75886570D01*
X82384438Y-75889759D01*
X82381240Y-75892214D01*
X82328367Y-75914114D01*
X82260643Y-75943532D01*
X82255714Y-75944209D01*
X82254745Y-75944611D01*
X82208415Y-75950710D01*
X82119000Y-75963000D01*
X82115066Y-75963000D01*
X81672934Y-75963000D01*
X81669000Y-75963000D01*
X81597513Y-75958110D01*
X81563586Y-75948604D01*
X81533254Y-75944611D01*
X81499641Y-75930688D01*
X81459839Y-75919536D01*
X81432324Y-75902803D01*
X81406759Y-75892214D01*
X81375622Y-75868322D01*
X81337679Y-75845248D01*
X81317769Y-75823929D01*
X81298135Y-75808864D01*
X81272511Y-75775471D01*
X81240091Y-75740757D01*
X81228063Y-75717544D01*
X81214785Y-75700240D01*
X81197602Y-75658757D01*
X81174313Y-75613812D01*
X81169610Y-75591180D01*
X81162388Y-75573745D01*
X81156165Y-75526482D01*
X81145224Y-75473827D01*
X81146594Y-75453784D01*
X81144517Y-75438000D01*
X81151089Y-75388074D01*
X81154981Y-75331186D01*
X81160696Y-75315104D01*
X81162388Y-75302254D01*
X81182635Y-75253373D01*
X81202860Y-75196466D01*
X81210961Y-75184988D01*
X81214786Y-75175756D01*
X81248413Y-75131931D01*
X81285311Y-75079660D01*
X81293859Y-75072705D01*
X81298132Y-75067137D01*
X81343379Y-75032417D01*
X81396218Y-74989430D01*
X81403556Y-74986242D01*
X81406759Y-74983785D01*
X81459702Y-74961854D01*
X81527357Y-74932468D01*
X81532280Y-74931791D01*
X81533254Y-74931388D01*
X81579715Y-74925271D01*
X81669000Y-74913000D01*
X82119000Y-74913000D01*
X82190487Y-74917890D01*
G37*
G36*
X82190487Y-73647890D02*
G01*
X82224409Y-73657394D01*
X82254745Y-73661388D01*
X82288362Y-73675313D01*
X82328161Y-73686464D01*
X82355672Y-73703194D01*
X82381240Y-73713785D01*
X82412378Y-73737678D01*
X82450321Y-73760752D01*
X82470230Y-73782069D01*
X82489864Y-73797135D01*
X82515486Y-73830527D01*
X82547909Y-73865243D01*
X82559937Y-73888456D01*
X82573214Y-73905759D01*
X82590394Y-73947236D01*
X82613687Y-73992188D01*
X82618390Y-74014822D01*
X82625611Y-74032254D01*
X82631831Y-74079505D01*
X82642776Y-74132173D01*
X82641404Y-74152220D01*
X82643482Y-74168000D01*
X82636911Y-74217908D01*
X82633019Y-74274814D01*
X82627302Y-74290900D01*
X82625611Y-74303745D01*
X82605373Y-74352602D01*
X82585140Y-74409534D01*
X82577034Y-74421016D01*
X82573213Y-74430243D01*
X82539606Y-74474039D01*
X82502689Y-74526340D01*
X82494136Y-74533298D01*
X82489867Y-74538862D01*
X82444659Y-74573550D01*
X82391782Y-74616570D01*
X82384438Y-74619759D01*
X82381240Y-74622214D01*
X82328367Y-74644114D01*
X82260643Y-74673532D01*
X82255714Y-74674209D01*
X82254745Y-74674611D01*
X82208415Y-74680710D01*
X82119000Y-74693000D01*
X82115066Y-74693000D01*
X81672934Y-74693000D01*
X81669000Y-74693000D01*
X81597513Y-74688110D01*
X81563586Y-74678604D01*
X81533254Y-74674611D01*
X81499641Y-74660688D01*
X81459839Y-74649536D01*
X81432324Y-74632803D01*
X81406759Y-74622214D01*
X81375622Y-74598322D01*
X81337679Y-74575248D01*
X81317769Y-74553929D01*
X81298135Y-74538864D01*
X81272511Y-74505471D01*
X81240091Y-74470757D01*
X81228063Y-74447544D01*
X81214785Y-74430240D01*
X81197602Y-74388757D01*
X81174313Y-74343812D01*
X81169610Y-74321180D01*
X81162388Y-74303745D01*
X81156165Y-74256482D01*
X81145224Y-74203827D01*
X81146594Y-74183784D01*
X81144517Y-74168000D01*
X81151089Y-74118074D01*
X81154981Y-74061186D01*
X81160696Y-74045104D01*
X81162388Y-74032254D01*
X81182635Y-73983373D01*
X81202860Y-73926466D01*
X81210961Y-73914988D01*
X81214786Y-73905756D01*
X81248413Y-73861931D01*
X81285311Y-73809660D01*
X81293859Y-73802705D01*
X81298132Y-73797137D01*
X81343379Y-73762417D01*
X81396218Y-73719430D01*
X81403556Y-73716242D01*
X81406759Y-73713785D01*
X81459702Y-73691854D01*
X81527357Y-73662468D01*
X81532280Y-73661791D01*
X81533254Y-73661388D01*
X81579715Y-73655271D01*
X81669000Y-73643000D01*
X82119000Y-73643000D01*
X82190487Y-73647890D01*
G37*
G36*
X101867664Y-72871602D02*
G01*
X102030000Y-72943878D01*
X102173761Y-73048327D01*
X102292664Y-73180383D01*
X102381514Y-73334274D01*
X102436425Y-73503275D01*
X102455000Y-73680000D01*
X102436425Y-73856725D01*
X102381514Y-74025726D01*
X102292664Y-74179617D01*
X102173761Y-74311673D01*
X102030000Y-74416122D01*
X101867664Y-74488398D01*
X101693849Y-74525344D01*
X101516151Y-74525344D01*
X101342336Y-74488398D01*
X101180000Y-74416122D01*
X101036239Y-74311673D01*
X100917336Y-74179617D01*
X100828486Y-74025726D01*
X100773575Y-73856725D01*
X100755000Y-73680000D01*
X100773575Y-73503275D01*
X100828486Y-73334274D01*
X100917336Y-73180383D01*
X101036239Y-73048327D01*
X101180000Y-72943878D01*
X101342336Y-72871602D01*
X101516151Y-72834656D01*
X101693849Y-72834656D01*
X101867664Y-72871602D01*
G37*
G36*
X104407664Y-72871602D02*
G01*
X104570000Y-72943878D01*
X104713761Y-73048327D01*
X104832664Y-73180383D01*
X104921514Y-73334274D01*
X104976425Y-73503275D01*
X104995000Y-73680000D01*
X104976425Y-73856725D01*
X104921514Y-74025726D01*
X104832664Y-74179617D01*
X104713761Y-74311673D01*
X104570000Y-74416122D01*
X104407664Y-74488398D01*
X104233849Y-74525344D01*
X104056151Y-74525344D01*
X103882336Y-74488398D01*
X103720000Y-74416122D01*
X103576239Y-74311673D01*
X103457336Y-74179617D01*
X103368486Y-74025726D01*
X103313575Y-73856725D01*
X103295000Y-73680000D01*
X103313575Y-73503275D01*
X103368486Y-73334274D01*
X103457336Y-73180383D01*
X103576239Y-73048327D01*
X103720000Y-72943878D01*
X103882336Y-72871602D01*
X104056151Y-72834656D01*
X104233849Y-72834656D01*
X104407664Y-72871602D01*
G37*
G36*
X106947664Y-72871602D02*
G01*
X107110000Y-72943878D01*
X107253761Y-73048327D01*
X107372664Y-73180383D01*
X107461514Y-73334274D01*
X107516425Y-73503275D01*
X107535000Y-73680000D01*
X107516425Y-73856725D01*
X107461514Y-74025726D01*
X107372664Y-74179617D01*
X107253761Y-74311673D01*
X107110000Y-74416122D01*
X106947664Y-74488398D01*
X106773849Y-74525344D01*
X106596151Y-74525344D01*
X106422336Y-74488398D01*
X106260000Y-74416122D01*
X106116239Y-74311673D01*
X105997336Y-74179617D01*
X105908486Y-74025726D01*
X105853575Y-73856725D01*
X105835000Y-73680000D01*
X105853575Y-73503275D01*
X105908486Y-73334274D01*
X105997336Y-73180383D01*
X106116239Y-73048327D01*
X106260000Y-72943878D01*
X106422336Y-72871602D01*
X106596151Y-72834656D01*
X106773849Y-72834656D01*
X106947664Y-72871602D01*
G37*
G36*
X109487664Y-72871602D02*
G01*
X109650000Y-72943878D01*
X109793761Y-73048327D01*
X109912664Y-73180383D01*
X110001514Y-73334274D01*
X110056425Y-73503275D01*
X110075000Y-73680000D01*
X110056425Y-73856725D01*
X110001514Y-74025726D01*
X109912664Y-74179617D01*
X109793761Y-74311673D01*
X109650000Y-74416122D01*
X109487664Y-74488398D01*
X109313849Y-74525344D01*
X109136151Y-74525344D01*
X108962336Y-74488398D01*
X108800000Y-74416122D01*
X108656239Y-74311673D01*
X108537336Y-74179617D01*
X108448486Y-74025726D01*
X108393575Y-73856725D01*
X108375000Y-73680000D01*
X108393575Y-73503275D01*
X108448486Y-73334274D01*
X108537336Y-73180383D01*
X108656239Y-73048327D01*
X108800000Y-72943878D01*
X108962336Y-72871602D01*
X109136151Y-72834656D01*
X109313849Y-72834656D01*
X109487664Y-72871602D01*
G37*
G36*
X112027664Y-72871602D02*
G01*
X112190000Y-72943878D01*
X112333761Y-73048327D01*
X112452664Y-73180383D01*
X112541514Y-73334274D01*
X112596425Y-73503275D01*
X112615000Y-73680000D01*
X112596425Y-73856725D01*
X112541514Y-74025726D01*
X112452664Y-74179617D01*
X112333761Y-74311673D01*
X112190000Y-74416122D01*
X112027664Y-74488398D01*
X111853849Y-74525344D01*
X111676151Y-74525344D01*
X111502336Y-74488398D01*
X111340000Y-74416122D01*
X111196239Y-74311673D01*
X111077336Y-74179617D01*
X110988486Y-74025726D01*
X110933575Y-73856725D01*
X110915000Y-73680000D01*
X110933575Y-73503275D01*
X110988486Y-73334274D01*
X111077336Y-73180383D01*
X111196239Y-73048327D01*
X111340000Y-72943878D01*
X111502336Y-72871602D01*
X111676151Y-72834656D01*
X111853849Y-72834656D01*
X112027664Y-72871602D01*
G37*
G36*
X114567664Y-72871602D02*
G01*
X114730000Y-72943878D01*
X114873761Y-73048327D01*
X114992664Y-73180383D01*
X115081514Y-73334274D01*
X115136425Y-73503275D01*
X115155000Y-73680000D01*
X115136425Y-73856725D01*
X115081514Y-74025726D01*
X114992664Y-74179617D01*
X114873761Y-74311673D01*
X114730000Y-74416122D01*
X114567664Y-74488398D01*
X114393849Y-74525344D01*
X114216151Y-74525344D01*
X114042336Y-74488398D01*
X113880000Y-74416122D01*
X113736239Y-74311673D01*
X113617336Y-74179617D01*
X113528486Y-74025726D01*
X113473575Y-73856725D01*
X113455000Y-73680000D01*
X113473575Y-73503275D01*
X113528486Y-73334274D01*
X113617336Y-73180383D01*
X113736239Y-73048327D01*
X113880000Y-72943878D01*
X114042336Y-72871602D01*
X114216151Y-72834656D01*
X114393849Y-72834656D01*
X114567664Y-72871602D01*
G37*
G36*
X117107664Y-72871602D02*
G01*
X117270000Y-72943878D01*
X117413761Y-73048327D01*
X117532664Y-73180383D01*
X117621514Y-73334274D01*
X117676425Y-73503275D01*
X117695000Y-73680000D01*
X117676425Y-73856725D01*
X117621514Y-74025726D01*
X117532664Y-74179617D01*
X117413761Y-74311673D01*
X117270000Y-74416122D01*
X117107664Y-74488398D01*
X116933849Y-74525344D01*
X116756151Y-74525344D01*
X116582336Y-74488398D01*
X116420000Y-74416122D01*
X116276239Y-74311673D01*
X116157336Y-74179617D01*
X116068486Y-74025726D01*
X116013575Y-73856725D01*
X115995000Y-73680000D01*
X116013575Y-73503275D01*
X116068486Y-73334274D01*
X116157336Y-73180383D01*
X116276239Y-73048327D01*
X116420000Y-72943878D01*
X116582336Y-72871602D01*
X116756151Y-72834656D01*
X116933849Y-72834656D01*
X117107664Y-72871602D01*
G37*
G36*
X117695000Y-71990000D02*
G01*
X115995000Y-71990000D01*
X115995000Y-70290000D01*
X117695000Y-70290000D01*
X117695000Y-71990000D01*
G37*
G36*
X101867664Y-70331602D02*
G01*
X102030000Y-70403878D01*
X102173761Y-70508327D01*
X102292664Y-70640383D01*
X102381514Y-70794274D01*
X102436425Y-70963275D01*
X102455000Y-71140000D01*
X102436425Y-71316725D01*
X102381514Y-71485726D01*
X102292664Y-71639617D01*
X102173761Y-71771673D01*
X102030000Y-71876122D01*
X101867664Y-71948398D01*
X101693849Y-71985344D01*
X101516151Y-71985344D01*
X101342336Y-71948398D01*
X101180000Y-71876122D01*
X101036239Y-71771673D01*
X100917336Y-71639617D01*
X100828486Y-71485726D01*
X100773575Y-71316725D01*
X100755000Y-71140000D01*
X100773575Y-70963275D01*
X100828486Y-70794274D01*
X100917336Y-70640383D01*
X101036239Y-70508327D01*
X101180000Y-70403878D01*
X101342336Y-70331602D01*
X101516151Y-70294656D01*
X101693849Y-70294656D01*
X101867664Y-70331602D01*
G37*
G36*
X104407664Y-70331602D02*
G01*
X104570000Y-70403878D01*
X104713761Y-70508327D01*
X104832664Y-70640383D01*
X104921514Y-70794274D01*
X104976425Y-70963275D01*
X104995000Y-71140000D01*
X104976425Y-71316725D01*
X104921514Y-71485726D01*
X104832664Y-71639617D01*
X104713761Y-71771673D01*
X104570000Y-71876122D01*
X104407664Y-71948398D01*
X104233849Y-71985344D01*
X104056151Y-71985344D01*
X103882336Y-71948398D01*
X103720000Y-71876122D01*
X103576239Y-71771673D01*
X103457336Y-71639617D01*
X103368486Y-71485726D01*
X103313575Y-71316725D01*
X103295000Y-71140000D01*
X103313575Y-70963275D01*
X103368486Y-70794274D01*
X103457336Y-70640383D01*
X103576239Y-70508327D01*
X103720000Y-70403878D01*
X103882336Y-70331602D01*
X104056151Y-70294656D01*
X104233849Y-70294656D01*
X104407664Y-70331602D01*
G37*
G36*
X106947664Y-70331602D02*
G01*
X107110000Y-70403878D01*
X107253761Y-70508327D01*
X107372664Y-70640383D01*
X107461514Y-70794274D01*
X107516425Y-70963275D01*
X107535000Y-71140000D01*
X107516425Y-71316725D01*
X107461514Y-71485726D01*
X107372664Y-71639617D01*
X107253761Y-71771673D01*
X107110000Y-71876122D01*
X106947664Y-71948398D01*
X106773849Y-71985344D01*
X106596151Y-71985344D01*
X106422336Y-71948398D01*
X106260000Y-71876122D01*
X106116239Y-71771673D01*
X105997336Y-71639617D01*
X105908486Y-71485726D01*
X105853575Y-71316725D01*
X105835000Y-71140000D01*
X105853575Y-70963275D01*
X105908486Y-70794274D01*
X105997336Y-70640383D01*
X106116239Y-70508327D01*
X106260000Y-70403878D01*
X106422336Y-70331602D01*
X106596151Y-70294656D01*
X106773849Y-70294656D01*
X106947664Y-70331602D01*
G37*
G36*
X109487664Y-70331602D02*
G01*
X109650000Y-70403878D01*
X109793761Y-70508327D01*
X109912664Y-70640383D01*
X110001514Y-70794274D01*
X110056425Y-70963275D01*
X110075000Y-71140000D01*
X110056425Y-71316725D01*
X110001514Y-71485726D01*
X109912664Y-71639617D01*
X109793761Y-71771673D01*
X109650000Y-71876122D01*
X109487664Y-71948398D01*
X109313849Y-71985344D01*
X109136151Y-71985344D01*
X108962336Y-71948398D01*
X108800000Y-71876122D01*
X108656239Y-71771673D01*
X108537336Y-71639617D01*
X108448486Y-71485726D01*
X108393575Y-71316725D01*
X108375000Y-71140000D01*
X108393575Y-70963275D01*
X108448486Y-70794274D01*
X108537336Y-70640383D01*
X108656239Y-70508327D01*
X108800000Y-70403878D01*
X108962336Y-70331602D01*
X109136151Y-70294656D01*
X109313849Y-70294656D01*
X109487664Y-70331602D01*
G37*
G36*
X112027664Y-70331602D02*
G01*
X112190000Y-70403878D01*
X112333761Y-70508327D01*
X112452664Y-70640383D01*
X112541514Y-70794274D01*
X112596425Y-70963275D01*
X112615000Y-71140000D01*
X112596425Y-71316725D01*
X112541514Y-71485726D01*
X112452664Y-71639617D01*
X112333761Y-71771673D01*
X112190000Y-71876122D01*
X112027664Y-71948398D01*
X111853849Y-71985344D01*
X111676151Y-71985344D01*
X111502336Y-71948398D01*
X111340000Y-71876122D01*
X111196239Y-71771673D01*
X111077336Y-71639617D01*
X110988486Y-71485726D01*
X110933575Y-71316725D01*
X110915000Y-71140000D01*
X110933575Y-70963275D01*
X110988486Y-70794274D01*
X111077336Y-70640383D01*
X111196239Y-70508327D01*
X111340000Y-70403878D01*
X111502336Y-70331602D01*
X111676151Y-70294656D01*
X111853849Y-70294656D01*
X112027664Y-70331602D01*
G37*
G36*
X114567664Y-70331602D02*
G01*
X114730000Y-70403878D01*
X114873761Y-70508327D01*
X114992664Y-70640383D01*
X115081514Y-70794274D01*
X115136425Y-70963275D01*
X115155000Y-71140000D01*
X115136425Y-71316725D01*
X115081514Y-71485726D01*
X114992664Y-71639617D01*
X114873761Y-71771673D01*
X114730000Y-71876122D01*
X114567664Y-71948398D01*
X114393849Y-71985344D01*
X114216151Y-71985344D01*
X114042336Y-71948398D01*
X113880000Y-71876122D01*
X113736239Y-71771673D01*
X113617336Y-71639617D01*
X113528486Y-71485726D01*
X113473575Y-71316725D01*
X113455000Y-71140000D01*
X113473575Y-70963275D01*
X113528486Y-70794274D01*
X113617336Y-70640383D01*
X113736239Y-70508327D01*
X113880000Y-70403878D01*
X114042336Y-70331602D01*
X114216151Y-70294656D01*
X114393849Y-70294656D01*
X114567664Y-70331602D01*
G37*
G36*
X81800924Y-68800711D02*
G01*
X81842701Y-68800711D01*
X81889831Y-68810728D01*
X81937130Y-68816058D01*
X81971521Y-68828092D01*
X82006223Y-68835468D01*
X82056230Y-68857733D01*
X82106220Y-68875225D01*
X82132241Y-68891575D01*
X82158948Y-68903466D01*
X82208746Y-68939646D01*
X82257905Y-68970535D01*
X82275557Y-68988187D01*
X82294197Y-69001730D01*
X82340278Y-69052908D01*
X82384578Y-69097208D01*
X82394767Y-69113424D01*
X82406059Y-69125965D01*
X82444686Y-69192870D01*
X82479888Y-69248893D01*
X82484283Y-69261453D01*
X82489648Y-69270746D01*
X82517123Y-69355305D01*
X82539055Y-69417983D01*
X82539886Y-69425363D01*
X82541308Y-69429738D01*
X82554189Y-69552306D01*
X82559113Y-69596000D01*
X82554189Y-69639697D01*
X82541308Y-69762261D01*
X82539886Y-69766635D01*
X82539055Y-69774017D01*
X82517118Y-69836707D01*
X82489648Y-69921253D01*
X82484284Y-69930543D01*
X82479888Y-69943107D01*
X82444679Y-69999140D01*
X82406059Y-70066034D01*
X82394769Y-70078572D01*
X82384578Y-70094792D01*
X82340268Y-70139101D01*
X82294197Y-70190269D01*
X82275561Y-70203808D01*
X82257905Y-70221465D01*
X82208736Y-70252359D01*
X82158948Y-70288533D01*
X82132247Y-70300421D01*
X82106220Y-70316775D01*
X82056220Y-70334270D01*
X82006223Y-70356531D01*
X81971527Y-70363905D01*
X81937130Y-70375942D01*
X81889828Y-70381271D01*
X81842701Y-70391289D01*
X81800924Y-70391289D01*
X81759113Y-70396000D01*
X81717302Y-70391289D01*
X81675525Y-70391289D01*
X81628397Y-70381271D01*
X81581096Y-70375942D01*
X81546699Y-70363906D01*
X81512002Y-70356531D01*
X81462000Y-70334268D01*
X81412006Y-70316775D01*
X81385981Y-70300422D01*
X81359277Y-70288533D01*
X81309482Y-70252355D01*
X81260321Y-70221465D01*
X81242667Y-70203811D01*
X81224028Y-70190269D01*
X81177946Y-70139090D01*
X81133648Y-70094792D01*
X81123458Y-70078575D01*
X81112166Y-70066034D01*
X81073533Y-69999120D01*
X81038338Y-69943107D01*
X81033943Y-69930547D01*
X81028577Y-69921253D01*
X81001093Y-69836667D01*
X80979171Y-69774017D01*
X80978339Y-69766639D01*
X80976917Y-69762261D01*
X80964021Y-69639565D01*
X80959113Y-69596000D01*
X80964021Y-69552438D01*
X80976917Y-69429738D01*
X80978339Y-69425358D01*
X80979171Y-69417983D01*
X81001088Y-69355345D01*
X81028577Y-69270746D01*
X81033944Y-69261449D01*
X81038338Y-69248893D01*
X81073526Y-69192890D01*
X81112166Y-69125965D01*
X81123460Y-69113421D01*
X81133648Y-69097208D01*
X81177939Y-69052916D01*
X81224030Y-69001728D01*
X81242672Y-68988183D01*
X81260321Y-68970535D01*
X81309467Y-68939654D01*
X81359275Y-68903467D01*
X81385986Y-68891574D01*
X81412006Y-68875225D01*
X81461990Y-68857734D01*
X81512002Y-68835468D01*
X81546705Y-68828091D01*
X81581096Y-68816058D01*
X81628394Y-68810728D01*
X81675525Y-68800711D01*
X81717302Y-68800711D01*
X81759113Y-68796000D01*
X81800924Y-68800711D01*
G37*
G36*
X84559113Y-70396000D02*
G01*
X82959113Y-70396000D01*
X82959113Y-68796000D01*
X84559113Y-68796000D01*
X84559113Y-70396000D01*
G37*
G36*
X68936767Y-65567215D02*
G01*
X69124360Y-65624120D01*
X69297247Y-65716530D01*
X69448784Y-65840893D01*
X69573147Y-65992430D01*
X69665557Y-66165317D01*
X69722462Y-66352910D01*
X69741677Y-66548000D01*
X69722462Y-66743090D01*
X69665557Y-66930683D01*
X69573147Y-67103570D01*
X69448784Y-67255107D01*
X69297247Y-67379470D01*
X69124360Y-67471880D01*
X68936767Y-67528785D01*
X68741677Y-67548000D01*
X68546587Y-67528785D01*
X68358994Y-67471880D01*
X68186107Y-67379470D01*
X68034570Y-67255107D01*
X67910207Y-67103570D01*
X67817797Y-66930683D01*
X67760892Y-66743090D01*
X67741677Y-66548000D01*
X67760892Y-66352910D01*
X67817797Y-66165317D01*
X67910207Y-65992430D01*
X68034570Y-65840893D01*
X68186107Y-65716530D01*
X68358994Y-65624120D01*
X68546587Y-65567215D01*
X68741677Y-65548000D01*
X68936767Y-65567215D01*
G37*
G36*
X74741677Y-67548000D02*
G01*
X72741677Y-67548000D01*
X72741677Y-65548000D01*
X74741677Y-65548000D01*
X74741677Y-67548000D01*
G37*
G36*
X79335893Y-62305119D02*
G01*
X79390722Y-62305119D01*
X79438959Y-62314136D01*
X79488337Y-62318456D01*
X79548942Y-62334695D01*
X79608396Y-62345809D01*
X79648721Y-62361431D01*
X79690344Y-62372584D01*
X79753358Y-62401967D01*
X79814886Y-62425804D01*
X79846644Y-62445467D01*
X79879889Y-62460970D01*
X79942599Y-62504880D01*
X80003162Y-62542379D01*
X80026376Y-62563541D01*
X80051195Y-62580920D01*
X80110564Y-62640289D01*
X80166811Y-62691565D01*
X80182143Y-62711868D01*
X80199079Y-62728804D01*
X80251904Y-62804246D01*
X80300261Y-62868281D01*
X80308924Y-62885680D01*
X80319032Y-62900115D01*
X80362075Y-62992421D01*
X80398967Y-63066510D01*
X80402634Y-63079401D01*
X80407414Y-63089650D01*
X80437534Y-63202059D01*
X80459568Y-63279501D01*
X80460246Y-63286823D01*
X80461543Y-63291662D01*
X80475881Y-63455554D01*
X80480000Y-63500000D01*
X80475881Y-63544448D01*
X80461543Y-63708337D01*
X80460246Y-63713174D01*
X80459568Y-63720499D01*
X80437527Y-63797965D01*
X80407415Y-63910344D01*
X80402637Y-63920589D01*
X80398967Y-63933490D01*
X80362052Y-64007625D01*
X80319029Y-64099889D01*
X80308925Y-64114318D01*
X80300261Y-64131719D01*
X80251897Y-64195762D01*
X80199079Y-64271195D01*
X80182146Y-64288127D01*
X80166811Y-64308435D01*
X80110552Y-64359721D01*
X80051195Y-64419079D01*
X80026381Y-64436453D01*
X80003162Y-64457621D01*
X79942587Y-64495127D01*
X79879889Y-64539029D01*
X79846650Y-64554528D01*
X79814886Y-64574196D01*
X79753345Y-64598037D01*
X79690344Y-64627415D01*
X79648729Y-64638565D01*
X79608396Y-64654191D01*
X79548930Y-64665307D01*
X79488337Y-64681543D01*
X79438969Y-64685862D01*
X79390722Y-64694881D01*
X79335882Y-64694881D01*
X79280000Y-64699770D01*
X79224118Y-64694881D01*
X79169278Y-64694881D01*
X79121031Y-64685862D01*
X79071662Y-64681543D01*
X79011066Y-64665306D01*
X78951604Y-64654191D01*
X78911272Y-64638566D01*
X78869655Y-64627415D01*
X78806648Y-64598034D01*
X78745114Y-64574196D01*
X78713352Y-64554530D01*
X78680110Y-64539029D01*
X78617404Y-64495121D01*
X78556838Y-64457621D01*
X78533621Y-64436456D01*
X78508804Y-64419079D01*
X78449435Y-64359710D01*
X78393189Y-64308435D01*
X78377856Y-64288131D01*
X78360920Y-64271195D01*
X78308088Y-64195743D01*
X78259739Y-64131719D01*
X78251076Y-64114323D01*
X78240970Y-64099889D01*
X78197932Y-64007593D01*
X78161033Y-63933490D01*
X78157364Y-63920594D01*
X78152584Y-63910344D01*
X78122455Y-63797904D01*
X78100432Y-63720499D01*
X78099753Y-63713180D01*
X78098456Y-63708337D01*
X78084100Y-63544255D01*
X78080000Y-63500000D01*
X78084100Y-63455748D01*
X78098456Y-63291662D01*
X78099754Y-63286817D01*
X78100432Y-63279501D01*
X78122448Y-63202120D01*
X78152585Y-63089650D01*
X78157366Y-63079395D01*
X78161033Y-63066510D01*
X78197909Y-62992452D01*
X78240967Y-62900115D01*
X78251077Y-62885675D01*
X78259739Y-62868281D01*
X78308081Y-62804264D01*
X78360920Y-62728804D01*
X78377859Y-62711864D01*
X78393189Y-62691565D01*
X78449424Y-62640299D01*
X78508804Y-62580920D01*
X78533626Y-62563539D01*
X78556838Y-62542379D01*
X78617395Y-62504883D01*
X78680115Y-62460967D01*
X78713364Y-62445462D01*
X78745114Y-62425804D01*
X78806621Y-62401975D01*
X78869650Y-62372585D01*
X78911283Y-62361429D01*
X78951604Y-62345809D01*
X79011053Y-62334696D01*
X79071662Y-62318456D01*
X79121041Y-62314135D01*
X79169278Y-62305119D01*
X79224106Y-62305119D01*
X79280000Y-62300229D01*
X79335893Y-62305119D01*
G37*
G36*
X94575893Y-62305119D02*
G01*
X94630722Y-62305119D01*
X94678959Y-62314136D01*
X94728337Y-62318456D01*
X94788942Y-62334695D01*
X94848396Y-62345809D01*
X94888721Y-62361431D01*
X94930344Y-62372584D01*
X94993358Y-62401967D01*
X95054886Y-62425804D01*
X95086644Y-62445467D01*
X95119889Y-62460970D01*
X95182599Y-62504880D01*
X95243162Y-62542379D01*
X95266376Y-62563541D01*
X95291195Y-62580920D01*
X95350564Y-62640289D01*
X95406811Y-62691565D01*
X95422143Y-62711868D01*
X95439079Y-62728804D01*
X95491904Y-62804246D01*
X95540261Y-62868281D01*
X95548924Y-62885680D01*
X95559032Y-62900115D01*
X95602075Y-62992421D01*
X95638967Y-63066510D01*
X95642634Y-63079401D01*
X95647414Y-63089650D01*
X95677534Y-63202059D01*
X95699568Y-63279501D01*
X95700246Y-63286823D01*
X95701543Y-63291662D01*
X95715881Y-63455554D01*
X95720000Y-63500000D01*
X95715881Y-63544448D01*
X95701543Y-63708337D01*
X95700246Y-63713174D01*
X95699568Y-63720499D01*
X95677527Y-63797965D01*
X95647415Y-63910344D01*
X95642637Y-63920589D01*
X95638967Y-63933490D01*
X95602052Y-64007625D01*
X95559029Y-64099889D01*
X95548925Y-64114318D01*
X95540261Y-64131719D01*
X95491897Y-64195762D01*
X95439079Y-64271195D01*
X95422146Y-64288127D01*
X95406811Y-64308435D01*
X95350552Y-64359721D01*
X95291195Y-64419079D01*
X95266381Y-64436453D01*
X95243162Y-64457621D01*
X95182587Y-64495127D01*
X95119889Y-64539029D01*
X95086650Y-64554528D01*
X95054886Y-64574196D01*
X94993345Y-64598037D01*
X94930344Y-64627415D01*
X94888729Y-64638565D01*
X94848396Y-64654191D01*
X94788930Y-64665307D01*
X94728337Y-64681543D01*
X94678969Y-64685862D01*
X94630722Y-64694881D01*
X94575882Y-64694881D01*
X94520000Y-64699770D01*
X94464118Y-64694881D01*
X94409278Y-64694881D01*
X94361031Y-64685862D01*
X94311662Y-64681543D01*
X94251066Y-64665306D01*
X94191604Y-64654191D01*
X94151272Y-64638566D01*
X94109655Y-64627415D01*
X94046648Y-64598034D01*
X93985114Y-64574196D01*
X93953352Y-64554530D01*
X93920110Y-64539029D01*
X93857404Y-64495121D01*
X93796838Y-64457621D01*
X93773621Y-64436456D01*
X93748804Y-64419079D01*
X93689435Y-64359710D01*
X93633189Y-64308435D01*
X93617856Y-64288131D01*
X93600920Y-64271195D01*
X93548088Y-64195743D01*
X93499739Y-64131719D01*
X93491076Y-64114323D01*
X93480970Y-64099889D01*
X93437932Y-64007593D01*
X93401033Y-63933490D01*
X93397364Y-63920594D01*
X93392584Y-63910344D01*
X93362455Y-63797904D01*
X93340432Y-63720499D01*
X93339753Y-63713180D01*
X93338456Y-63708337D01*
X93324100Y-63544255D01*
X93320000Y-63500000D01*
X93324100Y-63455748D01*
X93338456Y-63291662D01*
X93339754Y-63286817D01*
X93340432Y-63279501D01*
X93362448Y-63202120D01*
X93392585Y-63089650D01*
X93397366Y-63079395D01*
X93401033Y-63066510D01*
X93437909Y-62992452D01*
X93480967Y-62900115D01*
X93491077Y-62885675D01*
X93499739Y-62868281D01*
X93548081Y-62804264D01*
X93600920Y-62728804D01*
X93617859Y-62711864D01*
X93633189Y-62691565D01*
X93689424Y-62640299D01*
X93748804Y-62580920D01*
X93773626Y-62563539D01*
X93796838Y-62542379D01*
X93857395Y-62504883D01*
X93920115Y-62460967D01*
X93953364Y-62445462D01*
X93985114Y-62425804D01*
X94046621Y-62401975D01*
X94109650Y-62372585D01*
X94151283Y-62361429D01*
X94191604Y-62345809D01*
X94251053Y-62334696D01*
X94311662Y-62318456D01*
X94361041Y-62314135D01*
X94409278Y-62305119D01*
X94464106Y-62305119D01*
X94520000Y-62300229D01*
X94575893Y-62305119D01*
G37*
G36*
X99700000Y-64600000D02*
G01*
X98100000Y-64600000D01*
X98100000Y-63000000D01*
X99700000Y-63000000D01*
X99700000Y-64600000D01*
G37*
G36*
X100941811Y-63004711D02*
G01*
X100983588Y-63004711D01*
X101030718Y-63014728D01*
X101078017Y-63020058D01*
X101112408Y-63032092D01*
X101147110Y-63039468D01*
X101197117Y-63061733D01*
X101247107Y-63079225D01*
X101273128Y-63095575D01*
X101299835Y-63107466D01*
X101349633Y-63143646D01*
X101398792Y-63174535D01*
X101416444Y-63192187D01*
X101435084Y-63205730D01*
X101481165Y-63256908D01*
X101525465Y-63301208D01*
X101535654Y-63317424D01*
X101546946Y-63329965D01*
X101585573Y-63396870D01*
X101620775Y-63452893D01*
X101625170Y-63465453D01*
X101630535Y-63474746D01*
X101658010Y-63559305D01*
X101679942Y-63621983D01*
X101680773Y-63629363D01*
X101682195Y-63633738D01*
X101695076Y-63756306D01*
X101700000Y-63800000D01*
X101695076Y-63843697D01*
X101682195Y-63966261D01*
X101680773Y-63970635D01*
X101679942Y-63978017D01*
X101658005Y-64040707D01*
X101630535Y-64125253D01*
X101625171Y-64134543D01*
X101620775Y-64147107D01*
X101585566Y-64203140D01*
X101546946Y-64270034D01*
X101535656Y-64282572D01*
X101525465Y-64298792D01*
X101481155Y-64343101D01*
X101435084Y-64394269D01*
X101416448Y-64407808D01*
X101398792Y-64425465D01*
X101349623Y-64456359D01*
X101299835Y-64492533D01*
X101273134Y-64504421D01*
X101247107Y-64520775D01*
X101197107Y-64538270D01*
X101147110Y-64560531D01*
X101112414Y-64567905D01*
X101078017Y-64579942D01*
X101030715Y-64585271D01*
X100983588Y-64595289D01*
X100941811Y-64595289D01*
X100900000Y-64600000D01*
X100858189Y-64595289D01*
X100816412Y-64595289D01*
X100769284Y-64585271D01*
X100721983Y-64579942D01*
X100687586Y-64567906D01*
X100652889Y-64560531D01*
X100602887Y-64538268D01*
X100552893Y-64520775D01*
X100526868Y-64504422D01*
X100500164Y-64492533D01*
X100450369Y-64456355D01*
X100401208Y-64425465D01*
X100383554Y-64407811D01*
X100364915Y-64394269D01*
X100318833Y-64343090D01*
X100274535Y-64298792D01*
X100264345Y-64282575D01*
X100253053Y-64270034D01*
X100214420Y-64203120D01*
X100179225Y-64147107D01*
X100174830Y-64134547D01*
X100169464Y-64125253D01*
X100141980Y-64040667D01*
X100120058Y-63978017D01*
X100119226Y-63970639D01*
X100117804Y-63966261D01*
X100104908Y-63843565D01*
X100100000Y-63800000D01*
X100104908Y-63756438D01*
X100117804Y-63633738D01*
X100119226Y-63629358D01*
X100120058Y-63621983D01*
X100141975Y-63559345D01*
X100169464Y-63474746D01*
X100174831Y-63465449D01*
X100179225Y-63452893D01*
X100214413Y-63396890D01*
X100253053Y-63329965D01*
X100264347Y-63317421D01*
X100274535Y-63301208D01*
X100318826Y-63256916D01*
X100364917Y-63205728D01*
X100383559Y-63192183D01*
X100401208Y-63174535D01*
X100450354Y-63143654D01*
X100500162Y-63107467D01*
X100526873Y-63095574D01*
X100552893Y-63079225D01*
X100602877Y-63061734D01*
X100652889Y-63039468D01*
X100687592Y-63032091D01*
X100721983Y-63020058D01*
X100769281Y-63014728D01*
X100816412Y-63004711D01*
X100858189Y-63004711D01*
X100900000Y-63000000D01*
X100941811Y-63004711D01*
G37*
G36*
X115150000Y-62064000D02*
G01*
X113450000Y-62064000D01*
X113450000Y-60364000D01*
X115150000Y-60364000D01*
X115150000Y-62064000D01*
G37*
G36*
X112022664Y-60405602D02*
G01*
X112185000Y-60477878D01*
X112328761Y-60582327D01*
X112447664Y-60714383D01*
X112536514Y-60868274D01*
X112591425Y-61037275D01*
X112610000Y-61214000D01*
X112591425Y-61390725D01*
X112536514Y-61559726D01*
X112447664Y-61713617D01*
X112328761Y-61845673D01*
X112185000Y-61950122D01*
X112022664Y-62022398D01*
X111848849Y-62059344D01*
X111671151Y-62059344D01*
X111497336Y-62022398D01*
X111335000Y-61950122D01*
X111191239Y-61845673D01*
X111072336Y-61713617D01*
X110983486Y-61559726D01*
X110928575Y-61390725D01*
X110910000Y-61214000D01*
X110928575Y-61037275D01*
X110983486Y-60868274D01*
X111072336Y-60714383D01*
X111191239Y-60582327D01*
X111335000Y-60477878D01*
X111497336Y-60405602D01*
X111671151Y-60368656D01*
X111848849Y-60368656D01*
X112022664Y-60405602D01*
G37*
G36*
X74700000Y-59602651D02*
G01*
X73100000Y-59602651D01*
X73100000Y-58002651D01*
X74700000Y-58002651D01*
X74700000Y-59602651D01*
G37*
G36*
X112022664Y-57865602D02*
G01*
X112185000Y-57937878D01*
X112328761Y-58042327D01*
X112447664Y-58174383D01*
X112536514Y-58328274D01*
X112591425Y-58497275D01*
X112610000Y-58674000D01*
X112591425Y-58850725D01*
X112536514Y-59019726D01*
X112447664Y-59173617D01*
X112328761Y-59305673D01*
X112185000Y-59410122D01*
X112022664Y-59482398D01*
X111848849Y-59519344D01*
X111671151Y-59519344D01*
X111497336Y-59482398D01*
X111335000Y-59410122D01*
X111191239Y-59305673D01*
X111072336Y-59173617D01*
X110983486Y-59019726D01*
X110928575Y-58850725D01*
X110910000Y-58674000D01*
X110928575Y-58497275D01*
X110983486Y-58328274D01*
X111072336Y-58174383D01*
X111191239Y-58042327D01*
X111335000Y-57937878D01*
X111497336Y-57865602D01*
X111671151Y-57828656D01*
X111848849Y-57828656D01*
X112022664Y-57865602D01*
G37*
G36*
X114562664Y-57865602D02*
G01*
X114725000Y-57937878D01*
X114868761Y-58042327D01*
X114987664Y-58174383D01*
X115076514Y-58328274D01*
X115131425Y-58497275D01*
X115150000Y-58674000D01*
X115131425Y-58850725D01*
X115076514Y-59019726D01*
X114987664Y-59173617D01*
X114868761Y-59305673D01*
X114725000Y-59410122D01*
X114562664Y-59482398D01*
X114388849Y-59519344D01*
X114211151Y-59519344D01*
X114037336Y-59482398D01*
X113875000Y-59410122D01*
X113731239Y-59305673D01*
X113612336Y-59173617D01*
X113523486Y-59019726D01*
X113468575Y-58850725D01*
X113450000Y-58674000D01*
X113468575Y-58497275D01*
X113523486Y-58328274D01*
X113612336Y-58174383D01*
X113731239Y-58042327D01*
X113875000Y-57937878D01*
X114037336Y-57865602D01*
X114211151Y-57828656D01*
X114388849Y-57828656D01*
X114562664Y-57865602D01*
G37*
G36*
X112022664Y-55325602D02*
G01*
X112185000Y-55397878D01*
X112328761Y-55502327D01*
X112447664Y-55634383D01*
X112536514Y-55788274D01*
X112591425Y-55957275D01*
X112610000Y-56134000D01*
X112591425Y-56310725D01*
X112536514Y-56479726D01*
X112447664Y-56633617D01*
X112328761Y-56765673D01*
X112185000Y-56870122D01*
X112022664Y-56942398D01*
X111848849Y-56979344D01*
X111671151Y-56979344D01*
X111497336Y-56942398D01*
X111335000Y-56870122D01*
X111191239Y-56765673D01*
X111072336Y-56633617D01*
X110983486Y-56479726D01*
X110928575Y-56310725D01*
X110910000Y-56134000D01*
X110928575Y-55957275D01*
X110983486Y-55788274D01*
X111072336Y-55634383D01*
X111191239Y-55502327D01*
X111335000Y-55397878D01*
X111497336Y-55325602D01*
X111671151Y-55288656D01*
X111848849Y-55288656D01*
X112022664Y-55325602D01*
G37*
G36*
X114562664Y-55325602D02*
G01*
X114725000Y-55397878D01*
X114868761Y-55502327D01*
X114987664Y-55634383D01*
X115076514Y-55788274D01*
X115131425Y-55957275D01*
X115150000Y-56134000D01*
X115131425Y-56310725D01*
X115076514Y-56479726D01*
X114987664Y-56633617D01*
X114868761Y-56765673D01*
X114725000Y-56870122D01*
X114562664Y-56942398D01*
X114388849Y-56979344D01*
X114211151Y-56979344D01*
X114037336Y-56942398D01*
X113875000Y-56870122D01*
X113731239Y-56765673D01*
X113612336Y-56633617D01*
X113523486Y-56479726D01*
X113468575Y-56310725D01*
X113450000Y-56134000D01*
X113468575Y-55957275D01*
X113523486Y-55788274D01*
X113612336Y-55634383D01*
X113731239Y-55502327D01*
X113875000Y-55397878D01*
X114037336Y-55325602D01*
X114211151Y-55288656D01*
X114388849Y-55288656D01*
X114562664Y-55325602D01*
G37*
G36*
X73941811Y-54507362D02*
G01*
X73983588Y-54507362D01*
X74030718Y-54517379D01*
X74078017Y-54522709D01*
X74112408Y-54534743D01*
X74147110Y-54542119D01*
X74197117Y-54564384D01*
X74247107Y-54581876D01*
X74273128Y-54598226D01*
X74299835Y-54610117D01*
X74349633Y-54646297D01*
X74398792Y-54677186D01*
X74416444Y-54694838D01*
X74435084Y-54708381D01*
X74481165Y-54759559D01*
X74525465Y-54803859D01*
X74535654Y-54820075D01*
X74546946Y-54832616D01*
X74585573Y-54899521D01*
X74620775Y-54955544D01*
X74625170Y-54968104D01*
X74630535Y-54977397D01*
X74658010Y-55061956D01*
X74679942Y-55124634D01*
X74680773Y-55132014D01*
X74682195Y-55136389D01*
X74695076Y-55258957D01*
X74700000Y-55302651D01*
X74695076Y-55346348D01*
X74682195Y-55468912D01*
X74680773Y-55473286D01*
X74679942Y-55480668D01*
X74658005Y-55543358D01*
X74630535Y-55627904D01*
X74625171Y-55637194D01*
X74620775Y-55649758D01*
X74585566Y-55705791D01*
X74546946Y-55772685D01*
X74535656Y-55785223D01*
X74525465Y-55801443D01*
X74481155Y-55845752D01*
X74435084Y-55896920D01*
X74416448Y-55910459D01*
X74398792Y-55928116D01*
X74349623Y-55959010D01*
X74299835Y-55995184D01*
X74273134Y-56007072D01*
X74247107Y-56023426D01*
X74197107Y-56040921D01*
X74147110Y-56063182D01*
X74112414Y-56070556D01*
X74078017Y-56082593D01*
X74030715Y-56087922D01*
X73983588Y-56097940D01*
X73941811Y-56097940D01*
X73900000Y-56102651D01*
X73858189Y-56097940D01*
X73816412Y-56097940D01*
X73769284Y-56087922D01*
X73721983Y-56082593D01*
X73687586Y-56070557D01*
X73652889Y-56063182D01*
X73602887Y-56040919D01*
X73552893Y-56023426D01*
X73526868Y-56007073D01*
X73500164Y-55995184D01*
X73450369Y-55959006D01*
X73401208Y-55928116D01*
X73383554Y-55910462D01*
X73364915Y-55896920D01*
X73318833Y-55845741D01*
X73274535Y-55801443D01*
X73264345Y-55785226D01*
X73253053Y-55772685D01*
X73214420Y-55705771D01*
X73179225Y-55649758D01*
X73174830Y-55637198D01*
X73169464Y-55627904D01*
X73141980Y-55543318D01*
X73120058Y-55480668D01*
X73119226Y-55473290D01*
X73117804Y-55468912D01*
X73104908Y-55346216D01*
X73100000Y-55302651D01*
X73104908Y-55259089D01*
X73117804Y-55136389D01*
X73119226Y-55132009D01*
X73120058Y-55124634D01*
X73141975Y-55061996D01*
X73169464Y-54977397D01*
X73174831Y-54968100D01*
X73179225Y-54955544D01*
X73214413Y-54899541D01*
X73253053Y-54832616D01*
X73264347Y-54820072D01*
X73274535Y-54803859D01*
X73318826Y-54759567D01*
X73364917Y-54708379D01*
X73383559Y-54694834D01*
X73401208Y-54677186D01*
X73450354Y-54646305D01*
X73500162Y-54610118D01*
X73526873Y-54598225D01*
X73552893Y-54581876D01*
X73602877Y-54564385D01*
X73652889Y-54542119D01*
X73687592Y-54534742D01*
X73721983Y-54522709D01*
X73769281Y-54517379D01*
X73816412Y-54507362D01*
X73858189Y-54507362D01*
X73900000Y-54502651D01*
X73941811Y-54507362D01*
G37*
G36*
X68797060Y-50838990D02*
G01*
X69007525Y-50895384D01*
X69205000Y-50987468D01*
X69383485Y-51112444D01*
X69537556Y-51266515D01*
X69662532Y-51445000D01*
X69754616Y-51642475D01*
X69811010Y-51852940D01*
X69830000Y-52070000D01*
X69811010Y-52287060D01*
X69754616Y-52497525D01*
X69662532Y-52695000D01*
X69537556Y-52873485D01*
X69383485Y-53027556D01*
X69205000Y-53152532D01*
X69007525Y-53244616D01*
X68797060Y-53301010D01*
X68580000Y-53320000D01*
X68362940Y-53301010D01*
X68152475Y-53244616D01*
X67955000Y-53152532D01*
X67776515Y-53027556D01*
X67622444Y-52873485D01*
X67497468Y-52695000D01*
X67405384Y-52497525D01*
X67348990Y-52287060D01*
X67330000Y-52070000D01*
X67348990Y-51852940D01*
X67405384Y-51642475D01*
X67497468Y-51445000D01*
X67622444Y-51266515D01*
X67776515Y-51112444D01*
X67955000Y-50987468D01*
X68152475Y-50895384D01*
X68362940Y-50838990D01*
X68580000Y-50820000D01*
X68797060Y-50838990D01*
G37*
M02*
