%TF.GenerationSoftware,KiCad,Pcbnew,7.0.9*%
%TF.CreationDate,2024-01-16T00:09:28+01:00*%
%TF.ProjectId,JLCPCB,4a4c4350-4342-42e6-9b69-6361645f7063,1*%
%TF.SameCoordinates,Original*%
%TF.FileFunction,Profile,NP*%
%FSLAX46Y46*%
G04 Gerber Fmt 4.6, Leading zero omitted, Abs format (unit mm)*
G04 Created by KiCad (PCBNEW 7.0.9) date 2024-01-16 00:09:28*
%MOMM*%
%LPD*%
G01*
G04 APERTURE LIST*
%TA.AperFunction,Profile*%
%ADD10C,0.038100*%
%TD*%
G04 APERTURE END LIST*
D10*
X67984221Y-96639996D02*
X65184221Y-99439996D01*
X65184221Y-92439996D02*
X67984221Y-95239996D01*
X73300004Y-109214221D02*
X68580000Y-109220000D01*
X81280000Y-108712000D02*
G75*
G03*
X82300018Y-109219994I1016000J762000D01*
G01*
X74300000Y-108800000D02*
X76962000Y-106172000D01*
X64770008Y-100439996D02*
X64770000Y-105410000D01*
X68580000Y-48260000D02*
G75*
G03*
X64770000Y-52070000I0J-3810000D01*
G01*
X78485999Y-106172001D02*
X81280000Y-108712000D01*
X148590000Y-52070000D02*
G75*
G03*
X144780000Y-48260000I-3810000J0D01*
G01*
X144780000Y-109220000D02*
X82300000Y-109220000D01*
X144780000Y-109220000D02*
G75*
G03*
X148590000Y-105410000I0J3810000D01*
G01*
X64760013Y-105410026D02*
G75*
G03*
X68580000Y-109220000I3819987J10026D01*
G01*
X64769996Y-91440000D02*
G75*
G03*
X65184213Y-92440000I1414204J0D01*
G01*
X68580000Y-48260000D02*
X144780000Y-48260000D01*
X67984231Y-96640006D02*
G75*
G03*
X67991362Y-95232998I-707131J707106D01*
G01*
X65184228Y-99440003D02*
G75*
G03*
X64770008Y-100439996I999972J-999997D01*
G01*
X78485999Y-106172001D02*
G75*
G03*
X76962001Y-106172001I-761999J-762000D01*
G01*
X64770000Y-91440000D02*
X64770000Y-52070000D01*
X73300004Y-109214222D02*
G75*
G03*
X74300004Y-108800008I-4J1414222D01*
G01*
X148590000Y-52070000D02*
X148590000Y-105410000D01*
M02*
