%TF.GenerationSoftware,KiCad,Pcbnew,7.0.9*%
%TF.CreationDate,2024-01-16T00:09:28+01:00*%
%TF.ProjectId,JLCPCB,4a4c4350-4342-42e6-9b69-6361645f7063,1*%
%TF.SameCoordinates,Original*%
%TF.FileFunction,Soldermask,Top*%
%TF.FilePolarity,Negative*%
%FSLAX46Y46*%
G04 Gerber Fmt 4.6, Leading zero omitted, Abs format (unit mm)*
G04 Created by KiCad (PCBNEW 7.0.9) date 2024-01-16 00:09:28*
%MOMM*%
%LPD*%
G01*
G04 APERTURE LIST*
G04 APERTURE END LIST*
G36*
X68425089Y-107801602D02*
G01*
X68177602Y-108049089D01*
X67470495Y-107341982D01*
X67717982Y-107094495D01*
X68425089Y-107801602D01*
G37*
G36*
X68920063Y-107306628D02*
G01*
X68672576Y-107554115D01*
X67965469Y-106847008D01*
X68212956Y-106599521D01*
X68920063Y-107306628D01*
G37*
G36*
X120498000Y-107548000D02*
G01*
X118948000Y-107548000D01*
X118948000Y-106248000D01*
X120498000Y-106248000D01*
X120498000Y-107548000D01*
G37*
G36*
X128448000Y-107548000D02*
G01*
X126898000Y-107548000D01*
X126898000Y-106248000D01*
X128448000Y-106248000D01*
X128448000Y-107548000D01*
G37*
G36*
X137935061Y-105919089D02*
G01*
X137991157Y-105919089D01*
X138008196Y-105924092D01*
X138021612Y-105925010D01*
X138070527Y-105942394D01*
X138127708Y-105959184D01*
X138140002Y-105967085D01*
X138149774Y-105970558D01*
X138194176Y-106001900D01*
X138247430Y-106036125D01*
X138254941Y-106044793D01*
X138260889Y-106048992D01*
X138296380Y-106092616D01*
X138340627Y-106143680D01*
X138344086Y-106151255D01*
X138346727Y-106154501D01*
X138369275Y-106206411D01*
X138399746Y-106273134D01*
X138400482Y-106278257D01*
X138400916Y-106279255D01*
X138407205Y-106325012D01*
X138420000Y-106414000D01*
X138420000Y-107014000D01*
X138419732Y-107015860D01*
X138415344Y-107080004D01*
X138405414Y-107115444D01*
X138399746Y-107154866D01*
X138385832Y-107185331D01*
X138378088Y-107212974D01*
X138358496Y-107245191D01*
X138340627Y-107284320D01*
X138320757Y-107307251D01*
X138307417Y-107329188D01*
X138277700Y-107356940D01*
X138247430Y-107391875D01*
X138224551Y-107406578D01*
X138208014Y-107422023D01*
X138169325Y-107442070D01*
X138127708Y-107468816D01*
X138104632Y-107475591D01*
X138087249Y-107484599D01*
X138041767Y-107494050D01*
X137991157Y-107508911D01*
X137970257Y-107508911D01*
X137954083Y-107512272D01*
X137904953Y-107508911D01*
X137848843Y-107508911D01*
X137831799Y-107503906D01*
X137818387Y-107502989D01*
X137769482Y-107485608D01*
X137712292Y-107468816D01*
X137699995Y-107460913D01*
X137690225Y-107457441D01*
X137645828Y-107426102D01*
X137592570Y-107391875D01*
X137585057Y-107383205D01*
X137579110Y-107379007D01*
X137543616Y-107335380D01*
X137499373Y-107284320D01*
X137495913Y-107276745D01*
X137493272Y-107273498D01*
X137470713Y-107221562D01*
X137440254Y-107154866D01*
X137439517Y-107149744D01*
X137439083Y-107148744D01*
X137432782Y-107102903D01*
X137420000Y-107014000D01*
X137420000Y-106414000D01*
X137420267Y-106412141D01*
X137424655Y-106347995D01*
X137434587Y-106312545D01*
X137440254Y-106273134D01*
X137454163Y-106242675D01*
X137461911Y-106215025D01*
X137481508Y-106182797D01*
X137499373Y-106143680D01*
X137519237Y-106120755D01*
X137532582Y-106098811D01*
X137562308Y-106071048D01*
X137592570Y-106036125D01*
X137615441Y-106021426D01*
X137631985Y-106005976D01*
X137670686Y-105985922D01*
X137712292Y-105959184D01*
X137735361Y-105952410D01*
X137752750Y-105943400D01*
X137798246Y-105933945D01*
X137848843Y-105919089D01*
X137869738Y-105919089D01*
X137885916Y-105915727D01*
X137935061Y-105919089D01*
G37*
G36*
X146575061Y-105919089D02*
G01*
X146631157Y-105919089D01*
X146648196Y-105924092D01*
X146661612Y-105925010D01*
X146710527Y-105942394D01*
X146767708Y-105959184D01*
X146780002Y-105967085D01*
X146789774Y-105970558D01*
X146834176Y-106001900D01*
X146887430Y-106036125D01*
X146894941Y-106044793D01*
X146900889Y-106048992D01*
X146936380Y-106092616D01*
X146980627Y-106143680D01*
X146984086Y-106151255D01*
X146986727Y-106154501D01*
X147009275Y-106206411D01*
X147039746Y-106273134D01*
X147040482Y-106278257D01*
X147040916Y-106279255D01*
X147047205Y-106325012D01*
X147060000Y-106414000D01*
X147060000Y-107014000D01*
X147059732Y-107015860D01*
X147055344Y-107080004D01*
X147045414Y-107115444D01*
X147039746Y-107154866D01*
X147025832Y-107185331D01*
X147018088Y-107212974D01*
X146998496Y-107245191D01*
X146980627Y-107284320D01*
X146960757Y-107307251D01*
X146947417Y-107329188D01*
X146917700Y-107356940D01*
X146887430Y-107391875D01*
X146864551Y-107406578D01*
X146848014Y-107422023D01*
X146809325Y-107442070D01*
X146767708Y-107468816D01*
X146744632Y-107475591D01*
X146727249Y-107484599D01*
X146681767Y-107494050D01*
X146631157Y-107508911D01*
X146610257Y-107508911D01*
X146594083Y-107512272D01*
X146544953Y-107508911D01*
X146488843Y-107508911D01*
X146471799Y-107503906D01*
X146458387Y-107502989D01*
X146409482Y-107485608D01*
X146352292Y-107468816D01*
X146339995Y-107460913D01*
X146330225Y-107457441D01*
X146285828Y-107426102D01*
X146232570Y-107391875D01*
X146225057Y-107383205D01*
X146219110Y-107379007D01*
X146183616Y-107335380D01*
X146139373Y-107284320D01*
X146135913Y-107276745D01*
X146133272Y-107273498D01*
X146110713Y-107221562D01*
X146080254Y-107154866D01*
X146079517Y-107149744D01*
X146079083Y-107148744D01*
X146072782Y-107102903D01*
X146060000Y-107014000D01*
X146060000Y-106414000D01*
X146060267Y-106412141D01*
X146064655Y-106347995D01*
X146074587Y-106312545D01*
X146080254Y-106273134D01*
X146094163Y-106242675D01*
X146101911Y-106215025D01*
X146121508Y-106182797D01*
X146139373Y-106143680D01*
X146159237Y-106120755D01*
X146172582Y-106098811D01*
X146202308Y-106071048D01*
X146232570Y-106036125D01*
X146255441Y-106021426D01*
X146271985Y-106005976D01*
X146310686Y-105985922D01*
X146352292Y-105959184D01*
X146375361Y-105952410D01*
X146392750Y-105943400D01*
X146438246Y-105933945D01*
X146488843Y-105919089D01*
X146509738Y-105919089D01*
X146525916Y-105915727D01*
X146575061Y-105919089D01*
G37*
G36*
X73722818Y-105163756D02*
G01*
X73885154Y-105236032D01*
X74028915Y-105340481D01*
X74147818Y-105472537D01*
X74236668Y-105626428D01*
X74291579Y-105795429D01*
X74310154Y-105972154D01*
X74291579Y-106148879D01*
X74236668Y-106317880D01*
X74147818Y-106471771D01*
X74028915Y-106603827D01*
X73885154Y-106708276D01*
X73722818Y-106780552D01*
X73549003Y-106817498D01*
X73371305Y-106817498D01*
X73197490Y-106780552D01*
X73035154Y-106708276D01*
X72891393Y-106603827D01*
X72772490Y-106471771D01*
X72683640Y-106317880D01*
X72628729Y-106148879D01*
X72610154Y-105972154D01*
X72628729Y-105795429D01*
X72683640Y-105626428D01*
X72772490Y-105472537D01*
X72891393Y-105340481D01*
X73035154Y-105236032D01*
X73197490Y-105163756D01*
X73371305Y-105126810D01*
X73549003Y-105126810D01*
X73722818Y-105163756D01*
G37*
G36*
X67152297Y-106528810D02*
G01*
X66904810Y-106776297D01*
X66197703Y-106069190D01*
X66445190Y-105821703D01*
X67152297Y-106528810D01*
G37*
G36*
X82767060Y-104178990D02*
G01*
X82977525Y-104235384D01*
X83175000Y-104327468D01*
X83353485Y-104452444D01*
X83507556Y-104606515D01*
X83632532Y-104785000D01*
X83724616Y-104982475D01*
X83781010Y-105192940D01*
X83800000Y-105410000D01*
X83781010Y-105627060D01*
X83724616Y-105837525D01*
X83632532Y-106035000D01*
X83507556Y-106213485D01*
X83353485Y-106367556D01*
X83175000Y-106492532D01*
X82977525Y-106584616D01*
X82767060Y-106641010D01*
X82550000Y-106660000D01*
X82332940Y-106641010D01*
X82122475Y-106584616D01*
X81925000Y-106492532D01*
X81746515Y-106367556D01*
X81592444Y-106213485D01*
X81467468Y-106035000D01*
X81375384Y-105837525D01*
X81318990Y-105627060D01*
X81300000Y-105410000D01*
X81318990Y-105192940D01*
X81375384Y-104982475D01*
X81467468Y-104785000D01*
X81592444Y-104606515D01*
X81746515Y-104452444D01*
X81925000Y-104327468D01*
X82122475Y-104235384D01*
X82332940Y-104178990D01*
X82550000Y-104160000D01*
X82767060Y-104178990D01*
G37*
G36*
X132297060Y-104178990D02*
G01*
X132507525Y-104235384D01*
X132705000Y-104327468D01*
X132883485Y-104452444D01*
X133037556Y-104606515D01*
X133162532Y-104785000D01*
X133254616Y-104982475D01*
X133311010Y-105192940D01*
X133330000Y-105410000D01*
X133311010Y-105627060D01*
X133254616Y-105837525D01*
X133162532Y-106035000D01*
X133037556Y-106213485D01*
X132883485Y-106367556D01*
X132705000Y-106492532D01*
X132507525Y-106584616D01*
X132297060Y-106641010D01*
X132080000Y-106660000D01*
X131862940Y-106641010D01*
X131652475Y-106584616D01*
X131455000Y-106492532D01*
X131276515Y-106367556D01*
X131122444Y-106213485D01*
X130997468Y-106035000D01*
X130905384Y-105837525D01*
X130848990Y-105627060D01*
X130830000Y-105410000D01*
X130848990Y-105192940D01*
X130905384Y-104982475D01*
X130997468Y-104785000D01*
X131122444Y-104606515D01*
X131276515Y-104452444D01*
X131455000Y-104327468D01*
X131652475Y-104235384D01*
X131862940Y-104178990D01*
X132080000Y-104160000D01*
X132297060Y-104178990D01*
G37*
G36*
X67647271Y-106033836D02*
G01*
X67399784Y-106281323D01*
X66692677Y-105574216D01*
X66940164Y-105326729D01*
X67647271Y-106033836D01*
G37*
G36*
X71926766Y-103367704D02*
G01*
X72089102Y-103439980D01*
X72232863Y-103544429D01*
X72351766Y-103676485D01*
X72440616Y-103830376D01*
X72495527Y-103999377D01*
X72514102Y-104176102D01*
X72495527Y-104352827D01*
X72440616Y-104521828D01*
X72351766Y-104675719D01*
X72232863Y-104807775D01*
X72089102Y-104912224D01*
X71926766Y-104984500D01*
X71752951Y-105021446D01*
X71575253Y-105021446D01*
X71401438Y-104984500D01*
X71239102Y-104912224D01*
X71095341Y-104807775D01*
X70976438Y-104675719D01*
X70887588Y-104521828D01*
X70832677Y-104352827D01*
X70814102Y-104176102D01*
X70832677Y-103999377D01*
X70887588Y-103830376D01*
X70976438Y-103676485D01*
X71095341Y-103544429D01*
X71239102Y-103439980D01*
X71401438Y-103367704D01*
X71575253Y-103330758D01*
X71752951Y-103330758D01*
X71926766Y-103367704D01*
G37*
G36*
X75673679Y-104304710D02*
G01*
X75693251Y-104304710D01*
X75716838Y-104313294D01*
X75745671Y-104319030D01*
X75761314Y-104329482D01*
X75774537Y-104334295D01*
X75798071Y-104354042D01*
X75826777Y-104373223D01*
X75834239Y-104384390D01*
X75840801Y-104389897D01*
X75859127Y-104421639D01*
X75880970Y-104454329D01*
X75882530Y-104462173D01*
X75884053Y-104464811D01*
X75891840Y-104508976D01*
X75900000Y-104550000D01*
X75891839Y-104591026D01*
X75884053Y-104635188D01*
X75882530Y-104637824D01*
X75880970Y-104645671D01*
X75859123Y-104678366D01*
X75840801Y-104710102D01*
X75834240Y-104715606D01*
X75826777Y-104726777D01*
X75798065Y-104745961D01*
X75774537Y-104765704D01*
X75761316Y-104770515D01*
X75745671Y-104780970D01*
X75716836Y-104786705D01*
X75693251Y-104795290D01*
X75673679Y-104795290D01*
X75650000Y-104800000D01*
X75626321Y-104795290D01*
X75606749Y-104795290D01*
X75583162Y-104786705D01*
X75554329Y-104780970D01*
X75538684Y-104770516D01*
X75525462Y-104765704D01*
X75501929Y-104745958D01*
X75473223Y-104726777D01*
X75465760Y-104715608D01*
X75459198Y-104710102D01*
X75440869Y-104678355D01*
X75419030Y-104645671D01*
X75417469Y-104637827D01*
X75415946Y-104635188D01*
X75408151Y-104590982D01*
X75400000Y-104550000D01*
X75408151Y-104509021D01*
X75415946Y-104464811D01*
X75417470Y-104462171D01*
X75419030Y-104454329D01*
X75440864Y-104421651D01*
X75459199Y-104389895D01*
X75465763Y-104384386D01*
X75473223Y-104373223D01*
X75501922Y-104354046D01*
X75525461Y-104334296D01*
X75538684Y-104329483D01*
X75554329Y-104319030D01*
X75583163Y-104313294D01*
X75606750Y-104304710D01*
X75626321Y-104304710D01*
X75650000Y-104300000D01*
X75673679Y-104304710D01*
G37*
G36*
X88090000Y-104075000D02*
G01*
X87390000Y-104075000D01*
X87390000Y-103565000D01*
X88090000Y-103565000D01*
X88090000Y-104075000D01*
G37*
G36*
X90410000Y-104075000D02*
G01*
X89710000Y-104075000D01*
X89710000Y-103565000D01*
X90410000Y-103565000D01*
X90410000Y-104075000D01*
G37*
G36*
X100740323Y-103870000D02*
G01*
X98740323Y-103870000D01*
X98740323Y-101870000D01*
X100740323Y-101870000D01*
X100740323Y-103870000D01*
G37*
G36*
X104935413Y-101889215D02*
G01*
X105123006Y-101946120D01*
X105295893Y-102038530D01*
X105447430Y-102162893D01*
X105571793Y-102314430D01*
X105664203Y-102487317D01*
X105721108Y-102674910D01*
X105740323Y-102870000D01*
X105721108Y-103065090D01*
X105664203Y-103252683D01*
X105571793Y-103425570D01*
X105447430Y-103577107D01*
X105295893Y-103701470D01*
X105123006Y-103793880D01*
X104935413Y-103850785D01*
X104740323Y-103870000D01*
X104545233Y-103850785D01*
X104357640Y-103793880D01*
X104184753Y-103701470D01*
X104033216Y-103577107D01*
X103908853Y-103425570D01*
X103816443Y-103252683D01*
X103759538Y-103065090D01*
X103740323Y-102870000D01*
X103759538Y-102674910D01*
X103816443Y-102487317D01*
X103908853Y-102314430D01*
X104033216Y-102162893D01*
X104184753Y-102038530D01*
X104357640Y-101946120D01*
X104545233Y-101889215D01*
X104740323Y-101870000D01*
X104935413Y-101889215D01*
G37*
G36*
X137935061Y-101489089D02*
G01*
X137991157Y-101489089D01*
X138008196Y-101494092D01*
X138021612Y-101495010D01*
X138070527Y-101512394D01*
X138127708Y-101529184D01*
X138140002Y-101537085D01*
X138149774Y-101540558D01*
X138194176Y-101571900D01*
X138247430Y-101606125D01*
X138254941Y-101614793D01*
X138260889Y-101618992D01*
X138296380Y-101662616D01*
X138340627Y-101713680D01*
X138344086Y-101721255D01*
X138346727Y-101724501D01*
X138369275Y-101776411D01*
X138399746Y-101843134D01*
X138400482Y-101848257D01*
X138400916Y-101849255D01*
X138407205Y-101895012D01*
X138420000Y-101984000D01*
X138420000Y-103084000D01*
X138419732Y-103085860D01*
X138415344Y-103150004D01*
X138405414Y-103185444D01*
X138399746Y-103224866D01*
X138385832Y-103255331D01*
X138378088Y-103282974D01*
X138358496Y-103315191D01*
X138340627Y-103354320D01*
X138320757Y-103377251D01*
X138307417Y-103399188D01*
X138277700Y-103426940D01*
X138247430Y-103461875D01*
X138224551Y-103476578D01*
X138208014Y-103492023D01*
X138169325Y-103512070D01*
X138127708Y-103538816D01*
X138104632Y-103545591D01*
X138087249Y-103554599D01*
X138041767Y-103564050D01*
X137991157Y-103578911D01*
X137970257Y-103578911D01*
X137954083Y-103582272D01*
X137904953Y-103578911D01*
X137848843Y-103578911D01*
X137831799Y-103573906D01*
X137818387Y-103572989D01*
X137769482Y-103555608D01*
X137712292Y-103538816D01*
X137699995Y-103530913D01*
X137690225Y-103527441D01*
X137645828Y-103496102D01*
X137592570Y-103461875D01*
X137585057Y-103453205D01*
X137579110Y-103449007D01*
X137543616Y-103405380D01*
X137499373Y-103354320D01*
X137495913Y-103346745D01*
X137493272Y-103343498D01*
X137470713Y-103291562D01*
X137440254Y-103224866D01*
X137439517Y-103219744D01*
X137439083Y-103218744D01*
X137432782Y-103172903D01*
X137420000Y-103084000D01*
X137420000Y-101984000D01*
X137420267Y-101982141D01*
X137424655Y-101917995D01*
X137434587Y-101882545D01*
X137440254Y-101843134D01*
X137454163Y-101812675D01*
X137461911Y-101785025D01*
X137481508Y-101752797D01*
X137499373Y-101713680D01*
X137519237Y-101690755D01*
X137532582Y-101668811D01*
X137562308Y-101641048D01*
X137592570Y-101606125D01*
X137615441Y-101591426D01*
X137631985Y-101575976D01*
X137670686Y-101555922D01*
X137712292Y-101529184D01*
X137735361Y-101522410D01*
X137752750Y-101513400D01*
X137798246Y-101503945D01*
X137848843Y-101489089D01*
X137869738Y-101489089D01*
X137885916Y-101485727D01*
X137935061Y-101489089D01*
G37*
G36*
X146575061Y-101489089D02*
G01*
X146631157Y-101489089D01*
X146648196Y-101494092D01*
X146661612Y-101495010D01*
X146710527Y-101512394D01*
X146767708Y-101529184D01*
X146780002Y-101537085D01*
X146789774Y-101540558D01*
X146834176Y-101571900D01*
X146887430Y-101606125D01*
X146894941Y-101614793D01*
X146900889Y-101618992D01*
X146936380Y-101662616D01*
X146980627Y-101713680D01*
X146984086Y-101721255D01*
X146986727Y-101724501D01*
X147009275Y-101776411D01*
X147039746Y-101843134D01*
X147040482Y-101848257D01*
X147040916Y-101849255D01*
X147047205Y-101895012D01*
X147060000Y-101984000D01*
X147060000Y-103084000D01*
X147059732Y-103085860D01*
X147055344Y-103150004D01*
X147045414Y-103185444D01*
X147039746Y-103224866D01*
X147025832Y-103255331D01*
X147018088Y-103282974D01*
X146998496Y-103315191D01*
X146980627Y-103354320D01*
X146960757Y-103377251D01*
X146947417Y-103399188D01*
X146917700Y-103426940D01*
X146887430Y-103461875D01*
X146864551Y-103476578D01*
X146848014Y-103492023D01*
X146809325Y-103512070D01*
X146767708Y-103538816D01*
X146744632Y-103545591D01*
X146727249Y-103554599D01*
X146681767Y-103564050D01*
X146631157Y-103578911D01*
X146610257Y-103578911D01*
X146594083Y-103582272D01*
X146544953Y-103578911D01*
X146488843Y-103578911D01*
X146471799Y-103573906D01*
X146458387Y-103572989D01*
X146409482Y-103555608D01*
X146352292Y-103538816D01*
X146339995Y-103530913D01*
X146330225Y-103527441D01*
X146285828Y-103496102D01*
X146232570Y-103461875D01*
X146225057Y-103453205D01*
X146219110Y-103449007D01*
X146183616Y-103405380D01*
X146139373Y-103354320D01*
X146135913Y-103346745D01*
X146133272Y-103343498D01*
X146110713Y-103291562D01*
X146080254Y-103224866D01*
X146079517Y-103219744D01*
X146079083Y-103218744D01*
X146072782Y-103172903D01*
X146060000Y-103084000D01*
X146060000Y-101984000D01*
X146060267Y-101982141D01*
X146064655Y-101917995D01*
X146074587Y-101882545D01*
X146080254Y-101843134D01*
X146094163Y-101812675D01*
X146101911Y-101785025D01*
X146121508Y-101752797D01*
X146139373Y-101713680D01*
X146159237Y-101690755D01*
X146172582Y-101668811D01*
X146202308Y-101641048D01*
X146232570Y-101606125D01*
X146255441Y-101591426D01*
X146271985Y-101575976D01*
X146310686Y-101555922D01*
X146352292Y-101529184D01*
X146375361Y-101522410D01*
X146392750Y-101513400D01*
X146438246Y-101503945D01*
X146488843Y-101489089D01*
X146509738Y-101489089D01*
X146525916Y-101485727D01*
X146575061Y-101489089D01*
G37*
G36*
X139376454Y-102743937D02*
G01*
X139406436Y-102743937D01*
X139429534Y-102752344D01*
X139450196Y-102755617D01*
X139479382Y-102770487D01*
X139512500Y-102782542D01*
X139527123Y-102794812D01*
X139540590Y-102801674D01*
X139568174Y-102829258D01*
X139598964Y-102855094D01*
X139605731Y-102866815D01*
X139612325Y-102873409D01*
X139633253Y-102914485D01*
X139655400Y-102952843D01*
X139656777Y-102960653D01*
X139658382Y-102963803D01*
X139667647Y-103022303D01*
X139675000Y-103064000D01*
X139667647Y-103105700D01*
X139658382Y-103164196D01*
X139656777Y-103167345D01*
X139655400Y-103175157D01*
X139633249Y-103213522D01*
X139612325Y-103254590D01*
X139605732Y-103261182D01*
X139598964Y-103272906D01*
X139568168Y-103298746D01*
X139540590Y-103326325D01*
X139527126Y-103333184D01*
X139512500Y-103345458D01*
X139479375Y-103357514D01*
X139450196Y-103372382D01*
X139429539Y-103375653D01*
X139406436Y-103384063D01*
X139376447Y-103384063D01*
X139350000Y-103388252D01*
X139323552Y-103384063D01*
X139293564Y-103384063D01*
X139270460Y-103375653D01*
X139249803Y-103372382D01*
X139220620Y-103357513D01*
X139187500Y-103345458D01*
X139172874Y-103333186D01*
X139159409Y-103326325D01*
X139131825Y-103298741D01*
X139101036Y-103272906D01*
X139094268Y-103261184D01*
X139087674Y-103254590D01*
X139066741Y-103213507D01*
X139044600Y-103175157D01*
X139043223Y-103167348D01*
X139041617Y-103164196D01*
X139032343Y-103105644D01*
X139025000Y-103064000D01*
X139032342Y-103022359D01*
X139041617Y-102963803D01*
X139043223Y-102960650D01*
X139044600Y-102952843D01*
X139066737Y-102914500D01*
X139087674Y-102873409D01*
X139094269Y-102866813D01*
X139101036Y-102855094D01*
X139131819Y-102829263D01*
X139159409Y-102801674D01*
X139172877Y-102794811D01*
X139187500Y-102782542D01*
X139220613Y-102770489D01*
X139249803Y-102755617D01*
X139270465Y-102752344D01*
X139293564Y-102743937D01*
X139323546Y-102743937D01*
X139350000Y-102739747D01*
X139376454Y-102743937D01*
G37*
G36*
X145156454Y-102743937D02*
G01*
X145186436Y-102743937D01*
X145209534Y-102752344D01*
X145230196Y-102755617D01*
X145259382Y-102770487D01*
X145292500Y-102782542D01*
X145307123Y-102794812D01*
X145320590Y-102801674D01*
X145348174Y-102829258D01*
X145378964Y-102855094D01*
X145385731Y-102866815D01*
X145392325Y-102873409D01*
X145413253Y-102914485D01*
X145435400Y-102952843D01*
X145436777Y-102960653D01*
X145438382Y-102963803D01*
X145447647Y-103022303D01*
X145455000Y-103064000D01*
X145447647Y-103105700D01*
X145438382Y-103164196D01*
X145436777Y-103167345D01*
X145435400Y-103175157D01*
X145413249Y-103213522D01*
X145392325Y-103254590D01*
X145385732Y-103261182D01*
X145378964Y-103272906D01*
X145348168Y-103298746D01*
X145320590Y-103326325D01*
X145307126Y-103333184D01*
X145292500Y-103345458D01*
X145259375Y-103357514D01*
X145230196Y-103372382D01*
X145209539Y-103375653D01*
X145186436Y-103384063D01*
X145156447Y-103384063D01*
X145130000Y-103388252D01*
X145103552Y-103384063D01*
X145073564Y-103384063D01*
X145050460Y-103375653D01*
X145029803Y-103372382D01*
X145000620Y-103357513D01*
X144967500Y-103345458D01*
X144952874Y-103333186D01*
X144939409Y-103326325D01*
X144911825Y-103298741D01*
X144881036Y-103272906D01*
X144874268Y-103261184D01*
X144867674Y-103254590D01*
X144846741Y-103213507D01*
X144824600Y-103175157D01*
X144823223Y-103167348D01*
X144821617Y-103164196D01*
X144812343Y-103105644D01*
X144805000Y-103064000D01*
X144812342Y-103022359D01*
X144821617Y-102963803D01*
X144823223Y-102960650D01*
X144824600Y-102952843D01*
X144846737Y-102914500D01*
X144867674Y-102873409D01*
X144874269Y-102866813D01*
X144881036Y-102855094D01*
X144911819Y-102829263D01*
X144939409Y-102801674D01*
X144952877Y-102794811D01*
X144967500Y-102782542D01*
X145000613Y-102770489D01*
X145029803Y-102755617D01*
X145050465Y-102752344D01*
X145073564Y-102743937D01*
X145103546Y-102743937D01*
X145130000Y-102739747D01*
X145156454Y-102743937D01*
G37*
G36*
X77278818Y-101607756D02*
G01*
X77441154Y-101680032D01*
X77584915Y-101784481D01*
X77703818Y-101916537D01*
X77792668Y-102070428D01*
X77847579Y-102239429D01*
X77866154Y-102416154D01*
X77847579Y-102592879D01*
X77792668Y-102761880D01*
X77703818Y-102915771D01*
X77584915Y-103047827D01*
X77441154Y-103152276D01*
X77278818Y-103224552D01*
X77105003Y-103261498D01*
X76927305Y-103261498D01*
X76753490Y-103224552D01*
X76591154Y-103152276D01*
X76447393Y-103047827D01*
X76328490Y-102915771D01*
X76239640Y-102761880D01*
X76184729Y-102592879D01*
X76166154Y-102416154D01*
X76184729Y-102239429D01*
X76239640Y-102070428D01*
X76328490Y-101916537D01*
X76447393Y-101784481D01*
X76591154Y-101680032D01*
X76753490Y-101607756D01*
X76927305Y-101570810D01*
X77105003Y-101570810D01*
X77278818Y-101607756D01*
G37*
G36*
X70130715Y-101571653D02*
G01*
X70293051Y-101643929D01*
X70436812Y-101748378D01*
X70555715Y-101880434D01*
X70644565Y-102034325D01*
X70699476Y-102203326D01*
X70718051Y-102380051D01*
X70699476Y-102556776D01*
X70644565Y-102725777D01*
X70555715Y-102879668D01*
X70436812Y-103011724D01*
X70293051Y-103116173D01*
X70130715Y-103188449D01*
X69956900Y-103225395D01*
X69779202Y-103225395D01*
X69605387Y-103188449D01*
X69443051Y-103116173D01*
X69299290Y-103011724D01*
X69180387Y-102879668D01*
X69091537Y-102725777D01*
X69036626Y-102556776D01*
X69018051Y-102380051D01*
X69036626Y-102203326D01*
X69091537Y-102034325D01*
X69180387Y-101880434D01*
X69299290Y-101748378D01*
X69443051Y-101643929D01*
X69605387Y-101571653D01*
X69779202Y-101534707D01*
X69956900Y-101534707D01*
X70130715Y-101571653D01*
G37*
G36*
X88090000Y-103125000D02*
G01*
X87390000Y-103125000D01*
X87390000Y-102615000D01*
X88090000Y-102615000D01*
X88090000Y-103125000D01*
G37*
G36*
X90410000Y-103125000D02*
G01*
X89710000Y-103125000D01*
X89710000Y-102615000D01*
X90410000Y-102615000D01*
X90410000Y-103125000D01*
G37*
G36*
X120498000Y-103048000D02*
G01*
X118948000Y-103048000D01*
X118948000Y-101748000D01*
X120498000Y-101748000D01*
X120498000Y-103048000D01*
G37*
G36*
X128448000Y-103048000D02*
G01*
X126898000Y-103048000D01*
X126898000Y-101748000D01*
X128448000Y-101748000D01*
X128448000Y-103048000D01*
G37*
G36*
X73905912Y-102536943D02*
G01*
X73925484Y-102536943D01*
X73949071Y-102545527D01*
X73977904Y-102551263D01*
X73993547Y-102561715D01*
X74006770Y-102566528D01*
X74030304Y-102586275D01*
X74059010Y-102605456D01*
X74066472Y-102616623D01*
X74073034Y-102622130D01*
X74091360Y-102653872D01*
X74113203Y-102686562D01*
X74114763Y-102694406D01*
X74116286Y-102697044D01*
X74124073Y-102741209D01*
X74132233Y-102782233D01*
X74124072Y-102823259D01*
X74116286Y-102867421D01*
X74114763Y-102870057D01*
X74113203Y-102877904D01*
X74091356Y-102910599D01*
X74073034Y-102942335D01*
X74066473Y-102947839D01*
X74059010Y-102959010D01*
X74030298Y-102978194D01*
X74006770Y-102997937D01*
X73993549Y-103002748D01*
X73977904Y-103013203D01*
X73949069Y-103018938D01*
X73925484Y-103027523D01*
X73905912Y-103027523D01*
X73882233Y-103032233D01*
X73858554Y-103027523D01*
X73838982Y-103027523D01*
X73815395Y-103018938D01*
X73786562Y-103013203D01*
X73770917Y-103002749D01*
X73757695Y-102997937D01*
X73734162Y-102978191D01*
X73705456Y-102959010D01*
X73697993Y-102947841D01*
X73691431Y-102942335D01*
X73673102Y-102910588D01*
X73651263Y-102877904D01*
X73649702Y-102870060D01*
X73648179Y-102867421D01*
X73640384Y-102823215D01*
X73632233Y-102782233D01*
X73640384Y-102741254D01*
X73648179Y-102697044D01*
X73649703Y-102694404D01*
X73651263Y-102686562D01*
X73673097Y-102653884D01*
X73691432Y-102622128D01*
X73697996Y-102616619D01*
X73705456Y-102605456D01*
X73734155Y-102586279D01*
X73757694Y-102566529D01*
X73770917Y-102561716D01*
X73786562Y-102551263D01*
X73815396Y-102545527D01*
X73838983Y-102536943D01*
X73858554Y-102536943D01*
X73882233Y-102532233D01*
X73905912Y-102536943D01*
G37*
G36*
X139290000Y-102344000D02*
G01*
X138690000Y-102344000D01*
X138690000Y-100894000D01*
X139290000Y-100894000D01*
X139290000Y-102344000D01*
G37*
G36*
X140090000Y-102344000D02*
G01*
X139490000Y-102344000D01*
X139490000Y-100894000D01*
X140090000Y-100894000D01*
X140090000Y-102344000D01*
G37*
G36*
X140640000Y-102344000D02*
G01*
X140340000Y-102344000D01*
X140340000Y-100894000D01*
X140640000Y-100894000D01*
X140640000Y-102344000D01*
G37*
G36*
X141140000Y-102344000D02*
G01*
X140840000Y-102344000D01*
X140840000Y-100894000D01*
X141140000Y-100894000D01*
X141140000Y-102344000D01*
G37*
G36*
X141640000Y-102344000D02*
G01*
X141340000Y-102344000D01*
X141340000Y-100894000D01*
X141640000Y-100894000D01*
X141640000Y-102344000D01*
G37*
G36*
X142140000Y-102344000D02*
G01*
X141840000Y-102344000D01*
X141840000Y-100894000D01*
X142140000Y-100894000D01*
X142140000Y-102344000D01*
G37*
G36*
X142640000Y-102344000D02*
G01*
X142340000Y-102344000D01*
X142340000Y-100894000D01*
X142640000Y-100894000D01*
X142640000Y-102344000D01*
G37*
G36*
X143140000Y-102344000D02*
G01*
X142840000Y-102344000D01*
X142840000Y-100894000D01*
X143140000Y-100894000D01*
X143140000Y-102344000D01*
G37*
G36*
X143640000Y-102344000D02*
G01*
X143340000Y-102344000D01*
X143340000Y-100894000D01*
X143640000Y-100894000D01*
X143640000Y-102344000D01*
G37*
G36*
X144140000Y-102344000D02*
G01*
X143840000Y-102344000D01*
X143840000Y-100894000D01*
X144140000Y-100894000D01*
X144140000Y-102344000D01*
G37*
G36*
X144990000Y-102344000D02*
G01*
X144390000Y-102344000D01*
X144390000Y-100894000D01*
X144990000Y-100894000D01*
X144990000Y-102344000D01*
G37*
G36*
X145790000Y-102344000D02*
G01*
X145190000Y-102344000D01*
X145190000Y-100894000D01*
X145790000Y-100894000D01*
X145790000Y-102344000D01*
G37*
G36*
X88090000Y-102175000D02*
G01*
X87390000Y-102175000D01*
X87390000Y-101665000D01*
X88090000Y-101665000D01*
X88090000Y-102175000D01*
G37*
G36*
X90410000Y-102175000D02*
G01*
X89710000Y-102175000D01*
X89710000Y-101665000D01*
X90410000Y-101665000D01*
X90410000Y-102175000D01*
G37*
G36*
X69274082Y-100584000D02*
G01*
X68072000Y-101786082D01*
X66869918Y-100584000D01*
X68072000Y-99381918D01*
X69274082Y-100584000D01*
G37*
G36*
X75482766Y-99811704D02*
G01*
X75645102Y-99883980D01*
X75788863Y-99988429D01*
X75907766Y-100120485D01*
X75996616Y-100274376D01*
X76051527Y-100443377D01*
X76070102Y-100620102D01*
X76051527Y-100796827D01*
X75996616Y-100965828D01*
X75907766Y-101119719D01*
X75788863Y-101251775D01*
X75645102Y-101356224D01*
X75482766Y-101428500D01*
X75308951Y-101465446D01*
X75131253Y-101465446D01*
X74957438Y-101428500D01*
X74795102Y-101356224D01*
X74651341Y-101251775D01*
X74532438Y-101119719D01*
X74443588Y-100965828D01*
X74388677Y-100796827D01*
X74370102Y-100620102D01*
X74388677Y-100443377D01*
X74443588Y-100274376D01*
X74532438Y-100120485D01*
X74651341Y-99988429D01*
X74795102Y-99883980D01*
X74957438Y-99811704D01*
X75131253Y-99774758D01*
X75308951Y-99774758D01*
X75482766Y-99811704D01*
G37*
G36*
X71254262Y-99885293D02*
G01*
X71273834Y-99885293D01*
X71297421Y-99893877D01*
X71326254Y-99899613D01*
X71341897Y-99910065D01*
X71355120Y-99914878D01*
X71378654Y-99934625D01*
X71407360Y-99953806D01*
X71414822Y-99964973D01*
X71421384Y-99970480D01*
X71439710Y-100002222D01*
X71461553Y-100034912D01*
X71463113Y-100042756D01*
X71464636Y-100045394D01*
X71472423Y-100089559D01*
X71480583Y-100130583D01*
X71472422Y-100171609D01*
X71464636Y-100215771D01*
X71463113Y-100218407D01*
X71461553Y-100226254D01*
X71439706Y-100258949D01*
X71421384Y-100290685D01*
X71414823Y-100296189D01*
X71407360Y-100307360D01*
X71378648Y-100326544D01*
X71355120Y-100346287D01*
X71341899Y-100351098D01*
X71326254Y-100361553D01*
X71297419Y-100367288D01*
X71273834Y-100375873D01*
X71254262Y-100375873D01*
X71230583Y-100380583D01*
X71206904Y-100375873D01*
X71187332Y-100375873D01*
X71163745Y-100367288D01*
X71134912Y-100361553D01*
X71119267Y-100351099D01*
X71106045Y-100346287D01*
X71082512Y-100326541D01*
X71053806Y-100307360D01*
X71046343Y-100296191D01*
X71039781Y-100290685D01*
X71021452Y-100258938D01*
X70999613Y-100226254D01*
X70998052Y-100218410D01*
X70996529Y-100215771D01*
X70988734Y-100171565D01*
X70980583Y-100130583D01*
X70988734Y-100089604D01*
X70996529Y-100045394D01*
X70998053Y-100042754D01*
X70999613Y-100034912D01*
X71021447Y-100002234D01*
X71039782Y-99970478D01*
X71046346Y-99964969D01*
X71053806Y-99953806D01*
X71082505Y-99934629D01*
X71106044Y-99914879D01*
X71119267Y-99910066D01*
X71134912Y-99899613D01*
X71163746Y-99893877D01*
X71187333Y-99885293D01*
X71206904Y-99885293D01*
X71230583Y-99880583D01*
X71254262Y-99885293D01*
G37*
G36*
X73686715Y-98015653D02*
G01*
X73849051Y-98087929D01*
X73992812Y-98192378D01*
X74111715Y-98324434D01*
X74200565Y-98478325D01*
X74255476Y-98647326D01*
X74274051Y-98824051D01*
X74255476Y-99000776D01*
X74200565Y-99169777D01*
X74111715Y-99323668D01*
X73992812Y-99455724D01*
X73849051Y-99560173D01*
X73686715Y-99632449D01*
X73512900Y-99669395D01*
X73335202Y-99669395D01*
X73161387Y-99632449D01*
X72999051Y-99560173D01*
X72855290Y-99455724D01*
X72736387Y-99323668D01*
X72647537Y-99169777D01*
X72592626Y-99000776D01*
X72574051Y-98824051D01*
X72592626Y-98647326D01*
X72647537Y-98478325D01*
X72736387Y-98324434D01*
X72855290Y-98192378D01*
X72999051Y-98087929D01*
X73161387Y-98015653D01*
X73335202Y-97978707D01*
X73512900Y-97978707D01*
X73686715Y-98015653D01*
G37*
G36*
X137765537Y-98484224D02*
G01*
X137830421Y-98527579D01*
X137873776Y-98592463D01*
X137889000Y-98669000D01*
X137889000Y-99069000D01*
X137873776Y-99145537D01*
X137830421Y-99210421D01*
X137765537Y-99253776D01*
X137689000Y-99269000D01*
X137139000Y-99269000D01*
X137062463Y-99253776D01*
X136997579Y-99210421D01*
X136954224Y-99145537D01*
X136939000Y-99069000D01*
X136939000Y-98669000D01*
X136954224Y-98592463D01*
X136997579Y-98527579D01*
X137062463Y-98484224D01*
X137139000Y-98469000D01*
X137689000Y-98469000D01*
X137765537Y-98484224D01*
G37*
G36*
X111408323Y-99044000D02*
G01*
X109408323Y-99044000D01*
X109408323Y-97044000D01*
X111408323Y-97044000D01*
X111408323Y-99044000D01*
G37*
G36*
X115603413Y-97063215D02*
G01*
X115791006Y-97120120D01*
X115963893Y-97212530D01*
X116115430Y-97336893D01*
X116239793Y-97488430D01*
X116332203Y-97661317D01*
X116389108Y-97848910D01*
X116408323Y-98044000D01*
X116389108Y-98239090D01*
X116332203Y-98426683D01*
X116239793Y-98599570D01*
X116115430Y-98751107D01*
X115963893Y-98875470D01*
X115791006Y-98967880D01*
X115603413Y-99024785D01*
X115408323Y-99044000D01*
X115213233Y-99024785D01*
X115025640Y-98967880D01*
X114852753Y-98875470D01*
X114701216Y-98751107D01*
X114576853Y-98599570D01*
X114484443Y-98426683D01*
X114427538Y-98239090D01*
X114408323Y-98044000D01*
X114427538Y-97848910D01*
X114484443Y-97661317D01*
X114576853Y-97488430D01*
X114701216Y-97336893D01*
X114852753Y-97212530D01*
X115025640Y-97120120D01*
X115213233Y-97063215D01*
X115408323Y-97044000D01*
X115603413Y-97063215D01*
G37*
G36*
X69486495Y-98117526D02*
G01*
X69506067Y-98117526D01*
X69529654Y-98126110D01*
X69558487Y-98131846D01*
X69574130Y-98142298D01*
X69587353Y-98147111D01*
X69610887Y-98166858D01*
X69639593Y-98186039D01*
X69647055Y-98197206D01*
X69653617Y-98202713D01*
X69671943Y-98234455D01*
X69693786Y-98267145D01*
X69695346Y-98274989D01*
X69696869Y-98277627D01*
X69704656Y-98321792D01*
X69712816Y-98362816D01*
X69704655Y-98403842D01*
X69696869Y-98448004D01*
X69695346Y-98450640D01*
X69693786Y-98458487D01*
X69671939Y-98491182D01*
X69653617Y-98522918D01*
X69647056Y-98528422D01*
X69639593Y-98539593D01*
X69610881Y-98558777D01*
X69587353Y-98578520D01*
X69574132Y-98583331D01*
X69558487Y-98593786D01*
X69529652Y-98599521D01*
X69506067Y-98608106D01*
X69486495Y-98608106D01*
X69462816Y-98612816D01*
X69439137Y-98608106D01*
X69419565Y-98608106D01*
X69395978Y-98599521D01*
X69367145Y-98593786D01*
X69351500Y-98583332D01*
X69338278Y-98578520D01*
X69314745Y-98558774D01*
X69286039Y-98539593D01*
X69278576Y-98528424D01*
X69272014Y-98522918D01*
X69253685Y-98491171D01*
X69231846Y-98458487D01*
X69230285Y-98450643D01*
X69228762Y-98448004D01*
X69220967Y-98403798D01*
X69212816Y-98362816D01*
X69220967Y-98321837D01*
X69228762Y-98277627D01*
X69230286Y-98274987D01*
X69231846Y-98267145D01*
X69253680Y-98234467D01*
X69272015Y-98202711D01*
X69278579Y-98197202D01*
X69286039Y-98186039D01*
X69314738Y-98166862D01*
X69338277Y-98147112D01*
X69351500Y-98142299D01*
X69367145Y-98131846D01*
X69395979Y-98126110D01*
X69419566Y-98117526D01*
X69439137Y-98117526D01*
X69462816Y-98112816D01*
X69486495Y-98117526D01*
G37*
G36*
X72830082Y-97028000D02*
G01*
X71628000Y-98230082D01*
X70425918Y-97028000D01*
X71628000Y-95825918D01*
X72830082Y-97028000D01*
G37*
G36*
X137765537Y-96834224D02*
G01*
X137830421Y-96877579D01*
X137873776Y-96942463D01*
X137889000Y-97019000D01*
X137889000Y-97419000D01*
X137873776Y-97495537D01*
X137830421Y-97560421D01*
X137765537Y-97603776D01*
X137689000Y-97619000D01*
X137139000Y-97619000D01*
X137062463Y-97603776D01*
X136997579Y-97560421D01*
X136954224Y-97495537D01*
X136939000Y-97419000D01*
X136939000Y-97019000D01*
X136954224Y-96942463D01*
X136997579Y-96877579D01*
X137062463Y-96834224D01*
X137139000Y-96819000D01*
X137689000Y-96819000D01*
X137765537Y-96834224D01*
G37*
G36*
X146655537Y-96717224D02*
G01*
X146720421Y-96760579D01*
X146763776Y-96825463D01*
X146779000Y-96902000D01*
X146779000Y-97302000D01*
X146763776Y-97378537D01*
X146720421Y-97443421D01*
X146655537Y-97486776D01*
X146579000Y-97502000D01*
X146029000Y-97502000D01*
X145952463Y-97486776D01*
X145887579Y-97443421D01*
X145844224Y-97378537D01*
X145829000Y-97302000D01*
X145829000Y-96902000D01*
X145844224Y-96825463D01*
X145887579Y-96760579D01*
X145952463Y-96717224D01*
X146029000Y-96702000D01*
X146579000Y-96702000D01*
X146655537Y-96717224D01*
G37*
G36*
X146655537Y-95067224D02*
G01*
X146720421Y-95110579D01*
X146763776Y-95175463D01*
X146779000Y-95252000D01*
X146779000Y-95652000D01*
X146763776Y-95728537D01*
X146720421Y-95793421D01*
X146655537Y-95836776D01*
X146579000Y-95852000D01*
X146029000Y-95852000D01*
X145952463Y-95836776D01*
X145887579Y-95793421D01*
X145844224Y-95728537D01*
X145829000Y-95652000D01*
X145829000Y-95252000D01*
X145844224Y-95175463D01*
X145887579Y-95110579D01*
X145952463Y-95067224D01*
X146029000Y-95052000D01*
X146579000Y-95052000D01*
X146655537Y-95067224D01*
G37*
G36*
X80470000Y-95185000D02*
G01*
X79770000Y-95185000D01*
X79770000Y-94675000D01*
X80470000Y-94675000D01*
X80470000Y-95185000D01*
G37*
G36*
X82790000Y-95185000D02*
G01*
X82090000Y-95185000D01*
X82090000Y-94675000D01*
X82790000Y-94675000D01*
X82790000Y-95185000D01*
G37*
G36*
X95710000Y-95185000D02*
G01*
X95010000Y-95185000D01*
X95010000Y-94675000D01*
X95710000Y-94675000D01*
X95710000Y-95185000D01*
G37*
G36*
X98030000Y-95185000D02*
G01*
X97330000Y-95185000D01*
X97330000Y-94675000D01*
X98030000Y-94675000D01*
X98030000Y-95185000D01*
G37*
G36*
X91000000Y-94835000D02*
G01*
X89300000Y-94835000D01*
X89300000Y-93135000D01*
X91000000Y-93135000D01*
X91000000Y-94835000D01*
G37*
G36*
X131640000Y-94835000D02*
G01*
X129940000Y-94835000D01*
X129940000Y-93135000D01*
X131640000Y-93135000D01*
X131640000Y-94835000D01*
G37*
G36*
X87872664Y-93176602D02*
G01*
X88035000Y-93248878D01*
X88178761Y-93353327D01*
X88297664Y-93485383D01*
X88386514Y-93639274D01*
X88441425Y-93808275D01*
X88460000Y-93985000D01*
X88441425Y-94161725D01*
X88386514Y-94330726D01*
X88297664Y-94484617D01*
X88178761Y-94616673D01*
X88035000Y-94721122D01*
X87872664Y-94793398D01*
X87698849Y-94830344D01*
X87521151Y-94830344D01*
X87347336Y-94793398D01*
X87185000Y-94721122D01*
X87041239Y-94616673D01*
X86922336Y-94484617D01*
X86833486Y-94330726D01*
X86778575Y-94161725D01*
X86760000Y-93985000D01*
X86778575Y-93808275D01*
X86833486Y-93639274D01*
X86922336Y-93485383D01*
X87041239Y-93353327D01*
X87185000Y-93248878D01*
X87347336Y-93176602D01*
X87521151Y-93139656D01*
X87698849Y-93139656D01*
X87872664Y-93176602D01*
G37*
G36*
X128512664Y-93176602D02*
G01*
X128675000Y-93248878D01*
X128818761Y-93353327D01*
X128937664Y-93485383D01*
X129026514Y-93639274D01*
X129081425Y-93808275D01*
X129100000Y-93985000D01*
X129081425Y-94161725D01*
X129026514Y-94330726D01*
X128937664Y-94484617D01*
X128818761Y-94616673D01*
X128675000Y-94721122D01*
X128512664Y-94793398D01*
X128338849Y-94830344D01*
X128161151Y-94830344D01*
X127987336Y-94793398D01*
X127825000Y-94721122D01*
X127681239Y-94616673D01*
X127562336Y-94484617D01*
X127473486Y-94330726D01*
X127418575Y-94161725D01*
X127400000Y-93985000D01*
X127418575Y-93808275D01*
X127473486Y-93639274D01*
X127562336Y-93485383D01*
X127681239Y-93353327D01*
X127825000Y-93248878D01*
X127987336Y-93176602D01*
X128161151Y-93139656D01*
X128338849Y-93139656D01*
X128512664Y-93176602D01*
G37*
G36*
X80470000Y-94235000D02*
G01*
X79770000Y-94235000D01*
X79770000Y-93725000D01*
X80470000Y-93725000D01*
X80470000Y-94235000D01*
G37*
G36*
X82790000Y-94235000D02*
G01*
X82090000Y-94235000D01*
X82090000Y-93725000D01*
X82790000Y-93725000D01*
X82790000Y-94235000D01*
G37*
G36*
X95710000Y-94235000D02*
G01*
X95010000Y-94235000D01*
X95010000Y-93725000D01*
X95710000Y-93725000D01*
X95710000Y-94235000D01*
G37*
G36*
X98030000Y-94235000D02*
G01*
X97330000Y-94235000D01*
X97330000Y-93725000D01*
X98030000Y-93725000D01*
X98030000Y-94235000D01*
G37*
G36*
X80470000Y-93285000D02*
G01*
X79770000Y-93285000D01*
X79770000Y-92775000D01*
X80470000Y-92775000D01*
X80470000Y-93285000D01*
G37*
G36*
X82790000Y-93285000D02*
G01*
X82090000Y-93285000D01*
X82090000Y-92775000D01*
X82790000Y-92775000D01*
X82790000Y-93285000D01*
G37*
G36*
X95710000Y-93285000D02*
G01*
X95010000Y-93285000D01*
X95010000Y-92775000D01*
X95710000Y-92775000D01*
X95710000Y-93285000D01*
G37*
G36*
X98030000Y-93285000D02*
G01*
X97330000Y-93285000D01*
X97330000Y-92775000D01*
X98030000Y-92775000D01*
X98030000Y-93285000D01*
G37*
G36*
X136807552Y-92452564D02*
G01*
X136844050Y-92476950D01*
X136868436Y-92513448D01*
X136877000Y-92556500D01*
X136877000Y-92931500D01*
X136868436Y-92974552D01*
X136844050Y-93011050D01*
X136807552Y-93035436D01*
X136764500Y-93044000D01*
X136539500Y-93044000D01*
X136496448Y-93035436D01*
X136459950Y-93011050D01*
X136435564Y-92974552D01*
X136427000Y-92931500D01*
X136427000Y-92556500D01*
X136435564Y-92513448D01*
X136459950Y-92476950D01*
X136496448Y-92452564D01*
X136539500Y-92444000D01*
X136764500Y-92444000D01*
X136807552Y-92452564D01*
G37*
G36*
X87872664Y-90636602D02*
G01*
X88035000Y-90708878D01*
X88178761Y-90813327D01*
X88297664Y-90945383D01*
X88386514Y-91099274D01*
X88441425Y-91268275D01*
X88460000Y-91445000D01*
X88441425Y-91621725D01*
X88386514Y-91790726D01*
X88297664Y-91944617D01*
X88178761Y-92076673D01*
X88035000Y-92181122D01*
X87872664Y-92253398D01*
X87698849Y-92290344D01*
X87521151Y-92290344D01*
X87347336Y-92253398D01*
X87185000Y-92181122D01*
X87041239Y-92076673D01*
X86922336Y-91944617D01*
X86833486Y-91790726D01*
X86778575Y-91621725D01*
X86760000Y-91445000D01*
X86778575Y-91268275D01*
X86833486Y-91099274D01*
X86922336Y-90945383D01*
X87041239Y-90813327D01*
X87185000Y-90708878D01*
X87347336Y-90636602D01*
X87521151Y-90599656D01*
X87698849Y-90599656D01*
X87872664Y-90636602D01*
G37*
G36*
X90412664Y-90636602D02*
G01*
X90575000Y-90708878D01*
X90718761Y-90813327D01*
X90837664Y-90945383D01*
X90926514Y-91099274D01*
X90981425Y-91268275D01*
X91000000Y-91445000D01*
X90981425Y-91621725D01*
X90926514Y-91790726D01*
X90837664Y-91944617D01*
X90718761Y-92076673D01*
X90575000Y-92181122D01*
X90412664Y-92253398D01*
X90238849Y-92290344D01*
X90061151Y-92290344D01*
X89887336Y-92253398D01*
X89725000Y-92181122D01*
X89581239Y-92076673D01*
X89462336Y-91944617D01*
X89373486Y-91790726D01*
X89318575Y-91621725D01*
X89300000Y-91445000D01*
X89318575Y-91268275D01*
X89373486Y-91099274D01*
X89462336Y-90945383D01*
X89581239Y-90813327D01*
X89725000Y-90708878D01*
X89887336Y-90636602D01*
X90061151Y-90599656D01*
X90238849Y-90599656D01*
X90412664Y-90636602D01*
G37*
G36*
X128512664Y-90636602D02*
G01*
X128675000Y-90708878D01*
X128818761Y-90813327D01*
X128937664Y-90945383D01*
X129026514Y-91099274D01*
X129081425Y-91268275D01*
X129100000Y-91445000D01*
X129081425Y-91621725D01*
X129026514Y-91790726D01*
X128937664Y-91944617D01*
X128818761Y-92076673D01*
X128675000Y-92181122D01*
X128512664Y-92253398D01*
X128338849Y-92290344D01*
X128161151Y-92290344D01*
X127987336Y-92253398D01*
X127825000Y-92181122D01*
X127681239Y-92076673D01*
X127562336Y-91944617D01*
X127473486Y-91790726D01*
X127418575Y-91621725D01*
X127400000Y-91445000D01*
X127418575Y-91268275D01*
X127473486Y-91099274D01*
X127562336Y-90945383D01*
X127681239Y-90813327D01*
X127825000Y-90708878D01*
X127987336Y-90636602D01*
X128161151Y-90599656D01*
X128338849Y-90599656D01*
X128512664Y-90636602D01*
G37*
G36*
X131052664Y-90636602D02*
G01*
X131215000Y-90708878D01*
X131358761Y-90813327D01*
X131477664Y-90945383D01*
X131566514Y-91099274D01*
X131621425Y-91268275D01*
X131640000Y-91445000D01*
X131621425Y-91621725D01*
X131566514Y-91790726D01*
X131477664Y-91944617D01*
X131358761Y-92076673D01*
X131215000Y-92181122D01*
X131052664Y-92253398D01*
X130878849Y-92290344D01*
X130701151Y-92290344D01*
X130527336Y-92253398D01*
X130365000Y-92181122D01*
X130221239Y-92076673D01*
X130102336Y-91944617D01*
X130013486Y-91790726D01*
X129958575Y-91621725D01*
X129940000Y-91445000D01*
X129958575Y-91268275D01*
X130013486Y-91099274D01*
X130102336Y-90945383D01*
X130221239Y-90813327D01*
X130365000Y-90708878D01*
X130527336Y-90636602D01*
X130701151Y-90599656D01*
X130878849Y-90599656D01*
X131052664Y-90636602D01*
G37*
G36*
X71591060Y-89700990D02*
G01*
X71801525Y-89757384D01*
X71999000Y-89849468D01*
X72177485Y-89974444D01*
X72331556Y-90128515D01*
X72456532Y-90307000D01*
X72548616Y-90504475D01*
X72605010Y-90714940D01*
X72624000Y-90932000D01*
X72605010Y-91149060D01*
X72548616Y-91359525D01*
X72456532Y-91557000D01*
X72331556Y-91735485D01*
X72177485Y-91889556D01*
X71999000Y-92014532D01*
X71801525Y-92106616D01*
X71591060Y-92163010D01*
X71374000Y-92182000D01*
X71156940Y-92163010D01*
X70946475Y-92106616D01*
X70749000Y-92014532D01*
X70570515Y-91889556D01*
X70416444Y-91735485D01*
X70291468Y-91557000D01*
X70199384Y-91359525D01*
X70142990Y-91149060D01*
X70124000Y-90932000D01*
X70142990Y-90714940D01*
X70199384Y-90504475D01*
X70291468Y-90307000D01*
X70416444Y-90128515D01*
X70570515Y-89974444D01*
X70749000Y-89849468D01*
X70946475Y-89757384D01*
X71156940Y-89700990D01*
X71374000Y-89682000D01*
X71591060Y-89700990D01*
G37*
G36*
X136807552Y-90352564D02*
G01*
X136844050Y-90376950D01*
X136868436Y-90413448D01*
X136877000Y-90456500D01*
X136877000Y-90831500D01*
X136868436Y-90874552D01*
X136844050Y-90911050D01*
X136807552Y-90935436D01*
X136764500Y-90944000D01*
X136539500Y-90944000D01*
X136496448Y-90935436D01*
X136459950Y-90911050D01*
X136435564Y-90874552D01*
X136427000Y-90831500D01*
X136427000Y-90456500D01*
X136435564Y-90413448D01*
X136459950Y-90376950D01*
X136496448Y-90352564D01*
X136539500Y-90344000D01*
X136764500Y-90344000D01*
X136807552Y-90352564D01*
G37*
G36*
X141669403Y-89938418D02*
G01*
X141718066Y-89970934D01*
X141750582Y-90019597D01*
X141762000Y-90077000D01*
X141762000Y-90377000D01*
X141750582Y-90434403D01*
X141718066Y-90483066D01*
X141669403Y-90515582D01*
X141612000Y-90527000D01*
X140587000Y-90527000D01*
X140529597Y-90515582D01*
X140480934Y-90483066D01*
X140448418Y-90434403D01*
X140437000Y-90377000D01*
X140437000Y-90077000D01*
X140448418Y-90019597D01*
X140480934Y-89970934D01*
X140529597Y-89938418D01*
X140587000Y-89927000D01*
X141612000Y-89927000D01*
X141669403Y-89938418D01*
G37*
G36*
X143944403Y-89938418D02*
G01*
X143993066Y-89970934D01*
X144025582Y-90019597D01*
X144037000Y-90077000D01*
X144037000Y-90377000D01*
X144025582Y-90434403D01*
X143993066Y-90483066D01*
X143944403Y-90515582D01*
X143887000Y-90527000D01*
X142862000Y-90527000D01*
X142804597Y-90515582D01*
X142755934Y-90483066D01*
X142723418Y-90434403D01*
X142712000Y-90377000D01*
X142712000Y-90077000D01*
X142723418Y-90019597D01*
X142755934Y-89970934D01*
X142804597Y-89938418D01*
X142862000Y-89927000D01*
X143887000Y-89927000D01*
X143944403Y-89938418D01*
G37*
G36*
X96623000Y-90512000D02*
G01*
X94923000Y-90512000D01*
X94923000Y-88812000D01*
X96623000Y-88812000D01*
X96623000Y-90512000D01*
G37*
G36*
X98575664Y-88853602D02*
G01*
X98738000Y-88925878D01*
X98881761Y-89030327D01*
X99000664Y-89162383D01*
X99089514Y-89316274D01*
X99144425Y-89485275D01*
X99163000Y-89662000D01*
X99144425Y-89838725D01*
X99089514Y-90007726D01*
X99000664Y-90161617D01*
X98881761Y-90293673D01*
X98738000Y-90398122D01*
X98575664Y-90470398D01*
X98401849Y-90507344D01*
X98224151Y-90507344D01*
X98050336Y-90470398D01*
X97888000Y-90398122D01*
X97744239Y-90293673D01*
X97625336Y-90161617D01*
X97536486Y-90007726D01*
X97481575Y-89838725D01*
X97463000Y-89662000D01*
X97481575Y-89485275D01*
X97536486Y-89316274D01*
X97625336Y-89162383D01*
X97744239Y-89030327D01*
X97888000Y-88925878D01*
X98050336Y-88853602D01*
X98224151Y-88816656D01*
X98401849Y-88816656D01*
X98575664Y-88853602D01*
G37*
G36*
X101115664Y-88853602D02*
G01*
X101278000Y-88925878D01*
X101421761Y-89030327D01*
X101540664Y-89162383D01*
X101629514Y-89316274D01*
X101684425Y-89485275D01*
X101703000Y-89662000D01*
X101684425Y-89838725D01*
X101629514Y-90007726D01*
X101540664Y-90161617D01*
X101421761Y-90293673D01*
X101278000Y-90398122D01*
X101115664Y-90470398D01*
X100941849Y-90507344D01*
X100764151Y-90507344D01*
X100590336Y-90470398D01*
X100428000Y-90398122D01*
X100284239Y-90293673D01*
X100165336Y-90161617D01*
X100076486Y-90007726D01*
X100021575Y-89838725D01*
X100003000Y-89662000D01*
X100021575Y-89485275D01*
X100076486Y-89316274D01*
X100165336Y-89162383D01*
X100284239Y-89030327D01*
X100428000Y-88925878D01*
X100590336Y-88853602D01*
X100764151Y-88816656D01*
X100941849Y-88816656D01*
X101115664Y-88853602D01*
G37*
G36*
X87872664Y-88096602D02*
G01*
X88035000Y-88168878D01*
X88178761Y-88273327D01*
X88297664Y-88405383D01*
X88386514Y-88559274D01*
X88441425Y-88728275D01*
X88460000Y-88905000D01*
X88441425Y-89081725D01*
X88386514Y-89250726D01*
X88297664Y-89404617D01*
X88178761Y-89536673D01*
X88035000Y-89641122D01*
X87872664Y-89713398D01*
X87698849Y-89750344D01*
X87521151Y-89750344D01*
X87347336Y-89713398D01*
X87185000Y-89641122D01*
X87041239Y-89536673D01*
X86922336Y-89404617D01*
X86833486Y-89250726D01*
X86778575Y-89081725D01*
X86760000Y-88905000D01*
X86778575Y-88728275D01*
X86833486Y-88559274D01*
X86922336Y-88405383D01*
X87041239Y-88273327D01*
X87185000Y-88168878D01*
X87347336Y-88096602D01*
X87521151Y-88059656D01*
X87698849Y-88059656D01*
X87872664Y-88096602D01*
G37*
G36*
X90412664Y-88096602D02*
G01*
X90575000Y-88168878D01*
X90718761Y-88273327D01*
X90837664Y-88405383D01*
X90926514Y-88559274D01*
X90981425Y-88728275D01*
X91000000Y-88905000D01*
X90981425Y-89081725D01*
X90926514Y-89250726D01*
X90837664Y-89404617D01*
X90718761Y-89536673D01*
X90575000Y-89641122D01*
X90412664Y-89713398D01*
X90238849Y-89750344D01*
X90061151Y-89750344D01*
X89887336Y-89713398D01*
X89725000Y-89641122D01*
X89581239Y-89536673D01*
X89462336Y-89404617D01*
X89373486Y-89250726D01*
X89318575Y-89081725D01*
X89300000Y-88905000D01*
X89318575Y-88728275D01*
X89373486Y-88559274D01*
X89462336Y-88405383D01*
X89581239Y-88273327D01*
X89725000Y-88168878D01*
X89887336Y-88096602D01*
X90061151Y-88059656D01*
X90238849Y-88059656D01*
X90412664Y-88096602D01*
G37*
G36*
X128512664Y-88096602D02*
G01*
X128675000Y-88168878D01*
X128818761Y-88273327D01*
X128937664Y-88405383D01*
X129026514Y-88559274D01*
X129081425Y-88728275D01*
X129100000Y-88905000D01*
X129081425Y-89081725D01*
X129026514Y-89250726D01*
X128937664Y-89404617D01*
X128818761Y-89536673D01*
X128675000Y-89641122D01*
X128512664Y-89713398D01*
X128338849Y-89750344D01*
X128161151Y-89750344D01*
X127987336Y-89713398D01*
X127825000Y-89641122D01*
X127681239Y-89536673D01*
X127562336Y-89404617D01*
X127473486Y-89250726D01*
X127418575Y-89081725D01*
X127400000Y-88905000D01*
X127418575Y-88728275D01*
X127473486Y-88559274D01*
X127562336Y-88405383D01*
X127681239Y-88273327D01*
X127825000Y-88168878D01*
X127987336Y-88096602D01*
X128161151Y-88059656D01*
X128338849Y-88059656D01*
X128512664Y-88096602D01*
G37*
G36*
X131052664Y-88096602D02*
G01*
X131215000Y-88168878D01*
X131358761Y-88273327D01*
X131477664Y-88405383D01*
X131566514Y-88559274D01*
X131621425Y-88728275D01*
X131640000Y-88905000D01*
X131621425Y-89081725D01*
X131566514Y-89250726D01*
X131477664Y-89404617D01*
X131358761Y-89536673D01*
X131215000Y-89641122D01*
X131052664Y-89713398D01*
X130878849Y-89750344D01*
X130701151Y-89750344D01*
X130527336Y-89713398D01*
X130365000Y-89641122D01*
X130221239Y-89536673D01*
X130102336Y-89404617D01*
X130013486Y-89250726D01*
X129958575Y-89081725D01*
X129940000Y-88905000D01*
X129958575Y-88728275D01*
X130013486Y-88559274D01*
X130102336Y-88405383D01*
X130221239Y-88273327D01*
X130365000Y-88168878D01*
X130527336Y-88096602D01*
X130701151Y-88059656D01*
X130878849Y-88059656D01*
X131052664Y-88096602D01*
G37*
G36*
X141669403Y-88988418D02*
G01*
X141718066Y-89020934D01*
X141750582Y-89069597D01*
X141762000Y-89127000D01*
X141762000Y-89427000D01*
X141750582Y-89484403D01*
X141718066Y-89533066D01*
X141669403Y-89565582D01*
X141612000Y-89577000D01*
X140587000Y-89577000D01*
X140529597Y-89565582D01*
X140480934Y-89533066D01*
X140448418Y-89484403D01*
X140437000Y-89427000D01*
X140437000Y-89127000D01*
X140448418Y-89069597D01*
X140480934Y-89020934D01*
X140529597Y-88988418D01*
X140587000Y-88977000D01*
X141612000Y-88977000D01*
X141669403Y-88988418D01*
G37*
G36*
X143944403Y-88988418D02*
G01*
X143993066Y-89020934D01*
X144025582Y-89069597D01*
X144037000Y-89127000D01*
X144037000Y-89427000D01*
X144025582Y-89484403D01*
X143993066Y-89533066D01*
X143944403Y-89565582D01*
X143887000Y-89577000D01*
X142862000Y-89577000D01*
X142804597Y-89565582D01*
X142755934Y-89533066D01*
X142723418Y-89484403D01*
X142712000Y-89427000D01*
X142712000Y-89127000D01*
X142723418Y-89069597D01*
X142755934Y-89020934D01*
X142804597Y-88988418D01*
X142862000Y-88977000D01*
X143887000Y-88977000D01*
X143944403Y-88988418D01*
G37*
G36*
X107033268Y-89092612D02*
G01*
X107065711Y-89114289D01*
X107087388Y-89146732D01*
X107095000Y-89185000D01*
X107095000Y-89385000D01*
X107087388Y-89423268D01*
X107065711Y-89455711D01*
X107033268Y-89477388D01*
X106995000Y-89485000D01*
X105720000Y-89485000D01*
X105681732Y-89477388D01*
X105649289Y-89455711D01*
X105627612Y-89423268D01*
X105620000Y-89385000D01*
X105620000Y-89185000D01*
X105627612Y-89146732D01*
X105649289Y-89114289D01*
X105681732Y-89092612D01*
X105720000Y-89085000D01*
X106995000Y-89085000D01*
X107033268Y-89092612D01*
G37*
G36*
X112758268Y-89092612D02*
G01*
X112790711Y-89114289D01*
X112812388Y-89146732D01*
X112820000Y-89185000D01*
X112820000Y-89385000D01*
X112812388Y-89423268D01*
X112790711Y-89455711D01*
X112758268Y-89477388D01*
X112720000Y-89485000D01*
X111445000Y-89485000D01*
X111406732Y-89477388D01*
X111374289Y-89455711D01*
X111352612Y-89423268D01*
X111345000Y-89385000D01*
X111345000Y-89185000D01*
X111352612Y-89146732D01*
X111374289Y-89114289D01*
X111406732Y-89092612D01*
X111445000Y-89085000D01*
X112720000Y-89085000D01*
X112758268Y-89092612D01*
G37*
G36*
X138401850Y-88080964D02*
G01*
X138452040Y-88086787D01*
X138469189Y-88094359D01*
X138492671Y-88099030D01*
X138517810Y-88115827D01*
X138537696Y-88124608D01*
X138551277Y-88138189D01*
X138573777Y-88153223D01*
X138588810Y-88175722D01*
X138602391Y-88189303D01*
X138611170Y-88209186D01*
X138627970Y-88234329D01*
X138632641Y-88257812D01*
X138640212Y-88274959D01*
X138646033Y-88325139D01*
X138647000Y-88330000D01*
X138647000Y-88830000D01*
X138646032Y-88834863D01*
X138640212Y-88885040D01*
X138632641Y-88902185D01*
X138627970Y-88925671D01*
X138611169Y-88950815D01*
X138602391Y-88970696D01*
X138588812Y-88984274D01*
X138573777Y-89006777D01*
X138551274Y-89021812D01*
X138537696Y-89035391D01*
X138517815Y-89044169D01*
X138492671Y-89060970D01*
X138469185Y-89065641D01*
X138452040Y-89073212D01*
X138401861Y-89079032D01*
X138397000Y-89080000D01*
X137447000Y-89080000D01*
X137442138Y-89079032D01*
X137391959Y-89073212D01*
X137374812Y-89065641D01*
X137351329Y-89060970D01*
X137326186Y-89044170D01*
X137306303Y-89035391D01*
X137292722Y-89021810D01*
X137270223Y-89006777D01*
X137255189Y-88984277D01*
X137241608Y-88970696D01*
X137232827Y-88950810D01*
X137216030Y-88925671D01*
X137211359Y-88902189D01*
X137203787Y-88885040D01*
X137197964Y-88834849D01*
X137197000Y-88830000D01*
X137197000Y-88330000D01*
X137197964Y-88325150D01*
X137203787Y-88274959D01*
X137211359Y-88257808D01*
X137216030Y-88234329D01*
X137232826Y-88209191D01*
X137241608Y-88189303D01*
X137255191Y-88175719D01*
X137270223Y-88153223D01*
X137292719Y-88138191D01*
X137306303Y-88124608D01*
X137326191Y-88115826D01*
X137351329Y-88099030D01*
X137374808Y-88094359D01*
X137391959Y-88086787D01*
X137442151Y-88080964D01*
X137447000Y-88080000D01*
X138397000Y-88080000D01*
X138401850Y-88080964D01*
G37*
G36*
X107033268Y-88442612D02*
G01*
X107065711Y-88464289D01*
X107087388Y-88496732D01*
X107095000Y-88535000D01*
X107095000Y-88735000D01*
X107087388Y-88773268D01*
X107065711Y-88805711D01*
X107033268Y-88827388D01*
X106995000Y-88835000D01*
X105720000Y-88835000D01*
X105681732Y-88827388D01*
X105649289Y-88805711D01*
X105627612Y-88773268D01*
X105620000Y-88735000D01*
X105620000Y-88535000D01*
X105627612Y-88496732D01*
X105649289Y-88464289D01*
X105681732Y-88442612D01*
X105720000Y-88435000D01*
X106995000Y-88435000D01*
X107033268Y-88442612D01*
G37*
G36*
X112758268Y-88442612D02*
G01*
X112790711Y-88464289D01*
X112812388Y-88496732D01*
X112820000Y-88535000D01*
X112820000Y-88735000D01*
X112812388Y-88773268D01*
X112790711Y-88805711D01*
X112758268Y-88827388D01*
X112720000Y-88835000D01*
X111445000Y-88835000D01*
X111406732Y-88827388D01*
X111374289Y-88805711D01*
X111352612Y-88773268D01*
X111345000Y-88735000D01*
X111345000Y-88535000D01*
X111352612Y-88496732D01*
X111374289Y-88464289D01*
X111406732Y-88442612D01*
X111445000Y-88435000D01*
X112720000Y-88435000D01*
X112758268Y-88442612D01*
G37*
G36*
X141669403Y-88038418D02*
G01*
X141718066Y-88070934D01*
X141750582Y-88119597D01*
X141762000Y-88177000D01*
X141762000Y-88477000D01*
X141750582Y-88534403D01*
X141718066Y-88583066D01*
X141669403Y-88615582D01*
X141612000Y-88627000D01*
X140587000Y-88627000D01*
X140529597Y-88615582D01*
X140480934Y-88583066D01*
X140448418Y-88534403D01*
X140437000Y-88477000D01*
X140437000Y-88177000D01*
X140448418Y-88119597D01*
X140480934Y-88070934D01*
X140529597Y-88038418D01*
X140587000Y-88027000D01*
X141612000Y-88027000D01*
X141669403Y-88038418D01*
G37*
G36*
X143944403Y-88038418D02*
G01*
X143993066Y-88070934D01*
X144025582Y-88119597D01*
X144037000Y-88177000D01*
X144037000Y-88477000D01*
X144025582Y-88534403D01*
X143993066Y-88583066D01*
X143944403Y-88615582D01*
X143887000Y-88627000D01*
X142862000Y-88627000D01*
X142804597Y-88615582D01*
X142755934Y-88583066D01*
X142723418Y-88534403D01*
X142712000Y-88477000D01*
X142712000Y-88177000D01*
X142723418Y-88119597D01*
X142755934Y-88070934D01*
X142804597Y-88038418D01*
X142862000Y-88027000D01*
X143887000Y-88027000D01*
X143944403Y-88038418D01*
G37*
G36*
X107033268Y-87792612D02*
G01*
X107065711Y-87814289D01*
X107087388Y-87846732D01*
X107095000Y-87885000D01*
X107095000Y-88085000D01*
X107087388Y-88123268D01*
X107065711Y-88155711D01*
X107033268Y-88177388D01*
X106995000Y-88185000D01*
X105720000Y-88185000D01*
X105681732Y-88177388D01*
X105649289Y-88155711D01*
X105627612Y-88123268D01*
X105620000Y-88085000D01*
X105620000Y-87885000D01*
X105627612Y-87846732D01*
X105649289Y-87814289D01*
X105681732Y-87792612D01*
X105720000Y-87785000D01*
X106995000Y-87785000D01*
X107033268Y-87792612D01*
G37*
G36*
X112758268Y-87792612D02*
G01*
X112790711Y-87814289D01*
X112812388Y-87846732D01*
X112820000Y-87885000D01*
X112820000Y-88085000D01*
X112812388Y-88123268D01*
X112790711Y-88155711D01*
X112758268Y-88177388D01*
X112720000Y-88185000D01*
X111445000Y-88185000D01*
X111406732Y-88177388D01*
X111374289Y-88155711D01*
X111352612Y-88123268D01*
X111345000Y-88085000D01*
X111345000Y-87885000D01*
X111352612Y-87846732D01*
X111374289Y-87814289D01*
X111406732Y-87792612D01*
X111445000Y-87785000D01*
X112720000Y-87785000D01*
X112758268Y-87792612D01*
G37*
G36*
X107033268Y-87142612D02*
G01*
X107065711Y-87164289D01*
X107087388Y-87196732D01*
X107095000Y-87235000D01*
X107095000Y-87435000D01*
X107087388Y-87473268D01*
X107065711Y-87505711D01*
X107033268Y-87527388D01*
X106995000Y-87535000D01*
X105720000Y-87535000D01*
X105681732Y-87527388D01*
X105649289Y-87505711D01*
X105627612Y-87473268D01*
X105620000Y-87435000D01*
X105620000Y-87235000D01*
X105627612Y-87196732D01*
X105649289Y-87164289D01*
X105681732Y-87142612D01*
X105720000Y-87135000D01*
X106995000Y-87135000D01*
X107033268Y-87142612D01*
G37*
G36*
X112758268Y-87142612D02*
G01*
X112790711Y-87164289D01*
X112812388Y-87196732D01*
X112820000Y-87235000D01*
X112820000Y-87435000D01*
X112812388Y-87473268D01*
X112790711Y-87505711D01*
X112758268Y-87527388D01*
X112720000Y-87535000D01*
X111445000Y-87535000D01*
X111406732Y-87527388D01*
X111374289Y-87505711D01*
X111352612Y-87473268D01*
X111345000Y-87435000D01*
X111345000Y-87235000D01*
X111352612Y-87196732D01*
X111374289Y-87164289D01*
X111406732Y-87142612D01*
X111445000Y-87135000D01*
X112720000Y-87135000D01*
X112758268Y-87142612D01*
G37*
G36*
X87872664Y-85556602D02*
G01*
X88035000Y-85628878D01*
X88178761Y-85733327D01*
X88297664Y-85865383D01*
X88386514Y-86019274D01*
X88441425Y-86188275D01*
X88460000Y-86365000D01*
X88441425Y-86541725D01*
X88386514Y-86710726D01*
X88297664Y-86864617D01*
X88178761Y-86996673D01*
X88035000Y-87101122D01*
X87872664Y-87173398D01*
X87698849Y-87210344D01*
X87521151Y-87210344D01*
X87347336Y-87173398D01*
X87185000Y-87101122D01*
X87041239Y-86996673D01*
X86922336Y-86864617D01*
X86833486Y-86710726D01*
X86778575Y-86541725D01*
X86760000Y-86365000D01*
X86778575Y-86188275D01*
X86833486Y-86019274D01*
X86922336Y-85865383D01*
X87041239Y-85733327D01*
X87185000Y-85628878D01*
X87347336Y-85556602D01*
X87521151Y-85519656D01*
X87698849Y-85519656D01*
X87872664Y-85556602D01*
G37*
G36*
X90412664Y-85556602D02*
G01*
X90575000Y-85628878D01*
X90718761Y-85733327D01*
X90837664Y-85865383D01*
X90926514Y-86019274D01*
X90981425Y-86188275D01*
X91000000Y-86365000D01*
X90981425Y-86541725D01*
X90926514Y-86710726D01*
X90837664Y-86864617D01*
X90718761Y-86996673D01*
X90575000Y-87101122D01*
X90412664Y-87173398D01*
X90238849Y-87210344D01*
X90061151Y-87210344D01*
X89887336Y-87173398D01*
X89725000Y-87101122D01*
X89581239Y-86996673D01*
X89462336Y-86864617D01*
X89373486Y-86710726D01*
X89318575Y-86541725D01*
X89300000Y-86365000D01*
X89318575Y-86188275D01*
X89373486Y-86019274D01*
X89462336Y-85865383D01*
X89581239Y-85733327D01*
X89725000Y-85628878D01*
X89887336Y-85556602D01*
X90061151Y-85519656D01*
X90238849Y-85519656D01*
X90412664Y-85556602D01*
G37*
G36*
X128512664Y-85556602D02*
G01*
X128675000Y-85628878D01*
X128818761Y-85733327D01*
X128937664Y-85865383D01*
X129026514Y-86019274D01*
X129081425Y-86188275D01*
X129100000Y-86365000D01*
X129081425Y-86541725D01*
X129026514Y-86710726D01*
X128937664Y-86864617D01*
X128818761Y-86996673D01*
X128675000Y-87101122D01*
X128512664Y-87173398D01*
X128338849Y-87210344D01*
X128161151Y-87210344D01*
X127987336Y-87173398D01*
X127825000Y-87101122D01*
X127681239Y-86996673D01*
X127562336Y-86864617D01*
X127473486Y-86710726D01*
X127418575Y-86541725D01*
X127400000Y-86365000D01*
X127418575Y-86188275D01*
X127473486Y-86019274D01*
X127562336Y-85865383D01*
X127681239Y-85733327D01*
X127825000Y-85628878D01*
X127987336Y-85556602D01*
X128161151Y-85519656D01*
X128338849Y-85519656D01*
X128512664Y-85556602D01*
G37*
G36*
X131052664Y-85556602D02*
G01*
X131215000Y-85628878D01*
X131358761Y-85733327D01*
X131477664Y-85865383D01*
X131566514Y-86019274D01*
X131621425Y-86188275D01*
X131640000Y-86365000D01*
X131621425Y-86541725D01*
X131566514Y-86710726D01*
X131477664Y-86864617D01*
X131358761Y-86996673D01*
X131215000Y-87101122D01*
X131052664Y-87173398D01*
X130878849Y-87210344D01*
X130701151Y-87210344D01*
X130527336Y-87173398D01*
X130365000Y-87101122D01*
X130221239Y-86996673D01*
X130102336Y-86864617D01*
X130013486Y-86710726D01*
X129958575Y-86541725D01*
X129940000Y-86365000D01*
X129958575Y-86188275D01*
X130013486Y-86019274D01*
X130102336Y-85865383D01*
X130221239Y-85733327D01*
X130365000Y-85628878D01*
X130527336Y-85556602D01*
X130701151Y-85519656D01*
X130878849Y-85519656D01*
X131052664Y-85556602D01*
G37*
G36*
X138401850Y-86180964D02*
G01*
X138452040Y-86186787D01*
X138469189Y-86194359D01*
X138492671Y-86199030D01*
X138517810Y-86215827D01*
X138537696Y-86224608D01*
X138551277Y-86238189D01*
X138573777Y-86253223D01*
X138588810Y-86275722D01*
X138602391Y-86289303D01*
X138611170Y-86309186D01*
X138627970Y-86334329D01*
X138632641Y-86357812D01*
X138640212Y-86374959D01*
X138646033Y-86425139D01*
X138647000Y-86430000D01*
X138647000Y-86930000D01*
X138646032Y-86934863D01*
X138640212Y-86985040D01*
X138632641Y-87002185D01*
X138627970Y-87025671D01*
X138611169Y-87050815D01*
X138602391Y-87070696D01*
X138588812Y-87084274D01*
X138573777Y-87106777D01*
X138551274Y-87121812D01*
X138537696Y-87135391D01*
X138517815Y-87144169D01*
X138492671Y-87160970D01*
X138469185Y-87165641D01*
X138452040Y-87173212D01*
X138401861Y-87179032D01*
X138397000Y-87180000D01*
X137447000Y-87180000D01*
X137442138Y-87179032D01*
X137391959Y-87173212D01*
X137374812Y-87165641D01*
X137351329Y-87160970D01*
X137326186Y-87144170D01*
X137306303Y-87135391D01*
X137292722Y-87121810D01*
X137270223Y-87106777D01*
X137255189Y-87084277D01*
X137241608Y-87070696D01*
X137232827Y-87050810D01*
X137216030Y-87025671D01*
X137211359Y-87002189D01*
X137203787Y-86985040D01*
X137197964Y-86934849D01*
X137197000Y-86930000D01*
X137197000Y-86430000D01*
X137197964Y-86425150D01*
X137203787Y-86374959D01*
X137211359Y-86357808D01*
X137216030Y-86334329D01*
X137232826Y-86309191D01*
X137241608Y-86289303D01*
X137255191Y-86275719D01*
X137270223Y-86253223D01*
X137292719Y-86238191D01*
X137306303Y-86224608D01*
X137326191Y-86215826D01*
X137351329Y-86199030D01*
X137374808Y-86194359D01*
X137391959Y-86186787D01*
X137442151Y-86180964D01*
X137447000Y-86180000D01*
X138397000Y-86180000D01*
X138401850Y-86180964D01*
G37*
G36*
X72624000Y-87102000D02*
G01*
X70124000Y-87102000D01*
X70124000Y-84602000D01*
X72624000Y-84602000D01*
X72624000Y-87102000D01*
G37*
G36*
X107033268Y-86492612D02*
G01*
X107065711Y-86514289D01*
X107087388Y-86546732D01*
X107095000Y-86585000D01*
X107095000Y-86785000D01*
X107087388Y-86823268D01*
X107065711Y-86855711D01*
X107033268Y-86877388D01*
X106995000Y-86885000D01*
X105720000Y-86885000D01*
X105681732Y-86877388D01*
X105649289Y-86855711D01*
X105627612Y-86823268D01*
X105620000Y-86785000D01*
X105620000Y-86585000D01*
X105627612Y-86546732D01*
X105649289Y-86514289D01*
X105681732Y-86492612D01*
X105720000Y-86485000D01*
X106995000Y-86485000D01*
X107033268Y-86492612D01*
G37*
G36*
X112758268Y-86492612D02*
G01*
X112790711Y-86514289D01*
X112812388Y-86546732D01*
X112820000Y-86585000D01*
X112820000Y-86785000D01*
X112812388Y-86823268D01*
X112790711Y-86855711D01*
X112758268Y-86877388D01*
X112720000Y-86885000D01*
X111445000Y-86885000D01*
X111406732Y-86877388D01*
X111374289Y-86855711D01*
X111352612Y-86823268D01*
X111345000Y-86785000D01*
X111345000Y-86585000D01*
X111352612Y-86546732D01*
X111374289Y-86514289D01*
X111406732Y-86492612D01*
X111445000Y-86485000D01*
X112720000Y-86485000D01*
X112758268Y-86492612D01*
G37*
G36*
X96623000Y-86702000D02*
G01*
X94923000Y-86702000D01*
X94923000Y-85002000D01*
X96623000Y-85002000D01*
X96623000Y-86702000D01*
G37*
G36*
X98575664Y-85043602D02*
G01*
X98738000Y-85115878D01*
X98881761Y-85220327D01*
X99000664Y-85352383D01*
X99089514Y-85506274D01*
X99144425Y-85675275D01*
X99163000Y-85852000D01*
X99144425Y-86028725D01*
X99089514Y-86197726D01*
X99000664Y-86351617D01*
X98881761Y-86483673D01*
X98738000Y-86588122D01*
X98575664Y-86660398D01*
X98401849Y-86697344D01*
X98224151Y-86697344D01*
X98050336Y-86660398D01*
X97888000Y-86588122D01*
X97744239Y-86483673D01*
X97625336Y-86351617D01*
X97536486Y-86197726D01*
X97481575Y-86028725D01*
X97463000Y-85852000D01*
X97481575Y-85675275D01*
X97536486Y-85506274D01*
X97625336Y-85352383D01*
X97744239Y-85220327D01*
X97888000Y-85115878D01*
X98050336Y-85043602D01*
X98224151Y-85006656D01*
X98401849Y-85006656D01*
X98575664Y-85043602D01*
G37*
G36*
X101115664Y-85043602D02*
G01*
X101278000Y-85115878D01*
X101421761Y-85220327D01*
X101540664Y-85352383D01*
X101629514Y-85506274D01*
X101684425Y-85675275D01*
X101703000Y-85852000D01*
X101684425Y-86028725D01*
X101629514Y-86197726D01*
X101540664Y-86351617D01*
X101421761Y-86483673D01*
X101278000Y-86588122D01*
X101115664Y-86660398D01*
X100941849Y-86697344D01*
X100764151Y-86697344D01*
X100590336Y-86660398D01*
X100428000Y-86588122D01*
X100284239Y-86483673D01*
X100165336Y-86351617D01*
X100076486Y-86197726D01*
X100021575Y-86028725D01*
X100003000Y-85852000D01*
X100021575Y-85675275D01*
X100076486Y-85506274D01*
X100165336Y-85352383D01*
X100284239Y-85220327D01*
X100428000Y-85115878D01*
X100590336Y-85043602D01*
X100764151Y-85006656D01*
X100941849Y-85006656D01*
X101115664Y-85043602D01*
G37*
G36*
X107033268Y-85842612D02*
G01*
X107065711Y-85864289D01*
X107087388Y-85896732D01*
X107095000Y-85935000D01*
X107095000Y-86135000D01*
X107087388Y-86173268D01*
X107065711Y-86205711D01*
X107033268Y-86227388D01*
X106995000Y-86235000D01*
X105720000Y-86235000D01*
X105681732Y-86227388D01*
X105649289Y-86205711D01*
X105627612Y-86173268D01*
X105620000Y-86135000D01*
X105620000Y-85935000D01*
X105627612Y-85896732D01*
X105649289Y-85864289D01*
X105681732Y-85842612D01*
X105720000Y-85835000D01*
X106995000Y-85835000D01*
X107033268Y-85842612D01*
G37*
G36*
X112758268Y-85842612D02*
G01*
X112790711Y-85864289D01*
X112812388Y-85896732D01*
X112820000Y-85935000D01*
X112820000Y-86135000D01*
X112812388Y-86173268D01*
X112790711Y-86205711D01*
X112758268Y-86227388D01*
X112720000Y-86235000D01*
X111445000Y-86235000D01*
X111406732Y-86227388D01*
X111374289Y-86205711D01*
X111352612Y-86173268D01*
X111345000Y-86135000D01*
X111345000Y-85935000D01*
X111352612Y-85896732D01*
X111374289Y-85864289D01*
X111406732Y-85842612D01*
X111445000Y-85835000D01*
X112720000Y-85835000D01*
X112758268Y-85842612D01*
G37*
G36*
X107033268Y-85192612D02*
G01*
X107065711Y-85214289D01*
X107087388Y-85246732D01*
X107095000Y-85285000D01*
X107095000Y-85485000D01*
X107087388Y-85523268D01*
X107065711Y-85555711D01*
X107033268Y-85577388D01*
X106995000Y-85585000D01*
X105720000Y-85585000D01*
X105681732Y-85577388D01*
X105649289Y-85555711D01*
X105627612Y-85523268D01*
X105620000Y-85485000D01*
X105620000Y-85285000D01*
X105627612Y-85246732D01*
X105649289Y-85214289D01*
X105681732Y-85192612D01*
X105720000Y-85185000D01*
X106995000Y-85185000D01*
X107033268Y-85192612D01*
G37*
G36*
X112758268Y-85192612D02*
G01*
X112790711Y-85214289D01*
X112812388Y-85246732D01*
X112820000Y-85285000D01*
X112820000Y-85485000D01*
X112812388Y-85523268D01*
X112790711Y-85555711D01*
X112758268Y-85577388D01*
X112720000Y-85585000D01*
X111445000Y-85585000D01*
X111406732Y-85577388D01*
X111374289Y-85555711D01*
X111352612Y-85523268D01*
X111345000Y-85485000D01*
X111345000Y-85285000D01*
X111352612Y-85246732D01*
X111374289Y-85214289D01*
X111406732Y-85192612D01*
X111445000Y-85185000D01*
X112720000Y-85185000D01*
X112758268Y-85192612D01*
G37*
G36*
X144997060Y-82588990D02*
G01*
X145207525Y-82645384D01*
X145405000Y-82737468D01*
X145583485Y-82862444D01*
X145737556Y-83016515D01*
X145862532Y-83195000D01*
X145954616Y-83392475D01*
X146011010Y-83602940D01*
X146030000Y-83820000D01*
X146011010Y-84037060D01*
X145954616Y-84247525D01*
X145862532Y-84445000D01*
X145737556Y-84623485D01*
X145583485Y-84777556D01*
X145405000Y-84902532D01*
X145207525Y-84994616D01*
X144997060Y-85051010D01*
X144780000Y-85070000D01*
X144562940Y-85051010D01*
X144352475Y-84994616D01*
X144155000Y-84902532D01*
X143976515Y-84777556D01*
X143822444Y-84623485D01*
X143697468Y-84445000D01*
X143605384Y-84247525D01*
X143548990Y-84037060D01*
X143530000Y-83820000D01*
X143548990Y-83602940D01*
X143605384Y-83392475D01*
X143697468Y-83195000D01*
X143822444Y-83016515D01*
X143976515Y-82862444D01*
X144155000Y-82737468D01*
X144352475Y-82645384D01*
X144562940Y-82588990D01*
X144780000Y-82570000D01*
X144997060Y-82588990D01*
G37*
G36*
X107033268Y-84542612D02*
G01*
X107065711Y-84564289D01*
X107087388Y-84596732D01*
X107095000Y-84635000D01*
X107095000Y-84835000D01*
X107087388Y-84873268D01*
X107065711Y-84905711D01*
X107033268Y-84927388D01*
X106995000Y-84935000D01*
X105720000Y-84935000D01*
X105681732Y-84927388D01*
X105649289Y-84905711D01*
X105627612Y-84873268D01*
X105620000Y-84835000D01*
X105620000Y-84635000D01*
X105627612Y-84596732D01*
X105649289Y-84564289D01*
X105681732Y-84542612D01*
X105720000Y-84535000D01*
X106995000Y-84535000D01*
X107033268Y-84542612D01*
G37*
G36*
X112758268Y-84542612D02*
G01*
X112790711Y-84564289D01*
X112812388Y-84596732D01*
X112820000Y-84635000D01*
X112820000Y-84835000D01*
X112812388Y-84873268D01*
X112790711Y-84905711D01*
X112758268Y-84927388D01*
X112720000Y-84935000D01*
X111445000Y-84935000D01*
X111406732Y-84927388D01*
X111374289Y-84905711D01*
X111352612Y-84873268D01*
X111345000Y-84835000D01*
X111345000Y-84635000D01*
X111352612Y-84596732D01*
X111374289Y-84564289D01*
X111406732Y-84542612D01*
X111445000Y-84535000D01*
X112720000Y-84535000D01*
X112758268Y-84542612D01*
G37*
G36*
X87872664Y-83016602D02*
G01*
X88035000Y-83088878D01*
X88178761Y-83193327D01*
X88297664Y-83325383D01*
X88386514Y-83479274D01*
X88441425Y-83648275D01*
X88460000Y-83825000D01*
X88441425Y-84001725D01*
X88386514Y-84170726D01*
X88297664Y-84324617D01*
X88178761Y-84456673D01*
X88035000Y-84561122D01*
X87872664Y-84633398D01*
X87698849Y-84670344D01*
X87521151Y-84670344D01*
X87347336Y-84633398D01*
X87185000Y-84561122D01*
X87041239Y-84456673D01*
X86922336Y-84324617D01*
X86833486Y-84170726D01*
X86778575Y-84001725D01*
X86760000Y-83825000D01*
X86778575Y-83648275D01*
X86833486Y-83479274D01*
X86922336Y-83325383D01*
X87041239Y-83193327D01*
X87185000Y-83088878D01*
X87347336Y-83016602D01*
X87521151Y-82979656D01*
X87698849Y-82979656D01*
X87872664Y-83016602D01*
G37*
G36*
X90412664Y-83016602D02*
G01*
X90575000Y-83088878D01*
X90718761Y-83193327D01*
X90837664Y-83325383D01*
X90926514Y-83479274D01*
X90981425Y-83648275D01*
X91000000Y-83825000D01*
X90981425Y-84001725D01*
X90926514Y-84170726D01*
X90837664Y-84324617D01*
X90718761Y-84456673D01*
X90575000Y-84561122D01*
X90412664Y-84633398D01*
X90238849Y-84670344D01*
X90061151Y-84670344D01*
X89887336Y-84633398D01*
X89725000Y-84561122D01*
X89581239Y-84456673D01*
X89462336Y-84324617D01*
X89373486Y-84170726D01*
X89318575Y-84001725D01*
X89300000Y-83825000D01*
X89318575Y-83648275D01*
X89373486Y-83479274D01*
X89462336Y-83325383D01*
X89581239Y-83193327D01*
X89725000Y-83088878D01*
X89887336Y-83016602D01*
X90061151Y-82979656D01*
X90238849Y-82979656D01*
X90412664Y-83016602D01*
G37*
G36*
X128512664Y-83016602D02*
G01*
X128675000Y-83088878D01*
X128818761Y-83193327D01*
X128937664Y-83325383D01*
X129026514Y-83479274D01*
X129081425Y-83648275D01*
X129100000Y-83825000D01*
X129081425Y-84001725D01*
X129026514Y-84170726D01*
X128937664Y-84324617D01*
X128818761Y-84456673D01*
X128675000Y-84561122D01*
X128512664Y-84633398D01*
X128338849Y-84670344D01*
X128161151Y-84670344D01*
X127987336Y-84633398D01*
X127825000Y-84561122D01*
X127681239Y-84456673D01*
X127562336Y-84324617D01*
X127473486Y-84170726D01*
X127418575Y-84001725D01*
X127400000Y-83825000D01*
X127418575Y-83648275D01*
X127473486Y-83479274D01*
X127562336Y-83325383D01*
X127681239Y-83193327D01*
X127825000Y-83088878D01*
X127987336Y-83016602D01*
X128161151Y-82979656D01*
X128338849Y-82979656D01*
X128512664Y-83016602D01*
G37*
G36*
X131052664Y-83016602D02*
G01*
X131215000Y-83088878D01*
X131358761Y-83193327D01*
X131477664Y-83325383D01*
X131566514Y-83479274D01*
X131621425Y-83648275D01*
X131640000Y-83825000D01*
X131621425Y-84001725D01*
X131566514Y-84170726D01*
X131477664Y-84324617D01*
X131358761Y-84456673D01*
X131215000Y-84561122D01*
X131052664Y-84633398D01*
X130878849Y-84670344D01*
X130701151Y-84670344D01*
X130527336Y-84633398D01*
X130365000Y-84561122D01*
X130221239Y-84456673D01*
X130102336Y-84324617D01*
X130013486Y-84170726D01*
X129958575Y-84001725D01*
X129940000Y-83825000D01*
X129958575Y-83648275D01*
X130013486Y-83479274D01*
X130102336Y-83325383D01*
X130221239Y-83193327D01*
X130365000Y-83088878D01*
X130527336Y-83016602D01*
X130701151Y-82979656D01*
X130878849Y-82979656D01*
X131052664Y-83016602D01*
G37*
G36*
X107033268Y-83892612D02*
G01*
X107065711Y-83914289D01*
X107087388Y-83946732D01*
X107095000Y-83985000D01*
X107095000Y-84185000D01*
X107087388Y-84223268D01*
X107065711Y-84255711D01*
X107033268Y-84277388D01*
X106995000Y-84285000D01*
X105720000Y-84285000D01*
X105681732Y-84277388D01*
X105649289Y-84255711D01*
X105627612Y-84223268D01*
X105620000Y-84185000D01*
X105620000Y-83985000D01*
X105627612Y-83946732D01*
X105649289Y-83914289D01*
X105681732Y-83892612D01*
X105720000Y-83885000D01*
X106995000Y-83885000D01*
X107033268Y-83892612D01*
G37*
G36*
X112758268Y-83892612D02*
G01*
X112790711Y-83914289D01*
X112812388Y-83946732D01*
X112820000Y-83985000D01*
X112820000Y-84185000D01*
X112812388Y-84223268D01*
X112790711Y-84255711D01*
X112758268Y-84277388D01*
X112720000Y-84285000D01*
X111445000Y-84285000D01*
X111406732Y-84277388D01*
X111374289Y-84255711D01*
X111352612Y-84223268D01*
X111345000Y-84185000D01*
X111345000Y-83985000D01*
X111352612Y-83946732D01*
X111374289Y-83914289D01*
X111406732Y-83892612D01*
X111445000Y-83885000D01*
X112720000Y-83885000D01*
X112758268Y-83892612D01*
G37*
G36*
X107033268Y-83242612D02*
G01*
X107065711Y-83264289D01*
X107087388Y-83296732D01*
X107095000Y-83335000D01*
X107095000Y-83535000D01*
X107087388Y-83573268D01*
X107065711Y-83605711D01*
X107033268Y-83627388D01*
X106995000Y-83635000D01*
X105720000Y-83635000D01*
X105681732Y-83627388D01*
X105649289Y-83605711D01*
X105627612Y-83573268D01*
X105620000Y-83535000D01*
X105620000Y-83335000D01*
X105627612Y-83296732D01*
X105649289Y-83264289D01*
X105681732Y-83242612D01*
X105720000Y-83235000D01*
X106995000Y-83235000D01*
X107033268Y-83242612D01*
G37*
G36*
X112758268Y-83242612D02*
G01*
X112790711Y-83264289D01*
X112812388Y-83296732D01*
X112820000Y-83335000D01*
X112820000Y-83535000D01*
X112812388Y-83573268D01*
X112790711Y-83605711D01*
X112758268Y-83627388D01*
X112720000Y-83635000D01*
X111445000Y-83635000D01*
X111406732Y-83627388D01*
X111374289Y-83605711D01*
X111352612Y-83573268D01*
X111345000Y-83535000D01*
X111345000Y-83335000D01*
X111352612Y-83296732D01*
X111374289Y-83264289D01*
X111406732Y-83242612D01*
X111445000Y-83235000D01*
X112720000Y-83235000D01*
X112758268Y-83242612D01*
G37*
G36*
X80470000Y-82485000D02*
G01*
X79770000Y-82485000D01*
X79770000Y-81975000D01*
X80470000Y-81975000D01*
X80470000Y-82485000D01*
G37*
G36*
X82790000Y-82485000D02*
G01*
X82090000Y-82485000D01*
X82090000Y-81975000D01*
X82790000Y-81975000D01*
X82790000Y-82485000D01*
G37*
G36*
X95710000Y-82485000D02*
G01*
X95010000Y-82485000D01*
X95010000Y-81975000D01*
X95710000Y-81975000D01*
X95710000Y-82485000D01*
G37*
G36*
X98030000Y-82485000D02*
G01*
X97330000Y-82485000D01*
X97330000Y-81975000D01*
X98030000Y-81975000D01*
X98030000Y-82485000D01*
G37*
G36*
X87872664Y-80476602D02*
G01*
X88035000Y-80548878D01*
X88178761Y-80653327D01*
X88297664Y-80785383D01*
X88386514Y-80939274D01*
X88441425Y-81108275D01*
X88460000Y-81285000D01*
X88441425Y-81461725D01*
X88386514Y-81630726D01*
X88297664Y-81784617D01*
X88178761Y-81916673D01*
X88035000Y-82021122D01*
X87872664Y-82093398D01*
X87698849Y-82130344D01*
X87521151Y-82130344D01*
X87347336Y-82093398D01*
X87185000Y-82021122D01*
X87041239Y-81916673D01*
X86922336Y-81784617D01*
X86833486Y-81630726D01*
X86778575Y-81461725D01*
X86760000Y-81285000D01*
X86778575Y-81108275D01*
X86833486Y-80939274D01*
X86922336Y-80785383D01*
X87041239Y-80653327D01*
X87185000Y-80548878D01*
X87347336Y-80476602D01*
X87521151Y-80439656D01*
X87698849Y-80439656D01*
X87872664Y-80476602D01*
G37*
G36*
X90412664Y-80476602D02*
G01*
X90575000Y-80548878D01*
X90718761Y-80653327D01*
X90837664Y-80785383D01*
X90926514Y-80939274D01*
X90981425Y-81108275D01*
X91000000Y-81285000D01*
X90981425Y-81461725D01*
X90926514Y-81630726D01*
X90837664Y-81784617D01*
X90718761Y-81916673D01*
X90575000Y-82021122D01*
X90412664Y-82093398D01*
X90238849Y-82130344D01*
X90061151Y-82130344D01*
X89887336Y-82093398D01*
X89725000Y-82021122D01*
X89581239Y-81916673D01*
X89462336Y-81784617D01*
X89373486Y-81630726D01*
X89318575Y-81461725D01*
X89300000Y-81285000D01*
X89318575Y-81108275D01*
X89373486Y-80939274D01*
X89462336Y-80785383D01*
X89581239Y-80653327D01*
X89725000Y-80548878D01*
X89887336Y-80476602D01*
X90061151Y-80439656D01*
X90238849Y-80439656D01*
X90412664Y-80476602D01*
G37*
G36*
X128512664Y-80476602D02*
G01*
X128675000Y-80548878D01*
X128818761Y-80653327D01*
X128937664Y-80785383D01*
X129026514Y-80939274D01*
X129081425Y-81108275D01*
X129100000Y-81285000D01*
X129081425Y-81461725D01*
X129026514Y-81630726D01*
X128937664Y-81784617D01*
X128818761Y-81916673D01*
X128675000Y-82021122D01*
X128512664Y-82093398D01*
X128338849Y-82130344D01*
X128161151Y-82130344D01*
X127987336Y-82093398D01*
X127825000Y-82021122D01*
X127681239Y-81916673D01*
X127562336Y-81784617D01*
X127473486Y-81630726D01*
X127418575Y-81461725D01*
X127400000Y-81285000D01*
X127418575Y-81108275D01*
X127473486Y-80939274D01*
X127562336Y-80785383D01*
X127681239Y-80653327D01*
X127825000Y-80548878D01*
X127987336Y-80476602D01*
X128161151Y-80439656D01*
X128338849Y-80439656D01*
X128512664Y-80476602D01*
G37*
G36*
X131052664Y-80476602D02*
G01*
X131215000Y-80548878D01*
X131358761Y-80653327D01*
X131477664Y-80785383D01*
X131566514Y-80939274D01*
X131621425Y-81108275D01*
X131640000Y-81285000D01*
X131621425Y-81461725D01*
X131566514Y-81630726D01*
X131477664Y-81784617D01*
X131358761Y-81916673D01*
X131215000Y-82021122D01*
X131052664Y-82093398D01*
X130878849Y-82130344D01*
X130701151Y-82130344D01*
X130527336Y-82093398D01*
X130365000Y-82021122D01*
X130221239Y-81916673D01*
X130102336Y-81784617D01*
X130013486Y-81630726D01*
X129958575Y-81461725D01*
X129940000Y-81285000D01*
X129958575Y-81108275D01*
X130013486Y-80939274D01*
X130102336Y-80785383D01*
X130221239Y-80653327D01*
X130365000Y-80548878D01*
X130527336Y-80476602D01*
X130701151Y-80439656D01*
X130878849Y-80439656D01*
X131052664Y-80476602D01*
G37*
G36*
X99187668Y-81544812D02*
G01*
X99220111Y-81566489D01*
X99241788Y-81598932D01*
X99249400Y-81637200D01*
X99249400Y-81837200D01*
X99241788Y-81875468D01*
X99220111Y-81907911D01*
X99187668Y-81929588D01*
X99149400Y-81937200D01*
X98889400Y-81937200D01*
X98851132Y-81929588D01*
X98818689Y-81907911D01*
X98797012Y-81875468D01*
X98789400Y-81837200D01*
X98789400Y-81637200D01*
X98797012Y-81598932D01*
X98818689Y-81566489D01*
X98851132Y-81544812D01*
X98889400Y-81537200D01*
X99149400Y-81537200D01*
X99187668Y-81544812D01*
G37*
G36*
X99827668Y-81544812D02*
G01*
X99860111Y-81566489D01*
X99881788Y-81598932D01*
X99889400Y-81637200D01*
X99889400Y-81837200D01*
X99881788Y-81875468D01*
X99860111Y-81907911D01*
X99827668Y-81929588D01*
X99789400Y-81937200D01*
X99529400Y-81937200D01*
X99491132Y-81929588D01*
X99458689Y-81907911D01*
X99437012Y-81875468D01*
X99429400Y-81837200D01*
X99429400Y-81637200D01*
X99437012Y-81598932D01*
X99458689Y-81566489D01*
X99491132Y-81544812D01*
X99529400Y-81537200D01*
X99789400Y-81537200D01*
X99827668Y-81544812D01*
G37*
G36*
X80470000Y-81535000D02*
G01*
X79770000Y-81535000D01*
X79770000Y-81025000D01*
X80470000Y-81025000D01*
X80470000Y-81535000D01*
G37*
G36*
X82790000Y-81535000D02*
G01*
X82090000Y-81535000D01*
X82090000Y-81025000D01*
X82790000Y-81025000D01*
X82790000Y-81535000D01*
G37*
G36*
X95710000Y-81535000D02*
G01*
X95010000Y-81535000D01*
X95010000Y-81025000D01*
X95710000Y-81025000D01*
X95710000Y-81535000D01*
G37*
G36*
X98030000Y-81535000D02*
G01*
X97330000Y-81535000D01*
X97330000Y-81025000D01*
X98030000Y-81025000D01*
X98030000Y-81535000D01*
G37*
G36*
X80470000Y-80585000D02*
G01*
X79770000Y-80585000D01*
X79770000Y-80075000D01*
X80470000Y-80075000D01*
X80470000Y-80585000D01*
G37*
G36*
X82790000Y-80585000D02*
G01*
X82090000Y-80585000D01*
X82090000Y-80075000D01*
X82790000Y-80075000D01*
X82790000Y-80585000D01*
G37*
G36*
X95710000Y-80585000D02*
G01*
X95010000Y-80585000D01*
X95010000Y-80075000D01*
X95710000Y-80075000D01*
X95710000Y-80585000D01*
G37*
G36*
X98030000Y-80585000D02*
G01*
X97330000Y-80585000D01*
X97330000Y-80075000D01*
X98030000Y-80075000D01*
X98030000Y-80585000D01*
G37*
G36*
X139925850Y-79190964D02*
G01*
X139976040Y-79196787D01*
X139993189Y-79204359D01*
X140016671Y-79209030D01*
X140041810Y-79225827D01*
X140061696Y-79234608D01*
X140075277Y-79248189D01*
X140097777Y-79263223D01*
X140112810Y-79285722D01*
X140126391Y-79299303D01*
X140135170Y-79319186D01*
X140151970Y-79344329D01*
X140156641Y-79367812D01*
X140164212Y-79384959D01*
X140170033Y-79435139D01*
X140171000Y-79440000D01*
X140171000Y-79940000D01*
X140170032Y-79944863D01*
X140164212Y-79995040D01*
X140156641Y-80012185D01*
X140151970Y-80035671D01*
X140135169Y-80060815D01*
X140126391Y-80080696D01*
X140112812Y-80094274D01*
X140097777Y-80116777D01*
X140075274Y-80131812D01*
X140061696Y-80145391D01*
X140041815Y-80154169D01*
X140016671Y-80170970D01*
X139993185Y-80175641D01*
X139976040Y-80183212D01*
X139925861Y-80189032D01*
X139921000Y-80190000D01*
X138971000Y-80190000D01*
X138966138Y-80189032D01*
X138915959Y-80183212D01*
X138898812Y-80175641D01*
X138875329Y-80170970D01*
X138850186Y-80154170D01*
X138830303Y-80145391D01*
X138816722Y-80131810D01*
X138794223Y-80116777D01*
X138779189Y-80094277D01*
X138765608Y-80080696D01*
X138756827Y-80060810D01*
X138740030Y-80035671D01*
X138735359Y-80012189D01*
X138727787Y-79995040D01*
X138721964Y-79944849D01*
X138721000Y-79940000D01*
X138721000Y-79440000D01*
X138721964Y-79435150D01*
X138727787Y-79384959D01*
X138735359Y-79367808D01*
X138740030Y-79344329D01*
X138756826Y-79319191D01*
X138765608Y-79299303D01*
X138779191Y-79285719D01*
X138794223Y-79263223D01*
X138816719Y-79248191D01*
X138830303Y-79234608D01*
X138850191Y-79225826D01*
X138875329Y-79209030D01*
X138898808Y-79204359D01*
X138915959Y-79196787D01*
X138966151Y-79190964D01*
X138971000Y-79190000D01*
X139921000Y-79190000D01*
X139925850Y-79190964D01*
G37*
G36*
X142708000Y-80099000D02*
G01*
X141408000Y-80099000D01*
X141408000Y-78549000D01*
X142708000Y-78549000D01*
X142708000Y-80099000D01*
G37*
G36*
X147208000Y-80099000D02*
G01*
X145908000Y-80099000D01*
X145908000Y-78549000D01*
X147208000Y-78549000D01*
X147208000Y-80099000D01*
G37*
G36*
X87872664Y-77936602D02*
G01*
X88035000Y-78008878D01*
X88178761Y-78113327D01*
X88297664Y-78245383D01*
X88386514Y-78399274D01*
X88441425Y-78568275D01*
X88460000Y-78745000D01*
X88441425Y-78921725D01*
X88386514Y-79090726D01*
X88297664Y-79244617D01*
X88178761Y-79376673D01*
X88035000Y-79481122D01*
X87872664Y-79553398D01*
X87698849Y-79590344D01*
X87521151Y-79590344D01*
X87347336Y-79553398D01*
X87185000Y-79481122D01*
X87041239Y-79376673D01*
X86922336Y-79244617D01*
X86833486Y-79090726D01*
X86778575Y-78921725D01*
X86760000Y-78745000D01*
X86778575Y-78568275D01*
X86833486Y-78399274D01*
X86922336Y-78245383D01*
X87041239Y-78113327D01*
X87185000Y-78008878D01*
X87347336Y-77936602D01*
X87521151Y-77899656D01*
X87698849Y-77899656D01*
X87872664Y-77936602D01*
G37*
G36*
X90412664Y-77936602D02*
G01*
X90575000Y-78008878D01*
X90718761Y-78113327D01*
X90837664Y-78245383D01*
X90926514Y-78399274D01*
X90981425Y-78568275D01*
X91000000Y-78745000D01*
X90981425Y-78921725D01*
X90926514Y-79090726D01*
X90837664Y-79244617D01*
X90718761Y-79376673D01*
X90575000Y-79481122D01*
X90412664Y-79553398D01*
X90238849Y-79590344D01*
X90061151Y-79590344D01*
X89887336Y-79553398D01*
X89725000Y-79481122D01*
X89581239Y-79376673D01*
X89462336Y-79244617D01*
X89373486Y-79090726D01*
X89318575Y-78921725D01*
X89300000Y-78745000D01*
X89318575Y-78568275D01*
X89373486Y-78399274D01*
X89462336Y-78245383D01*
X89581239Y-78113327D01*
X89725000Y-78008878D01*
X89887336Y-77936602D01*
X90061151Y-77899656D01*
X90238849Y-77899656D01*
X90412664Y-77936602D01*
G37*
G36*
X128512664Y-77936602D02*
G01*
X128675000Y-78008878D01*
X128818761Y-78113327D01*
X128937664Y-78245383D01*
X129026514Y-78399274D01*
X129081425Y-78568275D01*
X129100000Y-78745000D01*
X129081425Y-78921725D01*
X129026514Y-79090726D01*
X128937664Y-79244617D01*
X128818761Y-79376673D01*
X128675000Y-79481122D01*
X128512664Y-79553398D01*
X128338849Y-79590344D01*
X128161151Y-79590344D01*
X127987336Y-79553398D01*
X127825000Y-79481122D01*
X127681239Y-79376673D01*
X127562336Y-79244617D01*
X127473486Y-79090726D01*
X127418575Y-78921725D01*
X127400000Y-78745000D01*
X127418575Y-78568275D01*
X127473486Y-78399274D01*
X127562336Y-78245383D01*
X127681239Y-78113327D01*
X127825000Y-78008878D01*
X127987336Y-77936602D01*
X128161151Y-77899656D01*
X128338849Y-77899656D01*
X128512664Y-77936602D01*
G37*
G36*
X131052664Y-77936602D02*
G01*
X131215000Y-78008878D01*
X131358761Y-78113327D01*
X131477664Y-78245383D01*
X131566514Y-78399274D01*
X131621425Y-78568275D01*
X131640000Y-78745000D01*
X131621425Y-78921725D01*
X131566514Y-79090726D01*
X131477664Y-79244617D01*
X131358761Y-79376673D01*
X131215000Y-79481122D01*
X131052664Y-79553398D01*
X130878849Y-79590344D01*
X130701151Y-79590344D01*
X130527336Y-79553398D01*
X130365000Y-79481122D01*
X130221239Y-79376673D01*
X130102336Y-79244617D01*
X130013486Y-79090726D01*
X129958575Y-78921725D01*
X129940000Y-78745000D01*
X129958575Y-78568275D01*
X130013486Y-78399274D01*
X130102336Y-78245383D01*
X130221239Y-78113327D01*
X130365000Y-78008878D01*
X130527336Y-77936602D01*
X130701151Y-77899656D01*
X130878849Y-77899656D01*
X131052664Y-77936602D01*
G37*
G36*
X68936767Y-76489215D02*
G01*
X69124360Y-76546120D01*
X69297247Y-76638530D01*
X69448784Y-76762893D01*
X69573147Y-76914430D01*
X69665557Y-77087317D01*
X69722462Y-77274910D01*
X69741677Y-77470000D01*
X69722462Y-77665090D01*
X69665557Y-77852683D01*
X69573147Y-78025570D01*
X69448784Y-78177107D01*
X69297247Y-78301470D01*
X69124360Y-78393880D01*
X68936767Y-78450785D01*
X68741677Y-78470000D01*
X68546587Y-78450785D01*
X68358994Y-78393880D01*
X68186107Y-78301470D01*
X68034570Y-78177107D01*
X67910207Y-78025570D01*
X67817797Y-77852683D01*
X67760892Y-77665090D01*
X67741677Y-77470000D01*
X67760892Y-77274910D01*
X67817797Y-77087317D01*
X67910207Y-76914430D01*
X68034570Y-76762893D01*
X68186107Y-76638530D01*
X68358994Y-76546120D01*
X68546587Y-76489215D01*
X68741677Y-76470000D01*
X68936767Y-76489215D01*
G37*
G36*
X74741677Y-78470000D02*
G01*
X72741677Y-78470000D01*
X72741677Y-76470000D01*
X74741677Y-76470000D01*
X74741677Y-78470000D01*
G37*
G36*
X139925850Y-77290964D02*
G01*
X139976040Y-77296787D01*
X139993189Y-77304359D01*
X140016671Y-77309030D01*
X140041810Y-77325827D01*
X140061696Y-77334608D01*
X140075277Y-77348189D01*
X140097777Y-77363223D01*
X140112810Y-77385722D01*
X140126391Y-77399303D01*
X140135170Y-77419186D01*
X140151970Y-77444329D01*
X140156641Y-77467812D01*
X140164212Y-77484959D01*
X140170033Y-77535139D01*
X140171000Y-77540000D01*
X140171000Y-78040000D01*
X140170032Y-78044863D01*
X140164212Y-78095040D01*
X140156641Y-78112185D01*
X140151970Y-78135671D01*
X140135169Y-78160815D01*
X140126391Y-78180696D01*
X140112812Y-78194274D01*
X140097777Y-78216777D01*
X140075274Y-78231812D01*
X140061696Y-78245391D01*
X140041815Y-78254169D01*
X140016671Y-78270970D01*
X139993185Y-78275641D01*
X139976040Y-78283212D01*
X139925861Y-78289032D01*
X139921000Y-78290000D01*
X138971000Y-78290000D01*
X138966138Y-78289032D01*
X138915959Y-78283212D01*
X138898812Y-78275641D01*
X138875329Y-78270970D01*
X138850186Y-78254170D01*
X138830303Y-78245391D01*
X138816722Y-78231810D01*
X138794223Y-78216777D01*
X138779189Y-78194277D01*
X138765608Y-78180696D01*
X138756827Y-78160810D01*
X138740030Y-78135671D01*
X138735359Y-78112189D01*
X138727787Y-78095040D01*
X138721964Y-78044849D01*
X138721000Y-78040000D01*
X138721000Y-77540000D01*
X138721964Y-77535150D01*
X138727787Y-77484959D01*
X138735359Y-77467808D01*
X138740030Y-77444329D01*
X138756826Y-77419191D01*
X138765608Y-77399303D01*
X138779191Y-77385719D01*
X138794223Y-77363223D01*
X138816719Y-77348191D01*
X138830303Y-77334608D01*
X138850191Y-77325826D01*
X138875329Y-77309030D01*
X138898808Y-77304359D01*
X138915959Y-77296787D01*
X138966151Y-77290964D01*
X138971000Y-77290000D01*
X139921000Y-77290000D01*
X139925850Y-77290964D01*
G37*
G36*
X82644000Y-77233000D02*
G01*
X81144000Y-77233000D01*
X81144000Y-76183000D01*
X82644000Y-76183000D01*
X82644000Y-77233000D01*
G37*
G36*
X78710537Y-75370224D02*
G01*
X78775421Y-75413579D01*
X78818776Y-75478463D01*
X78834000Y-75555000D01*
X78834000Y-75955000D01*
X78818776Y-76031537D01*
X78775421Y-76096421D01*
X78710537Y-76139776D01*
X78634000Y-76155000D01*
X78084000Y-76155000D01*
X78007463Y-76139776D01*
X77942579Y-76096421D01*
X77899224Y-76031537D01*
X77884000Y-75955000D01*
X77884000Y-75555000D01*
X77899224Y-75478463D01*
X77942579Y-75413579D01*
X78007463Y-75370224D01*
X78084000Y-75355000D01*
X78634000Y-75355000D01*
X78710537Y-75370224D01*
G37*
G36*
X82190487Y-74917890D02*
G01*
X82224409Y-74927394D01*
X82254745Y-74931388D01*
X82288362Y-74945313D01*
X82328161Y-74956464D01*
X82355672Y-74973194D01*
X82381240Y-74983785D01*
X82412378Y-75007678D01*
X82450321Y-75030752D01*
X82470230Y-75052069D01*
X82489864Y-75067135D01*
X82515486Y-75100527D01*
X82547909Y-75135243D01*
X82559937Y-75158456D01*
X82573214Y-75175759D01*
X82590394Y-75217236D01*
X82613687Y-75262188D01*
X82618390Y-75284822D01*
X82625611Y-75302254D01*
X82631831Y-75349505D01*
X82642776Y-75402173D01*
X82641404Y-75422220D01*
X82643482Y-75438000D01*
X82636911Y-75487908D01*
X82633019Y-75544814D01*
X82627302Y-75560900D01*
X82625611Y-75573745D01*
X82605373Y-75622602D01*
X82585140Y-75679534D01*
X82577034Y-75691016D01*
X82573213Y-75700243D01*
X82539606Y-75744039D01*
X82502689Y-75796340D01*
X82494136Y-75803298D01*
X82489867Y-75808862D01*
X82444659Y-75843550D01*
X82391782Y-75886570D01*
X82384438Y-75889759D01*
X82381240Y-75892214D01*
X82328367Y-75914114D01*
X82260643Y-75943532D01*
X82255714Y-75944209D01*
X82254745Y-75944611D01*
X82208415Y-75950710D01*
X82119000Y-75963000D01*
X82115066Y-75963000D01*
X81672934Y-75963000D01*
X81669000Y-75963000D01*
X81597513Y-75958110D01*
X81563586Y-75948604D01*
X81533254Y-75944611D01*
X81499641Y-75930688D01*
X81459839Y-75919536D01*
X81432324Y-75902803D01*
X81406759Y-75892214D01*
X81375622Y-75868322D01*
X81337679Y-75845248D01*
X81317769Y-75823929D01*
X81298135Y-75808864D01*
X81272511Y-75775471D01*
X81240091Y-75740757D01*
X81228063Y-75717544D01*
X81214785Y-75700240D01*
X81197602Y-75658757D01*
X81174313Y-75613812D01*
X81169610Y-75591180D01*
X81162388Y-75573745D01*
X81156165Y-75526482D01*
X81145224Y-75473827D01*
X81146594Y-75453784D01*
X81144517Y-75438000D01*
X81151089Y-75388074D01*
X81154981Y-75331186D01*
X81160696Y-75315104D01*
X81162388Y-75302254D01*
X81182635Y-75253373D01*
X81202860Y-75196466D01*
X81210961Y-75184988D01*
X81214786Y-75175756D01*
X81248413Y-75131931D01*
X81285311Y-75079660D01*
X81293859Y-75072705D01*
X81298132Y-75067137D01*
X81343379Y-75032417D01*
X81396218Y-74989430D01*
X81403556Y-74986242D01*
X81406759Y-74983785D01*
X81459702Y-74961854D01*
X81527357Y-74932468D01*
X81532280Y-74931791D01*
X81533254Y-74931388D01*
X81579715Y-74925271D01*
X81669000Y-74913000D01*
X82119000Y-74913000D01*
X82190487Y-74917890D01*
G37*
G36*
X138655850Y-74364964D02*
G01*
X138706040Y-74370787D01*
X138723189Y-74378359D01*
X138746671Y-74383030D01*
X138771810Y-74399827D01*
X138791696Y-74408608D01*
X138805277Y-74422189D01*
X138827777Y-74437223D01*
X138842810Y-74459722D01*
X138856391Y-74473303D01*
X138865170Y-74493186D01*
X138881970Y-74518329D01*
X138886641Y-74541812D01*
X138894212Y-74558959D01*
X138900033Y-74609139D01*
X138901000Y-74614000D01*
X138901000Y-75114000D01*
X138900032Y-75118863D01*
X138894212Y-75169040D01*
X138886641Y-75186185D01*
X138881970Y-75209671D01*
X138865169Y-75234815D01*
X138856391Y-75254696D01*
X138842812Y-75268274D01*
X138827777Y-75290777D01*
X138805274Y-75305812D01*
X138791696Y-75319391D01*
X138771815Y-75328169D01*
X138746671Y-75344970D01*
X138723185Y-75349641D01*
X138706040Y-75357212D01*
X138655861Y-75363032D01*
X138651000Y-75364000D01*
X137701000Y-75364000D01*
X137696138Y-75363032D01*
X137645959Y-75357212D01*
X137628812Y-75349641D01*
X137605329Y-75344970D01*
X137580186Y-75328170D01*
X137560303Y-75319391D01*
X137546722Y-75305810D01*
X137524223Y-75290777D01*
X137509189Y-75268277D01*
X137495608Y-75254696D01*
X137486827Y-75234810D01*
X137470030Y-75209671D01*
X137465359Y-75186189D01*
X137457787Y-75169040D01*
X137451964Y-75118849D01*
X137451000Y-75114000D01*
X137451000Y-74614000D01*
X137451964Y-74609150D01*
X137457787Y-74558959D01*
X137465359Y-74541808D01*
X137470030Y-74518329D01*
X137486826Y-74493191D01*
X137495608Y-74473303D01*
X137509191Y-74459719D01*
X137524223Y-74437223D01*
X137546719Y-74422191D01*
X137560303Y-74408608D01*
X137580191Y-74399826D01*
X137605329Y-74383030D01*
X137628808Y-74378359D01*
X137645959Y-74370787D01*
X137696151Y-74364964D01*
X137701000Y-74364000D01*
X138651000Y-74364000D01*
X138655850Y-74364964D01*
G37*
G36*
X82190487Y-73647890D02*
G01*
X82224409Y-73657394D01*
X82254745Y-73661388D01*
X82288362Y-73675313D01*
X82328161Y-73686464D01*
X82355672Y-73703194D01*
X82381240Y-73713785D01*
X82412378Y-73737678D01*
X82450321Y-73760752D01*
X82470230Y-73782069D01*
X82489864Y-73797135D01*
X82515486Y-73830527D01*
X82547909Y-73865243D01*
X82559937Y-73888456D01*
X82573214Y-73905759D01*
X82590394Y-73947236D01*
X82613687Y-73992188D01*
X82618390Y-74014822D01*
X82625611Y-74032254D01*
X82631831Y-74079505D01*
X82642776Y-74132173D01*
X82641404Y-74152220D01*
X82643482Y-74168000D01*
X82636911Y-74217908D01*
X82633019Y-74274814D01*
X82627302Y-74290900D01*
X82625611Y-74303745D01*
X82605373Y-74352602D01*
X82585140Y-74409534D01*
X82577034Y-74421016D01*
X82573213Y-74430243D01*
X82539606Y-74474039D01*
X82502689Y-74526340D01*
X82494136Y-74533298D01*
X82489867Y-74538862D01*
X82444659Y-74573550D01*
X82391782Y-74616570D01*
X82384438Y-74619759D01*
X82381240Y-74622214D01*
X82328367Y-74644114D01*
X82260643Y-74673532D01*
X82255714Y-74674209D01*
X82254745Y-74674611D01*
X82208415Y-74680710D01*
X82119000Y-74693000D01*
X82115066Y-74693000D01*
X81672934Y-74693000D01*
X81669000Y-74693000D01*
X81597513Y-74688110D01*
X81563586Y-74678604D01*
X81533254Y-74674611D01*
X81499641Y-74660688D01*
X81459839Y-74649536D01*
X81432324Y-74632803D01*
X81406759Y-74622214D01*
X81375622Y-74598322D01*
X81337679Y-74575248D01*
X81317769Y-74553929D01*
X81298135Y-74538864D01*
X81272511Y-74505471D01*
X81240091Y-74470757D01*
X81228063Y-74447544D01*
X81214785Y-74430240D01*
X81197602Y-74388757D01*
X81174313Y-74343812D01*
X81169610Y-74321180D01*
X81162388Y-74303745D01*
X81156165Y-74256482D01*
X81145224Y-74203827D01*
X81146594Y-74183784D01*
X81144517Y-74168000D01*
X81151089Y-74118074D01*
X81154981Y-74061186D01*
X81160696Y-74045104D01*
X81162388Y-74032254D01*
X81182635Y-73983373D01*
X81202860Y-73926466D01*
X81210961Y-73914988D01*
X81214786Y-73905756D01*
X81248413Y-73861931D01*
X81285311Y-73809660D01*
X81293859Y-73802705D01*
X81298132Y-73797137D01*
X81343379Y-73762417D01*
X81396218Y-73719430D01*
X81403556Y-73716242D01*
X81406759Y-73713785D01*
X81459702Y-73691854D01*
X81527357Y-73662468D01*
X81532280Y-73661791D01*
X81533254Y-73661388D01*
X81579715Y-73655271D01*
X81669000Y-73643000D01*
X82119000Y-73643000D01*
X82190487Y-73647890D01*
G37*
G36*
X101867664Y-72871602D02*
G01*
X102030000Y-72943878D01*
X102173761Y-73048327D01*
X102292664Y-73180383D01*
X102381514Y-73334274D01*
X102436425Y-73503275D01*
X102455000Y-73680000D01*
X102436425Y-73856725D01*
X102381514Y-74025726D01*
X102292664Y-74179617D01*
X102173761Y-74311673D01*
X102030000Y-74416122D01*
X101867664Y-74488398D01*
X101693849Y-74525344D01*
X101516151Y-74525344D01*
X101342336Y-74488398D01*
X101180000Y-74416122D01*
X101036239Y-74311673D01*
X100917336Y-74179617D01*
X100828486Y-74025726D01*
X100773575Y-73856725D01*
X100755000Y-73680000D01*
X100773575Y-73503275D01*
X100828486Y-73334274D01*
X100917336Y-73180383D01*
X101036239Y-73048327D01*
X101180000Y-72943878D01*
X101342336Y-72871602D01*
X101516151Y-72834656D01*
X101693849Y-72834656D01*
X101867664Y-72871602D01*
G37*
G36*
X104407664Y-72871602D02*
G01*
X104570000Y-72943878D01*
X104713761Y-73048327D01*
X104832664Y-73180383D01*
X104921514Y-73334274D01*
X104976425Y-73503275D01*
X104995000Y-73680000D01*
X104976425Y-73856725D01*
X104921514Y-74025726D01*
X104832664Y-74179617D01*
X104713761Y-74311673D01*
X104570000Y-74416122D01*
X104407664Y-74488398D01*
X104233849Y-74525344D01*
X104056151Y-74525344D01*
X103882336Y-74488398D01*
X103720000Y-74416122D01*
X103576239Y-74311673D01*
X103457336Y-74179617D01*
X103368486Y-74025726D01*
X103313575Y-73856725D01*
X103295000Y-73680000D01*
X103313575Y-73503275D01*
X103368486Y-73334274D01*
X103457336Y-73180383D01*
X103576239Y-73048327D01*
X103720000Y-72943878D01*
X103882336Y-72871602D01*
X104056151Y-72834656D01*
X104233849Y-72834656D01*
X104407664Y-72871602D01*
G37*
G36*
X106947664Y-72871602D02*
G01*
X107110000Y-72943878D01*
X107253761Y-73048327D01*
X107372664Y-73180383D01*
X107461514Y-73334274D01*
X107516425Y-73503275D01*
X107535000Y-73680000D01*
X107516425Y-73856725D01*
X107461514Y-74025726D01*
X107372664Y-74179617D01*
X107253761Y-74311673D01*
X107110000Y-74416122D01*
X106947664Y-74488398D01*
X106773849Y-74525344D01*
X106596151Y-74525344D01*
X106422336Y-74488398D01*
X106260000Y-74416122D01*
X106116239Y-74311673D01*
X105997336Y-74179617D01*
X105908486Y-74025726D01*
X105853575Y-73856725D01*
X105835000Y-73680000D01*
X105853575Y-73503275D01*
X105908486Y-73334274D01*
X105997336Y-73180383D01*
X106116239Y-73048327D01*
X106260000Y-72943878D01*
X106422336Y-72871602D01*
X106596151Y-72834656D01*
X106773849Y-72834656D01*
X106947664Y-72871602D01*
G37*
G36*
X109487664Y-72871602D02*
G01*
X109650000Y-72943878D01*
X109793761Y-73048327D01*
X109912664Y-73180383D01*
X110001514Y-73334274D01*
X110056425Y-73503275D01*
X110075000Y-73680000D01*
X110056425Y-73856725D01*
X110001514Y-74025726D01*
X109912664Y-74179617D01*
X109793761Y-74311673D01*
X109650000Y-74416122D01*
X109487664Y-74488398D01*
X109313849Y-74525344D01*
X109136151Y-74525344D01*
X108962336Y-74488398D01*
X108800000Y-74416122D01*
X108656239Y-74311673D01*
X108537336Y-74179617D01*
X108448486Y-74025726D01*
X108393575Y-73856725D01*
X108375000Y-73680000D01*
X108393575Y-73503275D01*
X108448486Y-73334274D01*
X108537336Y-73180383D01*
X108656239Y-73048327D01*
X108800000Y-72943878D01*
X108962336Y-72871602D01*
X109136151Y-72834656D01*
X109313849Y-72834656D01*
X109487664Y-72871602D01*
G37*
G36*
X112027664Y-72871602D02*
G01*
X112190000Y-72943878D01*
X112333761Y-73048327D01*
X112452664Y-73180383D01*
X112541514Y-73334274D01*
X112596425Y-73503275D01*
X112615000Y-73680000D01*
X112596425Y-73856725D01*
X112541514Y-74025726D01*
X112452664Y-74179617D01*
X112333761Y-74311673D01*
X112190000Y-74416122D01*
X112027664Y-74488398D01*
X111853849Y-74525344D01*
X111676151Y-74525344D01*
X111502336Y-74488398D01*
X111340000Y-74416122D01*
X111196239Y-74311673D01*
X111077336Y-74179617D01*
X110988486Y-74025726D01*
X110933575Y-73856725D01*
X110915000Y-73680000D01*
X110933575Y-73503275D01*
X110988486Y-73334274D01*
X111077336Y-73180383D01*
X111196239Y-73048327D01*
X111340000Y-72943878D01*
X111502336Y-72871602D01*
X111676151Y-72834656D01*
X111853849Y-72834656D01*
X112027664Y-72871602D01*
G37*
G36*
X114567664Y-72871602D02*
G01*
X114730000Y-72943878D01*
X114873761Y-73048327D01*
X114992664Y-73180383D01*
X115081514Y-73334274D01*
X115136425Y-73503275D01*
X115155000Y-73680000D01*
X115136425Y-73856725D01*
X115081514Y-74025726D01*
X114992664Y-74179617D01*
X114873761Y-74311673D01*
X114730000Y-74416122D01*
X114567664Y-74488398D01*
X114393849Y-74525344D01*
X114216151Y-74525344D01*
X114042336Y-74488398D01*
X113880000Y-74416122D01*
X113736239Y-74311673D01*
X113617336Y-74179617D01*
X113528486Y-74025726D01*
X113473575Y-73856725D01*
X113455000Y-73680000D01*
X113473575Y-73503275D01*
X113528486Y-73334274D01*
X113617336Y-73180383D01*
X113736239Y-73048327D01*
X113880000Y-72943878D01*
X114042336Y-72871602D01*
X114216151Y-72834656D01*
X114393849Y-72834656D01*
X114567664Y-72871602D01*
G37*
G36*
X117107664Y-72871602D02*
G01*
X117270000Y-72943878D01*
X117413761Y-73048327D01*
X117532664Y-73180383D01*
X117621514Y-73334274D01*
X117676425Y-73503275D01*
X117695000Y-73680000D01*
X117676425Y-73856725D01*
X117621514Y-74025726D01*
X117532664Y-74179617D01*
X117413761Y-74311673D01*
X117270000Y-74416122D01*
X117107664Y-74488398D01*
X116933849Y-74525344D01*
X116756151Y-74525344D01*
X116582336Y-74488398D01*
X116420000Y-74416122D01*
X116276239Y-74311673D01*
X116157336Y-74179617D01*
X116068486Y-74025726D01*
X116013575Y-73856725D01*
X115995000Y-73680000D01*
X116013575Y-73503275D01*
X116068486Y-73334274D01*
X116157336Y-73180383D01*
X116276239Y-73048327D01*
X116420000Y-72943878D01*
X116582336Y-72871602D01*
X116756151Y-72834656D01*
X116933849Y-72834656D01*
X117107664Y-72871602D01*
G37*
G36*
X78710537Y-73720224D02*
G01*
X78775421Y-73763579D01*
X78818776Y-73828463D01*
X78834000Y-73905000D01*
X78834000Y-74305000D01*
X78818776Y-74381537D01*
X78775421Y-74446421D01*
X78710537Y-74489776D01*
X78634000Y-74505000D01*
X78084000Y-74505000D01*
X78007463Y-74489776D01*
X77942579Y-74446421D01*
X77899224Y-74381537D01*
X77884000Y-74305000D01*
X77884000Y-73905000D01*
X77899224Y-73828463D01*
X77942579Y-73763579D01*
X78007463Y-73720224D01*
X78084000Y-73705000D01*
X78634000Y-73705000D01*
X78710537Y-73720224D01*
G37*
G36*
X138655850Y-72464964D02*
G01*
X138706040Y-72470787D01*
X138723189Y-72478359D01*
X138746671Y-72483030D01*
X138771810Y-72499827D01*
X138791696Y-72508608D01*
X138805277Y-72522189D01*
X138827777Y-72537223D01*
X138842810Y-72559722D01*
X138856391Y-72573303D01*
X138865170Y-72593186D01*
X138881970Y-72618329D01*
X138886641Y-72641812D01*
X138894212Y-72658959D01*
X138900033Y-72709139D01*
X138901000Y-72714000D01*
X138901000Y-73214000D01*
X138900032Y-73218863D01*
X138894212Y-73269040D01*
X138886641Y-73286185D01*
X138881970Y-73309671D01*
X138865169Y-73334815D01*
X138856391Y-73354696D01*
X138842812Y-73368274D01*
X138827777Y-73390777D01*
X138805274Y-73405812D01*
X138791696Y-73419391D01*
X138771815Y-73428169D01*
X138746671Y-73444970D01*
X138723185Y-73449641D01*
X138706040Y-73457212D01*
X138655861Y-73463032D01*
X138651000Y-73464000D01*
X137701000Y-73464000D01*
X137696138Y-73463032D01*
X137645959Y-73457212D01*
X137628812Y-73449641D01*
X137605329Y-73444970D01*
X137580186Y-73428170D01*
X137560303Y-73419391D01*
X137546722Y-73405810D01*
X137524223Y-73390777D01*
X137509189Y-73368277D01*
X137495608Y-73354696D01*
X137486827Y-73334810D01*
X137470030Y-73309671D01*
X137465359Y-73286189D01*
X137457787Y-73269040D01*
X137451964Y-73218849D01*
X137451000Y-73214000D01*
X137451000Y-72714000D01*
X137451964Y-72709150D01*
X137457787Y-72658959D01*
X137465359Y-72641808D01*
X137470030Y-72618329D01*
X137486826Y-72593191D01*
X137495608Y-72573303D01*
X137509191Y-72559719D01*
X137524223Y-72537223D01*
X137546719Y-72522191D01*
X137560303Y-72508608D01*
X137580191Y-72499826D01*
X137605329Y-72483030D01*
X137628808Y-72478359D01*
X137645959Y-72470787D01*
X137696151Y-72464964D01*
X137701000Y-72464000D01*
X138651000Y-72464000D01*
X138655850Y-72464964D01*
G37*
G36*
X142708000Y-72149000D02*
G01*
X141408000Y-72149000D01*
X141408000Y-70599000D01*
X142708000Y-70599000D01*
X142708000Y-72149000D01*
G37*
G36*
X147208000Y-72149000D02*
G01*
X145908000Y-72149000D01*
X145908000Y-70599000D01*
X147208000Y-70599000D01*
X147208000Y-72149000D01*
G37*
G36*
X117695000Y-71990000D02*
G01*
X115995000Y-71990000D01*
X115995000Y-70290000D01*
X117695000Y-70290000D01*
X117695000Y-71990000D01*
G37*
G36*
X101867664Y-70331602D02*
G01*
X102030000Y-70403878D01*
X102173761Y-70508327D01*
X102292664Y-70640383D01*
X102381514Y-70794274D01*
X102436425Y-70963275D01*
X102455000Y-71140000D01*
X102436425Y-71316725D01*
X102381514Y-71485726D01*
X102292664Y-71639617D01*
X102173761Y-71771673D01*
X102030000Y-71876122D01*
X101867664Y-71948398D01*
X101693849Y-71985344D01*
X101516151Y-71985344D01*
X101342336Y-71948398D01*
X101180000Y-71876122D01*
X101036239Y-71771673D01*
X100917336Y-71639617D01*
X100828486Y-71485726D01*
X100773575Y-71316725D01*
X100755000Y-71140000D01*
X100773575Y-70963275D01*
X100828486Y-70794274D01*
X100917336Y-70640383D01*
X101036239Y-70508327D01*
X101180000Y-70403878D01*
X101342336Y-70331602D01*
X101516151Y-70294656D01*
X101693849Y-70294656D01*
X101867664Y-70331602D01*
G37*
G36*
X104407664Y-70331602D02*
G01*
X104570000Y-70403878D01*
X104713761Y-70508327D01*
X104832664Y-70640383D01*
X104921514Y-70794274D01*
X104976425Y-70963275D01*
X104995000Y-71140000D01*
X104976425Y-71316725D01*
X104921514Y-71485726D01*
X104832664Y-71639617D01*
X104713761Y-71771673D01*
X104570000Y-71876122D01*
X104407664Y-71948398D01*
X104233849Y-71985344D01*
X104056151Y-71985344D01*
X103882336Y-71948398D01*
X103720000Y-71876122D01*
X103576239Y-71771673D01*
X103457336Y-71639617D01*
X103368486Y-71485726D01*
X103313575Y-71316725D01*
X103295000Y-71140000D01*
X103313575Y-70963275D01*
X103368486Y-70794274D01*
X103457336Y-70640383D01*
X103576239Y-70508327D01*
X103720000Y-70403878D01*
X103882336Y-70331602D01*
X104056151Y-70294656D01*
X104233849Y-70294656D01*
X104407664Y-70331602D01*
G37*
G36*
X106947664Y-70331602D02*
G01*
X107110000Y-70403878D01*
X107253761Y-70508327D01*
X107372664Y-70640383D01*
X107461514Y-70794274D01*
X107516425Y-70963275D01*
X107535000Y-71140000D01*
X107516425Y-71316725D01*
X107461514Y-71485726D01*
X107372664Y-71639617D01*
X107253761Y-71771673D01*
X107110000Y-71876122D01*
X106947664Y-71948398D01*
X106773849Y-71985344D01*
X106596151Y-71985344D01*
X106422336Y-71948398D01*
X106260000Y-71876122D01*
X106116239Y-71771673D01*
X105997336Y-71639617D01*
X105908486Y-71485726D01*
X105853575Y-71316725D01*
X105835000Y-71140000D01*
X105853575Y-70963275D01*
X105908486Y-70794274D01*
X105997336Y-70640383D01*
X106116239Y-70508327D01*
X106260000Y-70403878D01*
X106422336Y-70331602D01*
X106596151Y-70294656D01*
X106773849Y-70294656D01*
X106947664Y-70331602D01*
G37*
G36*
X109487664Y-70331602D02*
G01*
X109650000Y-70403878D01*
X109793761Y-70508327D01*
X109912664Y-70640383D01*
X110001514Y-70794274D01*
X110056425Y-70963275D01*
X110075000Y-71140000D01*
X110056425Y-71316725D01*
X110001514Y-71485726D01*
X109912664Y-71639617D01*
X109793761Y-71771673D01*
X109650000Y-71876122D01*
X109487664Y-71948398D01*
X109313849Y-71985344D01*
X109136151Y-71985344D01*
X108962336Y-71948398D01*
X108800000Y-71876122D01*
X108656239Y-71771673D01*
X108537336Y-71639617D01*
X108448486Y-71485726D01*
X108393575Y-71316725D01*
X108375000Y-71140000D01*
X108393575Y-70963275D01*
X108448486Y-70794274D01*
X108537336Y-70640383D01*
X108656239Y-70508327D01*
X108800000Y-70403878D01*
X108962336Y-70331602D01*
X109136151Y-70294656D01*
X109313849Y-70294656D01*
X109487664Y-70331602D01*
G37*
G36*
X112027664Y-70331602D02*
G01*
X112190000Y-70403878D01*
X112333761Y-70508327D01*
X112452664Y-70640383D01*
X112541514Y-70794274D01*
X112596425Y-70963275D01*
X112615000Y-71140000D01*
X112596425Y-71316725D01*
X112541514Y-71485726D01*
X112452664Y-71639617D01*
X112333761Y-71771673D01*
X112190000Y-71876122D01*
X112027664Y-71948398D01*
X111853849Y-71985344D01*
X111676151Y-71985344D01*
X111502336Y-71948398D01*
X111340000Y-71876122D01*
X111196239Y-71771673D01*
X111077336Y-71639617D01*
X110988486Y-71485726D01*
X110933575Y-71316725D01*
X110915000Y-71140000D01*
X110933575Y-70963275D01*
X110988486Y-70794274D01*
X111077336Y-70640383D01*
X111196239Y-70508327D01*
X111340000Y-70403878D01*
X111502336Y-70331602D01*
X111676151Y-70294656D01*
X111853849Y-70294656D01*
X112027664Y-70331602D01*
G37*
G36*
X114567664Y-70331602D02*
G01*
X114730000Y-70403878D01*
X114873761Y-70508327D01*
X114992664Y-70640383D01*
X115081514Y-70794274D01*
X115136425Y-70963275D01*
X115155000Y-71140000D01*
X115136425Y-71316725D01*
X115081514Y-71485726D01*
X114992664Y-71639617D01*
X114873761Y-71771673D01*
X114730000Y-71876122D01*
X114567664Y-71948398D01*
X114393849Y-71985344D01*
X114216151Y-71985344D01*
X114042336Y-71948398D01*
X113880000Y-71876122D01*
X113736239Y-71771673D01*
X113617336Y-71639617D01*
X113528486Y-71485726D01*
X113473575Y-71316725D01*
X113455000Y-71140000D01*
X113473575Y-70963275D01*
X113528486Y-70794274D01*
X113617336Y-70640383D01*
X113736239Y-70508327D01*
X113880000Y-70403878D01*
X114042336Y-70331602D01*
X114216151Y-70294656D01*
X114393849Y-70294656D01*
X114567664Y-70331602D01*
G37*
G36*
X88090000Y-71055000D02*
G01*
X87390000Y-71055000D01*
X87390000Y-70545000D01*
X88090000Y-70545000D01*
X88090000Y-71055000D01*
G37*
G36*
X90410000Y-71055000D02*
G01*
X89710000Y-71055000D01*
X89710000Y-70545000D01*
X90410000Y-70545000D01*
X90410000Y-71055000D01*
G37*
G36*
X81800924Y-68800711D02*
G01*
X81842701Y-68800711D01*
X81889831Y-68810728D01*
X81937130Y-68816058D01*
X81971521Y-68828092D01*
X82006223Y-68835468D01*
X82056230Y-68857733D01*
X82106220Y-68875225D01*
X82132241Y-68891575D01*
X82158948Y-68903466D01*
X82208746Y-68939646D01*
X82257905Y-68970535D01*
X82275557Y-68988187D01*
X82294197Y-69001730D01*
X82340278Y-69052908D01*
X82384578Y-69097208D01*
X82394767Y-69113424D01*
X82406059Y-69125965D01*
X82444686Y-69192870D01*
X82479888Y-69248893D01*
X82484283Y-69261453D01*
X82489648Y-69270746D01*
X82517123Y-69355305D01*
X82539055Y-69417983D01*
X82539886Y-69425363D01*
X82541308Y-69429738D01*
X82554189Y-69552306D01*
X82559113Y-69596000D01*
X82554189Y-69639697D01*
X82541308Y-69762261D01*
X82539886Y-69766635D01*
X82539055Y-69774017D01*
X82517118Y-69836707D01*
X82489648Y-69921253D01*
X82484284Y-69930543D01*
X82479888Y-69943107D01*
X82444679Y-69999140D01*
X82406059Y-70066034D01*
X82394769Y-70078572D01*
X82384578Y-70094792D01*
X82340268Y-70139101D01*
X82294197Y-70190269D01*
X82275561Y-70203808D01*
X82257905Y-70221465D01*
X82208736Y-70252359D01*
X82158948Y-70288533D01*
X82132247Y-70300421D01*
X82106220Y-70316775D01*
X82056220Y-70334270D01*
X82006223Y-70356531D01*
X81971527Y-70363905D01*
X81937130Y-70375942D01*
X81889828Y-70381271D01*
X81842701Y-70391289D01*
X81800924Y-70391289D01*
X81759113Y-70396000D01*
X81717302Y-70391289D01*
X81675525Y-70391289D01*
X81628397Y-70381271D01*
X81581096Y-70375942D01*
X81546699Y-70363906D01*
X81512002Y-70356531D01*
X81462000Y-70334268D01*
X81412006Y-70316775D01*
X81385981Y-70300422D01*
X81359277Y-70288533D01*
X81309482Y-70252355D01*
X81260321Y-70221465D01*
X81242667Y-70203811D01*
X81224028Y-70190269D01*
X81177946Y-70139090D01*
X81133648Y-70094792D01*
X81123458Y-70078575D01*
X81112166Y-70066034D01*
X81073533Y-69999120D01*
X81038338Y-69943107D01*
X81033943Y-69930547D01*
X81028577Y-69921253D01*
X81001093Y-69836667D01*
X80979171Y-69774017D01*
X80978339Y-69766639D01*
X80976917Y-69762261D01*
X80964021Y-69639565D01*
X80959113Y-69596000D01*
X80964021Y-69552438D01*
X80976917Y-69429738D01*
X80978339Y-69425358D01*
X80979171Y-69417983D01*
X81001088Y-69355345D01*
X81028577Y-69270746D01*
X81033944Y-69261449D01*
X81038338Y-69248893D01*
X81073526Y-69192890D01*
X81112166Y-69125965D01*
X81123460Y-69113421D01*
X81133648Y-69097208D01*
X81177939Y-69052916D01*
X81224030Y-69001728D01*
X81242672Y-68988183D01*
X81260321Y-68970535D01*
X81309467Y-68939654D01*
X81359275Y-68903467D01*
X81385986Y-68891574D01*
X81412006Y-68875225D01*
X81461990Y-68857734D01*
X81512002Y-68835468D01*
X81546705Y-68828091D01*
X81581096Y-68816058D01*
X81628394Y-68810728D01*
X81675525Y-68800711D01*
X81717302Y-68800711D01*
X81759113Y-68796000D01*
X81800924Y-68800711D01*
G37*
G36*
X84559113Y-70396000D02*
G01*
X82959113Y-70396000D01*
X82959113Y-68796000D01*
X84559113Y-68796000D01*
X84559113Y-70396000D01*
G37*
G36*
X88090000Y-70105000D02*
G01*
X87390000Y-70105000D01*
X87390000Y-69595000D01*
X88090000Y-69595000D01*
X88090000Y-70105000D01*
G37*
G36*
X90410000Y-70105000D02*
G01*
X89710000Y-70105000D01*
X89710000Y-69595000D01*
X90410000Y-69595000D01*
X90410000Y-70105000D01*
G37*
G36*
X88090000Y-69155000D02*
G01*
X87390000Y-69155000D01*
X87390000Y-68645000D01*
X88090000Y-68645000D01*
X88090000Y-69155000D01*
G37*
G36*
X90410000Y-69155000D02*
G01*
X89710000Y-69155000D01*
X89710000Y-68645000D01*
X90410000Y-68645000D01*
X90410000Y-69155000D01*
G37*
G36*
X68936767Y-65567215D02*
G01*
X69124360Y-65624120D01*
X69297247Y-65716530D01*
X69448784Y-65840893D01*
X69573147Y-65992430D01*
X69665557Y-66165317D01*
X69722462Y-66352910D01*
X69741677Y-66548000D01*
X69722462Y-66743090D01*
X69665557Y-66930683D01*
X69573147Y-67103570D01*
X69448784Y-67255107D01*
X69297247Y-67379470D01*
X69124360Y-67471880D01*
X68936767Y-67528785D01*
X68741677Y-67548000D01*
X68546587Y-67528785D01*
X68358994Y-67471880D01*
X68186107Y-67379470D01*
X68034570Y-67255107D01*
X67910207Y-67103570D01*
X67817797Y-66930683D01*
X67760892Y-66743090D01*
X67741677Y-66548000D01*
X67760892Y-66352910D01*
X67817797Y-66165317D01*
X67910207Y-65992430D01*
X68034570Y-65840893D01*
X68186107Y-65716530D01*
X68358994Y-65624120D01*
X68546587Y-65567215D01*
X68741677Y-65548000D01*
X68936767Y-65567215D01*
G37*
G36*
X74741677Y-67548000D02*
G01*
X72741677Y-67548000D01*
X72741677Y-65548000D01*
X74741677Y-65548000D01*
X74741677Y-67548000D01*
G37*
G36*
X128030000Y-66490000D02*
G01*
X126530000Y-66490000D01*
X126530000Y-65590000D01*
X128030000Y-65590000D01*
X128030000Y-66490000D01*
G37*
G36*
X145530000Y-66490000D02*
G01*
X144030000Y-66490000D01*
X144030000Y-65590000D01*
X145530000Y-65590000D01*
X145530000Y-66490000D01*
G37*
G36*
X107031537Y-65464224D02*
G01*
X107096421Y-65507579D01*
X107139776Y-65572463D01*
X107155000Y-65649000D01*
X107155000Y-66049000D01*
X107139776Y-66125537D01*
X107096421Y-66190421D01*
X107031537Y-66233776D01*
X106955000Y-66249000D01*
X106405000Y-66249000D01*
X106328463Y-66233776D01*
X106263579Y-66190421D01*
X106220224Y-66125537D01*
X106205000Y-66049000D01*
X106205000Y-65649000D01*
X106220224Y-65572463D01*
X106263579Y-65507579D01*
X106328463Y-65464224D01*
X106405000Y-65449000D01*
X106955000Y-65449000D01*
X107031537Y-65464224D01*
G37*
G36*
X128030000Y-65220000D02*
G01*
X126530000Y-65220000D01*
X126530000Y-64320000D01*
X128030000Y-64320000D01*
X128030000Y-65220000D01*
G37*
G36*
X145530000Y-65220000D02*
G01*
X144030000Y-65220000D01*
X144030000Y-64320000D01*
X145530000Y-64320000D01*
X145530000Y-65220000D01*
G37*
G36*
X79335893Y-62305119D02*
G01*
X79390722Y-62305119D01*
X79438959Y-62314136D01*
X79488337Y-62318456D01*
X79548942Y-62334695D01*
X79608396Y-62345809D01*
X79648721Y-62361431D01*
X79690344Y-62372584D01*
X79753358Y-62401967D01*
X79814886Y-62425804D01*
X79846644Y-62445467D01*
X79879889Y-62460970D01*
X79942599Y-62504880D01*
X80003162Y-62542379D01*
X80026376Y-62563541D01*
X80051195Y-62580920D01*
X80110564Y-62640289D01*
X80166811Y-62691565D01*
X80182143Y-62711868D01*
X80199079Y-62728804D01*
X80251904Y-62804246D01*
X80300261Y-62868281D01*
X80308924Y-62885680D01*
X80319032Y-62900115D01*
X80362075Y-62992421D01*
X80398967Y-63066510D01*
X80402634Y-63079401D01*
X80407414Y-63089650D01*
X80437534Y-63202059D01*
X80459568Y-63279501D01*
X80460246Y-63286823D01*
X80461543Y-63291662D01*
X80475881Y-63455554D01*
X80480000Y-63500000D01*
X80475881Y-63544448D01*
X80461543Y-63708337D01*
X80460246Y-63713174D01*
X80459568Y-63720499D01*
X80437527Y-63797965D01*
X80407415Y-63910344D01*
X80402637Y-63920589D01*
X80398967Y-63933490D01*
X80362052Y-64007625D01*
X80319029Y-64099889D01*
X80308925Y-64114318D01*
X80300261Y-64131719D01*
X80251897Y-64195762D01*
X80199079Y-64271195D01*
X80182146Y-64288127D01*
X80166811Y-64308435D01*
X80110552Y-64359721D01*
X80051195Y-64419079D01*
X80026381Y-64436453D01*
X80003162Y-64457621D01*
X79942587Y-64495127D01*
X79879889Y-64539029D01*
X79846650Y-64554528D01*
X79814886Y-64574196D01*
X79753345Y-64598037D01*
X79690344Y-64627415D01*
X79648729Y-64638565D01*
X79608396Y-64654191D01*
X79548930Y-64665307D01*
X79488337Y-64681543D01*
X79438969Y-64685862D01*
X79390722Y-64694881D01*
X79335882Y-64694881D01*
X79280000Y-64699770D01*
X79224118Y-64694881D01*
X79169278Y-64694881D01*
X79121031Y-64685862D01*
X79071662Y-64681543D01*
X79011066Y-64665306D01*
X78951604Y-64654191D01*
X78911272Y-64638566D01*
X78869655Y-64627415D01*
X78806648Y-64598034D01*
X78745114Y-64574196D01*
X78713352Y-64554530D01*
X78680110Y-64539029D01*
X78617404Y-64495121D01*
X78556838Y-64457621D01*
X78533621Y-64436456D01*
X78508804Y-64419079D01*
X78449435Y-64359710D01*
X78393189Y-64308435D01*
X78377856Y-64288131D01*
X78360920Y-64271195D01*
X78308088Y-64195743D01*
X78259739Y-64131719D01*
X78251076Y-64114323D01*
X78240970Y-64099889D01*
X78197932Y-64007593D01*
X78161033Y-63933490D01*
X78157364Y-63920594D01*
X78152584Y-63910344D01*
X78122455Y-63797904D01*
X78100432Y-63720499D01*
X78099753Y-63713180D01*
X78098456Y-63708337D01*
X78084100Y-63544255D01*
X78080000Y-63500000D01*
X78084100Y-63455748D01*
X78098456Y-63291662D01*
X78099754Y-63286817D01*
X78100432Y-63279501D01*
X78122448Y-63202120D01*
X78152585Y-63089650D01*
X78157366Y-63079395D01*
X78161033Y-63066510D01*
X78197909Y-62992452D01*
X78240967Y-62900115D01*
X78251077Y-62885675D01*
X78259739Y-62868281D01*
X78308081Y-62804264D01*
X78360920Y-62728804D01*
X78377859Y-62711864D01*
X78393189Y-62691565D01*
X78449424Y-62640299D01*
X78508804Y-62580920D01*
X78533626Y-62563539D01*
X78556838Y-62542379D01*
X78617395Y-62504883D01*
X78680115Y-62460967D01*
X78713364Y-62445462D01*
X78745114Y-62425804D01*
X78806621Y-62401975D01*
X78869650Y-62372585D01*
X78911283Y-62361429D01*
X78951604Y-62345809D01*
X79011053Y-62334696D01*
X79071662Y-62318456D01*
X79121041Y-62314135D01*
X79169278Y-62305119D01*
X79224106Y-62305119D01*
X79280000Y-62300229D01*
X79335893Y-62305119D01*
G37*
G36*
X94575893Y-62305119D02*
G01*
X94630722Y-62305119D01*
X94678959Y-62314136D01*
X94728337Y-62318456D01*
X94788942Y-62334695D01*
X94848396Y-62345809D01*
X94888721Y-62361431D01*
X94930344Y-62372584D01*
X94993358Y-62401967D01*
X95054886Y-62425804D01*
X95086644Y-62445467D01*
X95119889Y-62460970D01*
X95182599Y-62504880D01*
X95243162Y-62542379D01*
X95266376Y-62563541D01*
X95291195Y-62580920D01*
X95350564Y-62640289D01*
X95406811Y-62691565D01*
X95422143Y-62711868D01*
X95439079Y-62728804D01*
X95491904Y-62804246D01*
X95540261Y-62868281D01*
X95548924Y-62885680D01*
X95559032Y-62900115D01*
X95602075Y-62992421D01*
X95638967Y-63066510D01*
X95642634Y-63079401D01*
X95647414Y-63089650D01*
X95677534Y-63202059D01*
X95699568Y-63279501D01*
X95700246Y-63286823D01*
X95701543Y-63291662D01*
X95715881Y-63455554D01*
X95720000Y-63500000D01*
X95715881Y-63544448D01*
X95701543Y-63708337D01*
X95700246Y-63713174D01*
X95699568Y-63720499D01*
X95677527Y-63797965D01*
X95647415Y-63910344D01*
X95642637Y-63920589D01*
X95638967Y-63933490D01*
X95602052Y-64007625D01*
X95559029Y-64099889D01*
X95548925Y-64114318D01*
X95540261Y-64131719D01*
X95491897Y-64195762D01*
X95439079Y-64271195D01*
X95422146Y-64288127D01*
X95406811Y-64308435D01*
X95350552Y-64359721D01*
X95291195Y-64419079D01*
X95266381Y-64436453D01*
X95243162Y-64457621D01*
X95182587Y-64495127D01*
X95119889Y-64539029D01*
X95086650Y-64554528D01*
X95054886Y-64574196D01*
X94993345Y-64598037D01*
X94930344Y-64627415D01*
X94888729Y-64638565D01*
X94848396Y-64654191D01*
X94788930Y-64665307D01*
X94728337Y-64681543D01*
X94678969Y-64685862D01*
X94630722Y-64694881D01*
X94575882Y-64694881D01*
X94520000Y-64699770D01*
X94464118Y-64694881D01*
X94409278Y-64694881D01*
X94361031Y-64685862D01*
X94311662Y-64681543D01*
X94251066Y-64665306D01*
X94191604Y-64654191D01*
X94151272Y-64638566D01*
X94109655Y-64627415D01*
X94046648Y-64598034D01*
X93985114Y-64574196D01*
X93953352Y-64554530D01*
X93920110Y-64539029D01*
X93857404Y-64495121D01*
X93796838Y-64457621D01*
X93773621Y-64436456D01*
X93748804Y-64419079D01*
X93689435Y-64359710D01*
X93633189Y-64308435D01*
X93617856Y-64288131D01*
X93600920Y-64271195D01*
X93548088Y-64195743D01*
X93499739Y-64131719D01*
X93491076Y-64114323D01*
X93480970Y-64099889D01*
X93437932Y-64007593D01*
X93401033Y-63933490D01*
X93397364Y-63920594D01*
X93392584Y-63910344D01*
X93362455Y-63797904D01*
X93340432Y-63720499D01*
X93339753Y-63713180D01*
X93338456Y-63708337D01*
X93324100Y-63544255D01*
X93320000Y-63500000D01*
X93324100Y-63455748D01*
X93338456Y-63291662D01*
X93339754Y-63286817D01*
X93340432Y-63279501D01*
X93362448Y-63202120D01*
X93392585Y-63089650D01*
X93397366Y-63079395D01*
X93401033Y-63066510D01*
X93437909Y-62992452D01*
X93480967Y-62900115D01*
X93491077Y-62885675D01*
X93499739Y-62868281D01*
X93548081Y-62804264D01*
X93600920Y-62728804D01*
X93617859Y-62711864D01*
X93633189Y-62691565D01*
X93689424Y-62640299D01*
X93748804Y-62580920D01*
X93773626Y-62563539D01*
X93796838Y-62542379D01*
X93857395Y-62504883D01*
X93920115Y-62460967D01*
X93953364Y-62445462D01*
X93985114Y-62425804D01*
X94046621Y-62401975D01*
X94109650Y-62372585D01*
X94151283Y-62361429D01*
X94191604Y-62345809D01*
X94251053Y-62334696D01*
X94311662Y-62318456D01*
X94361041Y-62314135D01*
X94409278Y-62305119D01*
X94464106Y-62305119D01*
X94520000Y-62300229D01*
X94575893Y-62305119D01*
G37*
G36*
X99700000Y-64600000D02*
G01*
X98100000Y-64600000D01*
X98100000Y-63000000D01*
X99700000Y-63000000D01*
X99700000Y-64600000D01*
G37*
G36*
X100941811Y-63004711D02*
G01*
X100983588Y-63004711D01*
X101030718Y-63014728D01*
X101078017Y-63020058D01*
X101112408Y-63032092D01*
X101147110Y-63039468D01*
X101197117Y-63061733D01*
X101247107Y-63079225D01*
X101273128Y-63095575D01*
X101299835Y-63107466D01*
X101349633Y-63143646D01*
X101398792Y-63174535D01*
X101416444Y-63192187D01*
X101435084Y-63205730D01*
X101481165Y-63256908D01*
X101525465Y-63301208D01*
X101535654Y-63317424D01*
X101546946Y-63329965D01*
X101585573Y-63396870D01*
X101620775Y-63452893D01*
X101625170Y-63465453D01*
X101630535Y-63474746D01*
X101658010Y-63559305D01*
X101679942Y-63621983D01*
X101680773Y-63629363D01*
X101682195Y-63633738D01*
X101695076Y-63756306D01*
X101700000Y-63800000D01*
X101695076Y-63843697D01*
X101682195Y-63966261D01*
X101680773Y-63970635D01*
X101679942Y-63978017D01*
X101658005Y-64040707D01*
X101630535Y-64125253D01*
X101625171Y-64134543D01*
X101620775Y-64147107D01*
X101585566Y-64203140D01*
X101546946Y-64270034D01*
X101535656Y-64282572D01*
X101525465Y-64298792D01*
X101481155Y-64343101D01*
X101435084Y-64394269D01*
X101416448Y-64407808D01*
X101398792Y-64425465D01*
X101349623Y-64456359D01*
X101299835Y-64492533D01*
X101273134Y-64504421D01*
X101247107Y-64520775D01*
X101197107Y-64538270D01*
X101147110Y-64560531D01*
X101112414Y-64567905D01*
X101078017Y-64579942D01*
X101030715Y-64585271D01*
X100983588Y-64595289D01*
X100941811Y-64595289D01*
X100900000Y-64600000D01*
X100858189Y-64595289D01*
X100816412Y-64595289D01*
X100769284Y-64585271D01*
X100721983Y-64579942D01*
X100687586Y-64567906D01*
X100652889Y-64560531D01*
X100602887Y-64538268D01*
X100552893Y-64520775D01*
X100526868Y-64504422D01*
X100500164Y-64492533D01*
X100450369Y-64456355D01*
X100401208Y-64425465D01*
X100383554Y-64407811D01*
X100364915Y-64394269D01*
X100318833Y-64343090D01*
X100274535Y-64298792D01*
X100264345Y-64282575D01*
X100253053Y-64270034D01*
X100214420Y-64203120D01*
X100179225Y-64147107D01*
X100174830Y-64134547D01*
X100169464Y-64125253D01*
X100141980Y-64040667D01*
X100120058Y-63978017D01*
X100119226Y-63970639D01*
X100117804Y-63966261D01*
X100104908Y-63843565D01*
X100100000Y-63800000D01*
X100104908Y-63756438D01*
X100117804Y-63633738D01*
X100119226Y-63629358D01*
X100120058Y-63621983D01*
X100141975Y-63559345D01*
X100169464Y-63474746D01*
X100174831Y-63465449D01*
X100179225Y-63452893D01*
X100214413Y-63396890D01*
X100253053Y-63329965D01*
X100264347Y-63317421D01*
X100274535Y-63301208D01*
X100318826Y-63256916D01*
X100364917Y-63205728D01*
X100383559Y-63192183D01*
X100401208Y-63174535D01*
X100450354Y-63143654D01*
X100500162Y-63107467D01*
X100526873Y-63095574D01*
X100552893Y-63079225D01*
X100602877Y-63061734D01*
X100652889Y-63039468D01*
X100687592Y-63032091D01*
X100721983Y-63020058D01*
X100769281Y-63014728D01*
X100816412Y-63004711D01*
X100858189Y-63004711D01*
X100900000Y-63000000D01*
X100941811Y-63004711D01*
G37*
G36*
X107031537Y-63814224D02*
G01*
X107096421Y-63857579D01*
X107139776Y-63922463D01*
X107155000Y-63999000D01*
X107155000Y-64399000D01*
X107139776Y-64475537D01*
X107096421Y-64540421D01*
X107031537Y-64583776D01*
X106955000Y-64599000D01*
X106405000Y-64599000D01*
X106328463Y-64583776D01*
X106263579Y-64540421D01*
X106220224Y-64475537D01*
X106205000Y-64399000D01*
X106205000Y-63999000D01*
X106220224Y-63922463D01*
X106263579Y-63857579D01*
X106328463Y-63814224D01*
X106405000Y-63799000D01*
X106955000Y-63799000D01*
X107031537Y-63814224D01*
G37*
G36*
X125573537Y-63240224D02*
G01*
X125638421Y-63283579D01*
X125681776Y-63348463D01*
X125697000Y-63425000D01*
X125697000Y-63825000D01*
X125681776Y-63901537D01*
X125638421Y-63966421D01*
X125573537Y-64009776D01*
X125497000Y-64025000D01*
X124947000Y-64025000D01*
X124870463Y-64009776D01*
X124805579Y-63966421D01*
X124762224Y-63901537D01*
X124747000Y-63825000D01*
X124747000Y-63425000D01*
X124762224Y-63348463D01*
X124805579Y-63283579D01*
X124870463Y-63240224D01*
X124947000Y-63225000D01*
X125497000Y-63225000D01*
X125573537Y-63240224D01*
G37*
G36*
X128030000Y-63950000D02*
G01*
X126530000Y-63950000D01*
X126530000Y-63050000D01*
X128030000Y-63050000D01*
X128030000Y-63950000D01*
G37*
G36*
X145530000Y-63950000D02*
G01*
X144030000Y-63950000D01*
X144030000Y-63050000D01*
X145530000Y-63050000D01*
X145530000Y-63950000D01*
G37*
G36*
X128030000Y-62680000D02*
G01*
X126530000Y-62680000D01*
X126530000Y-61780000D01*
X128030000Y-61780000D01*
X128030000Y-62680000D01*
G37*
G36*
X145530000Y-62680000D02*
G01*
X144030000Y-62680000D01*
X144030000Y-61780000D01*
X145530000Y-61780000D01*
X145530000Y-62680000D01*
G37*
G36*
X107031537Y-61654224D02*
G01*
X107096421Y-61697579D01*
X107139776Y-61762463D01*
X107155000Y-61839000D01*
X107155000Y-62239000D01*
X107139776Y-62315537D01*
X107096421Y-62380421D01*
X107031537Y-62423776D01*
X106955000Y-62439000D01*
X106405000Y-62439000D01*
X106328463Y-62423776D01*
X106263579Y-62380421D01*
X106220224Y-62315537D01*
X106205000Y-62239000D01*
X106205000Y-61839000D01*
X106220224Y-61762463D01*
X106263579Y-61697579D01*
X106328463Y-61654224D01*
X106405000Y-61639000D01*
X106955000Y-61639000D01*
X107031537Y-61654224D01*
G37*
G36*
X125573537Y-61590224D02*
G01*
X125638421Y-61633579D01*
X125681776Y-61698463D01*
X125697000Y-61775000D01*
X125697000Y-62175000D01*
X125681776Y-62251537D01*
X125638421Y-62316421D01*
X125573537Y-62359776D01*
X125497000Y-62375000D01*
X124947000Y-62375000D01*
X124870463Y-62359776D01*
X124805579Y-62316421D01*
X124762224Y-62251537D01*
X124747000Y-62175000D01*
X124747000Y-61775000D01*
X124762224Y-61698463D01*
X124805579Y-61633579D01*
X124870463Y-61590224D01*
X124947000Y-61575000D01*
X125497000Y-61575000D01*
X125573537Y-61590224D01*
G37*
G36*
X115150000Y-62064000D02*
G01*
X113450000Y-62064000D01*
X113450000Y-60364000D01*
X115150000Y-60364000D01*
X115150000Y-62064000D01*
G37*
G36*
X112022664Y-60405602D02*
G01*
X112185000Y-60477878D01*
X112328761Y-60582327D01*
X112447664Y-60714383D01*
X112536514Y-60868274D01*
X112591425Y-61037275D01*
X112610000Y-61214000D01*
X112591425Y-61390725D01*
X112536514Y-61559726D01*
X112447664Y-61713617D01*
X112328761Y-61845673D01*
X112185000Y-61950122D01*
X112022664Y-62022398D01*
X111848849Y-62059344D01*
X111671151Y-62059344D01*
X111497336Y-62022398D01*
X111335000Y-61950122D01*
X111191239Y-61845673D01*
X111072336Y-61713617D01*
X110983486Y-61559726D01*
X110928575Y-61390725D01*
X110910000Y-61214000D01*
X110928575Y-61037275D01*
X110983486Y-60868274D01*
X111072336Y-60714383D01*
X111191239Y-60582327D01*
X111335000Y-60477878D01*
X111497336Y-60405602D01*
X111671151Y-60368656D01*
X111848849Y-60368656D01*
X112022664Y-60405602D01*
G37*
G36*
X128030000Y-61410000D02*
G01*
X126530000Y-61410000D01*
X126530000Y-60510000D01*
X128030000Y-60510000D01*
X128030000Y-61410000D01*
G37*
G36*
X145530000Y-61410000D02*
G01*
X144030000Y-61410000D01*
X144030000Y-60510000D01*
X145530000Y-60510000D01*
X145530000Y-61410000D01*
G37*
G36*
X107031537Y-60004224D02*
G01*
X107096421Y-60047579D01*
X107139776Y-60112463D01*
X107155000Y-60189000D01*
X107155000Y-60589000D01*
X107139776Y-60665537D01*
X107096421Y-60730421D01*
X107031537Y-60773776D01*
X106955000Y-60789000D01*
X106405000Y-60789000D01*
X106328463Y-60773776D01*
X106263579Y-60730421D01*
X106220224Y-60665537D01*
X106205000Y-60589000D01*
X106205000Y-60189000D01*
X106220224Y-60112463D01*
X106263579Y-60047579D01*
X106328463Y-60004224D01*
X106405000Y-59989000D01*
X106955000Y-59989000D01*
X107031537Y-60004224D01*
G37*
G36*
X125573537Y-59876224D02*
G01*
X125638421Y-59919579D01*
X125681776Y-59984463D01*
X125697000Y-60061000D01*
X125697000Y-60461000D01*
X125681776Y-60537537D01*
X125638421Y-60602421D01*
X125573537Y-60645776D01*
X125497000Y-60661000D01*
X124947000Y-60661000D01*
X124870463Y-60645776D01*
X124805579Y-60602421D01*
X124762224Y-60537537D01*
X124747000Y-60461000D01*
X124747000Y-60061000D01*
X124762224Y-59984463D01*
X124805579Y-59919579D01*
X124870463Y-59876224D01*
X124947000Y-59861000D01*
X125497000Y-59861000D01*
X125573537Y-59876224D01*
G37*
G36*
X99539850Y-59632964D02*
G01*
X99590040Y-59638787D01*
X99607189Y-59646359D01*
X99630671Y-59651030D01*
X99655810Y-59667827D01*
X99675696Y-59676608D01*
X99689277Y-59690189D01*
X99711777Y-59705223D01*
X99726810Y-59727722D01*
X99740391Y-59741303D01*
X99749170Y-59761186D01*
X99765970Y-59786329D01*
X99770641Y-59809812D01*
X99778212Y-59826959D01*
X99784033Y-59877139D01*
X99785000Y-59882000D01*
X99785000Y-60382000D01*
X99784032Y-60386863D01*
X99778212Y-60437040D01*
X99770641Y-60454185D01*
X99765970Y-60477671D01*
X99749169Y-60502815D01*
X99740391Y-60522696D01*
X99726812Y-60536274D01*
X99711777Y-60558777D01*
X99689274Y-60573812D01*
X99675696Y-60587391D01*
X99655815Y-60596169D01*
X99630671Y-60612970D01*
X99607185Y-60617641D01*
X99590040Y-60625212D01*
X99539861Y-60631032D01*
X99535000Y-60632000D01*
X98585000Y-60632000D01*
X98580138Y-60631032D01*
X98529959Y-60625212D01*
X98512812Y-60617641D01*
X98489329Y-60612970D01*
X98464186Y-60596170D01*
X98444303Y-60587391D01*
X98430722Y-60573810D01*
X98408223Y-60558777D01*
X98393189Y-60536277D01*
X98379608Y-60522696D01*
X98370827Y-60502810D01*
X98354030Y-60477671D01*
X98349359Y-60454189D01*
X98341787Y-60437040D01*
X98335964Y-60386849D01*
X98335000Y-60382000D01*
X98335000Y-59882000D01*
X98335964Y-59877150D01*
X98341787Y-59826959D01*
X98349359Y-59809808D01*
X98354030Y-59786329D01*
X98370826Y-59761191D01*
X98379608Y-59741303D01*
X98393191Y-59727719D01*
X98408223Y-59705223D01*
X98430719Y-59690191D01*
X98444303Y-59676608D01*
X98464191Y-59667826D01*
X98489329Y-59651030D01*
X98512808Y-59646359D01*
X98529959Y-59638787D01*
X98580151Y-59632964D01*
X98585000Y-59632000D01*
X99535000Y-59632000D01*
X99539850Y-59632964D01*
G37*
G36*
X128030000Y-60140000D02*
G01*
X126530000Y-60140000D01*
X126530000Y-59240000D01*
X128030000Y-59240000D01*
X128030000Y-60140000D01*
G37*
G36*
X145530000Y-60140000D02*
G01*
X144030000Y-60140000D01*
X144030000Y-59240000D01*
X145530000Y-59240000D01*
X145530000Y-60140000D01*
G37*
G36*
X93824600Y-58709964D02*
G01*
X93867636Y-58714957D01*
X93882340Y-58721449D01*
X93903462Y-58725651D01*
X93926076Y-58740761D01*
X93942785Y-58748139D01*
X93954196Y-58759550D01*
X93974430Y-58773070D01*
X93987949Y-58793303D01*
X93999360Y-58804714D01*
X94006737Y-58821421D01*
X94021849Y-58844038D01*
X94026050Y-58865161D01*
X94032542Y-58879863D01*
X94037533Y-58922889D01*
X94038500Y-58927750D01*
X94038500Y-59690250D01*
X94037532Y-59695112D01*
X94032542Y-59738136D01*
X94026051Y-59752836D01*
X94021849Y-59773962D01*
X94006735Y-59796580D01*
X93999360Y-59813285D01*
X93987951Y-59824693D01*
X93974430Y-59844930D01*
X93954193Y-59858451D01*
X93942785Y-59869860D01*
X93926080Y-59877235D01*
X93903462Y-59892349D01*
X93882336Y-59896551D01*
X93867636Y-59903042D01*
X93824611Y-59908032D01*
X93819750Y-59909000D01*
X93382250Y-59909000D01*
X93377388Y-59908032D01*
X93334363Y-59903042D01*
X93319661Y-59896550D01*
X93298538Y-59892349D01*
X93275921Y-59877237D01*
X93259214Y-59869860D01*
X93247803Y-59858449D01*
X93227570Y-59844930D01*
X93214050Y-59824696D01*
X93202639Y-59813285D01*
X93195261Y-59796576D01*
X93180151Y-59773962D01*
X93175949Y-59752840D01*
X93169457Y-59738136D01*
X93164464Y-59695099D01*
X93163500Y-59690250D01*
X93163500Y-58927750D01*
X93164464Y-58922900D01*
X93169457Y-58879863D01*
X93175950Y-58865157D01*
X93180151Y-58844038D01*
X93195259Y-58821425D01*
X93202639Y-58804714D01*
X93214052Y-58793300D01*
X93227570Y-58773070D01*
X93247800Y-58759552D01*
X93259214Y-58748139D01*
X93275925Y-58740759D01*
X93298538Y-58725651D01*
X93319657Y-58721450D01*
X93334363Y-58714957D01*
X93377401Y-58709964D01*
X93382250Y-58709000D01*
X93819750Y-58709000D01*
X93824600Y-58709964D01*
G37*
G36*
X95949600Y-58709964D02*
G01*
X95992636Y-58714957D01*
X96007340Y-58721449D01*
X96028462Y-58725651D01*
X96051076Y-58740761D01*
X96067785Y-58748139D01*
X96079196Y-58759550D01*
X96099430Y-58773070D01*
X96112949Y-58793303D01*
X96124360Y-58804714D01*
X96131737Y-58821421D01*
X96146849Y-58844038D01*
X96151050Y-58865161D01*
X96157542Y-58879863D01*
X96162533Y-58922889D01*
X96163500Y-58927750D01*
X96163500Y-59690250D01*
X96162532Y-59695112D01*
X96157542Y-59738136D01*
X96151051Y-59752836D01*
X96146849Y-59773962D01*
X96131735Y-59796580D01*
X96124360Y-59813285D01*
X96112951Y-59824693D01*
X96099430Y-59844930D01*
X96079193Y-59858451D01*
X96067785Y-59869860D01*
X96051080Y-59877235D01*
X96028462Y-59892349D01*
X96007336Y-59896551D01*
X95992636Y-59903042D01*
X95949611Y-59908032D01*
X95944750Y-59909000D01*
X95507250Y-59909000D01*
X95502388Y-59908032D01*
X95459363Y-59903042D01*
X95444661Y-59896550D01*
X95423538Y-59892349D01*
X95400921Y-59877237D01*
X95384214Y-59869860D01*
X95372803Y-59858449D01*
X95352570Y-59844930D01*
X95339050Y-59824696D01*
X95327639Y-59813285D01*
X95320261Y-59796576D01*
X95305151Y-59773962D01*
X95300949Y-59752840D01*
X95294457Y-59738136D01*
X95289464Y-59695099D01*
X95288500Y-59690250D01*
X95288500Y-58927750D01*
X95289464Y-58922900D01*
X95294457Y-58879863D01*
X95300950Y-58865157D01*
X95305151Y-58844038D01*
X95320259Y-58821425D01*
X95327639Y-58804714D01*
X95339052Y-58793300D01*
X95352570Y-58773070D01*
X95372800Y-58759552D01*
X95384214Y-58748139D01*
X95400925Y-58740759D01*
X95423538Y-58725651D01*
X95444657Y-58721450D01*
X95459363Y-58714957D01*
X95502401Y-58709964D01*
X95507250Y-58709000D01*
X95944750Y-58709000D01*
X95949600Y-58709964D01*
G37*
G36*
X90605537Y-58849224D02*
G01*
X90670421Y-58892579D01*
X90713776Y-58957463D01*
X90729000Y-59034000D01*
X90729000Y-59584000D01*
X90713776Y-59660537D01*
X90670421Y-59725421D01*
X90605537Y-59768776D01*
X90529000Y-59784000D01*
X90129000Y-59784000D01*
X90052463Y-59768776D01*
X89987579Y-59725421D01*
X89944224Y-59660537D01*
X89929000Y-59584000D01*
X89929000Y-59034000D01*
X89944224Y-58957463D01*
X89987579Y-58892579D01*
X90052463Y-58849224D01*
X90129000Y-58834000D01*
X90529000Y-58834000D01*
X90605537Y-58849224D01*
G37*
G36*
X92255537Y-58849224D02*
G01*
X92320421Y-58892579D01*
X92363776Y-58957463D01*
X92379000Y-59034000D01*
X92379000Y-59584000D01*
X92363776Y-59660537D01*
X92320421Y-59725421D01*
X92255537Y-59768776D01*
X92179000Y-59784000D01*
X91779000Y-59784000D01*
X91702463Y-59768776D01*
X91637579Y-59725421D01*
X91594224Y-59660537D01*
X91579000Y-59584000D01*
X91579000Y-59034000D01*
X91594224Y-58957463D01*
X91637579Y-58892579D01*
X91702463Y-58849224D01*
X91779000Y-58834000D01*
X92179000Y-58834000D01*
X92255537Y-58849224D01*
G37*
G36*
X74700000Y-59602651D02*
G01*
X73100000Y-59602651D01*
X73100000Y-58002651D01*
X74700000Y-58002651D01*
X74700000Y-59602651D01*
G37*
G36*
X112022664Y-57865602D02*
G01*
X112185000Y-57937878D01*
X112328761Y-58042327D01*
X112447664Y-58174383D01*
X112536514Y-58328274D01*
X112591425Y-58497275D01*
X112610000Y-58674000D01*
X112591425Y-58850725D01*
X112536514Y-59019726D01*
X112447664Y-59173617D01*
X112328761Y-59305673D01*
X112185000Y-59410122D01*
X112022664Y-59482398D01*
X111848849Y-59519344D01*
X111671151Y-59519344D01*
X111497336Y-59482398D01*
X111335000Y-59410122D01*
X111191239Y-59305673D01*
X111072336Y-59173617D01*
X110983486Y-59019726D01*
X110928575Y-58850725D01*
X110910000Y-58674000D01*
X110928575Y-58497275D01*
X110983486Y-58328274D01*
X111072336Y-58174383D01*
X111191239Y-58042327D01*
X111335000Y-57937878D01*
X111497336Y-57865602D01*
X111671151Y-57828656D01*
X111848849Y-57828656D01*
X112022664Y-57865602D01*
G37*
G36*
X114562664Y-57865602D02*
G01*
X114725000Y-57937878D01*
X114868761Y-58042327D01*
X114987664Y-58174383D01*
X115076514Y-58328274D01*
X115131425Y-58497275D01*
X115150000Y-58674000D01*
X115131425Y-58850725D01*
X115076514Y-59019726D01*
X114987664Y-59173617D01*
X114868761Y-59305673D01*
X114725000Y-59410122D01*
X114562664Y-59482398D01*
X114388849Y-59519344D01*
X114211151Y-59519344D01*
X114037336Y-59482398D01*
X113875000Y-59410122D01*
X113731239Y-59305673D01*
X113612336Y-59173617D01*
X113523486Y-59019726D01*
X113468575Y-58850725D01*
X113450000Y-58674000D01*
X113468575Y-58497275D01*
X113523486Y-58328274D01*
X113612336Y-58174383D01*
X113731239Y-58042327D01*
X113875000Y-57937878D01*
X114037336Y-57865602D01*
X114211151Y-57828656D01*
X114388849Y-57828656D01*
X114562664Y-57865602D01*
G37*
G36*
X125573537Y-58226224D02*
G01*
X125638421Y-58269579D01*
X125681776Y-58334463D01*
X125697000Y-58411000D01*
X125697000Y-58811000D01*
X125681776Y-58887537D01*
X125638421Y-58952421D01*
X125573537Y-58995776D01*
X125497000Y-59011000D01*
X124947000Y-59011000D01*
X124870463Y-58995776D01*
X124805579Y-58952421D01*
X124762224Y-58887537D01*
X124747000Y-58811000D01*
X124747000Y-58411000D01*
X124762224Y-58334463D01*
X124805579Y-58269579D01*
X124870463Y-58226224D01*
X124947000Y-58211000D01*
X125497000Y-58211000D01*
X125573537Y-58226224D01*
G37*
G36*
X87081537Y-57960224D02*
G01*
X87146421Y-58003579D01*
X87189776Y-58068463D01*
X87205000Y-58145000D01*
X87205000Y-58695000D01*
X87189776Y-58771537D01*
X87146421Y-58836421D01*
X87081537Y-58879776D01*
X87005000Y-58895000D01*
X86605000Y-58895000D01*
X86528463Y-58879776D01*
X86463579Y-58836421D01*
X86420224Y-58771537D01*
X86405000Y-58695000D01*
X86405000Y-58145000D01*
X86420224Y-58068463D01*
X86463579Y-58003579D01*
X86528463Y-57960224D01*
X86605000Y-57945000D01*
X87005000Y-57945000D01*
X87081537Y-57960224D01*
G37*
G36*
X88731537Y-57960224D02*
G01*
X88796421Y-58003579D01*
X88839776Y-58068463D01*
X88855000Y-58145000D01*
X88855000Y-58695000D01*
X88839776Y-58771537D01*
X88796421Y-58836421D01*
X88731537Y-58879776D01*
X88655000Y-58895000D01*
X88255000Y-58895000D01*
X88178463Y-58879776D01*
X88113579Y-58836421D01*
X88070224Y-58771537D01*
X88055000Y-58695000D01*
X88055000Y-58145000D01*
X88070224Y-58068463D01*
X88113579Y-58003579D01*
X88178463Y-57960224D01*
X88255000Y-57945000D01*
X88655000Y-57945000D01*
X88731537Y-57960224D01*
G37*
G36*
X128030000Y-58870000D02*
G01*
X126530000Y-58870000D01*
X126530000Y-57970000D01*
X128030000Y-57970000D01*
X128030000Y-58870000D01*
G37*
G36*
X145530000Y-58870000D02*
G01*
X144030000Y-58870000D01*
X144030000Y-57970000D01*
X145530000Y-57970000D01*
X145530000Y-58870000D01*
G37*
G36*
X99539850Y-57732964D02*
G01*
X99590040Y-57738787D01*
X99607189Y-57746359D01*
X99630671Y-57751030D01*
X99655810Y-57767827D01*
X99675696Y-57776608D01*
X99689277Y-57790189D01*
X99711777Y-57805223D01*
X99726810Y-57827722D01*
X99740391Y-57841303D01*
X99749170Y-57861186D01*
X99765970Y-57886329D01*
X99770641Y-57909812D01*
X99778212Y-57926959D01*
X99784033Y-57977139D01*
X99785000Y-57982000D01*
X99785000Y-58482000D01*
X99784032Y-58486863D01*
X99778212Y-58537040D01*
X99770641Y-58554185D01*
X99765970Y-58577671D01*
X99749169Y-58602815D01*
X99740391Y-58622696D01*
X99726812Y-58636274D01*
X99711777Y-58658777D01*
X99689274Y-58673812D01*
X99675696Y-58687391D01*
X99655815Y-58696169D01*
X99630671Y-58712970D01*
X99607185Y-58717641D01*
X99590040Y-58725212D01*
X99539861Y-58731032D01*
X99535000Y-58732000D01*
X98585000Y-58732000D01*
X98580138Y-58731032D01*
X98529959Y-58725212D01*
X98512812Y-58717641D01*
X98489329Y-58712970D01*
X98464186Y-58696170D01*
X98444303Y-58687391D01*
X98430722Y-58673810D01*
X98408223Y-58658777D01*
X98393189Y-58636277D01*
X98379608Y-58622696D01*
X98370827Y-58602810D01*
X98354030Y-58577671D01*
X98349359Y-58554189D01*
X98341787Y-58537040D01*
X98335964Y-58486849D01*
X98335000Y-58482000D01*
X98335000Y-57982000D01*
X98335964Y-57977150D01*
X98341787Y-57926959D01*
X98349359Y-57909808D01*
X98354030Y-57886329D01*
X98370826Y-57861191D01*
X98379608Y-57841303D01*
X98393191Y-57827719D01*
X98408223Y-57805223D01*
X98430719Y-57790191D01*
X98444303Y-57776608D01*
X98464191Y-57767826D01*
X98489329Y-57751030D01*
X98512808Y-57746359D01*
X98529959Y-57738787D01*
X98580151Y-57732964D01*
X98585000Y-57732000D01*
X99535000Y-57732000D01*
X99539850Y-57732964D01*
G37*
G36*
X107031537Y-57844224D02*
G01*
X107096421Y-57887579D01*
X107139776Y-57952463D01*
X107155000Y-58029000D01*
X107155000Y-58429000D01*
X107139776Y-58505537D01*
X107096421Y-58570421D01*
X107031537Y-58613776D01*
X106955000Y-58629000D01*
X106405000Y-58629000D01*
X106328463Y-58613776D01*
X106263579Y-58570421D01*
X106220224Y-58505537D01*
X106205000Y-58429000D01*
X106205000Y-58029000D01*
X106220224Y-57952463D01*
X106263579Y-57887579D01*
X106328463Y-57844224D01*
X106405000Y-57829000D01*
X106955000Y-57829000D01*
X107031537Y-57844224D01*
G37*
G36*
X119731537Y-57844224D02*
G01*
X119796421Y-57887579D01*
X119839776Y-57952463D01*
X119855000Y-58029000D01*
X119855000Y-58429000D01*
X119839776Y-58505537D01*
X119796421Y-58570421D01*
X119731537Y-58613776D01*
X119655000Y-58629000D01*
X119105000Y-58629000D01*
X119028463Y-58613776D01*
X118963579Y-58570421D01*
X118920224Y-58505537D01*
X118905000Y-58429000D01*
X118905000Y-58029000D01*
X118920224Y-57952463D01*
X118963579Y-57887579D01*
X119028463Y-57844224D01*
X119105000Y-57829000D01*
X119655000Y-57829000D01*
X119731537Y-57844224D01*
G37*
G36*
X97253850Y-56650964D02*
G01*
X97304040Y-56656787D01*
X97321189Y-56664359D01*
X97344671Y-56669030D01*
X97369810Y-56685827D01*
X97389696Y-56694608D01*
X97403277Y-56708189D01*
X97425777Y-56723223D01*
X97440810Y-56745722D01*
X97454391Y-56759303D01*
X97463170Y-56779186D01*
X97479970Y-56804329D01*
X97484641Y-56827812D01*
X97492212Y-56844959D01*
X97498033Y-56895139D01*
X97499000Y-56900000D01*
X97499000Y-57400000D01*
X97498032Y-57404863D01*
X97492212Y-57455040D01*
X97484641Y-57472185D01*
X97479970Y-57495671D01*
X97463169Y-57520815D01*
X97454391Y-57540696D01*
X97440812Y-57554274D01*
X97425777Y-57576777D01*
X97403274Y-57591812D01*
X97389696Y-57605391D01*
X97369815Y-57614169D01*
X97344671Y-57630970D01*
X97321185Y-57635641D01*
X97304040Y-57643212D01*
X97253861Y-57649032D01*
X97249000Y-57650000D01*
X96299000Y-57650000D01*
X96294138Y-57649032D01*
X96243959Y-57643212D01*
X96226812Y-57635641D01*
X96203329Y-57630970D01*
X96178186Y-57614170D01*
X96158303Y-57605391D01*
X96144722Y-57591810D01*
X96122223Y-57576777D01*
X96107189Y-57554277D01*
X96093608Y-57540696D01*
X96084827Y-57520810D01*
X96068030Y-57495671D01*
X96063359Y-57472189D01*
X96055787Y-57455040D01*
X96049964Y-57404849D01*
X96049000Y-57400000D01*
X96049000Y-56900000D01*
X96049964Y-56895150D01*
X96055787Y-56844959D01*
X96063359Y-56827808D01*
X96068030Y-56804329D01*
X96084826Y-56779191D01*
X96093608Y-56759303D01*
X96107191Y-56745719D01*
X96122223Y-56723223D01*
X96144719Y-56708191D01*
X96158303Y-56694608D01*
X96178191Y-56685826D01*
X96203329Y-56669030D01*
X96226808Y-56664359D01*
X96243959Y-56656787D01*
X96294151Y-56650964D01*
X96299000Y-56650000D01*
X97249000Y-56650000D01*
X97253850Y-56650964D01*
G37*
G36*
X128030000Y-57600000D02*
G01*
X126530000Y-57600000D01*
X126530000Y-56700000D01*
X128030000Y-56700000D01*
X128030000Y-57600000D01*
G37*
G36*
X145530000Y-57600000D02*
G01*
X144030000Y-57600000D01*
X144030000Y-56700000D01*
X145530000Y-56700000D01*
X145530000Y-57600000D01*
G37*
G36*
X94643552Y-56892564D02*
G01*
X94680050Y-56916950D01*
X94704436Y-56953448D01*
X94713000Y-56996500D01*
X94713000Y-57371500D01*
X94704436Y-57414552D01*
X94680050Y-57451050D01*
X94643552Y-57475436D01*
X94600500Y-57484000D01*
X94375500Y-57484000D01*
X94332448Y-57475436D01*
X94295950Y-57451050D01*
X94271564Y-57414552D01*
X94263000Y-57371500D01*
X94263000Y-56996500D01*
X94271564Y-56953448D01*
X94295950Y-56916950D01*
X94332448Y-56892564D01*
X94375500Y-56884000D01*
X94600500Y-56884000D01*
X94643552Y-56892564D01*
G37*
G36*
X79981850Y-56330964D02*
G01*
X80032040Y-56336787D01*
X80049189Y-56344359D01*
X80072671Y-56349030D01*
X80097810Y-56365827D01*
X80117696Y-56374608D01*
X80131277Y-56388189D01*
X80153777Y-56403223D01*
X80168810Y-56425722D01*
X80182391Y-56439303D01*
X80191170Y-56459186D01*
X80207970Y-56484329D01*
X80212641Y-56507812D01*
X80220212Y-56524959D01*
X80226033Y-56575139D01*
X80227000Y-56580000D01*
X80227000Y-57080000D01*
X80226032Y-57084863D01*
X80220212Y-57135040D01*
X80212641Y-57152185D01*
X80207970Y-57175671D01*
X80191169Y-57200815D01*
X80182391Y-57220696D01*
X80168812Y-57234274D01*
X80153777Y-57256777D01*
X80131274Y-57271812D01*
X80117696Y-57285391D01*
X80097815Y-57294169D01*
X80072671Y-57310970D01*
X80049185Y-57315641D01*
X80032040Y-57323212D01*
X79981861Y-57329032D01*
X79977000Y-57330000D01*
X79027000Y-57330000D01*
X79022138Y-57329032D01*
X78971959Y-57323212D01*
X78954812Y-57315641D01*
X78931329Y-57310970D01*
X78906186Y-57294170D01*
X78886303Y-57285391D01*
X78872722Y-57271810D01*
X78850223Y-57256777D01*
X78835189Y-57234277D01*
X78821608Y-57220696D01*
X78812827Y-57200810D01*
X78796030Y-57175671D01*
X78791359Y-57152189D01*
X78783787Y-57135040D01*
X78777964Y-57084849D01*
X78777000Y-57080000D01*
X78777000Y-56580000D01*
X78777964Y-56575150D01*
X78783787Y-56524959D01*
X78791359Y-56507808D01*
X78796030Y-56484329D01*
X78812826Y-56459191D01*
X78821608Y-56439303D01*
X78835191Y-56425719D01*
X78850223Y-56403223D01*
X78872719Y-56388191D01*
X78886303Y-56374608D01*
X78906191Y-56365826D01*
X78931329Y-56349030D01*
X78954808Y-56344359D01*
X78971959Y-56336787D01*
X79022151Y-56330964D01*
X79027000Y-56330000D01*
X79977000Y-56330000D01*
X79981850Y-56330964D01*
G37*
G36*
X112022664Y-55325602D02*
G01*
X112185000Y-55397878D01*
X112328761Y-55502327D01*
X112447664Y-55634383D01*
X112536514Y-55788274D01*
X112591425Y-55957275D01*
X112610000Y-56134000D01*
X112591425Y-56310725D01*
X112536514Y-56479726D01*
X112447664Y-56633617D01*
X112328761Y-56765673D01*
X112185000Y-56870122D01*
X112022664Y-56942398D01*
X111848849Y-56979344D01*
X111671151Y-56979344D01*
X111497336Y-56942398D01*
X111335000Y-56870122D01*
X111191239Y-56765673D01*
X111072336Y-56633617D01*
X110983486Y-56479726D01*
X110928575Y-56310725D01*
X110910000Y-56134000D01*
X110928575Y-55957275D01*
X110983486Y-55788274D01*
X111072336Y-55634383D01*
X111191239Y-55502327D01*
X111335000Y-55397878D01*
X111497336Y-55325602D01*
X111671151Y-55288656D01*
X111848849Y-55288656D01*
X112022664Y-55325602D01*
G37*
G36*
X114562664Y-55325602D02*
G01*
X114725000Y-55397878D01*
X114868761Y-55502327D01*
X114987664Y-55634383D01*
X115076514Y-55788274D01*
X115131425Y-55957275D01*
X115150000Y-56134000D01*
X115131425Y-56310725D01*
X115076514Y-56479726D01*
X114987664Y-56633617D01*
X114868761Y-56765673D01*
X114725000Y-56870122D01*
X114562664Y-56942398D01*
X114388849Y-56979344D01*
X114211151Y-56979344D01*
X114037336Y-56942398D01*
X113875000Y-56870122D01*
X113731239Y-56765673D01*
X113612336Y-56633617D01*
X113523486Y-56479726D01*
X113468575Y-56310725D01*
X113450000Y-56134000D01*
X113468575Y-55957275D01*
X113523486Y-55788274D01*
X113612336Y-55634383D01*
X113731239Y-55502327D01*
X113875000Y-55397878D01*
X114037336Y-55325602D01*
X114211151Y-55288656D01*
X114388849Y-55288656D01*
X114562664Y-55325602D01*
G37*
G36*
X107031537Y-56194224D02*
G01*
X107096421Y-56237579D01*
X107139776Y-56302463D01*
X107155000Y-56379000D01*
X107155000Y-56779000D01*
X107139776Y-56855537D01*
X107096421Y-56920421D01*
X107031537Y-56963776D01*
X106955000Y-56979000D01*
X106405000Y-56979000D01*
X106328463Y-56963776D01*
X106263579Y-56920421D01*
X106220224Y-56855537D01*
X106205000Y-56779000D01*
X106205000Y-56379000D01*
X106220224Y-56302463D01*
X106263579Y-56237579D01*
X106328463Y-56194224D01*
X106405000Y-56179000D01*
X106955000Y-56179000D01*
X107031537Y-56194224D01*
G37*
G36*
X119731537Y-56194224D02*
G01*
X119796421Y-56237579D01*
X119839776Y-56302463D01*
X119855000Y-56379000D01*
X119855000Y-56779000D01*
X119839776Y-56855537D01*
X119796421Y-56920421D01*
X119731537Y-56963776D01*
X119655000Y-56979000D01*
X119105000Y-56979000D01*
X119028463Y-56963776D01*
X118963579Y-56920421D01*
X118920224Y-56855537D01*
X118905000Y-56779000D01*
X118905000Y-56379000D01*
X118920224Y-56302463D01*
X118963579Y-56237579D01*
X119028463Y-56194224D01*
X119105000Y-56179000D01*
X119655000Y-56179000D01*
X119731537Y-56194224D01*
G37*
G36*
X133675000Y-56900000D02*
G01*
X132875000Y-56900000D01*
X132875000Y-56100000D01*
X133675000Y-56100000D01*
X133675000Y-56900000D01*
G37*
G36*
X134925000Y-56900000D02*
G01*
X134125000Y-56900000D01*
X134125000Y-56100000D01*
X134925000Y-56100000D01*
X134925000Y-56900000D01*
G37*
G36*
X136175000Y-56900000D02*
G01*
X135375000Y-56900000D01*
X135375000Y-56100000D01*
X136175000Y-56100000D01*
X136175000Y-56900000D01*
G37*
G36*
X100007403Y-56226418D02*
G01*
X100056066Y-56258934D01*
X100088582Y-56307597D01*
X100100000Y-56365000D01*
X100100000Y-56665000D01*
X100088582Y-56722403D01*
X100056066Y-56771066D01*
X100007403Y-56803582D01*
X99950000Y-56815000D01*
X98300000Y-56815000D01*
X98242597Y-56803582D01*
X98193934Y-56771066D01*
X98161418Y-56722403D01*
X98150000Y-56665000D01*
X98150000Y-56365000D01*
X98161418Y-56307597D01*
X98193934Y-56258934D01*
X98242597Y-56226418D01*
X98300000Y-56215000D01*
X99950000Y-56215000D01*
X100007403Y-56226418D01*
G37*
G36*
X104957403Y-56226418D02*
G01*
X105006066Y-56258934D01*
X105038582Y-56307597D01*
X105050000Y-56365000D01*
X105050000Y-56665000D01*
X105038582Y-56722403D01*
X105006066Y-56771066D01*
X104957403Y-56803582D01*
X104900000Y-56815000D01*
X103250000Y-56815000D01*
X103192597Y-56803582D01*
X103143934Y-56771066D01*
X103111418Y-56722403D01*
X103100000Y-56665000D01*
X103100000Y-56365000D01*
X103111418Y-56307597D01*
X103143934Y-56258934D01*
X103192597Y-56226418D01*
X103250000Y-56215000D01*
X104900000Y-56215000D01*
X104957403Y-56226418D01*
G37*
G36*
X83211403Y-55845418D02*
G01*
X83260066Y-55877934D01*
X83292582Y-55926597D01*
X83304000Y-55984000D01*
X83304000Y-56284000D01*
X83292582Y-56341403D01*
X83260066Y-56390066D01*
X83211403Y-56422582D01*
X83154000Y-56434000D01*
X81504000Y-56434000D01*
X81446597Y-56422582D01*
X81397934Y-56390066D01*
X81365418Y-56341403D01*
X81354000Y-56284000D01*
X81354000Y-55984000D01*
X81365418Y-55926597D01*
X81397934Y-55877934D01*
X81446597Y-55845418D01*
X81504000Y-55834000D01*
X83154000Y-55834000D01*
X83211403Y-55845418D01*
G37*
G36*
X88161403Y-55845418D02*
G01*
X88210066Y-55877934D01*
X88242582Y-55926597D01*
X88254000Y-55984000D01*
X88254000Y-56284000D01*
X88242582Y-56341403D01*
X88210066Y-56390066D01*
X88161403Y-56422582D01*
X88104000Y-56434000D01*
X86454000Y-56434000D01*
X86396597Y-56422582D01*
X86347934Y-56390066D01*
X86315418Y-56341403D01*
X86304000Y-56284000D01*
X86304000Y-55984000D01*
X86315418Y-55926597D01*
X86347934Y-55877934D01*
X86396597Y-55845418D01*
X86454000Y-55834000D01*
X88104000Y-55834000D01*
X88161403Y-55845418D01*
G37*
G36*
X128030000Y-56330000D02*
G01*
X126530000Y-56330000D01*
X126530000Y-55430000D01*
X128030000Y-55430000D01*
X128030000Y-56330000D01*
G37*
G36*
X145530000Y-56330000D02*
G01*
X144030000Y-56330000D01*
X144030000Y-55430000D01*
X145530000Y-55430000D01*
X145530000Y-56330000D01*
G37*
G36*
X73941811Y-54507362D02*
G01*
X73983588Y-54507362D01*
X74030718Y-54517379D01*
X74078017Y-54522709D01*
X74112408Y-54534743D01*
X74147110Y-54542119D01*
X74197117Y-54564384D01*
X74247107Y-54581876D01*
X74273128Y-54598226D01*
X74299835Y-54610117D01*
X74349633Y-54646297D01*
X74398792Y-54677186D01*
X74416444Y-54694838D01*
X74435084Y-54708381D01*
X74481165Y-54759559D01*
X74525465Y-54803859D01*
X74535654Y-54820075D01*
X74546946Y-54832616D01*
X74585573Y-54899521D01*
X74620775Y-54955544D01*
X74625170Y-54968104D01*
X74630535Y-54977397D01*
X74658010Y-55061956D01*
X74679942Y-55124634D01*
X74680773Y-55132014D01*
X74682195Y-55136389D01*
X74695076Y-55258957D01*
X74700000Y-55302651D01*
X74695076Y-55346348D01*
X74682195Y-55468912D01*
X74680773Y-55473286D01*
X74679942Y-55480668D01*
X74658005Y-55543358D01*
X74630535Y-55627904D01*
X74625171Y-55637194D01*
X74620775Y-55649758D01*
X74585566Y-55705791D01*
X74546946Y-55772685D01*
X74535656Y-55785223D01*
X74525465Y-55801443D01*
X74481155Y-55845752D01*
X74435084Y-55896920D01*
X74416448Y-55910459D01*
X74398792Y-55928116D01*
X74349623Y-55959010D01*
X74299835Y-55995184D01*
X74273134Y-56007072D01*
X74247107Y-56023426D01*
X74197107Y-56040921D01*
X74147110Y-56063182D01*
X74112414Y-56070556D01*
X74078017Y-56082593D01*
X74030715Y-56087922D01*
X73983588Y-56097940D01*
X73941811Y-56097940D01*
X73900000Y-56102651D01*
X73858189Y-56097940D01*
X73816412Y-56097940D01*
X73769284Y-56087922D01*
X73721983Y-56082593D01*
X73687586Y-56070557D01*
X73652889Y-56063182D01*
X73602887Y-56040919D01*
X73552893Y-56023426D01*
X73526868Y-56007073D01*
X73500164Y-55995184D01*
X73450369Y-55959006D01*
X73401208Y-55928116D01*
X73383554Y-55910462D01*
X73364915Y-55896920D01*
X73318833Y-55845741D01*
X73274535Y-55801443D01*
X73264345Y-55785226D01*
X73253053Y-55772685D01*
X73214420Y-55705771D01*
X73179225Y-55649758D01*
X73174830Y-55637198D01*
X73169464Y-55627904D01*
X73141980Y-55543318D01*
X73120058Y-55480668D01*
X73119226Y-55473290D01*
X73117804Y-55468912D01*
X73104908Y-55346216D01*
X73100000Y-55302651D01*
X73104908Y-55259089D01*
X73117804Y-55136389D01*
X73119226Y-55132009D01*
X73120058Y-55124634D01*
X73141975Y-55061996D01*
X73169464Y-54977397D01*
X73174831Y-54968100D01*
X73179225Y-54955544D01*
X73214413Y-54899541D01*
X73253053Y-54832616D01*
X73264347Y-54820072D01*
X73274535Y-54803859D01*
X73318826Y-54759567D01*
X73364917Y-54708379D01*
X73383559Y-54694834D01*
X73401208Y-54677186D01*
X73450354Y-54646305D01*
X73500162Y-54610118D01*
X73526873Y-54598225D01*
X73552893Y-54581876D01*
X73602877Y-54564385D01*
X73652889Y-54542119D01*
X73687592Y-54534742D01*
X73721983Y-54522709D01*
X73769281Y-54517379D01*
X73816412Y-54507362D01*
X73858189Y-54507362D01*
X73900000Y-54502651D01*
X73941811Y-54507362D01*
G37*
G36*
X97253850Y-54750964D02*
G01*
X97304040Y-54756787D01*
X97321189Y-54764359D01*
X97344671Y-54769030D01*
X97369810Y-54785827D01*
X97389696Y-54794608D01*
X97403277Y-54808189D01*
X97425777Y-54823223D01*
X97440810Y-54845722D01*
X97454391Y-54859303D01*
X97463170Y-54879186D01*
X97479970Y-54904329D01*
X97484641Y-54927812D01*
X97492212Y-54944959D01*
X97498033Y-54995139D01*
X97499000Y-55000000D01*
X97499000Y-55500000D01*
X97498032Y-55504863D01*
X97492212Y-55555040D01*
X97484641Y-55572185D01*
X97479970Y-55595671D01*
X97463169Y-55620815D01*
X97454391Y-55640696D01*
X97440812Y-55654274D01*
X97425777Y-55676777D01*
X97403274Y-55691812D01*
X97389696Y-55705391D01*
X97369815Y-55714169D01*
X97344671Y-55730970D01*
X97321185Y-55735641D01*
X97304040Y-55743212D01*
X97253861Y-55749032D01*
X97249000Y-55750000D01*
X96299000Y-55750000D01*
X96294138Y-55749032D01*
X96243959Y-55743212D01*
X96226812Y-55735641D01*
X96203329Y-55730970D01*
X96178186Y-55714170D01*
X96158303Y-55705391D01*
X96144722Y-55691810D01*
X96122223Y-55676777D01*
X96107189Y-55654277D01*
X96093608Y-55640696D01*
X96084827Y-55620810D01*
X96068030Y-55595671D01*
X96063359Y-55572189D01*
X96055787Y-55555040D01*
X96049964Y-55504849D01*
X96049000Y-55500000D01*
X96049000Y-55000000D01*
X96049964Y-54995150D01*
X96055787Y-54944959D01*
X96063359Y-54927808D01*
X96068030Y-54904329D01*
X96084826Y-54879191D01*
X96093608Y-54859303D01*
X96107191Y-54845719D01*
X96122223Y-54823223D01*
X96144719Y-54808191D01*
X96158303Y-54794608D01*
X96178191Y-54785826D01*
X96203329Y-54769030D01*
X96226808Y-54764359D01*
X96243959Y-54756787D01*
X96294151Y-54750964D01*
X96299000Y-54750000D01*
X97249000Y-54750000D01*
X97253850Y-54750964D01*
G37*
G36*
X133675000Y-55650000D02*
G01*
X132875000Y-55650000D01*
X132875000Y-54850000D01*
X133675000Y-54850000D01*
X133675000Y-55650000D01*
G37*
G36*
X134925000Y-55650000D02*
G01*
X134125000Y-55650000D01*
X134125000Y-54850000D01*
X134925000Y-54850000D01*
X134925000Y-55650000D01*
G37*
G36*
X136175000Y-55650000D02*
G01*
X135375000Y-55650000D01*
X135375000Y-54850000D01*
X136175000Y-54850000D01*
X136175000Y-55650000D01*
G37*
G36*
X100007403Y-54956418D02*
G01*
X100056066Y-54988934D01*
X100088582Y-55037597D01*
X100100000Y-55095000D01*
X100100000Y-55395000D01*
X100088582Y-55452403D01*
X100056066Y-55501066D01*
X100007403Y-55533582D01*
X99950000Y-55545000D01*
X98300000Y-55545000D01*
X98242597Y-55533582D01*
X98193934Y-55501066D01*
X98161418Y-55452403D01*
X98150000Y-55395000D01*
X98150000Y-55095000D01*
X98161418Y-55037597D01*
X98193934Y-54988934D01*
X98242597Y-54956418D01*
X98300000Y-54945000D01*
X99950000Y-54945000D01*
X100007403Y-54956418D01*
G37*
G36*
X104957403Y-54956418D02*
G01*
X105006066Y-54988934D01*
X105038582Y-55037597D01*
X105050000Y-55095000D01*
X105050000Y-55395000D01*
X105038582Y-55452403D01*
X105006066Y-55501066D01*
X104957403Y-55533582D01*
X104900000Y-55545000D01*
X103250000Y-55545000D01*
X103192597Y-55533582D01*
X103143934Y-55501066D01*
X103111418Y-55452403D01*
X103100000Y-55395000D01*
X103100000Y-55095000D01*
X103111418Y-55037597D01*
X103143934Y-54988934D01*
X103192597Y-54956418D01*
X103250000Y-54945000D01*
X104900000Y-54945000D01*
X104957403Y-54956418D01*
G37*
G36*
X79981850Y-54430964D02*
G01*
X80032040Y-54436787D01*
X80049189Y-54444359D01*
X80072671Y-54449030D01*
X80097810Y-54465827D01*
X80117696Y-54474608D01*
X80131277Y-54488189D01*
X80153777Y-54503223D01*
X80168810Y-54525722D01*
X80182391Y-54539303D01*
X80191170Y-54559186D01*
X80207970Y-54584329D01*
X80212641Y-54607812D01*
X80220212Y-54624959D01*
X80226033Y-54675139D01*
X80227000Y-54680000D01*
X80227000Y-55180000D01*
X80226032Y-55184863D01*
X80220212Y-55235040D01*
X80212641Y-55252185D01*
X80207970Y-55275671D01*
X80191169Y-55300815D01*
X80182391Y-55320696D01*
X80168812Y-55334274D01*
X80153777Y-55356777D01*
X80131274Y-55371812D01*
X80117696Y-55385391D01*
X80097815Y-55394169D01*
X80072671Y-55410970D01*
X80049185Y-55415641D01*
X80032040Y-55423212D01*
X79981861Y-55429032D01*
X79977000Y-55430000D01*
X79027000Y-55430000D01*
X79022138Y-55429032D01*
X78971959Y-55423212D01*
X78954812Y-55415641D01*
X78931329Y-55410970D01*
X78906186Y-55394170D01*
X78886303Y-55385391D01*
X78872722Y-55371810D01*
X78850223Y-55356777D01*
X78835189Y-55334277D01*
X78821608Y-55320696D01*
X78812827Y-55300810D01*
X78796030Y-55275671D01*
X78791359Y-55252189D01*
X78783787Y-55235040D01*
X78777964Y-55184849D01*
X78777000Y-55180000D01*
X78777000Y-54680000D01*
X78777964Y-54675150D01*
X78783787Y-54624959D01*
X78791359Y-54607808D01*
X78796030Y-54584329D01*
X78812826Y-54559191D01*
X78821608Y-54539303D01*
X78835191Y-54525719D01*
X78850223Y-54503223D01*
X78872719Y-54488191D01*
X78886303Y-54474608D01*
X78906191Y-54465826D01*
X78931329Y-54449030D01*
X78954808Y-54444359D01*
X78971959Y-54436787D01*
X79022151Y-54430964D01*
X79027000Y-54430000D01*
X79977000Y-54430000D01*
X79981850Y-54430964D01*
G37*
G36*
X94643552Y-54792564D02*
G01*
X94680050Y-54816950D01*
X94704436Y-54853448D01*
X94713000Y-54896500D01*
X94713000Y-55271500D01*
X94704436Y-55314552D01*
X94680050Y-55351050D01*
X94643552Y-55375436D01*
X94600500Y-55384000D01*
X94375500Y-55384000D01*
X94332448Y-55375436D01*
X94295950Y-55351050D01*
X94271564Y-55314552D01*
X94263000Y-55271500D01*
X94263000Y-54896500D01*
X94271564Y-54853448D01*
X94295950Y-54816950D01*
X94332448Y-54792564D01*
X94375500Y-54784000D01*
X94600500Y-54784000D01*
X94643552Y-54792564D01*
G37*
G36*
X83211403Y-54575418D02*
G01*
X83260066Y-54607934D01*
X83292582Y-54656597D01*
X83304000Y-54714000D01*
X83304000Y-55014000D01*
X83292582Y-55071403D01*
X83260066Y-55120066D01*
X83211403Y-55152582D01*
X83154000Y-55164000D01*
X81504000Y-55164000D01*
X81446597Y-55152582D01*
X81397934Y-55120066D01*
X81365418Y-55071403D01*
X81354000Y-55014000D01*
X81354000Y-54714000D01*
X81365418Y-54656597D01*
X81397934Y-54607934D01*
X81446597Y-54575418D01*
X81504000Y-54564000D01*
X83154000Y-54564000D01*
X83211403Y-54575418D01*
G37*
G36*
X88161403Y-54575418D02*
G01*
X88210066Y-54607934D01*
X88242582Y-54656597D01*
X88254000Y-54714000D01*
X88254000Y-55014000D01*
X88242582Y-55071403D01*
X88210066Y-55120066D01*
X88161403Y-55152582D01*
X88104000Y-55164000D01*
X86454000Y-55164000D01*
X86396597Y-55152582D01*
X86347934Y-55120066D01*
X86315418Y-55071403D01*
X86304000Y-55014000D01*
X86304000Y-54714000D01*
X86315418Y-54656597D01*
X86347934Y-54607934D01*
X86396597Y-54575418D01*
X86454000Y-54564000D01*
X88104000Y-54564000D01*
X88161403Y-54575418D01*
G37*
G36*
X119731537Y-54288224D02*
G01*
X119796421Y-54331579D01*
X119839776Y-54396463D01*
X119855000Y-54473000D01*
X119855000Y-54873000D01*
X119839776Y-54949537D01*
X119796421Y-55014421D01*
X119731537Y-55057776D01*
X119655000Y-55073000D01*
X119105000Y-55073000D01*
X119028463Y-55057776D01*
X118963579Y-55014421D01*
X118920224Y-54949537D01*
X118905000Y-54873000D01*
X118905000Y-54473000D01*
X118920224Y-54396463D01*
X118963579Y-54331579D01*
X119028463Y-54288224D01*
X119105000Y-54273000D01*
X119655000Y-54273000D01*
X119731537Y-54288224D01*
G37*
G36*
X128030000Y-55060000D02*
G01*
X126530000Y-55060000D01*
X126530000Y-54160000D01*
X128030000Y-54160000D01*
X128030000Y-55060000D01*
G37*
G36*
X145530000Y-55060000D02*
G01*
X144030000Y-55060000D01*
X144030000Y-54160000D01*
X145530000Y-54160000D01*
X145530000Y-55060000D01*
G37*
G36*
X107031537Y-54034224D02*
G01*
X107096421Y-54077579D01*
X107139776Y-54142463D01*
X107155000Y-54219000D01*
X107155000Y-54619000D01*
X107139776Y-54695537D01*
X107096421Y-54760421D01*
X107031537Y-54803776D01*
X106955000Y-54819000D01*
X106405000Y-54819000D01*
X106328463Y-54803776D01*
X106263579Y-54760421D01*
X106220224Y-54695537D01*
X106205000Y-54619000D01*
X106205000Y-54219000D01*
X106220224Y-54142463D01*
X106263579Y-54077579D01*
X106328463Y-54034224D01*
X106405000Y-54019000D01*
X106955000Y-54019000D01*
X107031537Y-54034224D01*
G37*
G36*
X89673268Y-54326612D02*
G01*
X89705711Y-54348289D01*
X89727388Y-54380732D01*
X89735000Y-54419000D01*
X89735000Y-54679000D01*
X89727388Y-54717268D01*
X89705711Y-54749711D01*
X89673268Y-54771388D01*
X89635000Y-54779000D01*
X89435000Y-54779000D01*
X89396732Y-54771388D01*
X89364289Y-54749711D01*
X89342612Y-54717268D01*
X89335000Y-54679000D01*
X89335000Y-54419000D01*
X89342612Y-54380732D01*
X89364289Y-54348289D01*
X89396732Y-54326612D01*
X89435000Y-54319000D01*
X89635000Y-54319000D01*
X89673268Y-54326612D01*
G37*
G36*
X133675000Y-54400000D02*
G01*
X132875000Y-54400000D01*
X132875000Y-53600000D01*
X133675000Y-53600000D01*
X133675000Y-54400000D01*
G37*
G36*
X134925000Y-54400000D02*
G01*
X134125000Y-54400000D01*
X134125000Y-53600000D01*
X134925000Y-53600000D01*
X134925000Y-54400000D01*
G37*
G36*
X136175000Y-54400000D02*
G01*
X135375000Y-54400000D01*
X135375000Y-53600000D01*
X136175000Y-53600000D01*
X136175000Y-54400000D01*
G37*
G36*
X100007403Y-53686418D02*
G01*
X100056066Y-53718934D01*
X100088582Y-53767597D01*
X100100000Y-53825000D01*
X100100000Y-54125000D01*
X100088582Y-54182403D01*
X100056066Y-54231066D01*
X100007403Y-54263582D01*
X99950000Y-54275000D01*
X98300000Y-54275000D01*
X98242597Y-54263582D01*
X98193934Y-54231066D01*
X98161418Y-54182403D01*
X98150000Y-54125000D01*
X98150000Y-53825000D01*
X98161418Y-53767597D01*
X98193934Y-53718934D01*
X98242597Y-53686418D01*
X98300000Y-53675000D01*
X99950000Y-53675000D01*
X100007403Y-53686418D01*
G37*
G36*
X104957403Y-53686418D02*
G01*
X105006066Y-53718934D01*
X105038582Y-53767597D01*
X105050000Y-53825000D01*
X105050000Y-54125000D01*
X105038582Y-54182403D01*
X105006066Y-54231066D01*
X104957403Y-54263582D01*
X104900000Y-54275000D01*
X103250000Y-54275000D01*
X103192597Y-54263582D01*
X103143934Y-54231066D01*
X103111418Y-54182403D01*
X103100000Y-54125000D01*
X103100000Y-53825000D01*
X103111418Y-53767597D01*
X103143934Y-53718934D01*
X103192597Y-53686418D01*
X103250000Y-53675000D01*
X104900000Y-53675000D01*
X104957403Y-53686418D01*
G37*
G36*
X89673268Y-53686612D02*
G01*
X89705711Y-53708289D01*
X89727388Y-53740732D01*
X89735000Y-53779000D01*
X89735000Y-54039000D01*
X89727388Y-54077268D01*
X89705711Y-54109711D01*
X89673268Y-54131388D01*
X89635000Y-54139000D01*
X89435000Y-54139000D01*
X89396732Y-54131388D01*
X89364289Y-54109711D01*
X89342612Y-54077268D01*
X89335000Y-54039000D01*
X89335000Y-53779000D01*
X89342612Y-53740732D01*
X89364289Y-53708289D01*
X89396732Y-53686612D01*
X89435000Y-53679000D01*
X89635000Y-53679000D01*
X89673268Y-53686612D01*
G37*
G36*
X97253850Y-53094964D02*
G01*
X97304040Y-53100787D01*
X97321189Y-53108359D01*
X97344671Y-53113030D01*
X97369810Y-53129827D01*
X97389696Y-53138608D01*
X97403277Y-53152189D01*
X97425777Y-53167223D01*
X97440810Y-53189722D01*
X97454391Y-53203303D01*
X97463170Y-53223186D01*
X97479970Y-53248329D01*
X97484641Y-53271812D01*
X97492212Y-53288959D01*
X97498033Y-53339139D01*
X97499000Y-53344000D01*
X97499000Y-53844000D01*
X97498032Y-53848863D01*
X97492212Y-53899040D01*
X97484641Y-53916185D01*
X97479970Y-53939671D01*
X97463169Y-53964815D01*
X97454391Y-53984696D01*
X97440812Y-53998274D01*
X97425777Y-54020777D01*
X97403274Y-54035812D01*
X97389696Y-54049391D01*
X97369815Y-54058169D01*
X97344671Y-54074970D01*
X97321185Y-54079641D01*
X97304040Y-54087212D01*
X97253861Y-54093032D01*
X97249000Y-54094000D01*
X96299000Y-54094000D01*
X96294138Y-54093032D01*
X96243959Y-54087212D01*
X96226812Y-54079641D01*
X96203329Y-54074970D01*
X96178186Y-54058170D01*
X96158303Y-54049391D01*
X96144722Y-54035810D01*
X96122223Y-54020777D01*
X96107189Y-53998277D01*
X96093608Y-53984696D01*
X96084827Y-53964810D01*
X96068030Y-53939671D01*
X96063359Y-53916189D01*
X96055787Y-53899040D01*
X96049964Y-53848849D01*
X96049000Y-53844000D01*
X96049000Y-53344000D01*
X96049964Y-53339150D01*
X96055787Y-53288959D01*
X96063359Y-53271808D01*
X96068030Y-53248329D01*
X96084826Y-53223191D01*
X96093608Y-53203303D01*
X96107191Y-53189719D01*
X96122223Y-53167223D01*
X96144719Y-53152191D01*
X96158303Y-53138608D01*
X96178191Y-53129826D01*
X96203329Y-53113030D01*
X96226808Y-53108359D01*
X96243959Y-53100787D01*
X96294151Y-53094964D01*
X96299000Y-53094000D01*
X97249000Y-53094000D01*
X97253850Y-53094964D01*
G37*
G36*
X83211403Y-53305418D02*
G01*
X83260066Y-53337934D01*
X83292582Y-53386597D01*
X83304000Y-53444000D01*
X83304000Y-53744000D01*
X83292582Y-53801403D01*
X83260066Y-53850066D01*
X83211403Y-53882582D01*
X83154000Y-53894000D01*
X81504000Y-53894000D01*
X81446597Y-53882582D01*
X81397934Y-53850066D01*
X81365418Y-53801403D01*
X81354000Y-53744000D01*
X81354000Y-53444000D01*
X81365418Y-53386597D01*
X81397934Y-53337934D01*
X81446597Y-53305418D01*
X81504000Y-53294000D01*
X83154000Y-53294000D01*
X83211403Y-53305418D01*
G37*
G36*
X88161403Y-53305418D02*
G01*
X88210066Y-53337934D01*
X88242582Y-53386597D01*
X88254000Y-53444000D01*
X88254000Y-53744000D01*
X88242582Y-53801403D01*
X88210066Y-53850066D01*
X88161403Y-53882582D01*
X88104000Y-53894000D01*
X86454000Y-53894000D01*
X86396597Y-53882582D01*
X86347934Y-53850066D01*
X86315418Y-53801403D01*
X86304000Y-53744000D01*
X86304000Y-53444000D01*
X86315418Y-53386597D01*
X86347934Y-53337934D01*
X86396597Y-53305418D01*
X86454000Y-53294000D01*
X88104000Y-53294000D01*
X88161403Y-53305418D01*
G37*
G36*
X122748850Y-52361964D02*
G01*
X122799040Y-52367787D01*
X122816189Y-52375359D01*
X122839671Y-52380030D01*
X122864810Y-52396827D01*
X122884696Y-52405608D01*
X122898277Y-52419189D01*
X122920777Y-52434223D01*
X122935810Y-52456722D01*
X122949391Y-52470303D01*
X122958170Y-52490186D01*
X122974970Y-52515329D01*
X122979641Y-52538812D01*
X122987212Y-52555959D01*
X122993033Y-52606139D01*
X122994000Y-52611000D01*
X122994000Y-53561000D01*
X122993032Y-53565863D01*
X122987212Y-53616040D01*
X122979641Y-53633185D01*
X122974970Y-53656671D01*
X122958169Y-53681815D01*
X122949391Y-53701696D01*
X122935812Y-53715274D01*
X122920777Y-53737777D01*
X122898274Y-53752812D01*
X122884696Y-53766391D01*
X122864815Y-53775169D01*
X122839671Y-53791970D01*
X122816185Y-53796641D01*
X122799040Y-53804212D01*
X122748861Y-53810032D01*
X122744000Y-53811000D01*
X122244000Y-53811000D01*
X122239138Y-53810032D01*
X122188959Y-53804212D01*
X122171812Y-53796641D01*
X122148329Y-53791970D01*
X122123186Y-53775170D01*
X122103303Y-53766391D01*
X122089722Y-53752810D01*
X122067223Y-53737777D01*
X122052189Y-53715277D01*
X122038608Y-53701696D01*
X122029827Y-53681810D01*
X122013030Y-53656671D01*
X122008359Y-53633189D01*
X122000787Y-53616040D01*
X121994964Y-53565849D01*
X121994000Y-53561000D01*
X121994000Y-52611000D01*
X121994964Y-52606150D01*
X122000787Y-52555959D01*
X122008359Y-52538808D01*
X122013030Y-52515329D01*
X122029826Y-52490191D01*
X122038608Y-52470303D01*
X122052191Y-52456719D01*
X122067223Y-52434223D01*
X122089719Y-52419191D01*
X122103303Y-52405608D01*
X122123191Y-52396826D01*
X122148329Y-52380030D01*
X122171808Y-52375359D01*
X122188959Y-52367787D01*
X122239151Y-52361964D01*
X122244000Y-52361000D01*
X122744000Y-52361000D01*
X122748850Y-52361964D01*
G37*
G36*
X124648850Y-52361964D02*
G01*
X124699040Y-52367787D01*
X124716189Y-52375359D01*
X124739671Y-52380030D01*
X124764810Y-52396827D01*
X124784696Y-52405608D01*
X124798277Y-52419189D01*
X124820777Y-52434223D01*
X124835810Y-52456722D01*
X124849391Y-52470303D01*
X124858170Y-52490186D01*
X124874970Y-52515329D01*
X124879641Y-52538812D01*
X124887212Y-52555959D01*
X124893033Y-52606139D01*
X124894000Y-52611000D01*
X124894000Y-53561000D01*
X124893032Y-53565863D01*
X124887212Y-53616040D01*
X124879641Y-53633185D01*
X124874970Y-53656671D01*
X124858169Y-53681815D01*
X124849391Y-53701696D01*
X124835812Y-53715274D01*
X124820777Y-53737777D01*
X124798274Y-53752812D01*
X124784696Y-53766391D01*
X124764815Y-53775169D01*
X124739671Y-53791970D01*
X124716185Y-53796641D01*
X124699040Y-53804212D01*
X124648861Y-53810032D01*
X124644000Y-53811000D01*
X124144000Y-53811000D01*
X124139138Y-53810032D01*
X124088959Y-53804212D01*
X124071812Y-53796641D01*
X124048329Y-53791970D01*
X124023186Y-53775170D01*
X124003303Y-53766391D01*
X123989722Y-53752810D01*
X123967223Y-53737777D01*
X123952189Y-53715277D01*
X123938608Y-53701696D01*
X123929827Y-53681810D01*
X123913030Y-53656671D01*
X123908359Y-53633189D01*
X123900787Y-53616040D01*
X123894964Y-53565849D01*
X123894000Y-53561000D01*
X123894000Y-52611000D01*
X123894964Y-52606150D01*
X123900787Y-52555959D01*
X123908359Y-52538808D01*
X123913030Y-52515329D01*
X123929826Y-52490191D01*
X123938608Y-52470303D01*
X123952191Y-52456719D01*
X123967223Y-52434223D01*
X123989719Y-52419191D01*
X124003303Y-52405608D01*
X124023191Y-52396826D01*
X124048329Y-52380030D01*
X124071808Y-52375359D01*
X124088959Y-52367787D01*
X124139151Y-52361964D01*
X124144000Y-52361000D01*
X124644000Y-52361000D01*
X124648850Y-52361964D01*
G37*
G36*
X128030000Y-53790000D02*
G01*
X126530000Y-53790000D01*
X126530000Y-52890000D01*
X128030000Y-52890000D01*
X128030000Y-53790000D01*
G37*
G36*
X145530000Y-53790000D02*
G01*
X144030000Y-53790000D01*
X144030000Y-52890000D01*
X145530000Y-52890000D01*
X145530000Y-53790000D01*
G37*
G36*
X119731537Y-52638224D02*
G01*
X119796421Y-52681579D01*
X119839776Y-52746463D01*
X119855000Y-52823000D01*
X119855000Y-53223000D01*
X119839776Y-53299537D01*
X119796421Y-53364421D01*
X119731537Y-53407776D01*
X119655000Y-53423000D01*
X119105000Y-53423000D01*
X119028463Y-53407776D01*
X118963579Y-53364421D01*
X118920224Y-53299537D01*
X118905000Y-53223000D01*
X118905000Y-52823000D01*
X118920224Y-52746463D01*
X118963579Y-52681579D01*
X119028463Y-52638224D01*
X119105000Y-52623000D01*
X119655000Y-52623000D01*
X119731537Y-52638224D01*
G37*
G36*
X68797060Y-50838990D02*
G01*
X69007525Y-50895384D01*
X69205000Y-50987468D01*
X69383485Y-51112444D01*
X69537556Y-51266515D01*
X69662532Y-51445000D01*
X69754616Y-51642475D01*
X69811010Y-51852940D01*
X69830000Y-52070000D01*
X69811010Y-52287060D01*
X69754616Y-52497525D01*
X69662532Y-52695000D01*
X69537556Y-52873485D01*
X69383485Y-53027556D01*
X69205000Y-53152532D01*
X69007525Y-53244616D01*
X68797060Y-53301010D01*
X68580000Y-53320000D01*
X68362940Y-53301010D01*
X68152475Y-53244616D01*
X67955000Y-53152532D01*
X67776515Y-53027556D01*
X67622444Y-52873485D01*
X67497468Y-52695000D01*
X67405384Y-52497525D01*
X67348990Y-52287060D01*
X67330000Y-52070000D01*
X67348990Y-51852940D01*
X67405384Y-51642475D01*
X67497468Y-51445000D01*
X67622444Y-51266515D01*
X67776515Y-51112444D01*
X67955000Y-50987468D01*
X68152475Y-50895384D01*
X68362940Y-50838990D01*
X68580000Y-50820000D01*
X68797060Y-50838990D01*
G37*
G36*
X107031537Y-52384224D02*
G01*
X107096421Y-52427579D01*
X107139776Y-52492463D01*
X107155000Y-52569000D01*
X107155000Y-52969000D01*
X107139776Y-53045537D01*
X107096421Y-53110421D01*
X107031537Y-53153776D01*
X106955000Y-53169000D01*
X106405000Y-53169000D01*
X106328463Y-53153776D01*
X106263579Y-53110421D01*
X106220224Y-53045537D01*
X106205000Y-52969000D01*
X106205000Y-52569000D01*
X106220224Y-52492463D01*
X106263579Y-52427579D01*
X106328463Y-52384224D01*
X106405000Y-52369000D01*
X106955000Y-52369000D01*
X107031537Y-52384224D01*
G37*
G36*
X100007403Y-52416418D02*
G01*
X100056066Y-52448934D01*
X100088582Y-52497597D01*
X100100000Y-52555000D01*
X100100000Y-52855000D01*
X100088582Y-52912403D01*
X100056066Y-52961066D01*
X100007403Y-52993582D01*
X99950000Y-53005000D01*
X98300000Y-53005000D01*
X98242597Y-52993582D01*
X98193934Y-52961066D01*
X98161418Y-52912403D01*
X98150000Y-52855000D01*
X98150000Y-52555000D01*
X98161418Y-52497597D01*
X98193934Y-52448934D01*
X98242597Y-52416418D01*
X98300000Y-52405000D01*
X99950000Y-52405000D01*
X100007403Y-52416418D01*
G37*
G36*
X104957403Y-52416418D02*
G01*
X105006066Y-52448934D01*
X105038582Y-52497597D01*
X105050000Y-52555000D01*
X105050000Y-52855000D01*
X105038582Y-52912403D01*
X105006066Y-52961066D01*
X104957403Y-52993582D01*
X104900000Y-53005000D01*
X103250000Y-53005000D01*
X103192597Y-52993582D01*
X103143934Y-52961066D01*
X103111418Y-52912403D01*
X103100000Y-52855000D01*
X103100000Y-52555000D01*
X103111418Y-52497597D01*
X103143934Y-52448934D01*
X103192597Y-52416418D01*
X103250000Y-52405000D01*
X104900000Y-52405000D01*
X104957403Y-52416418D01*
G37*
G36*
X83211403Y-52035418D02*
G01*
X83260066Y-52067934D01*
X83292582Y-52116597D01*
X83304000Y-52174000D01*
X83304000Y-52474000D01*
X83292582Y-52531403D01*
X83260066Y-52580066D01*
X83211403Y-52612582D01*
X83154000Y-52624000D01*
X81504000Y-52624000D01*
X81446597Y-52612582D01*
X81397934Y-52580066D01*
X81365418Y-52531403D01*
X81354000Y-52474000D01*
X81354000Y-52174000D01*
X81365418Y-52116597D01*
X81397934Y-52067934D01*
X81446597Y-52035418D01*
X81504000Y-52024000D01*
X83154000Y-52024000D01*
X83211403Y-52035418D01*
G37*
G36*
X88161403Y-52035418D02*
G01*
X88210066Y-52067934D01*
X88242582Y-52116597D01*
X88254000Y-52174000D01*
X88254000Y-52474000D01*
X88242582Y-52531403D01*
X88210066Y-52580066D01*
X88161403Y-52612582D01*
X88104000Y-52624000D01*
X86454000Y-52624000D01*
X86396597Y-52612582D01*
X86347934Y-52580066D01*
X86315418Y-52531403D01*
X86304000Y-52474000D01*
X86304000Y-52174000D01*
X86315418Y-52116597D01*
X86347934Y-52067934D01*
X86396597Y-52035418D01*
X86454000Y-52024000D01*
X88104000Y-52024000D01*
X88161403Y-52035418D01*
G37*
G36*
X128030000Y-52520000D02*
G01*
X126530000Y-52520000D01*
X126530000Y-51620000D01*
X128030000Y-51620000D01*
X128030000Y-52520000D01*
G37*
G36*
X145530000Y-52520000D02*
G01*
X144030000Y-52520000D01*
X144030000Y-51620000D01*
X145530000Y-51620000D01*
X145530000Y-52520000D01*
G37*
G36*
X97253850Y-51194964D02*
G01*
X97304040Y-51200787D01*
X97321189Y-51208359D01*
X97344671Y-51213030D01*
X97369810Y-51229827D01*
X97389696Y-51238608D01*
X97403277Y-51252189D01*
X97425777Y-51267223D01*
X97440810Y-51289722D01*
X97454391Y-51303303D01*
X97463170Y-51323186D01*
X97479970Y-51348329D01*
X97484641Y-51371812D01*
X97492212Y-51388959D01*
X97498033Y-51439139D01*
X97499000Y-51444000D01*
X97499000Y-51944000D01*
X97498032Y-51948863D01*
X97492212Y-51999040D01*
X97484641Y-52016185D01*
X97479970Y-52039671D01*
X97463169Y-52064815D01*
X97454391Y-52084696D01*
X97440812Y-52098274D01*
X97425777Y-52120777D01*
X97403274Y-52135812D01*
X97389696Y-52149391D01*
X97369815Y-52158169D01*
X97344671Y-52174970D01*
X97321185Y-52179641D01*
X97304040Y-52187212D01*
X97253861Y-52193032D01*
X97249000Y-52194000D01*
X96299000Y-52194000D01*
X96294138Y-52193032D01*
X96243959Y-52187212D01*
X96226812Y-52179641D01*
X96203329Y-52174970D01*
X96178186Y-52158170D01*
X96158303Y-52149391D01*
X96144722Y-52135810D01*
X96122223Y-52120777D01*
X96107189Y-52098277D01*
X96093608Y-52084696D01*
X96084827Y-52064810D01*
X96068030Y-52039671D01*
X96063359Y-52016189D01*
X96055787Y-51999040D01*
X96049964Y-51948849D01*
X96049000Y-51944000D01*
X96049000Y-51444000D01*
X96049964Y-51439150D01*
X96055787Y-51388959D01*
X96063359Y-51371808D01*
X96068030Y-51348329D01*
X96084826Y-51323191D01*
X96093608Y-51303303D01*
X96107191Y-51289719D01*
X96122223Y-51267223D01*
X96144719Y-51252191D01*
X96158303Y-51238608D01*
X96178191Y-51229826D01*
X96203329Y-51213030D01*
X96226808Y-51208359D01*
X96243959Y-51200787D01*
X96294151Y-51194964D01*
X96299000Y-51194000D01*
X97249000Y-51194000D01*
X97253850Y-51194964D01*
G37*
G36*
X122748850Y-50075964D02*
G01*
X122799040Y-50081787D01*
X122816189Y-50089359D01*
X122839671Y-50094030D01*
X122864810Y-50110827D01*
X122884696Y-50119608D01*
X122898277Y-50133189D01*
X122920777Y-50148223D01*
X122935810Y-50170722D01*
X122949391Y-50184303D01*
X122958170Y-50204186D01*
X122974970Y-50229329D01*
X122979641Y-50252812D01*
X122987212Y-50269959D01*
X122993033Y-50320139D01*
X122994000Y-50325000D01*
X122994000Y-51275000D01*
X122993032Y-51279863D01*
X122987212Y-51330040D01*
X122979641Y-51347185D01*
X122974970Y-51370671D01*
X122958169Y-51395815D01*
X122949391Y-51415696D01*
X122935812Y-51429274D01*
X122920777Y-51451777D01*
X122898274Y-51466812D01*
X122884696Y-51480391D01*
X122864815Y-51489169D01*
X122839671Y-51505970D01*
X122816185Y-51510641D01*
X122799040Y-51518212D01*
X122748861Y-51524032D01*
X122744000Y-51525000D01*
X122244000Y-51525000D01*
X122239138Y-51524032D01*
X122188959Y-51518212D01*
X122171812Y-51510641D01*
X122148329Y-51505970D01*
X122123186Y-51489170D01*
X122103303Y-51480391D01*
X122089722Y-51466810D01*
X122067223Y-51451777D01*
X122052189Y-51429277D01*
X122038608Y-51415696D01*
X122029827Y-51395810D01*
X122013030Y-51370671D01*
X122008359Y-51347189D01*
X122000787Y-51330040D01*
X121994964Y-51279849D01*
X121994000Y-51275000D01*
X121994000Y-50325000D01*
X121994964Y-50320150D01*
X122000787Y-50269959D01*
X122008359Y-50252808D01*
X122013030Y-50229329D01*
X122029826Y-50204191D01*
X122038608Y-50184303D01*
X122052191Y-50170719D01*
X122067223Y-50148223D01*
X122089719Y-50133191D01*
X122103303Y-50119608D01*
X122123191Y-50110826D01*
X122148329Y-50094030D01*
X122171808Y-50089359D01*
X122188959Y-50081787D01*
X122239151Y-50075964D01*
X122244000Y-50075000D01*
X122744000Y-50075000D01*
X122748850Y-50075964D01*
G37*
G36*
X124648850Y-50075964D02*
G01*
X124699040Y-50081787D01*
X124716189Y-50089359D01*
X124739671Y-50094030D01*
X124764810Y-50110827D01*
X124784696Y-50119608D01*
X124798277Y-50133189D01*
X124820777Y-50148223D01*
X124835810Y-50170722D01*
X124849391Y-50184303D01*
X124858170Y-50204186D01*
X124874970Y-50229329D01*
X124879641Y-50252812D01*
X124887212Y-50269959D01*
X124893033Y-50320139D01*
X124894000Y-50325000D01*
X124894000Y-51275000D01*
X124893032Y-51279863D01*
X124887212Y-51330040D01*
X124879641Y-51347185D01*
X124874970Y-51370671D01*
X124858169Y-51395815D01*
X124849391Y-51415696D01*
X124835812Y-51429274D01*
X124820777Y-51451777D01*
X124798274Y-51466812D01*
X124784696Y-51480391D01*
X124764815Y-51489169D01*
X124739671Y-51505970D01*
X124716185Y-51510641D01*
X124699040Y-51518212D01*
X124648861Y-51524032D01*
X124644000Y-51525000D01*
X124144000Y-51525000D01*
X124139138Y-51524032D01*
X124088959Y-51518212D01*
X124071812Y-51510641D01*
X124048329Y-51505970D01*
X124023186Y-51489170D01*
X124003303Y-51480391D01*
X123989722Y-51466810D01*
X123967223Y-51451777D01*
X123952189Y-51429277D01*
X123938608Y-51415696D01*
X123929827Y-51395810D01*
X123913030Y-51370671D01*
X123908359Y-51347189D01*
X123900787Y-51330040D01*
X123894964Y-51279849D01*
X123894000Y-51275000D01*
X123894000Y-50325000D01*
X123894964Y-50320150D01*
X123900787Y-50269959D01*
X123908359Y-50252808D01*
X123913030Y-50229329D01*
X123929826Y-50204191D01*
X123938608Y-50184303D01*
X123952191Y-50170719D01*
X123967223Y-50148223D01*
X123989719Y-50133191D01*
X124003303Y-50119608D01*
X124023191Y-50110826D01*
X124048329Y-50094030D01*
X124071808Y-50089359D01*
X124088959Y-50081787D01*
X124139151Y-50075964D01*
X124144000Y-50075000D01*
X124644000Y-50075000D01*
X124648850Y-50075964D01*
G37*
G36*
X119731537Y-50732224D02*
G01*
X119796421Y-50775579D01*
X119839776Y-50840463D01*
X119855000Y-50917000D01*
X119855000Y-51317000D01*
X119839776Y-51393537D01*
X119796421Y-51458421D01*
X119731537Y-51501776D01*
X119655000Y-51517000D01*
X119105000Y-51517000D01*
X119028463Y-51501776D01*
X118963579Y-51458421D01*
X118920224Y-51393537D01*
X118905000Y-51317000D01*
X118905000Y-50917000D01*
X118920224Y-50840463D01*
X118963579Y-50775579D01*
X119028463Y-50732224D01*
X119105000Y-50717000D01*
X119655000Y-50717000D01*
X119731537Y-50732224D01*
G37*
G36*
X128030000Y-51250000D02*
G01*
X126530000Y-51250000D01*
X126530000Y-50350000D01*
X128030000Y-50350000D01*
X128030000Y-51250000D01*
G37*
G36*
X145530000Y-51250000D02*
G01*
X144030000Y-51250000D01*
X144030000Y-50350000D01*
X145530000Y-50350000D01*
X145530000Y-51250000D01*
G37*
G36*
X128030000Y-49980000D02*
G01*
X126530000Y-49980000D01*
X126530000Y-49080000D01*
X128030000Y-49080000D01*
X128030000Y-49980000D01*
G37*
G36*
X145530000Y-49980000D02*
G01*
X144030000Y-49980000D01*
X144030000Y-49080000D01*
X145530000Y-49080000D01*
X145530000Y-49980000D01*
G37*
G36*
X119731537Y-49082224D02*
G01*
X119796421Y-49125579D01*
X119839776Y-49190463D01*
X119855000Y-49267000D01*
X119855000Y-49667000D01*
X119839776Y-49743537D01*
X119796421Y-49808421D01*
X119731537Y-49851776D01*
X119655000Y-49867000D01*
X119105000Y-49867000D01*
X119028463Y-49851776D01*
X118963579Y-49808421D01*
X118920224Y-49743537D01*
X118905000Y-49667000D01*
X118905000Y-49267000D01*
X118920224Y-49190463D01*
X118963579Y-49125579D01*
X119028463Y-49082224D01*
X119105000Y-49067000D01*
X119655000Y-49067000D01*
X119731537Y-49082224D01*
G37*
G36*
X79190552Y-49313564D02*
G01*
X79227050Y-49337950D01*
X79251436Y-49374448D01*
X79260000Y-49417500D01*
X79260000Y-49642500D01*
X79251436Y-49685552D01*
X79227050Y-49722050D01*
X79190552Y-49746436D01*
X79147500Y-49755000D01*
X78772500Y-49755000D01*
X78729448Y-49746436D01*
X78692950Y-49722050D01*
X78668564Y-49685552D01*
X78660000Y-49642500D01*
X78660000Y-49417500D01*
X78668564Y-49374448D01*
X78692950Y-49337950D01*
X78729448Y-49313564D01*
X78772500Y-49305000D01*
X79147500Y-49305000D01*
X79190552Y-49313564D01*
G37*
G36*
X81290552Y-49313564D02*
G01*
X81327050Y-49337950D01*
X81351436Y-49374448D01*
X81360000Y-49417500D01*
X81360000Y-49642500D01*
X81351436Y-49685552D01*
X81327050Y-49722050D01*
X81290552Y-49746436D01*
X81247500Y-49755000D01*
X80872500Y-49755000D01*
X80829448Y-49746436D01*
X80792950Y-49722050D01*
X80768564Y-49685552D01*
X80760000Y-49642500D01*
X80760000Y-49417500D01*
X80768564Y-49374448D01*
X80792950Y-49337950D01*
X80829448Y-49313564D01*
X80872500Y-49305000D01*
X81247500Y-49305000D01*
X81290552Y-49313564D01*
G37*
M02*
