M48
; DRILL file {KiCad 7.0.9} date 
; FORMAT={-:-/ absolute / inch / decimal}
; #@! TF.CreationDate,2024-01-16T00:09:28+01:00
; #@! TF.GenerationSoftware,Kicad,Pcbnew,7.0.9
; #@! TF.FileFunction,Plated,1,2,PTH
FMAT,2
INCH
; #@! TA.AperFunction,Plated,PTH,ViaDrill
T1C0.0118
; #@! TA.AperFunction,Plated,PTH,ViaDrill
T2C0.0157
; #@! TA.AperFunction,Plated,PTH,ComponentDrill
T3C0.0236
; #@! TA.AperFunction,Plated,PTH,ComponentDrill
T4C0.0295
; #@! TA.AperFunction,Plated,PTH,ComponentDrill
T5C0.0315
; #@! TA.AperFunction,Plated,PTH,ComponentDrill
T6C0.0394
; #@! TA.AperFunction,Plated,PTH,ComponentDrill
T7C0.0472
; #@! TA.AperFunction,Plated,PTH,ComponentDrill
T8C0.0512
%
G90
G05
T1
X2.65Y-2.15
X2.765Y-1.975
X2.83Y-3.725
X2.87Y-2.705
X2.9125Y-3.8075
X2.965Y-2.415
X2.97Y-3.705
X3.065Y-2.13
X3.085Y-2.745
X3.1Y-3.64
X3.1Y-3.685
X3.13Y-3.12
X3.18Y-3.12
X3.2Y-2.01
X3.21Y-2.25
X3.23Y-2.495
X3.24Y-3.9
X3.28Y-3.025
X3.3031Y-2.1181
X3.325Y-1.95
X3.34Y-2.34
X3.3425Y-4.0375
X3.36Y-2.56
X3.4Y-2.7
X3.41Y-2.25
X3.44Y-2.01
X3.4494Y-3.9013
X3.45Y-2.66
X3.4543Y-3.98
X3.47Y-3.77
X3.49Y-4.0
X3.5189Y-3.8289
X3.56Y-3.97
X3.57Y-3.86
X3.58Y-2.13
X3.61Y-2.4
X3.635Y-2.52
X3.6375Y-3.8575
X3.64Y-2.66
X3.65Y-2.25
X3.65Y-3.72
X3.6625Y-2.96
X3.67Y-3.8364
X3.7Y-3.18
X3.7175Y-2.975
X3.73Y-3.61
X3.735Y-3.025
X3.755Y-3.12
X3.77Y-3.61
X3.79Y-2.95
X3.81Y-1.97
X3.83Y-2.36
X3.9331Y-2.6988
X3.95Y-1.99
X3.9782Y-3.7228
X4.0Y-2.23
X4.0343Y-2.45
X4.04Y-2.34
X4.049Y-3.515
X4.064Y-3.373
X4.065Y-2.295
X4.1Y-3.2064
X4.1Y-3.3336
X4.13Y-1.945
X4.13Y-2.45
X4.13Y-3.4896
X4.14Y-2.0425
X4.14Y-3.18
X4.14Y-3.3336
X4.15Y-2.13
X4.15Y-2.59
X4.18Y-3.1564
X4.2Y-3.6394
X4.225Y-3.66
X4.245Y-3.33
X4.26Y-2.08
X4.26Y-3.29
X4.275Y-3.3492
X4.28Y-2.31
X4.285Y-3.1828
X4.3Y-3.55
X4.32Y-2.74
X4.3334Y-3.25
X4.345Y-3.355
X4.345Y-3.54
X4.3483Y-3.3183
X4.35Y-3.28
X4.36Y-2.7
X4.365Y-3.1142
X4.39Y-3.1614
X4.405Y-2.7
X4.42Y-3.1142
X4.44Y-2.64
X4.45Y-2.74
X4.4648Y-3.5152
X4.465Y-3.2848
X4.475Y-2.7
X4.525Y-3.445
X4.55Y-3.415
X4.6164Y-2.73
X4.62Y-2.47
X4.6582Y-2.7982
X4.6636Y-2.9417
X4.69Y-3.42
X4.6958Y-2.5658
X4.7267Y-2.5167
X4.7283Y-2.3683
X4.74Y-2.07
X4.7472Y-2.7033
X4.75Y-2.65
X4.75Y-2.85
X4.76Y-2.18
X4.77Y-2.0
X4.77Y-2.03
X4.7725Y-2.81
X4.7763Y-2.5763
X4.78Y-2.07
X4.83Y-2.54
X4.84Y-2.29
X4.8436Y-2.665
X4.86Y-3.45
X4.87Y-2.98
X4.8717Y-3.1017
X4.875Y-2.875
X4.88Y-4.21
X4.9083Y-2.1817
X4.91Y-2.745
X4.91Y-2.6797
X4.9164Y-2.93
X4.925Y-2.6
X4.94Y-3.04
X4.9446Y-3.1696
X4.95Y-1.9685
X4.975Y-3.005
X4.975Y-3.135
X5.01Y-2.97
X5.0336Y-2.875
X5.07Y-2.6
X5.075Y-2.9
X5.0764Y-2.6333
X5.08Y-1.97
X5.08Y-2.01
X5.08Y-2.395
X5.0964Y-2.1536
X5.1064Y-1.9983
X5.1292Y-2.9958
X5.13Y-2.12
X5.15Y-2.5728
X5.15Y-2.625
X5.155Y-2.78
X5.17Y-2.47
X5.17Y-2.53
X5.175Y-2.95
X5.175Y-3.0
X5.2Y-2.0
X5.2Y-3.2
X5.21Y-2.13
X5.21Y-2.18
X5.21Y-2.23
X5.21Y-2.925
X5.225Y-3.175
X5.2275Y-2.4275
X5.24Y-2.26
X5.25Y-2.08
X5.255Y-2.405
X5.26Y-2.895
X5.265Y-3.29
X5.275Y-3.175
X5.2792Y-2.6292
X5.29Y-3.12
X5.3Y-2.08
X5.3Y-2.26
X5.31Y-2.385
X5.325Y-2.525
X5.3317Y-2.9617
X5.3433Y-2.9933
X5.35Y-2.08
X5.35Y-2.26
X5.35Y-2.63
X5.35Y-3.325
X5.3514Y-2.895
X5.3525Y-2.5025
X5.36Y-3.14
X5.375Y-3.005
X5.38Y-2.13
X5.38Y-2.18
X5.38Y-2.23
X5.39Y-2.545
X5.39Y-3.05
X5.39Y-3.37
X5.3953Y-3.1103
X5.4Y-3.73
X5.4383Y-2.9983
X5.45Y-2.0
X5.45Y-3.95
X5.4641Y-3.8535
X5.465Y-2.465
X5.475Y-2.8
X5.49Y-3.465
X5.4925Y-2.7736
X5.5Y-2.65
X5.5041Y-3.5735
X5.506Y-3.283
X5.515Y-3.785
X5.53Y-2.95
X5.5441Y-3.9035
X5.55Y-2.1
X5.5741Y-3.8435
X5.58Y-1.99
X5.6Y-2.59
X5.6005Y-3.7835
X5.62Y-1.99
X5.6241Y-3.7235
X5.6241Y-3.8435
X5.625Y-2.26
X5.64Y-3.415
X5.65Y-3.77
X5.655Y-2.65
X5.655Y-2.775
X5.655Y-3.9
X5.68Y-3.67
X5.6941Y-3.5735
X5.71Y-3.53
X5.7141Y-3.8335
X5.72Y-3.125
X5.75Y-3.94
X5.77Y-2.96
X5.78Y-2.0
X5.79Y-3.88
T2
X2.96Y-3.59
X3.015Y-3.765
X3.026Y-3.387
X3.05Y-3.29
X3.2825Y-3.8963
X3.39Y-3.86
X3.45Y-2.375
X3.6075Y-2.2175
X3.67Y-3.785
X3.7784Y-3.9016
X3.97Y-2.13
X4.024Y-3.724
X4.235Y-3.725
X4.27Y-2.18
X4.51Y-3.09
X4.6002Y-3.1
X4.613Y-3.36
X4.679Y-3.342
X4.77Y-2.32
X4.77Y-2.49
X4.83Y-2.41
X4.84Y-3.7002
X4.86Y-3.6
T4
X3.2242Y-2.92
X3.2242Y-2.97
X3.2242Y-3.02
T5
X2.9094Y-2.1773
X2.9094Y-2.3151
X3.2189Y-2.74
X3.2976Y-2.74
X3.8937Y-2.5118
X3.9724Y-2.5118
T6
X2.68Y-3.96
X2.7064Y-2.62
X2.7064Y-3.05
X2.7507Y-4.0307
X2.82Y-3.82
X2.8214Y-4.1014
X2.8907Y-3.8907
X2.8921Y-4.1721
X2.9032Y-2.62
X2.9032Y-3.05
X2.9614Y-3.9614
X3.0321Y-4.0321
X3.4492Y-3.1002
X3.4492Y-3.2002
X3.4492Y-3.3002
X3.4492Y-3.4002
X3.4492Y-3.5002
X3.4492Y-3.6002
X3.4492Y-3.7002
X3.5492Y-3.1002
X3.5492Y-3.2002
X3.5492Y-3.3002
X3.5492Y-3.4002
X3.5492Y-3.5002
X3.5492Y-3.6002
X3.5492Y-3.7002
X3.7706Y-3.38
X3.7706Y-3.53
X3.8706Y-3.38
X3.8706Y-3.53
X3.9268Y-4.05
X3.9706Y-3.38
X3.9706Y-3.53
X4.0002Y-2.8008
X4.0002Y-2.9008
X4.1002Y-2.8008
X4.1002Y-2.9008
X4.1236Y-4.05
X4.2002Y-2.8008
X4.2002Y-2.9008
X4.3002Y-2.8008
X4.3002Y-2.9008
X4.3468Y-3.86
X4.4Y-2.21
X4.4Y-2.31
X4.4Y-2.41
X4.4002Y-2.8008
X4.4002Y-2.9008
X4.5Y-2.21
X4.5Y-2.31
X4.5Y-2.41
X4.5002Y-2.8008
X4.5002Y-2.9008
X4.5436Y-3.86
X4.6002Y-2.8008
X4.6002Y-2.9008
X5.0492Y-3.1002
X5.0492Y-3.2002
X5.0492Y-3.3002
X5.0492Y-3.4002
X5.0492Y-3.5002
X5.0492Y-3.6002
X5.0492Y-3.7002
X5.1492Y-3.1002
X5.1492Y-3.2002
X5.1492Y-3.3002
X5.1492Y-3.4002
X5.1492Y-3.5002
X5.1492Y-3.6002
X5.1492Y-3.7002
T7
X3.1213Y-2.5
X3.7213Y-2.5
T8
X2.81Y-3.38
X2.81Y-3.58
T3
G00X5.4299Y-4.0151
M15
G01X5.4299Y-4.0584
M16
G05
G00X5.4299Y-4.1895
M15
G01X5.4299Y-4.2131
M16
G05
G00X5.7701Y-4.0151
M15
G01X5.7701Y-4.0584
M16
G05
G00X5.7701Y-4.1895
M15
G01X5.7701Y-4.2131
M16
G05
T0
M30
